<svg width="463" height="424" viewBox="0 0 463 424" fill="none" xmlns="http://www.w3.org/2000/svg">
<ellipse cx="405.5" cy="66" rx="51.5" ry="51" fill="url(#paint0_linear_21_42)"/>
<circle cx="36" cy="388" r="36" fill="url(#paint1_linear_21_42)"/>
<circle cx="446.5" cy="7.5" r="7.5" fill="url(#paint2_linear_21_42)"/>
<path d="M463 354.005H14V354.23H463V354.005Z" fill="#E6E6E6"/>
<path d="M109.179 364.656H60.3817V364.88H109.179V364.656Z" fill="#E6E6E6"/>
<path d="M239.398 359.779H221.025V360.004H239.398V359.779Z" fill="#E6E6E6"/>
<path d="M176.789 359.779H149.903V360.004H176.789V359.779Z" fill="#E6E6E6"/>
<path d="M399.161 362.365H342.282V362.59H399.161V362.365Z" fill="#E6E6E6"/>
<path d="M228.82 362.365H215.987V362.59H228.82V362.365Z" fill="#E6E6E6"/>
<path d="M129.842 364.656H117.872V364.88H129.842V364.656Z" fill="#E6E6E6"/>
<path d="M414.14 362.365H406.498V362.59H414.14V362.365Z" fill="#E6E6E6"/>
<path d="M226.826 313.954H53.4312C52.0729 313.952 50.7709 313.411 49.8113 312.449C48.8516 311.488 48.3126 310.185 48.3126 308.827V65.0827C48.3244 63.7321 48.8687 62.4407 49.827 61.4891C50.7854 60.5374 52.0806 60.0023 53.4312 60H226.826C228.186 60 229.49 60.5402 230.452 61.5018C231.413 62.4634 231.954 63.7677 231.954 65.1276V308.827C231.954 310.187 231.413 311.491 230.452 312.453C229.49 313.414 228.186 313.954 226.826 313.954ZM53.4312 60.1796C52.1324 60.182 50.8876 60.6996 49.97 61.6188C49.0525 62.5381 48.5371 63.7839 48.5371 65.0827V308.827C48.5371 310.126 49.0525 311.371 49.97 312.291C50.8876 313.21 52.1324 313.727 53.4312 313.73H226.826C228.126 313.727 229.371 313.21 230.29 312.291C231.209 311.372 231.727 310.126 231.729 308.827V65.0827C231.727 63.783 231.209 62.5373 230.29 61.6183C229.371 60.6993 228.126 60.182 226.826 60.1796H53.4312Z" fill="#E6E6E6"/>
<path d="M421.072 313.954H247.669C246.309 313.952 245.007 313.411 244.045 312.45C243.084 311.489 242.543 310.186 242.541 308.827V65.0827C242.555 63.7313 243.101 62.4399 244.061 61.4885C245.021 60.5371 246.317 60.0023 247.669 60H421.072C422.421 60.0047 423.714 60.5408 424.671 61.4922C425.627 62.4436 426.17 63.7337 426.182 65.0827V308.827C426.182 310.184 425.644 311.485 424.687 312.446C423.729 313.407 422.429 313.95 421.072 313.954ZM247.669 60.1796C246.369 60.182 245.123 60.6993 244.204 61.6183C243.285 62.5373 242.768 63.783 242.766 65.0827V308.827C242.768 310.126 243.285 311.372 244.204 312.291C245.123 313.21 246.369 313.727 247.669 313.73H421.072C422.372 313.727 423.618 313.21 424.537 312.291C425.456 311.372 425.973 310.126 425.975 308.827V65.0827C425.973 63.783 425.456 62.5373 424.537 61.6183C423.618 60.6993 422.372 60.182 421.072 60.1796H247.669Z" fill="#E6E6E6"/>
<path d="M384.12 87.4429H183.964V203.788H384.12V87.4429Z" fill="#E6E6E6"/>
<path d="M386.823 87.4429H186.667V203.788H386.823V87.4429Z" fill="#F5F5F5"/>
<path d="M381.964 198.328V92.9027L191.526 92.9027V198.328H381.964Z" fill="white"/>
<path d="M381.973 198.328V92.9027H379.926V198.328H381.973Z" fill="#E6E6E6"/>
<path d="M384.82 165.56H188.679V172.888H384.82V165.56Z" fill="#F5F5F5"/>
<path d="M241.194 276.517H208.327V349.389H241.194V276.517Z" fill="#E6E6E6"/>
<path d="M359.317 349.39H214.631V354.005H359.317V349.39Z" fill="#E6E6E6"/>
<path d="M241.185 349.39H365.63V276.517H241.185V349.39Z" fill="#F5F5F5"/>
<path d="M254.116 309.384H352.717V285.488H254.116V309.384Z" fill="#E6E6E6"/>
<path d="M254.116 340.409H352.717V316.514H254.116V340.409Z" fill="#E6E6E6"/>
<path d="M318.198 295.797H288.635C287.837 295.797 287.19 296.444 287.19 297.243V297.629C287.19 298.427 287.837 299.075 288.635 299.075H318.198C318.996 299.075 319.643 298.427 319.643 297.629V297.243C319.643 296.444 318.996 295.797 318.198 295.797Z" fill="#F5F5F5"/>
<path d="M318.198 326.832H288.635C287.837 326.832 287.19 327.479 287.19 328.278V328.664C287.19 329.462 287.837 330.109 288.635 330.109H318.198C318.996 330.109 319.643 329.462 319.643 328.664V328.278C319.643 327.479 318.996 326.832 318.198 326.832Z" fill="#F5F5F5"/>
<path d="M142.755 354.005H72.7382L63.0847 121.719H133.102L142.755 354.005Z" fill="#E6E6E6"/>
<path d="M152.894 354.005H74.5342L64.8807 121.719H143.24L152.894 354.005Z" fill="#F5F5F5"/>
<path d="M82.2749 345.923L73.2949 129.802H135.49L144.479 345.923H82.2749Z" fill="white"/>
<path d="M269.867 265.274C270.765 240.74 271.663 206.751 269.768 194.449L266.67 192.051C266.67 192.051 267.344 194.341 267.703 231.931C268.062 269.521 268.502 259.688 268.125 265.274H269.867Z" fill="#E0E0E0"/>
<path d="M275.632 184.005C281.362 176.237 293.422 170.714 305.913 170.741C310.816 170.741 291.311 179.775 283.418 189.734C277.285 197.466 270.523 210.478 268.314 217.698C269.373 202.504 269.93 191.763 275.632 184.005Z" fill="#E0E0E0"/>
<path d="M264.138 204.237C258.876 196.155 247.157 189.932 234.693 189.231C229.798 188.953 248.737 199.109 256.038 209.499C261.704 217.581 267.712 230.961 269.508 238.307C269.31 223.077 269.409 212.328 264.138 204.237Z" fill="#E0E0E0"/>
<path d="M266.491 171.038C261.695 161.609 250.506 152.512 238.338 148.812C233.552 147.357 253.371 163.952 259.037 176.65C263.437 186.528 268.772 198.938 270.172 206.778C270.693 191.314 271.277 180.476 266.491 171.038Z" fill="#E0E0E0"/>
<path d="M268.709 276.517C271.624 276.516 274.429 275.4 276.547 273.395C278.665 271.391 279.935 268.652 280.095 265.741L281.101 248.23H256.316L257.331 265.741C257.49 268.651 258.757 271.39 260.874 273.395C262.99 275.399 265.794 276.516 268.709 276.517Z" fill="#F0F0F0"/>
<path d="M254.718 252.226H282.709L283.508 244.961H253.91L254.718 252.226Z" fill="#EBEBEB"/>
<path d="M373.712 131.984H392.247V81.6958H373.712V131.984Z" fill="#E6E6E6"/>
<path d="M373.712 81.7047H364.525V127.952H373.712V81.7047Z" fill="#F5F5F5"/>
<path d="M345.991 131.984H364.525V81.6958H345.991V131.984Z" fill="#E6E6E6"/>
<path d="M345.991 81.7047H336.804V127.952H345.991V81.7047Z" fill="#F5F5F5"/>
<path d="M318.269 131.984H336.804V81.6958H318.269V131.984Z" fill="#E6E6E6"/>
<path d="M318.269 81.7047H309.083V127.952H318.269V81.7047Z" fill="#F5F5F5"/>
<path d="M290.539 131.984H309.074V81.6958H290.539V131.984Z" fill="#E6E6E6"/>
<path d="M290.539 81.7047H281.353V127.952H290.539V81.7047Z" fill="#F5F5F5"/>
<path d="M262.827 131.984H281.362V81.6958H262.827V131.984Z" fill="#E6E6E6"/>
<path d="M262.818 81.7047H253.631V127.952H262.818V81.7047Z" fill="#F5F5F5"/>
<path d="M235.097 131.984H253.631V81.6958H235.097V131.984Z" fill="#E6E6E6"/>
<path d="M235.097 81.7047H225.91V127.952H235.097V81.7047Z" fill="#F5F5F5"/>
<path d="M207.375 131.984H225.91V81.6958H207.375V131.984Z" fill="#E6E6E6"/>
<path d="M207.375 81.7047H198.189V127.952H207.375V81.7047Z" fill="#F5F5F5"/>
<path d="M179.654 131.984H198.189V81.6958H179.654V131.984Z" fill="#E6E6E6"/>
<path d="M238.5 394.559C334.66 394.559 412.613 390.008 412.613 384.393C412.613 378.779 334.66 374.228 238.5 374.228C142.34 374.228 64.3867 378.779 64.3867 384.393C64.3867 390.008 142.34 394.559 238.5 394.559Z" fill="#F5F5F5"/>
<path d="M330.473 207.748L334.29 213.585L339.965 212.408L335.682 205.152L330.473 207.748Z" fill="#9F5B53"/>
<path d="M341.294 157.72C342.102 158.699 342.776 159.57 343.467 160.522C344.159 161.474 344.823 162.39 345.479 163.342C346.79 165.237 348.038 167.185 349.205 169.188C350.373 171.19 351.504 173.238 352.492 175.384C353.022 176.435 353.471 177.548 353.956 178.635C354.441 179.721 354.854 180.862 355.204 182.038L355.491 182.936L355.635 183.376C355.716 183.637 355.797 183.915 355.851 184.175C356.048 185.108 356.115 186.063 356.048 187.013C355.93 188.502 355.606 189.968 355.087 191.368C354.208 193.703 353.082 195.936 351.729 198.032C349.207 201.921 346.281 205.533 343 208.808L339.076 205.736C341.234 202.054 343.206 198.266 344.985 194.386C345.802 192.614 346.454 190.772 346.933 188.881C347.112 188.171 347.194 187.44 347.176 186.708C347.175 186.553 347.141 186.4 347.077 186.259L346.933 185.918L346.637 185.235C344.956 181.457 342.974 177.821 340.71 174.36C339.579 172.564 338.385 170.831 337.181 169.08C335.978 167.329 334.667 165.578 333.481 163.988L341.294 157.72Z" fill="#9F5B53"/>
<path d="M339.076 153.302C345.263 154.721 352.357 171.576 352.357 171.576L339.974 180.089C336.882 175.659 334.138 170.997 331.766 166.143C328.093 158.43 332.79 151.856 339.076 153.302Z" fill="#50F7BB"/>
<path opacity="0.8" d="M339.076 153.302C345.263 154.721 352.357 171.576 352.357 171.576L339.974 180.089C336.882 175.659 334.138 170.997 331.766 166.143C328.093 158.43 332.79 151.856 339.076 153.302Z" fill="white"/>
<path d="M334.676 164.051L340.549 179.685L339.965 180.089C339.965 180.089 337.424 176.497 334.676 171.711V164.051Z" fill="#50F7BB"/>
<path opacity="0.6" d="M334.676 164.051L340.549 179.685L339.965 180.089C339.965 180.089 337.424 176.497 334.676 171.711V164.051Z" fill="white"/>
<path d="M318.997 378.467H312.396L311.741 363.192H318.341L318.997 378.467Z" fill="#9F5B53"/>
<path d="M358.607 378.467H352.007L348.693 363.192H355.285L358.607 378.467Z" fill="#9F5B53"/>
<path d="M311.741 363.2L312.082 371.067H318.682L318.341 363.2H311.741Z" fill="#8A4743"/>
<path d="M355.294 363.2H348.693L350.4 371.067H357L355.294 363.2Z" fill="#8A4743"/>
<path d="M314.273 210.666C314.273 210.666 321.763 261.08 325.866 279.965C330.356 300.619 347.329 369.549 347.329 369.549H359.416C359.416 369.549 348.227 302.316 345.658 281.806C342.874 259.58 337.046 210.63 337.046 210.63L314.273 210.666Z" fill="#50F7BB"/>
<path opacity="0.5" d="M314.273 210.666C314.273 210.666 321.763 261.08 325.866 279.965C330.356 300.619 347.329 369.549 347.329 369.549H359.416C359.416 369.549 348.227 302.316 345.658 281.806C342.874 259.58 337.046 210.63 337.046 210.63L314.273 210.666Z" fill="black"/>
<path opacity="0.4" d="M319.006 228.626C327.662 230.324 326.746 262.607 325.705 279.211C323.208 267.474 319.553 244.889 317.057 228.86C317.661 228.562 318.348 228.48 319.006 228.626Z" fill="black"/>
<path d="M301.755 210.666C301.755 210.666 300.857 259.985 301.566 280.109C302.312 301.032 309.648 369.55 309.648 369.55H320.82C320.82 369.55 321.233 302.253 321.718 281.707C322.256 259.302 324.959 210.666 324.959 210.666H301.755Z" fill="#50F7BB"/>
<path opacity="0.5" d="M301.755 210.666C301.755 210.666 300.857 259.985 301.566 280.109C302.312 301.032 309.648 369.55 309.648 369.55H320.82C320.82 369.55 321.233 302.253 321.718 281.707C322.256 259.302 324.959 210.666 324.959 210.666H301.755Z" fill="black"/>
<path d="M340.504 204.326L335.682 205.153L339.965 212.408C339.965 212.408 343.324 210.792 343.934 207.658L340.504 204.326Z" fill="#9F5B53"/>
<path d="M308.634 128.787C308.634 129.316 308.355 129.747 308.005 129.747C307.655 129.747 307.377 129.316 307.377 128.787C307.377 128.257 307.655 127.826 308.005 127.826C308.355 127.826 308.634 128.248 308.634 128.787Z" fill="#263238"/>
<path d="M308.4 129.747C307.765 131.374 306.91 132.906 305.859 134.3C306.222 134.56 306.638 134.737 307.077 134.82C307.516 134.902 307.968 134.887 308.4 134.776V129.747Z" fill="#892B29"/>
<path d="M310.52 125.841C310.454 125.842 310.391 125.82 310.34 125.778C310.028 125.538 309.663 125.376 309.275 125.306C308.888 125.236 308.489 125.259 308.113 125.374C308.075 125.389 308.035 125.395 307.995 125.394C307.954 125.393 307.915 125.384 307.878 125.367C307.841 125.35 307.808 125.326 307.781 125.297C307.753 125.267 307.732 125.233 307.718 125.195C307.702 125.157 307.694 125.117 307.693 125.076C307.693 125.035 307.702 124.994 307.718 124.956C307.733 124.919 307.757 124.885 307.786 124.856C307.815 124.828 307.85 124.805 307.888 124.791C308.361 124.638 308.864 124.602 309.353 124.687C309.843 124.771 310.305 124.973 310.699 125.275C310.734 125.298 310.763 125.327 310.786 125.362C310.808 125.396 310.823 125.435 310.83 125.475C310.837 125.516 310.835 125.557 310.825 125.597C310.815 125.637 310.796 125.674 310.771 125.707C310.744 125.749 310.707 125.784 310.663 125.807C310.619 125.831 310.57 125.843 310.52 125.841Z" fill="#263238"/>
<path d="M325.813 134.92C324.861 139.751 323.918 148.587 327.294 151.811C327.294 151.811 325.974 156.705 317.003 156.705C307.125 156.705 312.298 151.811 312.298 151.811C317.686 150.527 317.542 146.531 316.599 142.786L325.813 134.92Z" fill="#9F5B53"/>
<path d="M328.587 153.491C329.297 151.946 330.069 150.168 328.462 149.611C326.666 149.001 316.994 148.381 313.654 149.521C313.213 149.644 312.801 149.852 312.441 150.134C312.082 150.417 311.782 150.768 311.559 151.167C311.336 151.566 311.194 152.006 311.142 152.46C311.09 152.914 311.129 153.375 311.256 153.814L328.587 153.491Z" fill="#50F7BB"/>
<path d="M349.358 378.79C349.079 378.827 348.796 378.808 348.524 378.734C348.253 378.66 347.999 378.532 347.778 378.359C347.698 378.251 347.655 378.12 347.655 377.986C347.655 377.852 347.698 377.721 347.778 377.613C347.827 377.521 347.896 377.44 347.98 377.376C348.063 377.313 348.16 377.268 348.262 377.245C349.232 377.03 351.046 378.269 351.127 378.323C351.152 378.341 351.171 378.366 351.182 378.395C351.193 378.423 351.196 378.454 351.19 378.484C351.185 378.514 351.171 378.54 351.15 378.561C351.129 378.582 351.102 378.596 351.073 378.601C350.509 378.723 349.935 378.786 349.358 378.79ZM348.541 377.533H348.343C348.282 377.545 348.225 377.571 348.176 377.608C348.126 377.646 348.085 377.693 348.056 377.748C347.912 378 348.002 378.107 348.056 378.143C348.334 378.52 349.681 378.52 350.669 378.359C350.029 377.934 349.302 377.658 348.541 377.551V377.533Z" fill="#50F7BB"/>
<path d="M351.046 378.628H350.974C350.292 378.251 348.972 376.832 349.107 376.078C349.13 375.961 349.192 375.856 349.284 375.781C349.376 375.706 349.491 375.665 349.609 375.665C349.728 375.652 349.848 375.663 349.962 375.697C350.076 375.731 350.182 375.787 350.274 375.862C351.037 376.491 351.172 378.395 351.172 378.475C351.176 378.504 351.171 378.533 351.158 378.558C351.145 378.584 351.125 378.605 351.1 378.619C351.083 378.626 351.065 378.629 351.046 378.628ZM349.717 375.934H349.645C349.439 375.934 349.421 376.06 349.412 376.096C349.331 376.536 350.175 377.622 350.849 378.134C350.802 377.384 350.533 376.666 350.076 376.069C349.973 375.991 349.847 375.949 349.717 375.952V375.934Z" fill="#50F7BB"/>
<path d="M309.747 378.79C308.903 378.79 308.086 378.673 307.808 378.296C307.738 378.196 307.701 378.077 307.701 377.955C307.701 377.833 307.738 377.714 307.808 377.613C307.859 377.521 307.93 377.44 308.015 377.377C308.1 377.313 308.198 377.268 308.301 377.245C309.388 376.949 311.705 378.26 311.804 378.314C311.83 378.331 311.851 378.355 311.864 378.384C311.876 378.413 311.88 378.444 311.875 378.475C311.872 378.507 311.857 378.537 311.834 378.56C311.812 378.583 311.782 378.597 311.75 378.601C311.09 378.726 310.419 378.789 309.747 378.79ZM308.697 377.515C308.598 377.5 308.498 377.5 308.4 377.515C308.337 377.527 308.277 377.553 308.225 377.59C308.172 377.627 308.128 377.675 308.095 377.73C307.987 377.928 308.023 378.018 308.095 378.071C308.4 378.484 310.062 378.511 311.301 378.341C310.493 377.905 309.609 377.63 308.697 377.533V377.515Z" fill="#50F7BB"/>
<path d="M311.741 378.628H311.678C310.879 378.278 309.307 376.832 309.424 376.105C309.424 375.925 309.577 375.71 310.008 375.665C310.168 375.64 310.332 375.652 310.487 375.699C310.642 375.745 310.785 375.826 310.906 375.934C311.75 376.617 311.92 378.395 311.929 378.476C311.933 378.503 311.929 378.531 311.918 378.556C311.907 378.581 311.889 378.603 311.867 378.619C311.847 378.63 311.826 378.636 311.805 378.637C311.783 378.639 311.761 378.636 311.741 378.628ZM310.133 375.934H310.035C309.756 375.934 309.738 376.078 309.729 376.114C309.657 376.563 310.735 377.685 311.525 378.17C311.448 377.416 311.133 376.705 310.627 376.141C310.49 376.022 310.315 375.956 310.133 375.952V375.934Z" fill="#50F7BB"/>
<path d="M351.54 377.703H358.949C359.081 377.704 359.209 377.75 359.312 377.833C359.415 377.917 359.486 378.032 359.514 378.161L360.817 384.025C360.846 384.168 360.843 384.316 360.808 384.457C360.773 384.599 360.706 384.731 360.613 384.843C360.52 384.955 360.403 385.045 360.27 385.105C360.137 385.166 359.993 385.196 359.847 385.193C357.26 385.148 356.003 384.995 352.744 384.995C350.741 384.995 346.61 385.211 343.835 385.211C341.061 385.211 340.71 382.517 341.842 382.22C346.924 381.107 348.837 379.571 350.472 378.116C350.763 377.848 351.145 377.701 351.54 377.703Z" fill="#263238"/>
<path d="M312.441 377.703H319.625C319.757 377.704 319.885 377.75 319.988 377.833C320.091 377.917 320.163 378.032 320.191 378.161L321.493 384.025C321.524 384.167 321.523 384.313 321.489 384.454C321.456 384.595 321.391 384.727 321.299 384.839C321.208 384.951 321.092 385.042 320.961 385.103C320.83 385.164 320.686 385.195 320.541 385.193C317.946 385.148 314.192 384.995 310.924 384.995C307.107 384.995 303.803 385.211 299.321 385.211C296.627 385.211 295.864 382.517 296.996 382.22C302.159 381.089 306.371 380.972 310.834 378.224C311.309 377.901 311.867 377.72 312.441 377.703Z" fill="#263238"/>
<path d="M303.021 166.799C300.408 170.66 297.705 174.261 294.787 177.835C291.872 181.446 288.753 184.888 285.447 188.144L284.154 189.366L283.822 189.671L283.598 189.877L283.265 190.165C282.839 190.501 282.385 190.801 281.909 191.063C280.393 191.86 278.725 192.325 277.015 192.428C274.406 192.59 271.787 192.375 269.239 191.79C264.622 190.768 260.144 189.194 255.903 187.103L257.547 182.433C261.755 183.27 266.01 183.849 270.289 184.166C272.168 184.319 274.059 184.241 275.92 183.933C276.453 183.855 276.963 183.659 277.41 183.358V183.295L277.473 183.223L277.743 182.927L278.802 181.76C281.613 178.554 284.334 175.15 286.974 171.657C289.614 168.164 292.254 164.608 294.778 161.115L303.021 166.799Z" fill="#9F5B53"/>
<path d="M306.065 167.832C305.147 173.403 302.74 178.622 299.097 182.936C298.953 179.775 298.899 176.938 298.908 174.396L306.065 167.832Z" fill="#96FFD9"/>
<path d="M326.378 127.655C325.983 134.193 326.082 138.036 322.786 141.394C317.82 146.441 309.756 143.442 308.194 136.904C306.793 131.032 307.682 121.333 314.085 118.729C315.493 118.15 317.026 117.941 318.538 118.122C320.049 118.303 321.49 118.868 322.722 119.762C323.954 120.657 324.936 121.852 325.576 123.233C326.216 124.615 326.492 126.137 326.378 127.655Z" fill="#9F5B53"/>
<path d="M313.68 123.309C313.734 130.996 316.231 140.425 323.666 139.769C328.605 139.338 332.359 130.331 332.871 126.515C333.652 120.678 333.769 119.564 330.482 118.891C331.919 118.109 332.44 114.401 329.081 113.503C324.412 112.272 315.611 111.069 318.377 108.222C312.863 109.219 311.48 111.428 312.486 114.113C309.262 113.862 307.278 112.174 307.377 109.623C302.033 111.787 298.567 124.027 313.68 123.309Z" fill="#263238"/>
<path d="M317.524 129.559C317.16 131.144 316.282 132.565 315.028 133.6C313.366 134.947 312.037 133.744 312.073 131.804C312.073 130.053 313.025 127.242 314.893 126.649C316.761 126.057 317.982 127.646 317.524 129.559Z" fill="#9F5B53"/>
<path d="M335.484 120.229C334.605 119.669 333.601 119.337 332.561 119.261C331.522 119.186 330.481 119.37 329.53 119.798C329.53 119.798 333.266 114.778 335.484 120.229Z" fill="#263238"/>
<path d="M345.362 365.095C345.308 365.095 346.61 369.738 346.61 369.738H360.206L359.954 365.598L345.362 365.095Z" fill="#50F7BB"/>
<path d="M307.475 365.095C307.421 365.095 308.104 369.738 308.104 369.738H321.7L322.068 365.598L307.475 365.095Z" fill="#50F7BB"/>
<path d="M311.947 361.521C311.92 361.521 311.894 361.511 311.874 361.493C311.854 361.475 311.842 361.449 311.84 361.422C309.864 342.457 305.221 296.569 304.656 280.109C304.054 263.307 304.602 225.609 304.781 214.456C304.781 214.393 304.835 214.357 304.898 214.348C304.926 214.35 304.952 214.362 304.972 214.382C304.992 214.402 305.004 214.428 305.006 214.456C304.826 225.609 304.278 263.307 304.88 280.1C305.464 296.56 310.106 342.43 312.064 361.396C312.064 361.426 312.054 361.455 312.034 361.479C312.014 361.502 311.986 361.517 311.956 361.521H311.947Z" fill="#50F7BB"/>
<path opacity="0.3" d="M311.947 361.521C311.92 361.521 311.894 361.511 311.874 361.493C311.854 361.475 311.842 361.449 311.84 361.422C309.864 342.457 305.221 296.569 304.656 280.109C304.054 263.307 304.602 225.609 304.781 214.456C304.781 214.393 304.835 214.357 304.898 214.348C304.926 214.35 304.952 214.362 304.972 214.382C304.992 214.402 305.004 214.428 305.006 214.456C304.826 225.609 304.278 263.307 304.88 280.1C305.464 296.56 310.106 342.43 312.064 361.396C312.064 361.426 312.054 361.455 312.034 361.479C312.014 361.502 311.986 361.517 311.956 361.521H311.947Z" fill="black"/>
<path d="M309.11 158.986C310.008 165.272 297.669 181.194 297.669 181.194L285.304 172.681C285.304 172.681 288.734 163.889 294.508 158.124C301.1 151.596 308.158 152.189 309.11 158.986Z" fill="#50F7BB"/>
<path opacity="0.8" d="M309.11 158.986C310.008 165.272 297.669 181.194 297.669 181.194L285.304 172.681C285.304 172.681 288.734 163.889 294.508 158.124C301.1 151.596 308.158 152.189 309.11 158.986Z" fill="white"/>
<path d="M302.15 153.643C302.15 153.643 295.128 161.573 301.755 210.666H337.046C337.289 205.278 333.886 178.823 339.103 153.302C335.203 152.551 331.258 152.053 327.294 151.811C322.299 151.524 317.292 151.524 312.298 151.811C308.873 152.156 305.48 152.769 302.15 153.643Z" fill="#50F7BB"/>
<path opacity="0.8" d="M302.15 153.643C302.15 153.643 295.128 161.573 301.755 210.666H337.046C337.289 205.278 333.886 178.823 339.103 153.302C335.203 152.551 331.258 152.053 327.294 151.811C322.299 151.524 317.292 151.524 312.298 151.811C308.873 152.156 305.48 152.769 302.15 153.643Z" fill="white"/>
<path d="M198.323 117.602C201.141 105.186 193.361 92.8372 180.946 90.0189C168.531 87.2005 156.182 94.9802 153.363 107.395C150.545 119.811 158.325 132.16 170.74 134.978C183.155 137.797 195.504 130.017 198.323 117.602Z" fill="#50F7BB"/>
<path opacity="0.2" d="M198.323 117.602C201.141 105.186 193.361 92.8372 180.946 90.0189C168.531 87.2005 156.182 94.9802 153.363 107.395C150.545 119.811 158.325 132.16 170.74 134.978C183.155 137.797 195.504 130.017 198.323 117.602Z" fill="white"/>
<path d="M173.476 142.391C167.513 141.931 161.827 139.69 157.153 135.959C152.479 132.229 149.034 127.18 147.263 121.468L148.116 121.199C149.835 126.739 153.178 131.636 157.713 135.255C162.247 138.874 167.764 141.047 173.548 141.493L173.476 142.391Z" fill="#50F7BB"/>
<path opacity="0.2" d="M173.476 142.391C167.513 141.931 161.827 139.69 157.153 135.959C152.479 132.229 149.034 127.18 147.263 121.468L148.116 121.199C149.835 126.739 153.178 131.636 157.713 135.255C162.247 138.874 167.764 141.047 173.548 141.493L173.476 142.391Z" fill="white"/>
<path d="M147.991 104.199L147.093 103.948C148.25 100.08 150.177 96.486 152.758 93.3812C155.339 90.2765 158.52 87.725 162.111 85.88C165.702 84.035 169.629 82.9344 173.656 82.6444C177.683 82.3543 181.727 82.8807 185.545 84.1919L185.258 85.045C181.551 83.7743 177.626 83.2654 173.718 83.5488C169.81 83.8322 165.999 84.902 162.515 86.6942C159.03 88.4863 155.944 90.9638 153.44 93.978C150.937 96.9922 149.068 100.481 147.946 104.235L147.991 104.199Z" fill="#50F7BB"/>
<path opacity="0.2" d="M147.991 104.199L147.093 103.948C148.25 100.08 150.177 96.486 152.758 93.3812C155.339 90.2765 158.52 87.725 162.111 85.88C165.702 84.035 169.629 82.9344 173.656 82.6444C177.683 82.3543 181.727 82.8807 185.545 84.1919L185.258 85.045C181.551 83.7743 177.626 83.2654 173.718 83.5488C169.81 83.8322 165.999 84.902 162.515 86.6942C159.03 88.4863 155.944 90.9638 153.44 93.978C150.937 96.9922 149.068 100.481 147.946 104.235L147.991 104.199Z" fill="white"/>
<path d="M203.604 103.813C201.504 97.0992 197.036 91.377 191.032 87.7121L191.499 86.9398C197.683 90.7246 202.284 96.6242 204.448 103.544L203.604 103.813Z" fill="#50F7BB"/>
<path opacity="0.2" d="M203.604 103.813C201.504 97.0992 197.036 91.377 191.032 87.7121L191.499 86.9398C197.683 90.7246 202.284 96.6242 204.448 103.544L203.604 103.813Z" fill="white"/>
<path d="M198.333 181.233C201.151 168.818 193.372 156.469 180.956 153.651C168.541 150.832 156.192 158.612 153.374 171.027C150.555 183.442 158.335 195.792 170.75 198.61C183.165 201.428 195.515 193.649 198.333 181.233Z" fill="#50F7BB"/>
<path opacity="0.6" d="M198.333 181.233C201.151 168.818 193.372 156.469 180.956 153.651C168.541 150.832 156.192 158.612 153.374 171.027C150.555 183.442 158.335 195.792 170.75 198.61C183.165 201.428 195.515 193.649 198.333 181.233Z" fill="white"/>
<path d="M198.326 244.863C201.144 232.447 193.364 220.098 180.949 217.28C168.534 214.461 156.185 222.241 153.366 234.656C150.548 247.072 158.328 259.421 170.743 262.239C183.158 265.058 195.507 257.278 198.326 244.863Z" fill="#50F7BB"/>
<path opacity="0.6" d="M198.326 244.863C201.144 232.447 193.364 220.098 180.949 217.28C168.534 214.461 156.185 222.241 153.366 234.656C150.548 247.072 158.328 259.421 170.743 262.239C183.158 265.058 195.507 257.278 198.326 244.863Z" fill="white"/>
<path d="M198.327 308.503C201.145 296.088 193.366 283.739 180.95 280.92C168.535 278.102 156.186 285.882 153.368 298.297C150.549 310.712 158.329 323.061 170.744 325.88C183.159 328.698 195.509 320.918 198.327 308.503Z" fill="#50F7BB"/>
<path opacity="0.6" d="M198.327 308.503C201.145 296.088 193.366 283.739 180.95 280.92C168.535 278.102 156.186 285.882 153.368 298.297C150.549 310.712 158.329 323.061 170.744 325.88C183.159 328.698 195.509 320.918 198.327 308.503Z" fill="white"/>
<path d="M134.693 117.594C137.511 105.179 129.732 92.83 117.316 90.0117C104.901 87.1933 92.552 94.973 89.7336 107.388C86.9152 119.803 94.695 132.153 107.11 134.971C119.525 137.789 131.875 130.01 134.693 117.594Z" fill="#50F7BB"/>
<path opacity="0.6" d="M134.693 117.594C137.511 105.179 129.732 92.83 117.316 90.0117C104.901 87.1933 92.552 94.973 89.7336 107.388C86.9152 119.803 94.695 132.153 107.11 134.971C119.525 137.789 131.875 130.01 134.693 117.594Z" fill="white"/>
<path d="M134.703 181.235C137.522 168.82 129.742 156.47 117.327 153.652C104.912 150.834 92.5624 158.613 89.744 171.029C86.9256 183.444 94.7054 195.793 107.121 198.611C119.536 201.43 131.885 193.65 134.703 181.235Z" fill="#50F7BB"/>
<path opacity="0.6" d="M134.703 181.235C137.522 168.82 129.742 156.47 117.327 153.652C104.912 150.834 92.5624 158.613 89.744 171.029C86.9256 183.444 94.7054 195.793 107.121 198.611C119.536 201.43 131.885 193.65 134.703 181.235Z" fill="white"/>
<path d="M134.696 244.864C137.514 232.449 129.735 220.1 117.32 217.282C104.904 214.463 92.5551 222.243 89.7367 234.658C86.9183 247.073 94.698 259.423 107.113 262.241C119.528 265.059 131.878 257.28 134.696 244.864Z" fill="#50F7BB"/>
<path opacity="0.6" d="M134.696 244.864C137.514 232.449 129.735 220.1 117.32 217.282C104.904 214.463 92.5551 222.243 89.7367 234.658C86.9183 247.073 94.698 259.423 107.113 262.241C119.528 265.059 131.878 257.28 134.696 244.864Z" fill="white"/>
<path d="M134.698 308.496C137.516 296.081 129.736 283.731 117.321 280.913C104.906 278.095 92.5565 285.874 89.7381 298.29C86.9198 310.705 94.6995 323.054 107.115 325.872C119.53 328.691 131.879 320.911 134.698 308.496Z" fill="#50F7BB"/>
<path opacity="0.6" d="M134.698 308.496C137.516 296.081 129.736 283.731 117.321 280.913C104.906 278.095 92.5565 285.874 89.7381 298.29C86.9198 310.705 94.6995 323.054 107.115 325.872C119.53 328.691 131.879 320.911 134.698 308.496Z" fill="white"/>
<path d="M258.436 182.918L253.595 177.908L248.432 184.571C248.432 184.571 252.365 188.36 257.044 187.265L258.436 182.918Z" fill="#9F5B53"/>
<path d="M246.941 175.16L244.732 182.146L248.432 184.571L253.595 177.908L246.941 175.16Z" fill="#9F5B53"/>
<path d="M181.028 175.537C181.428 174.347 182.081 173.259 182.942 172.346C183.803 171.433 184.852 170.717 186.016 170.248C187.179 169.779 188.431 169.567 189.684 169.627C190.938 169.688 192.163 170.019 193.277 170.598L187.889 167.796C185.894 166.788 184.352 165.066 183.57 162.973C182.788 160.879 182.823 158.568 183.668 156.499C184.146 155.409 184.843 154.428 185.715 153.617C186.588 152.806 187.617 152.183 188.74 151.786C189.862 151.388 191.055 151.226 192.243 151.307C193.431 151.389 194.59 151.713 195.647 152.261L190.259 149.468C188.263 148.46 186.719 146.736 185.937 144.641C185.155 142.545 185.191 140.232 186.039 138.162C186.516 137.062 187.215 136.072 188.093 135.255C188.971 134.438 190.009 133.811 191.14 133.414C192.272 133.017 193.473 132.858 194.669 132.947C195.865 133.036 197.03 133.372 198.09 133.932L172.506 120.552C170.624 119.611 169.138 118.031 168.315 116.094C167.492 114.157 167.386 111.991 168.016 109.983C168.419 108.794 169.073 107.706 169.935 106.794C170.797 105.882 171.846 105.167 173.011 104.698C174.175 104.229 175.426 104.017 176.68 104.077C177.933 104.137 179.159 104.466 180.274 105.044L234.154 133.214L228.622 110.513C228.077 108.232 228.418 105.829 229.575 103.79C230.733 101.751 232.621 100.227 234.859 99.526C237.096 98.825 239.517 98.9991 241.631 100.013C243.745 101.027 245.396 102.806 246.25 104.99L263.922 150.896C265.436 154.819 268.324 158.059 272.049 160.01L275.129 161.618C275.601 161.864 276.02 162.201 276.362 162.609C276.703 163.018 276.96 163.489 277.119 163.998C277.278 164.506 277.334 165.04 277.285 165.57C277.237 166.1 277.084 166.616 276.836 167.087L255.284 208.26C254.785 209.211 253.929 209.926 252.904 210.248C251.878 210.569 250.768 210.471 249.815 209.975L242.254 206.024C239.39 204.554 236.18 203.89 232.968 204.102C225.202 204.536 217.463 202.86 210.572 199.253L185.428 186.106C183.562 185.151 182.096 183.564 181.29 181.628C180.484 179.693 180.391 177.534 181.028 175.537Z" fill="#50F7BB"/>
<path d="M251.737 211.762C250.867 211.763 250.011 211.553 249.24 211.151L241.679 207.2C239.03 205.844 236.065 205.223 233.094 205.404C225.086 205.853 217.105 204.128 209.997 200.411L184.853 187.265C182.7 186.162 181.006 184.333 180.074 182.1C179.142 179.867 179.031 177.376 179.762 175.07C180.223 173.694 180.979 172.435 181.976 171.38C182.973 170.326 184.188 169.501 185.536 168.963C185.901 168.812 186.276 168.686 186.658 168.586C184.559 167.328 182.982 165.357 182.213 163.033C181.445 160.709 181.538 158.186 182.474 155.924C183.017 154.657 183.819 153.517 184.829 152.578C185.839 151.639 187.034 150.922 188.338 150.473C188.58 150.393 188.823 150.312 189.065 150.249C186.964 148.992 185.386 147.021 184.617 144.697C183.849 142.372 183.942 139.849 184.88 137.587C185.424 136.321 186.227 135.183 187.237 134.246C188.247 133.309 189.441 132.593 190.744 132.145C190.969 132.064 191.202 131.993 191.427 131.93L171.886 121.711C169.732 120.608 168.039 118.779 167.107 116.546C166.174 114.313 166.064 111.822 166.795 109.516C167.26 108.143 168.016 106.888 169.011 105.835C170.006 104.782 171.218 103.956 172.562 103.415C173.905 102.873 175.351 102.628 176.798 102.697C178.245 102.766 179.661 103.147 180.947 103.813L232.214 130.646L227.374 110.827C226.753 108.215 227.147 105.464 228.476 103.132C229.804 100.799 231.969 99.0573 234.533 98.2591C237.096 97.4609 239.867 97.6654 242.285 98.8315C244.703 99.9975 246.589 102.038 247.561 104.541L265.233 150.447C266.63 154.066 269.295 157.053 272.732 158.852L275.803 160.459C276.432 160.787 276.99 161.235 277.445 161.779C277.9 162.323 278.243 162.951 278.455 163.627C278.667 164.304 278.743 165.015 278.68 165.722C278.616 166.428 278.413 167.114 278.084 167.742L256.532 208.924C256.067 209.789 255.375 210.511 254.529 211.011C253.684 211.511 252.719 211.771 251.737 211.762ZM234.109 202.701C237.175 202.684 240.2 203.408 242.927 204.811L250.488 208.763C250.803 208.93 251.147 209.032 251.502 209.065C251.856 209.098 252.214 209.061 252.554 208.955C252.893 208.849 253.209 208.676 253.482 208.448C253.755 208.219 253.979 207.938 254.143 207.622L275.695 166.44C275.86 166.125 275.962 165.781 275.993 165.427C276.025 165.073 275.986 164.717 275.879 164.378C275.772 164.039 275.6 163.725 275.371 163.453C275.142 163.181 274.861 162.957 274.546 162.794L271.475 161.187C267.47 159.087 264.367 155.601 262.746 151.38L245.064 105.475C244.354 103.584 242.948 102.037 241.133 101.151C239.318 100.265 237.233 100.108 235.305 100.711C233.378 101.315 231.755 102.633 230.769 104.396C229.784 106.158 229.51 108.231 230.005 110.189L235.555 132.9C235.616 133.15 235.604 133.413 235.52 133.657C235.435 133.901 235.282 134.115 235.079 134.274C234.876 134.436 234.63 134.535 234.371 134.559C234.113 134.583 233.853 134.53 233.624 134.408L179.744 106.238C178.805 105.75 177.771 105.471 176.714 105.419C175.657 105.368 174.601 105.546 173.62 105.942C172.625 106.329 171.73 106.933 170.998 107.71C170.267 108.486 169.717 109.416 169.39 110.432C168.854 112.135 168.94 113.973 169.634 115.618C170.329 117.263 171.585 118.608 173.179 119.412L198.772 132.792C199.089 132.957 199.327 133.242 199.434 133.583C199.541 133.924 199.508 134.294 199.343 134.61C199.261 134.767 199.149 134.906 199.013 135.02C198.877 135.133 198.72 135.219 198.552 135.272C198.211 135.379 197.841 135.346 197.524 135.181C196.631 134.717 195.652 134.442 194.648 134.372C193.644 134.303 192.636 134.44 191.687 134.776C190.735 135.105 189.861 135.628 189.122 136.313C188.383 136.998 187.794 137.829 187.395 138.755C186.68 140.51 186.653 142.469 187.319 144.243C187.984 146.018 189.294 147.476 190.987 148.327L196.375 151.129C196.665 151.308 196.876 151.591 196.965 151.919C197.055 152.248 197.017 152.598 196.859 152.9C196.701 153.202 196.434 153.432 196.112 153.545C195.791 153.658 195.439 153.645 195.127 153.509C194.234 153.047 193.257 152.773 192.254 152.703C191.252 152.634 190.246 152.77 189.299 153.105C188.346 153.435 187.472 153.96 186.733 154.646C185.994 155.333 185.406 156.166 185.006 157.092C184.294 158.846 184.268 160.803 184.934 162.575C185.599 164.347 186.907 165.804 188.598 166.655L193.986 169.457C194.303 169.623 194.541 169.907 194.648 170.248C194.755 170.589 194.722 170.959 194.556 171.276C194.391 171.592 194.106 171.83 193.765 171.937C193.424 172.044 193.055 172.011 192.738 171.846C191.797 171.361 190.764 171.085 189.707 171.035C188.65 170.986 187.595 171.164 186.614 171.559C185.623 171.95 184.731 172.556 184.002 173.332C183.272 174.108 182.723 175.036 182.393 176.049C181.855 177.752 181.94 179.591 182.635 181.236C183.329 182.882 184.587 184.226 186.183 185.029L211.327 198.175C217.989 201.619 225.454 203.21 232.941 202.782C233.337 202.782 233.723 202.719 234.109 202.719V202.701Z" fill="#50F7BB"/>
<path d="M200.003 175.456C199.784 175.458 199.568 175.405 199.374 175.303L192.702 171.792C192.545 171.71 192.406 171.598 192.292 171.462C192.179 171.327 192.093 171.17 192.04 171.001C191.987 170.832 191.968 170.655 191.984 170.478C192 170.302 192.05 170.131 192.132 169.974C192.214 169.817 192.326 169.678 192.462 169.564C192.597 169.451 192.754 169.365 192.923 169.312C193.092 169.259 193.269 169.24 193.446 169.256C193.622 169.271 193.793 169.322 193.95 169.403L200.658 172.915C200.925 173.054 201.138 173.279 201.262 173.553C201.387 173.827 201.415 174.135 201.344 174.428C201.273 174.721 201.105 174.981 200.869 175.167C200.632 175.354 200.34 175.455 200.039 175.456H200.003Z" fill="#50F7BB"/>
<path d="M202.409 157.119C202.19 157.122 201.974 157.069 201.781 156.966L195.073 153.455C194.903 153.381 194.751 153.273 194.625 153.137C194.499 153.002 194.403 152.842 194.341 152.667C194.28 152.493 194.255 152.308 194.269 152.123C194.282 151.939 194.333 151.759 194.419 151.595C194.505 151.431 194.624 151.287 194.768 151.171C194.912 151.055 195.079 150.97 195.257 150.921C195.435 150.873 195.622 150.861 195.805 150.888C195.988 150.914 196.164 150.978 196.321 151.075L203.029 154.578C203.296 154.717 203.509 154.942 203.633 155.216C203.757 155.49 203.786 155.798 203.715 156.091C203.643 156.384 203.476 156.644 203.239 156.83C203.003 157.017 202.711 157.118 202.409 157.119Z" fill="#50F7BB"/>
<path d="M204.807 138.791C204.591 138.788 204.379 138.736 204.187 138.638L197.479 135.127C197.322 135.045 197.183 134.933 197.07 134.797C196.956 134.661 196.871 134.504 196.818 134.336C196.765 134.167 196.745 133.989 196.761 133.813C196.777 133.637 196.827 133.465 196.909 133.308C196.991 133.151 197.103 133.012 197.239 132.899C197.375 132.785 197.531 132.7 197.7 132.647C197.869 132.594 198.047 132.574 198.223 132.59C198.399 132.606 198.571 132.656 198.728 132.738L205.436 136.249C205.703 136.389 205.916 136.614 206.041 136.89C206.165 137.165 206.193 137.474 206.12 137.767C206.048 138.06 205.879 138.32 205.641 138.506C205.403 138.692 205.109 138.792 204.807 138.791Z" fill="#50F7BB"/>
<path opacity="0.3" d="M251.737 211.762C250.867 211.763 250.011 211.553 249.24 211.151L241.679 207.2C239.03 205.844 236.065 205.223 233.094 205.404C225.086 205.853 217.105 204.128 209.997 200.411L184.853 187.265C182.7 186.162 181.006 184.333 180.074 182.1C179.142 179.867 179.031 177.376 179.762 175.07C180.223 173.694 180.979 172.435 181.976 171.38C182.973 170.326 184.188 169.501 185.536 168.963C185.901 168.812 186.276 168.686 186.658 168.586C184.559 167.328 182.982 165.357 182.213 163.033C181.445 160.709 181.538 158.186 182.474 155.924C183.017 154.657 183.819 153.517 184.829 152.578C185.839 151.639 187.034 150.922 188.338 150.473C188.58 150.393 188.823 150.312 189.065 150.249C186.964 148.992 185.386 147.021 184.617 144.697C183.849 142.372 183.942 139.849 184.88 137.587C185.424 136.321 186.227 135.183 187.237 134.246C188.247 133.309 189.441 132.593 190.744 132.145C190.969 132.064 191.202 131.993 191.427 131.93L171.886 121.711C169.732 120.608 168.039 118.779 167.107 116.546C166.174 114.313 166.064 111.822 166.795 109.516C167.26 108.143 168.016 106.888 169.011 105.835C170.006 104.782 171.218 103.956 172.562 103.415C173.905 102.873 175.351 102.628 176.798 102.697C178.245 102.766 179.661 103.147 180.947 103.813L232.214 130.646L227.374 110.827C226.753 108.215 227.147 105.464 228.476 103.132C229.804 100.799 231.969 99.0573 234.533 98.2591C237.096 97.4609 239.867 97.6654 242.285 98.8315C244.703 99.9975 246.589 102.038 247.561 104.541L265.233 150.447C266.63 154.066 269.295 157.053 272.732 158.852L275.803 160.459C276.432 160.787 276.99 161.235 277.445 161.779C277.9 162.323 278.243 162.951 278.455 163.627C278.667 164.304 278.743 165.015 278.68 165.722C278.616 166.428 278.413 167.114 278.084 167.742L256.532 208.924C256.067 209.789 255.375 210.511 254.529 211.011C253.684 211.511 252.719 211.771 251.737 211.762ZM234.109 202.701C237.175 202.684 240.2 203.408 242.927 204.811L250.488 208.763C250.803 208.93 251.147 209.032 251.502 209.065C251.856 209.098 252.214 209.061 252.554 208.955C252.893 208.849 253.209 208.676 253.482 208.448C253.755 208.219 253.979 207.938 254.143 207.622L275.695 166.44C275.86 166.125 275.962 165.781 275.993 165.427C276.025 165.073 275.986 164.717 275.879 164.378C275.772 164.039 275.6 163.725 275.371 163.453C275.142 163.181 274.861 162.957 274.546 162.794L271.475 161.187C267.47 159.087 264.367 155.601 262.746 151.38L245.064 105.475C244.354 103.584 242.948 102.037 241.133 101.151C239.318 100.265 237.233 100.108 235.305 100.711C233.378 101.315 231.755 102.633 230.769 104.396C229.784 106.158 229.51 108.231 230.005 110.189L235.555 132.9C235.616 133.15 235.604 133.413 235.52 133.657C235.435 133.901 235.282 134.115 235.079 134.274C234.876 134.436 234.63 134.535 234.371 134.559C234.113 134.583 233.853 134.53 233.624 134.408L179.744 106.238C178.805 105.75 177.771 105.471 176.714 105.419C175.657 105.368 174.601 105.546 173.62 105.942C172.625 106.329 171.73 106.933 170.998 107.71C170.267 108.486 169.717 109.416 169.39 110.432C168.854 112.135 168.94 113.973 169.634 115.618C170.329 117.263 171.585 118.608 173.179 119.412L198.772 132.792C199.089 132.957 199.327 133.242 199.434 133.583C199.541 133.924 199.508 134.294 199.343 134.61C199.261 134.767 199.149 134.906 199.013 135.02C198.877 135.133 198.72 135.219 198.552 135.272C198.211 135.379 197.841 135.346 197.524 135.181C196.631 134.717 195.652 134.442 194.648 134.372C193.644 134.303 192.636 134.44 191.687 134.776C190.735 135.105 189.861 135.628 189.122 136.313C188.383 136.998 187.794 137.829 187.395 138.755C186.68 140.51 186.653 142.469 187.319 144.243C187.984 146.018 189.294 147.476 190.987 148.327L196.375 151.129C196.665 151.308 196.876 151.591 196.965 151.919C197.055 152.248 197.017 152.598 196.859 152.9C196.701 153.202 196.434 153.432 196.112 153.545C195.791 153.658 195.439 153.645 195.127 153.509C194.234 153.047 193.257 152.773 192.254 152.703C191.252 152.634 190.246 152.77 189.299 153.105C188.346 153.435 187.472 153.96 186.733 154.646C185.994 155.333 185.406 156.166 185.006 157.092C184.294 158.846 184.268 160.803 184.934 162.575C185.599 164.347 186.907 165.804 188.598 166.655L193.986 169.457C194.303 169.623 194.541 169.907 194.648 170.248C194.755 170.589 194.722 170.959 194.556 171.276C194.391 171.592 194.106 171.83 193.765 171.937C193.424 172.044 193.055 172.011 192.738 171.846C191.797 171.361 190.764 171.085 189.707 171.035C188.65 170.986 187.595 171.164 186.614 171.559C185.623 171.95 184.731 172.556 184.002 173.332C183.272 174.108 182.723 175.036 182.393 176.049C181.855 177.752 181.94 179.591 182.635 181.236C183.329 182.882 184.587 184.226 186.183 185.029L211.327 198.175C217.989 201.619 225.454 203.21 232.941 202.782C233.337 202.782 233.723 202.719 234.109 202.719V202.701Z" fill="black"/>
<defs>
<linearGradient id="paint0_linear_21_42" x1="405.5" y1="15" x2="405.5" y2="120.269" gradientUnits="userSpaceOnUse">
<stop stop-color="#50F7BB" stop-opacity="0.35"/>
<stop offset="1" stop-color="#50F7BB" stop-opacity="0"/>
</linearGradient>
<linearGradient id="paint1_linear_21_42" x1="36" y1="352" x2="36" y2="426.308" gradientUnits="userSpaceOnUse">
<stop stop-color="#50F7BB" stop-opacity="0.43"/>
<stop offset="1" stop-color="#50F7BB" stop-opacity="0"/>
</linearGradient>
<linearGradient id="paint2_linear_21_42" x1="446.5" y1="0" x2="446.5" y2="15.4808" gradientUnits="userSpaceOnUse">
<stop stop-color="#50F7BB" stop-opacity="0.16"/>
<stop offset="1" stop-color="#50F7BB" stop-opacity="0"/>
</linearGradient>
</defs>
</svg>
