<svg width="296" height="301" viewBox="0 0 296 301" fill="none" xmlns="http://www.w3.org/2000/svg">
<path d="M147.707 300.596C229.283 300.596 295.414 296.536 295.414 291.527C295.414 286.518 229.283 282.457 147.707 282.457C66.1306 282.457 0 286.518 0 291.527C0 296.536 66.1306 300.596 147.707 300.596Z" fill="#F5F5F5"/>
<path d="M114.599 40.2661H100.105C90.9721 40.265 82.0415 42.9576 74.431 48.0069C66.8205 53.0563 60.8683 60.238 57.3193 68.6535H45.783C40.5121 68.5793 35.2791 69.5533 30.388 71.519C25.4969 73.4848 21.0452 76.4029 17.2917 80.104C13.5381 83.8051 10.5576 88.2152 8.52318 93.0782C6.4888 97.9411 5.44116 103.16 5.44116 108.431C5.44116 113.703 6.4888 118.921 8.52318 123.784C10.5576 128.647 13.5381 133.057 17.2917 136.759C21.0452 140.46 25.4969 143.378 30.388 145.343C35.2791 147.309 40.5121 148.283 45.783 148.209H114.599V40.2661Z" fill="#50F7BB"/>
<path d="M80.3444 42.4997L80.0211 41.7821C81.8378 40.9704 83.7022 40.2699 85.604 39.6846L85.8326 40.4731C83.9645 41.0386 82.1318 41.7153 80.3444 42.4997Z" fill="#50F7BB"/>
<path d="M62.3419 56.3992L61.7268 55.9024C65.351 51.3747 69.7511 47.5272 74.7219 44.5396L75.1319 45.2177C70.2389 48.1565 65.9081 51.9427 62.3419 56.3992Z" fill="#50F7BB"/>
<path opacity="0.2" d="M114.599 40.2661H100.105C90.9721 40.265 82.0415 42.9576 74.431 48.0069C66.8205 53.0563 60.8683 60.238 57.3193 68.6535H45.783C40.5121 68.5793 35.2791 69.5533 30.388 71.519C25.4969 73.4848 21.0452 76.4029 17.2917 80.104C13.5381 83.8051 10.5576 88.2152 8.52318 93.0782C6.4888 97.9411 5.44116 103.16 5.44116 108.431C5.44116 113.703 6.4888 118.921 8.52318 123.784C10.5576 128.647 13.5381 133.057 17.2917 136.759C21.0452 140.46 25.4969 143.378 30.388 145.343C35.2791 147.309 40.5121 148.283 45.783 148.209H114.599V40.2661Z" fill="#333333"/>
<path opacity="0.5" d="M60.0709 63.1888H80.8726L96.249 49.5234H72.2933C67.3546 53.2245 63.2002 57.8694 60.0709 63.1888Z" fill="#50F7BB"/>
<path opacity="0.5" d="M12.798 86.1909C9.99327 90.3326 8.00229 94.9702 6.93127 99.8563H30.6663V86.1909H12.798Z" fill="#50F7BB"/>
<path opacity="0.5" d="M110.175 43.4512H83.175C80.2902 44.5785 77.5268 45.9945 74.9269 47.6777H94.798L110.175 43.4512Z" fill="#50F7BB"/>
<path d="M193.784 99.2494C191.807 90.9318 187.204 83.472 180.657 77.9744C174.11 72.4768 165.966 69.2336 157.432 68.7251C153.836 60.169 147.761 52.8861 139.987 47.8153C132.214 42.7444 123.101 40.1182 113.821 40.2752C104.542 40.4322 95.5219 43.3652 87.9248 48.696C80.3277 54.0268 74.5015 61.5111 71.1975 70.1838C65.7278 68.6257 59.9876 68.2586 54.364 69.1075C48.7404 69.9563 43.3643 72.0013 38.5983 75.1046C33.8322 78.2078 29.7871 82.297 26.7357 87.0964C23.6844 91.8959 21.6979 97.2939 20.91 102.926C20.1222 108.559 20.5515 114.295 22.1689 119.747C23.7864 125.2 26.5543 130.242 30.286 134.534C34.0177 138.825 38.6265 142.267 43.8013 144.626C48.9762 146.985 54.5969 148.207 60.2841 148.21H186.971C192.99 148.204 198.805 146.024 203.343 142.07C207.882 138.115 210.838 132.654 211.668 126.692C212.497 120.73 211.144 114.669 207.858 109.626C204.571 104.583 199.573 100.898 193.784 99.2494Z" fill="#50F7BB"/>
<path opacity="0.2" d="M192.924 102.286L191.134 101.782L190.708 99.9758C188.864 92.331 184.619 85.4778 178.597 80.4204C172.575 75.363 165.091 72.3674 157.242 71.8724L155.279 71.762L154.49 69.9483C151.198 62.0795 145.649 55.3614 138.544 50.6408C131.44 45.9203 123.097 43.4084 114.567 43.4219C114.007 43.4219 113.455 43.4219 112.903 43.4219C121.14 43.7307 129.116 46.3893 135.891 51.0839C142.666 55.7785 147.957 62.3132 151.139 69.9168L151.928 71.7304L153.891 71.8408C161.74 72.3358 169.223 75.3315 175.246 80.3889C181.268 85.4462 185.512 92.2994 187.357 99.9443L187.782 101.75L189.572 102.255C194.653 103.674 199.046 106.887 201.939 111.299C204.831 115.71 206.026 121.02 205.302 126.246C204.578 131.471 201.985 136.256 198.002 139.715C194.019 143.174 188.918 145.072 183.643 145.057H186.994C192.251 145.05 197.329 143.145 201.293 139.691C205.256 136.237 207.838 131.467 208.563 126.259C209.288 121.052 208.107 115.758 205.237 111.353C202.368 106.948 198.003 103.728 192.947 102.286H192.924Z" fill="#333333"/>
<path d="M189.573 102.284L187.783 101.779L187.357 99.9736C185.513 92.3287 181.268 85.4755 175.246 80.4181C169.224 75.3607 161.74 72.3651 153.891 71.8701L151.928 71.7597L151.139 69.9461C147.957 62.3424 142.667 55.8077 135.892 51.1131C129.117 46.4185 121.14 43.76 112.903 43.4512H112.848C104.382 43.822 96.2087 46.6545 89.3288 51.6015C82.4489 56.5485 77.1617 63.3951 74.115 71.3023L73.0899 74.007L70.3064 73.2185L70.062 73.1554C66.8678 72.2669 63.5679 71.816 60.2525 71.8149C59.6769 71.8149 59.1091 71.8149 58.5335 71.8149C49.0042 72.2984 40.0396 76.4814 33.5475 83.4739C27.0553 90.4664 23.5481 99.7162 23.7721 109.255C23.9961 118.794 27.9336 127.869 34.7468 134.549C41.56 141.229 50.711 144.987 60.2525 145.023H183.643C188.9 145.017 193.978 143.111 197.942 139.657C201.905 136.203 204.487 131.433 205.212 126.226C205.937 121.018 204.756 115.725 201.886 111.319C199.017 106.914 194.652 103.694 189.596 102.252L189.573 102.284Z" fill="white"/>
<path d="M98.7647 98.0589V129.356H130.306V98.0589H140.273L114.535 69.1274L88.7976 98.0589H98.7647Z" fill="#50F7BB"/>
<path d="M88.3159 169.516H98.1253V185.728C98.1253 186.815 97.6933 187.858 96.9244 188.627C96.1554 189.396 95.1124 189.828 94.0249 189.828H92.4479C91.3604 189.828 90.3174 189.396 89.5484 188.627C88.7795 187.858 88.3475 186.815 88.3475 185.728V169.516H88.3159Z" fill="#50F7BB"/>
<path opacity="0.2" d="M88.3159 169.516H98.1253V185.728C98.1253 186.815 97.6933 187.858 96.9244 188.627C96.1554 189.396 95.1124 189.828 94.0249 189.828H92.4479C91.3604 189.828 90.3174 189.396 89.5484 188.627C88.7795 187.858 88.3475 186.815 88.3475 185.728V169.516H88.3159Z" fill="#333333"/>
<path d="M83.9403 148.21H102.518V166.804C102.518 168.862 101.701 170.835 100.246 172.29C98.7905 173.745 96.8169 174.563 94.759 174.563H91.6995C89.6416 174.563 87.6681 173.745 86.2129 172.29C84.7578 170.835 83.9403 168.862 83.9403 166.804V148.21Z" fill="#50F7BB"/>
<path opacity="0.2" d="M102.51 152.862L83.9403 155.67V148.21H102.51V152.862Z" fill="#333333"/>
<path d="M98.6147 164.683C99.9778 164.683 101.083 163.578 101.083 162.215C101.083 160.852 99.9778 159.747 98.6147 159.747C97.2516 159.747 96.1466 160.852 96.1466 162.215C96.1466 163.578 97.2516 164.683 98.6147 164.683Z" fill="white"/>
<path opacity="0.5" d="M92.0383 164.683C93.4014 164.683 94.5064 163.578 94.5064 162.215C94.5064 160.852 93.4014 159.747 92.0383 159.747C90.6752 159.747 89.5702 160.852 89.5702 162.215C89.5702 163.578 90.6752 164.683 92.0383 164.683Z" fill="white"/>
<path d="M155.082 217.087H113.723C107.765 217.079 102.054 214.709 97.8414 210.496C93.6286 206.283 91.2582 200.572 91.2499 194.614V189.82H95.1926V194.614C95.2009 199.526 97.1559 204.235 100.629 207.708C104.103 211.181 108.811 213.136 113.723 213.145H155.082V217.087Z" fill="#50F7BB"/>
<path d="M251.606 118.253H183.831C178.152 118.253 173.549 122.857 173.549 128.535V281.37C173.549 287.049 178.152 291.652 183.831 291.652H251.606C257.285 291.652 261.889 287.049 261.889 281.37V128.535C261.889 122.857 257.285 118.253 251.606 118.253Z" fill="#50F7BB"/>
<path opacity="0.2" d="M251.606 118.253H183.831C178.152 118.253 173.549 122.857 173.549 128.535V281.37C173.549 287.049 178.152 291.652 183.831 291.652H251.606C257.285 291.652 261.889 287.049 261.889 281.37V128.535C261.889 122.857 257.285 118.253 251.606 118.253Z" fill="#333333"/>
<path d="M233.139 118.253H165.364C159.686 118.253 155.082 122.857 155.082 128.535V281.37C155.082 287.049 159.686 291.652 165.364 291.652H233.139C238.818 291.652 243.422 287.049 243.422 281.37V128.535C243.422 122.857 238.818 118.253 233.139 118.253Z" fill="#50F7BB"/>
<path opacity="0.2" d="M239.992 281.379V128.536C239.992 124.752 236.924 121.684 233.139 121.684H165.364C161.58 121.684 158.512 124.752 158.512 128.536V281.379C158.512 285.163 161.58 288.231 165.364 288.231H233.139C236.924 288.231 239.992 285.163 239.992 281.379Z" fill="#333333"/>
<path d="M239.992 281.379V128.536C239.992 124.752 236.924 121.684 233.139 121.684H168.55C164.766 121.684 161.698 124.752 161.698 128.536V281.379C161.698 285.163 164.766 288.231 168.55 288.231H233.139C236.924 288.231 239.992 285.163 239.992 281.379Z" fill="white"/>
<path opacity="0.3" d="M229.323 141.737H172.359C170.947 141.731 169.595 141.167 168.597 140.169C167.598 139.17 167.035 137.818 167.029 136.406C167.033 134.993 167.595 133.639 168.594 132.639C169.592 131.639 170.946 131.074 172.359 131.068H229.323C230.738 131.072 232.093 131.636 233.093 132.636C234.094 133.636 234.657 134.992 234.661 136.406C234.655 137.819 234.091 139.173 233.091 140.171C232.091 141.17 230.736 141.733 229.323 141.737Z" fill="#50F7BB"/>
<path d="M210.548 137.566H171.507C171.355 137.567 171.203 137.538 171.061 137.48C170.92 137.423 170.791 137.337 170.683 137.23C170.574 137.122 170.488 136.994 170.429 136.853C170.371 136.712 170.34 136.56 170.34 136.407C170.34 136.098 170.463 135.801 170.682 135.582C170.901 135.363 171.198 135.24 171.507 135.24H210.548C210.701 135.24 210.852 135.27 210.993 135.329C211.135 135.388 211.263 135.474 211.37 135.583C211.478 135.691 211.563 135.82 211.621 135.961C211.679 136.103 211.708 136.254 211.707 136.407C211.707 136.715 211.585 137.01 211.368 137.227C211.15 137.444 210.855 137.566 210.548 137.566Z" fill="white"/>
<path d="M224.639 137.574C225.283 137.574 225.806 137.052 225.806 136.407C225.806 135.763 225.283 135.24 224.639 135.24C223.994 135.24 223.472 135.763 223.472 136.407C223.472 137.052 223.994 137.574 224.639 137.574Z" fill="#50F7BB"/>
<path d="M229.78 137.574C230.424 137.574 230.947 137.052 230.947 136.407C230.947 135.763 230.424 135.24 229.78 135.24C229.135 135.24 228.613 135.763 228.613 136.407C228.613 137.052 229.135 137.574 229.78 137.574Z" fill="#50F7BB"/>
<path d="M219.497 137.574C220.142 137.574 220.664 137.052 220.664 136.407C220.664 135.763 220.142 135.24 219.497 135.24C218.853 135.24 218.33 135.763 218.33 136.407C218.33 137.052 218.853 137.574 219.497 137.574Z" fill="#50F7BB"/>
<path opacity="0.3" d="M229.323 158.871H172.359C170.947 158.867 169.593 158.304 168.594 157.305C167.596 156.306 167.033 154.953 167.029 153.54C167.033 152.128 167.596 150.775 168.594 149.776C169.593 148.777 170.947 148.214 172.359 148.21H229.323C230.736 148.214 232.091 148.777 233.091 149.775C234.091 150.774 234.655 152.127 234.661 153.54C234.655 154.954 234.091 156.307 233.091 157.306C232.091 158.304 230.736 158.867 229.323 158.871Z" fill="#50F7BB"/>
<path d="M210.548 154.709H171.507C171.198 154.709 170.901 154.586 170.682 154.367C170.463 154.148 170.34 153.851 170.34 153.542C170.34 153.232 170.463 152.935 170.682 152.716C170.901 152.497 171.198 152.375 171.507 152.375H210.548C210.856 152.377 211.151 152.5 211.368 152.719C211.585 152.938 211.707 153.233 211.707 153.542C211.707 153.85 211.585 154.145 211.368 154.364C211.151 154.583 210.856 154.706 210.548 154.709Z" fill="white"/>
<path d="M224.639 154.709C225.283 154.709 225.806 154.186 225.806 153.542C225.806 152.897 225.283 152.375 224.639 152.375C223.994 152.375 223.472 152.897 223.472 153.542C223.472 154.186 223.994 154.709 224.639 154.709Z" fill="#50F7BB"/>
<path d="M229.78 154.709C230.424 154.709 230.947 154.186 230.947 153.542C230.947 152.897 230.424 152.375 229.78 152.375C229.135 152.375 228.613 152.897 228.613 153.542C228.613 154.186 229.135 154.709 229.78 154.709Z" fill="#50F7BB"/>
<path opacity="0.3" d="M219.497 154.709C220.142 154.709 220.664 154.186 220.664 153.542C220.664 152.897 220.142 152.375 219.497 152.375C218.853 152.375 218.33 152.897 218.33 153.542C218.33 154.186 218.853 154.709 219.497 154.709Z" fill="#50F7BB"/>
<path opacity="0.3" d="M229.323 176.014H172.359C170.947 176.007 169.595 175.444 168.597 174.445C167.598 173.447 167.035 172.095 167.029 170.683C167.033 169.27 167.595 167.916 168.594 166.916C169.592 165.916 170.946 165.351 172.359 165.345H229.323C230.738 165.349 232.093 165.913 233.093 166.913C234.094 167.913 234.657 169.269 234.661 170.683C234.655 172.096 234.091 173.45 233.091 174.448C232.091 175.447 230.736 176.009 229.323 176.014Z" fill="#50F7BB"/>
<path d="M210.548 171.842H171.507C171.355 171.843 171.203 171.814 171.061 171.756C170.92 171.699 170.791 171.613 170.683 171.506C170.574 171.398 170.488 171.27 170.429 171.129C170.371 170.987 170.34 170.836 170.34 170.683C170.34 170.374 170.463 170.077 170.682 169.858C170.901 169.639 171.198 169.516 171.507 169.516H210.548C210.701 169.516 210.852 169.546 210.993 169.605C211.135 169.664 211.263 169.75 211.37 169.858C211.478 169.967 211.563 170.096 211.621 170.237C211.679 170.379 211.708 170.53 211.707 170.683C211.707 170.991 211.585 171.285 211.368 171.503C211.15 171.72 210.855 171.842 210.548 171.842Z" fill="white"/>
<path d="M224.639 171.85C225.283 171.85 225.806 171.328 225.806 170.683C225.806 170.039 225.283 169.516 224.639 169.516C223.994 169.516 223.472 170.039 223.472 170.683C223.472 171.328 223.994 171.85 224.639 171.85Z" fill="#50F7BB"/>
<path d="M229.78 171.85C230.424 171.85 230.947 171.328 230.947 170.683C230.947 170.039 230.424 169.516 229.78 169.516C229.135 169.516 228.613 170.039 228.613 170.683C228.613 171.328 229.135 171.85 229.78 171.85Z" fill="#50F7BB"/>
<path opacity="0.6" d="M219.497 171.85C220.142 171.85 220.664 171.328 220.664 170.683C220.664 170.039 220.142 169.516 219.497 169.516C218.853 169.516 218.33 170.039 218.33 170.683C218.33 171.328 218.853 171.85 219.497 171.85Z" fill="#50F7BB"/>
<path opacity="0.3" d="M229.323 182.487H172.359C169.415 182.487 167.029 184.873 167.029 187.817C167.029 190.761 169.415 193.148 172.359 193.148H229.323C232.267 193.148 234.654 190.761 234.654 187.817C234.654 184.873 232.267 182.487 229.323 182.487Z" fill="#50F7BB"/>
<path d="M210.548 188.962H171.507C171.198 188.962 170.901 188.84 170.682 188.621C170.463 188.402 170.34 188.105 170.34 187.795C170.34 187.486 170.463 187.189 170.682 186.97C170.901 186.751 171.198 186.628 171.507 186.628H210.548C210.856 186.631 211.151 186.754 211.368 186.973C211.585 187.192 211.707 187.487 211.707 187.795C211.707 188.104 211.585 188.399 211.368 188.618C211.151 188.837 210.856 188.96 210.548 188.962Z" fill="white"/>
<path d="M224.639 188.984C225.283 188.984 225.806 188.462 225.806 187.817C225.806 187.173 225.283 186.65 224.639 186.65C223.994 186.65 223.472 187.173 223.472 187.817C223.472 188.462 223.994 188.984 224.639 188.984Z" fill="#50F7BB"/>
<path opacity="0.3" d="M229.78 188.984C230.424 188.984 230.947 188.462 230.947 187.817C230.947 187.173 230.424 186.65 229.78 186.65C229.135 186.65 228.613 187.173 228.613 187.817C228.613 188.462 229.135 188.984 229.78 188.984Z" fill="#50F7BB"/>
<path opacity="0.6" d="M219.497 188.984C220.142 188.984 220.664 188.462 220.664 187.817C220.664 187.173 220.142 186.65 219.497 186.65C218.853 186.65 218.33 187.173 218.33 187.817C218.33 188.462 218.853 188.984 219.497 188.984Z" fill="#50F7BB"/>
<path opacity="0.3" d="M229.323 210.291H172.359C170.947 210.285 169.595 209.722 168.597 208.723C167.598 207.725 167.035 206.373 167.029 204.961C167.033 203.548 167.595 202.194 168.594 201.194C169.592 200.194 170.946 199.629 172.359 199.623H229.323C230.738 199.627 232.093 200.191 233.093 201.191C234.094 202.191 234.657 203.546 234.661 204.961C234.655 206.374 234.091 207.728 233.091 208.726C232.091 209.725 230.736 210.287 229.323 210.291Z" fill="#50F7BB"/>
<path d="M210.548 206.121H171.507C171.355 206.122 171.203 206.093 171.061 206.035C170.92 205.977 170.791 205.892 170.683 205.784C170.574 205.677 170.488 205.549 170.429 205.407C170.371 205.266 170.34 205.115 170.34 204.962C170.34 204.809 170.371 204.657 170.429 204.515C170.488 204.374 170.574 204.245 170.682 204.137C170.791 204.028 170.919 203.942 171.061 203.884C171.202 203.825 171.354 203.795 171.507 203.795H210.548C210.701 203.795 210.852 203.825 210.993 203.884C211.135 203.943 211.263 204.029 211.37 204.137C211.478 204.246 211.563 204.374 211.621 204.516C211.679 204.658 211.708 204.809 211.707 204.962C211.707 205.269 211.585 205.564 211.368 205.782C211.15 205.999 210.855 206.121 210.548 206.121Z" fill="white"/>
<path d="M224.639 206.129C225.283 206.129 225.806 205.607 225.806 204.962C225.806 204.317 225.283 203.795 224.639 203.795C223.994 203.795 223.472 204.317 223.472 204.962C223.472 205.607 223.994 206.129 224.639 206.129Z" fill="#50F7BB"/>
<path opacity="0.6" d="M229.78 206.129C230.424 206.129 230.947 205.607 230.947 204.962C230.947 204.317 230.424 203.795 229.78 203.795C229.135 203.795 228.613 204.317 228.613 204.962C228.613 205.607 229.135 206.129 229.78 206.129Z" fill="#50F7BB"/>
<path d="M219.497 206.129C220.142 206.129 220.664 205.607 220.664 204.962C220.664 204.317 220.142 203.795 219.497 203.795C218.853 203.795 218.33 204.317 218.33 204.962C218.33 205.607 218.853 206.129 219.497 206.129Z" fill="#50F7BB"/>
<path opacity="0.3" d="M229.323 227.428H172.359C170.947 227.423 169.593 226.861 168.594 225.862C167.596 224.863 167.033 223.51 167.029 222.097C167.033 220.685 167.596 219.331 168.594 218.332C169.593 217.334 170.947 216.771 172.359 216.767H229.323C230.734 216.771 232.085 217.331 233.085 218.326C234.085 219.322 234.651 220.671 234.661 222.081C234.659 223.497 234.097 224.855 233.096 225.857C232.096 226.859 230.739 227.423 229.323 227.428Z" fill="#50F7BB"/>
<path d="M210.548 223.263H171.507C171.198 223.263 170.901 223.14 170.682 222.921C170.463 222.703 170.34 222.406 170.34 222.096C170.34 221.943 170.371 221.791 170.429 221.65C170.488 221.508 170.574 221.379 170.682 221.271C170.791 221.163 170.919 221.077 171.061 221.018C171.202 220.959 171.354 220.929 171.507 220.929H210.548C210.856 220.931 211.151 221.055 211.368 221.274C211.585 221.492 211.707 221.788 211.707 222.096C211.707 222.404 211.585 222.7 211.368 222.919C211.151 223.137 210.856 223.261 210.548 223.263Z" fill="white"/>
<path opacity="0.3" d="M224.639 223.263C225.283 223.263 225.806 222.741 225.806 222.096C225.806 221.452 225.283 220.929 224.639 220.929C223.994 220.929 223.472 221.452 223.472 222.096C223.472 222.741 223.994 223.263 224.639 223.263Z" fill="#50F7BB"/>
<path d="M229.78 223.263C230.424 223.263 230.947 222.741 230.947 222.096C230.947 221.452 230.424 220.929 229.78 220.929C229.135 220.929 228.613 221.452 228.613 222.096C228.613 222.741 229.135 223.263 229.78 223.263Z" fill="#50F7BB"/>
<path d="M219.497 223.263C220.142 223.263 220.664 222.741 220.664 222.096C220.664 221.452 220.142 220.929 219.497 220.929C218.853 220.929 218.33 221.452 218.33 222.096C218.33 222.741 218.853 223.263 219.497 223.263Z" fill="#50F7BB"/>
<path opacity="0.3" d="M229.323 244.571H172.359C170.947 244.567 169.593 244.004 168.594 243.005C167.596 242.006 167.033 240.653 167.029 239.24C167.033 237.827 167.595 236.473 168.594 235.473C169.592 234.473 170.946 233.908 172.359 233.902H229.323C230.738 233.906 232.093 234.47 233.093 235.47C234.094 236.47 234.657 237.826 234.661 239.24C234.655 240.653 234.091 242.007 233.091 243.005C232.091 244.004 230.736 244.567 229.323 244.571Z" fill="#50F7BB"/>
<path d="M210.548 240.407H171.507C171.198 240.407 170.901 240.284 170.682 240.065C170.463 239.847 170.34 239.55 170.34 239.24C170.34 238.931 170.463 238.634 170.682 238.415C170.901 238.196 171.198 238.073 171.507 238.073H210.548C210.701 238.073 210.852 238.103 210.993 238.162C211.135 238.221 211.263 238.307 211.37 238.416C211.478 238.524 211.563 238.653 211.621 238.794C211.679 238.936 211.708 239.087 211.707 239.24C211.707 239.548 211.585 239.844 211.368 240.063C211.151 240.281 210.856 240.405 210.548 240.407Z" fill="white"/>
<path opacity="0.3" d="M224.639 240.407C225.283 240.407 225.806 239.885 225.806 239.24C225.806 238.596 225.283 238.073 224.639 238.073C223.994 238.073 223.472 238.596 223.472 239.24C223.472 239.885 223.994 240.407 224.639 240.407Z" fill="#50F7BB"/>
<path d="M229.78 240.407C230.424 240.407 230.947 239.885 230.947 239.24C230.947 238.596 230.424 238.073 229.78 238.073C229.135 238.073 228.613 238.596 228.613 239.24C228.613 239.885 229.135 240.407 229.78 240.407Z" fill="#50F7BB"/>
<path opacity="0.3" d="M219.497 240.407C220.142 240.407 220.664 239.885 220.664 239.24C220.664 238.596 220.142 238.073 219.497 238.073C218.853 238.073 218.33 238.596 218.33 239.24C218.33 239.885 218.853 240.407 219.497 240.407Z" fill="#50F7BB"/>
<path opacity="0.3" d="M229.323 251.042H172.359C169.415 251.042 167.029 253.429 167.029 256.372C167.029 259.316 169.415 261.703 172.359 261.703H229.323C232.267 261.703 234.654 259.316 234.654 256.372C234.654 253.429 232.267 251.042 229.323 251.042Z" fill="#50F7BB"/>
<path d="M210.548 257.564H171.507C171.354 257.564 171.202 257.533 171.061 257.475C170.919 257.416 170.791 257.33 170.682 257.222C170.574 257.113 170.488 256.985 170.429 256.843C170.371 256.702 170.34 256.55 170.34 256.397C170.34 256.087 170.463 255.79 170.682 255.571C170.901 255.352 171.198 255.229 171.507 255.229H210.548C210.856 255.232 211.151 255.355 211.368 255.574C211.585 255.793 211.707 256.088 211.707 256.397C211.707 256.705 211.585 257 211.368 257.219C211.151 257.438 210.856 257.561 210.548 257.564Z" fill="white"/>
<path d="M224.639 257.541C225.283 257.541 225.806 257.018 225.806 256.374C225.806 255.729 225.283 255.207 224.639 255.207C223.994 255.207 223.472 255.729 223.472 256.374C223.472 257.018 223.994 257.541 224.639 257.541Z" fill="#50F7BB"/>
<path d="M229.78 257.541C230.424 257.541 230.947 257.018 230.947 256.374C230.947 255.729 230.424 255.207 229.78 255.207C229.135 255.207 228.613 255.729 228.613 256.374C228.613 257.018 229.135 257.541 229.78 257.541Z" fill="#50F7BB"/>
<path d="M219.497 257.541C220.142 257.541 220.664 257.018 220.664 256.374C220.664 255.729 220.142 255.207 219.497 255.207C218.853 255.207 218.33 255.729 218.33 256.374C218.33 257.018 218.853 257.541 219.497 257.541Z" fill="#50F7BB"/>
<path opacity="0.3" d="M229.323 278.853H172.359C170.947 278.849 169.593 278.286 168.594 277.288C167.596 276.289 167.033 274.935 167.029 273.523C167.033 272.11 167.595 270.756 168.594 269.756C169.592 268.755 170.946 268.191 172.359 268.185H229.323C230.738 268.189 232.093 268.752 233.093 269.753C234.094 270.753 234.657 272.108 234.661 273.523C234.655 274.936 234.091 276.29 233.091 277.288C232.091 278.287 230.736 278.849 229.323 278.853Z" fill="#50F7BB"/>
<path d="M210.548 274.682H171.507C171.198 274.682 170.901 274.559 170.682 274.34C170.463 274.122 170.34 273.825 170.34 273.515C170.34 273.206 170.463 272.909 170.682 272.69C170.901 272.471 171.198 272.348 171.507 272.348H210.548C210.701 272.348 210.852 272.378 210.993 272.437C211.135 272.496 211.263 272.582 211.37 272.69C211.478 272.799 211.563 272.928 211.621 273.069C211.679 273.211 211.708 273.362 211.707 273.515C211.707 273.823 211.585 274.119 211.368 274.338C211.151 274.556 210.856 274.68 210.548 274.682Z" fill="white"/>
<path d="M224.639 274.682C225.283 274.682 225.806 274.16 225.806 273.515C225.806 272.871 225.283 272.348 224.639 272.348C223.994 272.348 223.472 272.871 223.472 273.515C223.472 274.16 223.994 274.682 224.639 274.682Z" fill="#50F7BB"/>
<path d="M229.78 274.682C230.424 274.682 230.947 274.16 230.947 273.515C230.947 272.871 230.424 272.348 229.78 272.348C229.135 272.348 228.613 272.871 228.613 273.515C228.613 274.16 229.135 274.682 229.78 274.682Z" fill="#50F7BB"/>
<path opacity="0.6" d="M219.497 274.682C220.142 274.682 220.664 274.16 220.664 273.515C220.664 272.871 220.142 272.348 219.497 272.348C218.853 272.348 218.33 272.871 218.33 273.515C218.33 274.16 218.853 274.682 219.497 274.682Z" fill="#50F7BB"/>
<path opacity="0.2" d="M256.637 154.062H248.673C247.38 154.062 246.331 155.111 246.331 156.404V166.245C246.331 167.538 247.38 168.587 248.673 168.587H256.637C257.931 168.587 258.979 167.538 258.979 166.245V156.404C258.979 155.111 257.931 154.062 256.637 154.062Z" fill="#333333"/>
<path d="M163.077 117.362L171.996 121.234L166.878 127.203L159.427 123.97L163.077 117.362Z" fill="#FFC3BD"/>
<path opacity="0.2" d="M163.077 117.362L171.996 121.242L169.133 124.585L161.027 121.068L163.077 117.362Z" fill="#333333"/>
<path d="M168.022 130.358L167.02 130.09C166.728 130.009 166.46 129.859 166.238 129.651C166.017 129.444 165.85 129.186 165.751 128.899L165.096 129.175C164.717 129.335 164.295 129.363 163.898 129.254L150.264 125.587C150.443 124.64 150.867 123.757 151.494 123.025C151.494 123.025 157.574 124.318 159.379 122.93C159.445 122.875 159.525 122.839 159.611 122.828C159.696 122.817 159.782 122.83 159.86 122.867C160.956 123.419 165.254 125.501 168.077 125.343C168.164 125.339 168.25 125.355 168.329 125.391C168.409 125.426 168.479 125.48 168.533 125.548C168.588 125.615 168.625 125.695 168.643 125.78C168.661 125.865 168.659 125.953 168.637 126.037C168.327 127.46 168.121 128.905 168.022 130.358Z" fill="#333333"/>
<path d="M243.209 89.2903L239.392 97.286C233.754 109.114 219.86 115.036 208.773 110.392C202.3 107.671 195.226 101.938 190.416 99.3126C186.3 108.326 178.588 118.277 172.698 125.2L160.775 119.192C165.23 108.941 172.162 93.0121 176.546 82.6508C177.329 80.8093 178.616 79.2267 180.26 78.0855C181.903 76.9442 183.836 76.2908 185.835 76.2005C205.659 75.6722 243.209 89.2903 243.209 89.2903Z" fill="#333333"/>
<path d="M185.787 143.504L194.358 143.126L192.774 152.541L185.606 152.872L185.787 143.504Z" fill="#FFC3BD"/>
<path opacity="0.2" d="M185.787 143.51L194.359 143.132L193.712 146.996L185.708 147.516L185.787 143.51Z" fill="#333333"/>
<path d="M196.062 152.972L195.076 153.28C194.786 153.37 194.479 153.388 194.18 153.332C193.882 153.275 193.602 153.147 193.365 152.957L192.963 153.54C192.727 153.879 192.386 154.131 191.993 154.258L178.525 158.484C178.164 157.59 178.047 156.616 178.186 155.661C178.186 155.661 184.005 153.485 184.794 151.332C184.821 151.25 184.871 151.178 184.938 151.124C185.005 151.069 185.086 151.035 185.172 151.025C186.386 150.906 191.133 150.347 193.428 148.699C193.501 148.65 193.583 148.62 193.669 148.609C193.756 148.598 193.843 148.606 193.926 148.635C194.008 148.663 194.083 148.71 194.144 148.771C194.206 148.833 194.252 148.908 194.28 148.99C194.774 150.36 195.369 151.691 196.062 152.972Z" fill="#333333"/>
<path d="M248.768 86.1216L248.705 94.5747C248.603 107.041 238.036 118.168 225.42 119.098C218.055 119.642 208.072 119.816 202.355 119.705C201.519 128.427 198.791 138.717 196.047 146.169L183.643 145.301C183.312 134.719 182.854 119.721 182.436 109.77C182.419 107.784 182.969 105.835 184.021 104.15C185.072 102.466 186.582 101.116 188.374 100.26C206.991 91.0972 248.768 86.1216 248.768 86.1216Z" fill="#333333"/>
<path opacity="0.1" d="M193.405 146.278H193.318C193.245 146.255 193.184 146.204 193.147 146.136C193.111 146.069 193.101 145.99 193.121 145.916C194.998 139.741 198.381 120.493 198.531 111.662C198.531 111.62 198.54 111.578 198.558 111.54C198.575 111.502 198.601 111.468 198.633 111.441C198.665 111.414 198.701 111.394 198.74 111.382C198.78 111.37 198.821 111.366 198.862 111.37C216.998 113.783 229.26 112.947 234.346 109.004C243.296 102.041 243.17 90.7811 240.899 84.9065C240.885 84.8703 240.878 84.8317 240.88 84.7929C240.881 84.7542 240.89 84.7161 240.906 84.6809C240.922 84.6456 240.945 84.614 240.974 84.5877C241.002 84.5615 241.036 84.5412 241.072 84.528C241.108 84.514 241.146 84.5071 241.184 84.5079C241.223 84.5086 241.261 84.5169 241.296 84.5323C241.331 84.5477 241.363 84.5698 241.389 84.5975C241.416 84.6252 241.437 84.6578 241.451 84.6936C243.816 90.7338 243.919 102.31 234.709 109.469C229.441 113.562 217.463 114.414 199.098 112.001C198.87 121.014 195.534 139.962 193.673 146.081C193.653 146.137 193.617 146.185 193.569 146.221C193.521 146.256 193.464 146.276 193.405 146.278Z" fill="#333333"/>
<path opacity="0.2" d="M189.951 100.353C187.821 104.616 185.356 108.703 182.578 112.575C182.641 114.326 182.704 116.179 182.775 118.095C187.167 111.164 189.959 100.337 189.959 100.337L189.951 100.353Z" fill="#333333"/>
<path d="M222.028 46.3447C221.689 47.5669 221.382 48.6314 221.011 49.7433C220.64 50.8551 220.278 51.9433 219.891 53.0394C219.103 55.2157 218.267 57.3842 217.305 59.529C216.343 61.6738 215.357 63.8187 214.151 65.9477C212.952 68.1816 211.587 70.322 210.066 72.3506L209.561 73.0209C209.245 73.4348 208.834 73.7673 208.363 73.9908C207.498 74.4085 206.605 74.7642 205.69 75.0553C204.791 75.345 203.875 75.5742 202.946 75.7414C202.018 75.9056 201.08 76.0031 200.138 76.0331C199.665 76.0331 199.184 76.0331 198.711 76.0331L197.978 75.9779C197.718 75.9779 197.505 75.907 197.189 75.8833C196.46 75.8406 195.777 75.5103 195.291 74.9648C194.804 74.4193 194.554 73.7033 194.595 72.9736C194.61 72.7053 194.66 72.4402 194.745 72.1851L195.794 69.2911C195.882 69.1494 195.991 69.0218 196.117 68.9126L196.511 68.5341L197.3 67.8008C197.828 67.3119 198.356 66.8545 198.877 66.3814C199.397 65.9083 199.878 65.4588 200.351 65.0251C200.824 64.5914 201.274 64.1262 201.723 63.7083L200.02 65.3563C200.956 63.6853 201.803 61.9666 202.559 60.2072L203.159 58.8036L203.726 57.3684C204.113 56.4143 204.515 55.4365 204.854 54.4587C205.579 52.4874 206.297 50.516 206.983 48.4816L209.01 42.5124L209.057 42.3704C209.638 40.7227 210.832 39.3628 212.392 38.5743C213.951 37.7857 215.754 37.6293 217.425 38.1377C219.097 38.6461 220.508 39.78 221.364 41.3031C222.22 42.8262 222.455 44.6209 222.02 46.3131L222.028 46.3447Z" fill="#FFC3BD"/>
<path d="M215.523 35.251C211.919 36.284 207.078 40.2582 205.414 49.2554C207.827 53.001 219.142 50.1149 219.142 50.1149L215.523 35.251Z" fill="#50F7BB"/>
<path d="M198.624 69.3862L198.987 73.2815C197.899 77.2242 193.042 74.9611 193.042 74.9611L190.266 74.8034C189.776 74.7473 189.322 74.5177 188.987 74.1562C188.651 73.7946 188.456 73.3249 188.437 72.8321L188.161 70.1116C188.07 69.5554 188.2 68.9859 188.522 68.5238C188.845 68.0616 189.334 67.7431 189.887 67.6356L192.308 67.3754C193.01 67.2989 193.719 67.3964 194.374 67.6593L198.624 69.3862Z" fill="#FFC3BD"/>
<path d="M217.266 34.7083C223.191 33.4538 229.2 32.6368 235.245 32.2639C236.814 32.176 238.385 32.4147 239.857 32.9648C241.329 33.5149 242.672 34.3645 243.799 35.4598C244.926 36.5552 245.814 37.8724 246.406 39.3284C246.998 40.7843 247.281 42.3473 247.239 43.9184C246.734 63.7738 249.533 84.6543 249.131 88.4866C249.131 88.4866 207.252 94.5189 200.833 82.0679C198.136 64.4125 206.85 66.6599 207.552 46.3866C207.733 41.0797 212.07 35.8202 217.266 34.7083Z" fill="#50F7BB"/>
<path d="M213.962 52.6638L214.104 52.6244V52.4746C214.189 51.8463 214.489 51.2668 214.954 50.8354C215.418 50.4039 216.018 50.1471 216.651 50.109H216.809L216.864 49.9592C217.066 49.3342 217.458 48.7878 217.985 48.3962C218.512 48.0047 219.149 47.7875 219.805 47.7749C220.513 47.8328 221.191 48.084 221.765 48.5012C222.34 48.9184 222.788 49.4855 223.062 50.1405L223.157 50.3692L223.377 50.3061C223.635 50.2367 223.9 50.2022 224.166 50.2036H224.3C225.094 50.284 225.832 50.6466 226.38 51.2256C226.929 51.8045 227.251 52.5611 227.289 53.3578C227.329 53.7433 227.287 54.1329 227.166 54.5013C227.045 54.8696 226.848 55.2084 226.588 55.4955C226.328 55.7827 226.01 56.0118 225.655 56.1678C225.3 56.3239 224.916 56.4036 224.529 56.4015L214.617 56.2359C214.131 56.2076 213.673 56.0013 213.33 55.6566C212.986 55.3119 212.782 54.8528 212.756 54.3671C212.735 53.9887 212.843 53.6145 213.062 53.3053C213.281 52.9961 213.599 52.77 213.962 52.6638Z" fill="white"/>
<path d="M246.789 39.0059L247.175 39.8575L247.506 40.6461C247.727 41.1586 247.916 41.6712 248.122 42.2231C248.516 43.2482 248.855 44.2812 249.194 45.3221C249.868 47.4183 250.423 49.5507 250.858 51.7092C251.079 52.8053 251.276 53.9093 251.441 55.029C251.607 56.1487 251.701 57.2921 251.78 58.4512C251.958 60.857 251.889 63.2746 251.575 65.6664L251.504 66.242C251.402 66.9889 251.132 67.7031 250.716 68.3316C249.967 69.4467 249.08 70.4616 248.074 71.3517C247.241 72.0969 246.364 72.792 245.448 73.4335C243.785 74.5742 242.037 75.5865 240.22 76.4615C238.462 77.2973 236.703 78.0385 234.921 78.6772C233.13 79.3224 231.303 79.8648 229.449 80.3016C228.693 80.4749 227.901 80.3864 227.203 80.0508C226.504 79.7152 225.94 79.1522 225.603 78.4542C225.265 77.7561 225.175 76.9643 225.347 76.2083C225.518 75.4524 225.942 74.7771 226.547 74.293L226.697 74.1826C228.014 73.1259 229.449 72.0693 230.797 71.0284C232.146 69.9876 233.494 68.923 234.74 67.8743C235.986 66.8255 237.192 65.7295 238.225 64.7201C238.697 64.2374 239.14 63.7265 239.55 63.1904C239.834 62.8421 240.065 62.4543 240.236 62.0391L239.369 64.7044C239.334 63.0998 239.181 61.5 238.911 59.9179C238.62 58.2462 238.225 56.5351 237.768 54.8161C237.311 53.0971 236.774 51.3544 236.191 49.6275C235.907 48.768 235.592 47.9085 235.292 47.049L234.393 44.6282L234.259 44.2655C233.624 42.6132 233.661 40.7781 234.362 39.1529C235.064 37.5276 236.373 36.2414 238.011 35.5695C239.648 34.8976 241.484 34.8934 243.124 35.5577C244.765 36.2221 246.08 37.5022 246.789 39.1242V39.0059Z" fill="#FFC3BD"/>
<path d="M237.445 32.3579C240.339 32.6733 246.466 34.8497 250.495 43.153C246.553 50.9674 236.215 53.9481 236.215 53.9481C236.215 53.9481 229.031 36.5135 237.445 32.3579Z" fill="#50F7BB"/>
<path d="M213.796 88.3991H179.763C178.281 88.3991 177.965 88.06 179.061 87.6106L194.588 81.7202C196.103 81.2245 197.685 80.9587 199.279 80.9316H233.321C234.803 80.9316 235.118 81.2786 234.022 81.7202L218.488 87.65C216.97 88.1328 215.389 88.3854 213.796 88.3991Z" fill="#50F7BB"/>
<path opacity="0.4" d="M213.796 88.3991H179.763C178.281 88.3991 177.965 88.06 179.061 87.6106L194.588 81.7202C196.103 81.2245 197.685 80.9587 199.279 80.9316H233.321C234.803 80.9316 235.118 81.2786 234.022 81.7202L218.488 87.65C216.97 88.1328 215.389 88.3854 213.796 88.3991Z" fill="#333333"/>
<path d="M213.797 86.9957H179.764C179.007 86.9649 178.283 86.683 177.705 86.1947C177.126 85.7064 176.727 85.0393 176.57 84.2989L172.714 63.3238C172.636 62.9963 172.635 62.6554 172.711 62.3274C172.786 61.9994 172.936 61.6932 173.148 61.4324C173.361 61.1716 173.631 60.9633 173.937 60.8237C174.243 60.684 174.578 60.6167 174.914 60.627H208.955C209.705 60.6663 210.42 60.952 210.99 61.4397C211.561 61.9273 211.954 62.5896 212.109 63.3238L215.957 84.2989C216.036 84.6232 216.039 84.9611 215.966 85.2868C215.894 85.6124 215.748 85.9171 215.539 86.1775C215.33 86.4379 215.065 86.647 214.763 86.7888C214.461 86.9307 214.13 87.0014 213.797 86.9957Z" fill="#50F7BB"/>
<path opacity="0.3" d="M213.797 86.9957H179.764C179.007 86.9649 178.283 86.683 177.705 86.1947C177.126 85.7064 176.727 85.0393 176.57 84.2989L172.714 63.3238C172.636 62.9963 172.635 62.6554 172.711 62.3274C172.786 61.9994 172.936 61.6932 173.148 61.4324C173.361 61.1716 173.631 60.9633 173.937 60.8237C174.243 60.684 174.578 60.6167 174.914 60.627H208.955C209.705 60.6663 210.42 60.952 210.99 61.4397C211.561 61.9273 211.954 62.5896 212.109 63.3238L215.957 84.2989C216.036 84.6232 216.039 84.9611 215.966 85.2868C215.894 85.6124 215.748 85.9171 215.539 86.1775C215.33 86.4379 215.065 86.647 214.763 86.7888C214.461 86.9307 214.13 87.0014 213.797 86.9957Z" fill="#333333"/>
<path opacity="0.3" d="M213 86.9957H179.764C179.007 86.9649 178.283 86.683 177.705 86.1947C177.126 85.7064 176.727 85.0393 176.57 84.2989L172.714 63.3238C172.636 62.9963 172.635 62.6554 172.711 62.3274C172.786 61.9994 172.936 61.6932 173.148 61.4324C173.361 61.1716 173.631 60.9633 173.937 60.8237C174.243 60.684 174.578 60.6167 174.914 60.627H208.159C208.909 60.6637 209.626 60.9484 210.197 61.4365C210.767 61.9246 211.16 62.5884 211.313 63.3238L215.169 84.2989C215.247 84.6239 215.25 84.9625 215.177 85.2887C215.104 85.615 214.957 85.9201 214.748 86.1807C214.538 86.4412 214.272 86.6502 213.969 86.7915C213.666 86.9328 213.335 87.0026 213 86.9957Z" fill="#50F7BB"/>
<path d="M228.471 75.5768L230.174 77.3668C231.751 81.1597 226.547 82.374 226.547 82.374L224.268 83.9511C223.847 84.2071 223.349 84.3055 222.863 84.229C222.376 84.1525 221.933 83.906 221.611 83.5332L219.71 81.5618C219.294 81.1816 219.043 80.6538 219.011 80.091C218.978 79.5283 219.167 78.9751 219.537 78.5496L221.272 76.8543C221.777 76.3582 222.397 75.9951 223.077 75.7976L226.09 74.9224C226.508 74.8015 226.952 74.7987 227.373 74.9142C227.793 75.0297 228.173 75.259 228.471 75.5768Z" fill="#FFC3BD"/>
<path d="M219.544 36.773C219.886 35.592 220.617 34.5612 221.618 33.8475C221.82 32.6975 221.616 31.5131 221.042 30.4962L230.442 22.6108C231.025 26.5535 232.405 31.7579 234.337 33.4611C232.184 35.4482 228.226 39.0282 223.298 39.8719C218.369 40.7157 219.126 38.6497 219.544 36.773Z" fill="#FFC3BD"/>
<path opacity="0.2" d="M221.216 30.8424L229.244 27.499C228.234 31.5758 223.724 34.9507 221.689 33.3342C221.748 32.4768 221.585 31.6187 221.216 30.8424Z" fill="#333333"/>
<path d="M220.751 18.2266C220.753 19.2628 220.447 20.2762 219.872 21.1384C219.298 22.0007 218.48 22.673 217.523 23.0703C216.566 23.4675 215.512 23.5719 214.496 23.3701C213.48 23.1683 212.546 22.6695 211.813 21.9368C211.081 21.204 210.582 20.2704 210.38 19.254C210.178 18.2376 210.282 17.1842 210.68 16.2271C211.077 15.27 211.749 14.4524 212.612 13.8777C213.474 13.3029 214.487 12.997 215.523 12.9985C216.91 12.9985 218.24 13.5494 219.22 14.5298C220.201 15.5102 220.751 16.84 220.751 18.2266Z" fill="#333333"/>
<path d="M229.749 15.2868C230.979 21.2639 231.688 25.3564 228.96 28.7629C223.519 35.5365 218.575 33.4311 215.555 27.9271C212.85 22.975 211.289 14.033 216.438 10.1771C217.577 9.3211 218.915 8.76855 220.327 8.57126C221.738 8.37396 223.177 8.5384 224.507 9.04913C225.837 9.55986 227.016 10.4002 227.933 11.4912C228.85 12.5822 229.475 13.8883 229.749 15.2868Z" fill="#FFC3BD"/>
<path d="M218.007 13.7088C216.801 15.0887 213.607 17.9748 208.963 15.3726C204.318 12.7704 206.211 6.5252 209.01 4.5302C210.164 3.69104 211.509 3.1534 212.923 2.96612C214.337 2.77883 215.776 2.94784 217.108 3.45779C217.108 3.45779 216.73 0.138041 221.398 0.00399007C226.066 -0.130061 225.83 3.15814 225.83 3.15814C225.83 3.15814 231.878 0.642708 234.764 5.29508C237.453 9.62415 233.447 12.9833 233.447 12.9833C233.447 12.9833 237.634 14.7812 236.254 19.1339C235.983 20.1567 235.394 21.0668 234.572 21.7329C233.75 22.3991 232.737 22.7868 231.681 22.84C231.681 22.84 227.21 23.1555 226.453 19.8988C225.993 17.9903 226.228 15.9804 227.115 14.2292C227.115 14.2292 219.916 17.0601 218.007 13.7088Z" fill="#333333"/>
<path d="M224.875 20.7597L223.771 20.6414C223.745 20.6407 223.72 20.6343 223.696 20.6228C223.673 20.6113 223.652 20.5949 223.636 20.5747C223.619 20.5545 223.607 20.531 223.601 20.5057C223.594 20.4805 223.593 20.4542 223.598 20.4285C223.6 20.4029 223.607 20.3779 223.619 20.3551C223.631 20.3324 223.647 20.3122 223.667 20.296C223.687 20.2798 223.71 20.2678 223.735 20.2607C223.759 20.2537 223.785 20.2517 223.811 20.255L224.875 20.3575L230.45 19.0091C230.475 19.0021 230.501 19.0002 230.527 19.0036C230.552 19.007 230.577 19.0156 230.599 19.0289C230.621 19.0422 230.641 19.0599 230.656 19.0809C230.671 19.1019 230.681 19.1258 230.687 19.1511C230.699 19.2012 230.691 19.2541 230.664 19.2983C230.637 19.3425 230.595 19.3746 230.545 19.3876L224.938 20.7518L224.875 20.7597Z" fill="#333333"/>
<path d="M232.911 13.63C232.729 13.63 232.548 13.63 232.359 13.63C232.307 13.6243 232.257 13.6085 232.211 13.5834C232.165 13.5583 232.125 13.5245 232.093 13.4839C232.06 13.4432 232.036 13.3966 232.021 13.3466C232.007 13.2965 232.002 13.2441 232.008 13.1924C232.013 13.1406 232.029 13.0904 232.054 13.0448C232.079 12.9991 232.113 12.9589 232.154 12.9263C232.195 12.8937 232.241 12.8694 232.291 12.8549C232.341 12.8403 232.394 12.8358 232.445 12.8415C232.956 12.9399 233.483 12.8972 233.971 12.7179C234.459 12.5387 234.888 12.2297 235.213 11.8243C235.414 11.5348 235.532 11.196 235.554 10.8443C235.577 10.4927 235.502 10.1417 235.339 9.82926C235.315 9.78384 235.3 9.73398 235.295 9.68261C235.29 9.63124 235.295 9.5794 235.311 9.53015C235.326 9.48091 235.351 9.43525 235.385 9.39588C235.418 9.35652 235.459 9.32423 235.505 9.30094C235.598 9.25321 235.707 9.24381 235.807 9.27474C235.907 9.30567 235.991 9.37449 236.041 9.46653C236.266 9.90629 236.367 10.3984 236.335 10.8911C236.303 11.3838 236.139 11.8587 235.86 12.2658C235.52 12.7203 235.073 13.0831 234.558 13.3212C234.043 13.5594 233.477 13.6655 232.911 13.63Z" fill="#333333"/>
<path d="M211.241 17.4857C210.441 17.479 209.645 17.3622 208.876 17.1387C207.833 16.91 206.889 16.3562 206.18 15.557C205.472 14.7578 205.035 13.7545 204.933 12.6914C204.673 10.373 205.816 7.9207 207.583 6.99022C207.628 6.96155 207.68 6.9426 207.733 6.93456C207.787 6.92652 207.841 6.92956 207.893 6.94348C207.945 6.95741 207.994 6.98192 208.037 7.0155C208.079 7.04909 208.114 7.09102 208.139 7.1387C208.165 7.18638 208.18 7.23879 208.185 7.29267C208.189 7.34654 208.182 7.40074 208.165 7.45189C208.147 7.50304 208.12 7.55005 208.083 7.59001C208.047 7.62996 208.002 7.662 207.953 7.68414C206.455 8.47267 205.493 10.5938 205.714 12.6046C205.792 13.507 206.158 14.3604 206.757 15.04C207.356 15.7197 208.156 16.1898 209.041 16.3817C213.662 17.6513 215.996 14.6785 216.966 12.786C217.016 12.6939 217.1 12.6251 217.201 12.5942C217.301 12.5633 217.409 12.5727 217.502 12.6204C217.594 12.669 217.663 12.7517 217.694 12.8506C217.724 12.9495 217.715 13.0565 217.668 13.1487C216.761 14.8993 214.845 17.4857 211.241 17.4857Z" fill="#333333"/>
<path d="M219.994 26.5237C219.709 26.644 219.413 26.739 219.111 26.8075C219.07 26.8145 219.028 26.8051 218.994 26.7815C218.96 26.7579 218.937 26.722 218.929 26.6814C218.922 26.6377 218.93 26.5927 218.954 26.5549C218.977 26.5171 219.013 26.4892 219.056 26.4764C219.736 26.3216 220.372 26.0158 220.918 25.5818C221.464 25.1477 221.906 24.5965 222.21 23.9688C222.217 23.949 222.228 23.9308 222.242 23.9152C222.256 23.8997 222.273 23.8871 222.292 23.8783C222.311 23.8695 222.332 23.8646 222.353 23.8639C222.374 23.8632 222.395 23.8667 222.415 23.8742C222.435 23.8819 222.453 23.8937 222.469 23.9088C222.484 23.9239 222.496 23.9419 222.504 23.9619C222.512 23.9818 222.516 24.0032 222.516 24.0248C222.515 24.0463 222.511 24.0675 222.502 24.0871C221.992 25.1785 221.1 26.0452 219.994 26.5237Z" fill="#333333"/>
<path opacity="0.2" d="M222.336 18.5202C222.902 18.0375 223.637 17.7993 224.378 17.8578C223.748 18.2102 223.054 18.4352 222.336 18.5202Z" fill="#333333"/>
<path opacity="0.2" d="M222.526 18.9912C222.822 18.8352 223.148 18.744 223.483 18.7236C223.817 18.7032 224.152 18.7541 224.465 18.8729C223.835 19.0525 223.173 19.0929 222.526 18.9912Z" fill="#333333"/>
<path opacity="0.2" d="M214.262 20.798C214.262 20.798 213.584 20.4195 213.355 20.8532C213.502 20.9042 213.658 20.9256 213.814 20.9161C213.97 20.9067 214.122 20.8665 214.262 20.798Z" fill="#333333"/>
<path opacity="0.2" d="M214.34 21.2702C214.34 21.2702 213.772 20.9153 213.709 21.4831C213.823 21.5185 213.946 21.517 214.059 21.4788C214.172 21.4406 214.271 21.3675 214.34 21.2702Z" fill="#333333"/>
<path d="M233.447 21.7911C233.219 22.5137 232.849 23.1839 232.361 23.7632C231.872 24.3424 231.274 24.8192 230.6 25.166C228.779 26.0886 227.446 24.5589 227.627 22.6427C227.769 20.9158 228.889 18.361 230.876 18.2427C231.31 18.224 231.741 18.3131 232.132 18.5021C232.523 18.6911 232.861 18.974 233.116 19.3256C233.37 19.6771 233.534 20.0864 233.592 20.5166C233.65 20.9469 233.6 21.3848 233.447 21.7911Z" fill="#FFC3BD"/>
<path d="M220.862 19.2516C220.996 19.7326 220.862 20.19 220.531 20.2688C220.2 20.3477 219.853 20.0323 219.742 19.5513C219.632 19.0702 219.742 18.6129 220.073 18.534C220.405 18.4552 220.704 18.7706 220.862 19.2516Z" fill="#333333"/>
<path d="M215.807 20.695C215.933 21.176 215.807 21.6254 215.468 21.7122C215.128 21.7989 214.797 21.4677 214.679 20.9946C214.561 20.5215 214.679 20.0563 215.018 19.9774C215.357 19.8985 215.673 20.214 215.807 20.695Z" fill="#333333"/>
<path d="M212.89 24.2743C212.73 24.2714 212.574 24.2278 212.436 24.1478C212.298 24.0678 212.183 23.9539 212.101 23.8169L211.313 22.3818C211.266 22.3012 211.238 22.2111 211.231 22.1182C211.224 22.0253 211.239 21.9321 211.273 21.8456C211.312 21.7667 211.368 21.6979 211.438 21.6445C211.508 21.5912 211.589 21.5547 211.675 21.5381L215.776 20.6312C215.959 20.5988 216.148 20.6229 216.317 20.7004C216.486 20.7779 216.627 20.905 216.722 21.0649L217.511 22.5001C217.557 22.5806 217.585 22.6708 217.592 22.7636C217.599 22.8565 217.584 22.9498 217.55 23.0363C217.512 23.1155 217.456 23.1847 217.386 23.2381C217.316 23.2915 217.234 23.3277 217.148 23.3438L213.047 24.2585L212.89 24.2743ZM215.918 21.0019H215.847L211.738 21.9166C211.713 21.9204 211.689 21.9302 211.669 21.9453C211.648 21.9604 211.631 21.9803 211.62 22.0033C211.606 22.0313 211.598 22.0624 211.598 22.094C211.598 22.1255 211.606 22.1566 211.62 22.1847L212.409 23.6198C212.461 23.7058 212.538 23.7747 212.629 23.8181C212.72 23.8615 212.821 23.8775 212.921 23.8642L217.022 22.9574C217.048 22.953 217.073 22.943 217.094 22.928C217.116 22.913 217.134 22.8935 217.148 22.8707C217.162 22.8427 217.17 22.8116 217.17 22.78C217.17 22.7484 217.162 22.7173 217.148 22.6893L216.359 21.2542C216.312 21.1789 216.247 21.1164 216.17 21.0723C216.093 21.0283 216.006 21.0041 215.918 21.0019Z" fill="#333333"/>
<path d="M217.486 20.7441L219.221 24.537C218.526 25.0762 217.654 25.3375 216.777 25.2704C216.603 23.7253 216.849 22.162 217.486 20.7441Z" fill="#FFC3BD"/>
<path d="M219.687 22.7707C219.527 22.7678 219.371 22.7242 219.233 22.6442C219.095 22.5642 218.98 22.4503 218.898 22.3133L218.11 20.8782C218.063 20.7976 218.035 20.7075 218.028 20.6146C218.021 20.5217 218.036 20.4285 218.07 20.342C218.108 20.2628 218.165 20.1936 218.234 20.1402C218.304 20.0867 218.386 20.0505 218.472 20.0345L222.573 19.1198C222.757 19.088 222.946 19.1133 223.115 19.1923C223.284 19.2712 223.425 19.4 223.519 19.5613L224.307 20.9965C224.356 21.0764 224.385 21.1666 224.392 21.2598C224.398 21.3531 224.383 21.4466 224.347 21.5327C224.309 21.6106 224.254 21.6789 224.185 21.7322C224.117 21.7855 224.037 21.8225 223.953 21.8402L219.844 22.7549L219.687 22.7707ZM222.715 19.4983H222.644L218.543 20.4051C218.517 20.4095 218.492 20.4195 218.471 20.4345C218.449 20.4495 218.431 20.469 218.417 20.4918C218.403 20.5198 218.395 20.5509 218.395 20.5825C218.395 20.6141 218.403 20.6452 218.417 20.6732L219.206 22.1083C219.258 22.1964 219.336 22.2672 219.428 22.312C219.521 22.3568 219.624 22.3737 219.726 22.3607L223.826 21.4459C223.852 21.4411 223.877 21.4308 223.899 21.4159C223.92 21.401 223.939 21.3817 223.953 21.3592C223.965 21.3306 223.971 21.2997 223.971 21.2685C223.971 21.2373 223.965 21.2065 223.953 21.1778L223.164 19.7427C223.117 19.6667 223.05 19.6043 222.971 19.5614C222.893 19.5186 222.804 19.4968 222.715 19.4983Z" fill="#333333"/>
<path d="M216.864 21.947H216.801C216.777 21.9398 216.755 21.928 216.735 21.9122C216.716 21.8964 216.7 21.8769 216.689 21.8549C216.677 21.833 216.67 21.8089 216.667 21.7841C216.665 21.7593 216.667 21.7343 216.675 21.7105C216.675 21.7105 216.958 20.851 218.638 21.19C218.663 21.1947 218.687 21.2044 218.708 21.2186C218.73 21.2327 218.748 21.251 218.762 21.2724C218.776 21.2938 218.785 21.3177 218.79 21.3429C218.794 21.368 218.794 21.3938 218.788 21.4187C218.784 21.4445 218.775 21.4693 218.761 21.4915C218.748 21.5136 218.729 21.5327 218.708 21.5475C218.687 21.5623 218.662 21.5726 218.637 21.5775C218.611 21.5825 218.585 21.5821 218.559 21.5764C217.266 21.3162 217.053 21.8288 217.045 21.8288C217.03 21.864 217.004 21.894 216.972 21.915C216.94 21.936 216.902 21.9472 216.864 21.947Z" fill="#333333"/>
<path d="M222.021 17.5186C222.068 17.5016 222.109 17.4715 222.139 17.4318C222.184 17.3695 222.204 17.2921 222.193 17.2158C222.183 17.1394 222.144 17.0699 222.084 17.0218C221.725 16.7264 221.301 16.5213 220.847 16.4239C220.393 16.3265 219.922 16.3395 219.474 16.4619C219.437 16.4734 219.403 16.4923 219.373 16.5175C219.344 16.5426 219.32 16.5735 219.303 16.6082C219.286 16.6429 219.276 16.6807 219.275 16.7192C219.273 16.7578 219.279 16.7964 219.292 16.8325C219.319 16.9045 219.372 16.9634 219.441 16.9972C219.51 17.0309 219.59 17.0369 219.663 17.0139C220.02 16.9218 220.393 16.9159 220.752 16.9968C221.111 17.0777 221.446 17.2431 221.729 17.4791C221.77 17.5103 221.819 17.5303 221.87 17.5372C221.921 17.5441 221.973 17.5377 222.021 17.5186Z" fill="#333333"/>
<path d="M212.653 19.9838C212.699 19.9714 212.741 19.9475 212.776 19.9144C212.81 19.8813 212.836 19.8401 212.85 19.7945C212.944 19.4354 213.124 19.1044 213.374 18.8298C213.624 18.5552 213.936 18.3451 214.285 18.2174C214.322 18.2075 214.356 18.1903 214.385 18.167C214.415 18.1436 214.44 18.1146 214.458 18.0815C214.477 18.0484 214.488 18.0121 214.492 17.9745C214.496 17.9369 214.493 17.8988 214.482 17.8626C214.46 17.7881 214.41 17.725 214.342 17.6867C214.275 17.6485 214.195 17.638 214.12 17.6576C213.683 17.8085 213.289 18.0619 212.97 18.3968C212.652 18.7316 212.419 19.1379 212.29 19.5816C212.279 19.6184 212.276 19.6569 212.28 19.6951C212.284 19.7332 212.295 19.7702 212.313 19.8038C212.332 19.8375 212.357 19.8673 212.386 19.8914C212.416 19.9155 212.45 19.9335 212.487 19.9443C212.537 19.9732 212.595 19.9869 212.653 19.9838Z" fill="#333333"/>
<path opacity="0.2" d="M155.082 229.524V281.378C155.098 284.092 156.183 286.69 158.102 288.608C160.021 290.527 162.619 291.613 165.333 291.629H177.949L173.439 234.405L155.082 229.524Z" fill="#333333"/>
<path d="M136.283 229.965L131.245 236.274C130.802 236.834 130.239 237.289 129.598 237.604C128.956 237.919 128.253 238.087 127.538 238.095H82.0319C80.8454 238.118 79.7085 238.576 78.8366 239.381C77.9646 240.186 77.4182 241.283 77.3007 242.464L73.2949 290.904C73.2329 291.463 73.2912 292.028 73.4659 292.563C73.6406 293.098 73.9277 293.589 74.3079 294.003C74.688 294.418 75.1525 294.746 75.67 294.966C76.1876 295.187 76.7463 295.294 77.3086 295.28H166.413C167.602 295.26 168.742 294.803 169.615 293.995C170.488 293.188 171.032 292.087 171.145 290.904L175.978 232.552C176.039 231.993 175.98 231.428 175.805 230.895C175.629 230.361 175.342 229.871 174.962 229.457C174.582 229.044 174.118 228.716 173.601 228.496C173.084 228.277 172.526 228.17 171.965 228.183H139.982C139.272 228.189 138.572 228.352 137.933 228.66C137.293 228.968 136.73 229.414 136.283 229.965Z" fill="#50F7BB"/>
<path opacity="0.3" d="M136.283 229.965L131.245 236.274C130.802 236.834 130.239 237.289 129.598 237.604C128.956 237.919 128.253 238.087 127.538 238.095H82.0319C80.8454 238.118 79.7085 238.576 78.8366 239.381C77.9646 240.186 77.4182 241.283 77.3007 242.464L73.2949 290.904C73.2329 291.463 73.2912 292.028 73.4659 292.563C73.6406 293.098 73.9277 293.589 74.3079 294.003C74.688 294.418 75.1525 294.746 75.67 294.966C76.1876 295.187 76.7463 295.294 77.3086 295.28H166.413C167.602 295.26 168.742 294.803 169.615 293.995C170.488 293.188 171.032 292.087 171.145 290.904L175.978 232.552C176.039 231.993 175.98 231.428 175.805 230.895C175.629 230.361 175.342 229.871 174.962 229.457C174.582 229.044 174.118 228.716 173.601 228.496C173.084 228.277 172.526 228.17 171.965 228.183H139.982C139.272 228.189 138.572 228.352 137.933 228.66C137.293 228.968 136.73 229.414 136.283 229.965Z" fill="#333333"/>
<path d="M118.289 233.413L114.204 239.374C113.816 239.917 113.302 240.357 112.706 240.657C112.109 240.956 111.449 241.106 110.782 241.093H73.3501C72.8041 241.075 72.2602 241.17 71.7531 241.373C71.2459 241.576 70.7865 241.883 70.4039 242.272C70.0213 242.662 69.724 243.128 69.5307 243.639C69.3375 244.15 69.2525 244.695 69.2812 245.241L72.6246 291.126C72.7534 292.272 73.3028 293.33 74.1666 294.095C75.0303 294.86 76.147 295.277 77.3006 295.266H166.405C166.951 295.284 167.494 295.188 168 294.986C168.507 294.783 168.966 294.478 169.349 294.089C169.731 293.7 170.028 293.235 170.222 292.725C170.416 292.215 170.502 291.671 170.474 291.126L166.445 235.833C166.314 234.688 165.764 233.631 164.901 232.866C164.038 232.102 162.922 231.684 161.769 231.694H121.711C121.044 231.681 120.384 231.83 119.787 232.13C119.191 232.429 118.677 232.87 118.289 233.413Z" fill="#50F7BB"/>
</svg>
