<svg width="385" height="366" viewBox="0 0 385 366" fill="none" xmlns="http://www.w3.org/2000/svg">
<path d="M184.971 365.787C287.128 365.787 369.942 360.952 369.942 354.987C369.942 349.023 287.128 344.188 184.971 344.188C82.8144 344.188 0 349.023 0 354.987C0 360.952 82.8144 365.787 184.971 365.787Z" fill="#F5F5F5"/>
<path d="M83.9425 150.936H38.1218V354.815H83.9425V150.936Z" fill="#50F7BB"/>
<path opacity="0.7" d="M83.9425 150.936H38.1218V354.815H83.9425V150.936Z" fill="#FAFAFA"/>
<path d="M154.042 83.5457H108.222V354.806H154.042V83.5457Z" fill="#50F7BB"/>
<path opacity="0.1" d="M154.042 83.5457H108.222V354.806H154.042V83.5457Z" fill="black"/>
<path d="M224.152 150.936H178.331V354.815H224.152V150.936Z" fill="#50F7BB"/>
<path opacity="0.4" d="M224.152 150.936H178.331V354.815H224.152V150.936Z" fill="black"/>
<path d="M67.6863 150.936H21.8657V354.815H67.6863V150.936Z" fill="#50F7BB"/>
<path opacity="0.8" d="M67.6863 150.936H21.8657V354.815H67.6863V150.936Z" fill="#FAFAFA"/>
<path d="M137.796 83.5457H91.9751V354.806H137.796V83.5457Z" fill="#50F7BB"/>
<path opacity="0.2" d="M137.796 83.5457H91.9751V354.806H137.796V83.5457Z" fill="#FAFAFA"/>
<path d="M207.896 150.936H162.075V354.815H207.896V150.936Z" fill="#50F7BB"/>
<path opacity="0.2" d="M207.896 150.936H162.075V354.815H207.896V150.936Z" fill="black"/>
<path d="M379.282 261.266H378.328C378.304 243.68 373.461 226.436 364.323 211.41L365.143 210.914C374.367 226.092 379.257 243.506 379.282 261.266ZM359.019 203.607C356.327 200.046 353.388 196.68 350.223 193.532L350.9 192.865C354.1 196.051 357.068 199.463 359.782 203.072L359.019 203.607Z" fill="#50F7BB"/>
<path opacity="0.3" d="M379.282 261.266H378.328C378.304 243.68 373.461 226.436 364.323 211.41L365.143 210.914C374.367 226.092 379.257 243.506 379.282 261.266ZM359.019 203.607C356.327 200.046 353.388 196.68 350.223 193.532L350.9 192.865C354.1 196.051 357.068 199.463 359.782 203.072L359.019 203.607Z" fill="black"/>
<path d="M348.544 195.173C331.004 177.64 307.222 167.785 282.422 167.774H268.923V168.776C257.219 170.484 245.944 174.394 235.695 180.3C191.258 205.934 175.794 263.603 201.428 308.012C208.487 320.248 218.228 330.725 229.918 338.656C241.609 346.588 254.944 351.766 268.923 353.804V354.758H282.441C300.94 354.767 319.025 349.288 334.409 339.014C349.793 328.741 361.783 314.134 368.862 297.044C375.941 279.953 377.791 261.147 374.177 243.004C370.564 224.862 361.65 208.199 348.563 195.125L348.544 195.173ZM282.422 330.412C268.751 330.414 255.385 326.362 244.017 318.768C232.648 311.174 223.786 300.38 218.552 287.75C213.318 275.12 211.947 261.221 214.612 247.812C217.276 234.402 223.857 222.084 233.522 212.415C243.188 202.746 255.503 196.16 268.912 193.489C282.32 190.819 296.219 192.185 308.851 197.414C321.483 202.643 332.281 211.5 339.88 222.865C347.478 234.231 351.536 247.594 351.54 261.266C351.563 270.351 349.792 279.35 346.328 287.749C342.863 296.147 337.773 303.777 331.351 310.203C324.928 316.628 317.299 321.721 308.903 325.189C300.506 328.657 291.507 330.432 282.422 330.412Z" fill="#50F7BB"/>
<path opacity="0.3" d="M348.544 195.173C331.004 177.64 307.222 167.785 282.422 167.774H268.923V168.776C257.219 170.484 245.944 174.394 235.695 180.3C191.258 205.934 175.794 263.603 201.428 308.012C208.487 320.248 218.228 330.725 229.918 338.656C241.609 346.588 254.944 351.766 268.923 353.804V354.758H282.441C300.94 354.767 319.025 349.288 334.409 339.014C349.793 328.741 361.783 314.134 368.862 297.044C375.941 279.953 377.791 261.147 374.177 243.004C370.564 224.862 361.65 208.199 348.563 195.125L348.544 195.173ZM282.422 330.412C268.751 330.414 255.385 326.362 244.017 318.768C232.648 311.174 223.786 300.38 218.552 287.75C213.318 275.12 211.947 261.221 214.612 247.812C217.276 234.402 223.857 222.084 233.522 212.415C243.188 202.746 255.503 196.16 268.912 193.489C282.32 190.819 296.219 192.185 308.851 197.414C321.483 202.643 332.281 211.5 339.88 222.865C347.478 234.231 351.536 247.594 351.54 261.266C351.563 270.351 349.792 279.35 346.328 287.749C342.863 296.147 337.773 303.777 331.351 310.203C324.928 316.628 317.299 321.721 308.903 325.189C300.506 328.657 291.507 330.432 282.422 330.412Z" fill="black"/>
<path d="M338.021 261.266H362.415C362.433 281.862 355.65 301.887 343.118 318.232C330.587 334.577 313.009 346.327 293.115 351.656C273.22 356.985 252.123 355.596 233.099 347.704C214.075 339.812 198.189 325.859 187.909 308.012L209.05 295.81C216.653 308.992 228.394 319.295 242.451 325.122C256.508 330.949 272.095 331.973 286.793 328.036C301.492 324.099 314.48 315.421 323.743 303.348C333.006 291.275 338.025 276.483 338.021 261.266Z" fill="#50F7BB"/>
<path opacity="0.2" d="M338.021 261.266H362.415C362.433 281.862 355.65 301.887 343.118 318.232C330.587 334.577 313.009 346.327 293.115 351.656C273.22 356.985 252.123 355.596 233.099 347.704C214.075 339.812 198.189 325.859 187.909 308.012L209.05 295.81C216.653 308.992 228.394 319.295 242.451 325.122C256.508 330.949 272.095 331.973 286.793 328.036C301.492 324.099 314.48 315.421 323.743 303.348C333.006 291.275 338.025 276.483 338.021 261.266Z" fill="#FAFAFA"/>
<path d="M268.923 167.774C293.714 167.789 317.485 177.644 335.015 195.174C352.545 212.704 362.4 236.475 362.415 261.266H338.021C338.011 242.943 330.728 225.374 317.772 212.417C304.816 199.461 287.246 192.178 268.923 192.168V167.774Z" fill="#50F7BB"/>
<path d="M268.923 167.774V192.168C256.791 192.164 244.871 195.355 234.363 201.419C223.855 207.484 215.129 216.208 209.062 226.715C202.996 237.222 199.802 249.14 199.804 261.273C199.805 273.405 203.001 285.324 209.069 295.829L187.91 308.012C162.276 263.584 177.73 205.934 222.158 180.281C236.381 172.085 252.508 167.772 268.923 167.774Z" fill="#50F7BB"/>
<path opacity="0.8" d="M268.923 167.774V192.168C256.791 192.164 244.871 195.355 234.363 201.419C223.855 207.484 215.129 216.208 209.062 226.715C202.996 237.222 199.802 249.14 199.804 261.273C199.805 273.405 203.001 285.324 209.069 295.829L187.91 308.012C162.276 263.584 177.73 205.934 222.158 180.281C236.381 172.085 252.508 167.772 268.923 167.774Z" fill="#FAFAFA"/>
<path d="M245.999 233.057L238.5 237.445L227.195 220.76L234.694 216.371L245.999 233.057Z" fill="#FFC3BD"/>
<path d="M234.331 232.704L242.555 227.466C242.695 227.372 242.864 227.333 243.031 227.355C243.199 227.378 243.351 227.462 243.461 227.59L248.546 233.505C248.667 233.659 248.755 233.836 248.804 234.026C248.853 234.216 248.861 234.414 248.829 234.607C248.797 234.8 248.724 234.984 248.616 235.148C248.508 235.311 248.367 235.45 248.202 235.556C245.34 237.331 243.814 238.046 240.198 240.326C237.966 241.738 233.52 244.905 230.439 246.871C227.357 248.836 225.268 245.917 226.375 244.8C231.326 239.906 232.499 236.768 233.396 233.906C233.562 233.41 233.891 232.986 234.331 232.704Z" fill="#333333"/>
<path d="M230.563 236.377H230.343C230.168 236.346 230.003 236.274 229.862 236.166C229.721 236.058 229.608 235.917 229.532 235.757C229.481 235.667 229.453 235.565 229.453 235.461C229.453 235.357 229.481 235.255 229.532 235.165C230.105 234.125 233.94 233.763 234.379 233.725C234.409 233.721 234.439 233.727 234.465 233.742C234.491 233.758 234.511 233.782 234.522 233.81C234.54 233.834 234.549 233.862 234.549 233.892C234.549 233.921 234.54 233.949 234.522 233.973C233.53 234.888 231.784 236.377 230.563 236.377ZM233.978 234.049C232.642 234.202 230.162 234.612 229.79 235.299C229.761 235.346 229.746 235.401 229.746 235.456C229.746 235.512 229.761 235.566 229.79 235.613C229.843 235.734 229.926 235.84 230.032 235.92C230.137 236 230.26 236.052 230.391 236.071C231.126 236.195 232.452 235.442 233.978 234.049Z" fill="#50F7BB"/>
<path d="M233.902 234.039C232.633 234.039 230.563 233.581 230.229 232.808C230.143 232.608 230.124 232.303 230.544 231.978C230.697 231.853 230.874 231.761 231.065 231.708C231.255 231.655 231.455 231.644 231.65 231.673C233.034 231.854 234.446 233.695 234.512 233.772C234.526 233.793 234.533 233.818 234.533 233.843C234.533 233.869 234.526 233.893 234.512 233.915C234.505 233.938 234.491 233.958 234.473 233.973C234.454 233.989 234.431 233.998 234.407 234.001C234.24 234.028 234.071 234.041 233.902 234.039ZM231.44 231.95C231.179 231.949 230.926 232.04 230.725 232.207C230.391 232.465 230.467 232.636 230.496 232.694C230.754 233.295 232.852 233.819 234.112 233.743C233.485 232.903 232.611 232.279 231.612 231.959L231.44 231.95Z" fill="#50F7BB"/>
<path d="M266.643 103.379C266.5 104.133 266.385 104.667 266.242 105.287L265.794 107.052C265.479 108.226 265.145 109.37 264.84 110.515C264.115 112.795 263.314 115.028 262.465 117.193C261.615 119.359 260.681 121.582 259.717 123.728C259.24 124.806 258.763 125.865 258.21 126.924L257.819 127.725L257.599 128.164C257.494 128.384 257.38 128.603 257.256 128.813C256.793 129.6 256.232 130.324 255.586 130.969C254.466 132.061 253.177 132.966 251.77 133.65C250.542 134.251 249.265 134.749 247.954 135.138C245.551 135.836 243.089 136.315 240.599 136.569C235.842 137.064 231.046 137.064 226.289 136.569L226.365 132.085C228.54 131.847 230.811 131.599 233.043 131.226C235.276 130.854 237.422 130.482 239.54 129.986C241.591 129.511 243.601 128.873 245.55 128.078C247.148 127.524 248.597 126.61 249.786 125.407C249.94 125.227 250.066 125.024 250.158 124.806L250.644 123.556C251.064 122.516 251.455 121.467 251.846 120.418C252.648 118.328 253.373 116.211 254.107 114.112C254.842 112.013 255.51 109.886 256.12 107.768C256.445 106.709 256.75 105.659 257.074 104.61L257.485 103.036L257.838 101.586L266.643 103.379Z" fill="#FFC3BD"/>
<path d="M260.585 92.2272C257.008 93.1812 254.499 107.863 254.499 107.863L264.363 114.541C264.363 114.541 273.817 99.6874 271.041 95.757C268.198 91.6834 265.804 90.9011 260.585 92.2272Z" fill="#50F7BB"/>
<path opacity="0.6" d="M260.585 92.2272C257.008 93.1812 254.499 107.863 254.499 107.863L264.363 114.541C264.363 114.541 273.817 99.6874 271.041 95.757C268.198 91.6834 265.804 90.9011 260.585 92.2272Z" fill="#FAFAFA"/>
<path d="M260.261 97.5791L267.893 99.3535L268.627 106.842C267.328 109.489 265.896 112.069 264.334 114.57L258.429 110.534C258.639 107.062 259.288 99.9069 260.261 97.5791Z" fill="#50F7BB"/>
<path opacity="0.3" d="M260.261 97.5791L267.893 99.3535L268.627 106.842C267.328 109.489 265.896 112.069 264.334 114.57L258.429 110.534C258.639 107.062 259.288 99.9069 260.261 97.5791Z" fill="#FAFAFA"/>
<path d="M227.625 132.075L221.471 125.798L220.66 134.594C220.66 134.594 225.278 137.714 228.474 136.035L227.625 132.075Z" fill="#FFC3BD"/>
<path d="M214.23 124.901L213.944 132.304L220.66 134.632L221.462 125.836L214.23 124.901Z" fill="#FFC3BD"/>
<path d="M212.341 235.432L206.179 229.316L218.342 213.07L224.505 219.175L212.341 235.432Z" fill="#FFC3BD"/>
<path d="M209.632 225.014L218.523 229.04C218.678 229.104 218.804 229.224 218.874 229.376C218.945 229.528 218.956 229.701 218.905 229.861L216.739 237.349C216.678 237.536 216.578 237.708 216.446 237.853C216.313 237.999 216.152 238.115 215.972 238.194C215.792 238.273 215.598 238.314 215.401 238.313C215.205 238.312 215.011 238.27 214.831 238.189C211.759 236.729 210.348 235.871 206.436 234.106C204.032 233.018 197.755 230.471 194.435 228.973C191.115 227.476 192.422 224.108 193.939 224.432C200.75 225.911 205.215 225.711 208.096 224.9C208.606 224.759 209.149 224.8 209.632 225.014Z" fill="#333333"/>
<path d="M227.205 220.759L233.034 229.365L240.532 224.976L234.703 216.381L227.205 220.759Z" fill="#FFC3BD"/>
<path d="M224.505 219.175L218.332 213.07L212.065 221.446L218.237 227.561L224.505 219.175Z" fill="#FFC3BD"/>
<path d="M299.995 144.64H264.697C256.407 93.6867 260.547 92.2367 260.547 92.2367C260.547 92.2367 266.223 91.0728 272.167 90.3287C273.188 90.2047 274.208 90.0902 275.22 89.9948C280.552 89.6127 285.905 89.6127 291.237 89.9948C292.248 90.0425 293.26 90.1188 294.252 90.2047C298.266 90.5683 302.257 91.1575 306.205 91.9695C299.384 121.439 299.451 130.282 299.995 144.64Z" fill="#50F7BB"/>
<path opacity="0.6" d="M299.995 144.64H264.697C256.407 93.6867 260.547 92.2367 260.547 92.2367C260.547 92.2367 266.223 91.0728 272.167 90.3287C273.188 90.2047 274.208 90.0902 275.22 89.9948C280.552 89.6127 285.905 89.6127 291.237 89.9948C292.248 90.0425 293.26 90.1188 294.252 90.2047C298.266 90.5683 302.257 91.1575 306.205 91.9695C299.384 121.439 299.451 130.282 299.995 144.64Z" fill="#FAFAFA"/>
<path d="M294.29 90.2136L293.908 91.1104C293.708 91.6065 288.795 103.15 279.274 110.858L276.946 112.766L275.162 110.353C269.81 103.102 271.413 93.6767 272.205 90.3663C273.226 90.2423 274.246 90.1278 275.258 90.0324C280.59 89.6503 285.943 89.6503 291.275 90.0324C292.287 90.0514 293.298 90.1278 294.29 90.2136Z" fill="#50F7BB"/>
<path opacity="0.1" d="M294.29 90.2136L293.908 91.1104C293.708 91.6065 288.795 103.15 279.274 110.858L276.946 112.766L275.162 110.353C269.81 103.102 271.413 93.6767 272.205 90.3663C273.226 90.2423 274.246 90.1278 275.258 90.0324C280.59 89.6503 285.943 89.6503 291.275 90.0324C292.287 90.0514 293.298 90.1278 294.29 90.2136Z" fill="#FAFAFA"/>
<path d="M273.531 46.0821C265.823 42.6381 261.186 55.7365 261.711 65.0094C262.235 74.2823 263.619 85.654 259.555 83.746C255.491 81.838 258.372 78.976 258.372 78.976C258.372 78.976 252.648 83.5075 259.145 85.9974C265.641 88.4874 277.194 88.2489 283.949 85.0434C287.812 79.2145 286.152 57.4251 286.152 57.4251L273.531 46.0821Z" fill="#333333"/>
<path d="M289.682 71.9734C288.681 77.125 287.669 86.5696 291.275 90.004C291.275 90.004 286.505 101.29 277.471 108.626C271.804 100.946 275.258 90.004 275.258 90.004C280.982 88.6302 280.858 84.3659 279.856 80.3686L289.682 71.9734Z" fill="#FFC3BD"/>
<path d="M285.675 75.3984L279.856 80.3592C280.108 81.2961 280.275 82.2541 280.352 83.2212C282.546 82.9064 285.561 80.4928 285.799 78.1937C285.931 77.2622 285.889 76.3146 285.675 75.3984Z" fill="#FFC3BD"/>
<path d="M290.293 58.3981C291.247 66.9841 291.886 70.5616 288.385 75.6655C283.119 83.3548 272.386 82.706 268.856 74.6161C265.68 67.3371 264.583 54.5821 272.272 49.7072C273.961 48.6271 275.899 47.9973 277.901 47.8776C279.902 47.758 281.902 48.1524 283.708 49.0235C285.514 49.8946 287.067 51.2133 288.22 52.8542C289.372 54.495 290.086 56.4035 290.293 58.3981Z" fill="#FFC3BD"/>
<path d="M273.226 52.5023C276.307 56.118 285.628 66.6406 292.134 65.2764C298.812 63.874 299.041 51.4434 290.989 46.3013C282.938 41.1593 264.955 42.8001 273.226 52.5023Z" fill="#333333"/>
<path d="M292.525 37.4099C286.391 35.3779 285.847 41.369 286.324 45.0992L293.861 50.6419C296.269 50.2619 298.601 49.4986 300.768 48.3809C303.725 46.6923 298.659 39.4419 292.525 37.4099Z" fill="#333333"/>
<path d="M293.908 65.7536C293.731 67.4042 292.937 68.9271 291.685 70.018C290.006 71.4394 288.337 70.1802 288.098 68.11C287.889 66.2592 288.509 63.34 290.531 62.6626C292.554 61.9853 294.099 63.7311 293.908 65.7536Z" fill="#FFC3BD"/>
<path d="M230.296 182.084C230.038 189.831 232.404 199.256 234.999 207.117C235.552 208.796 236.115 210.408 236.668 211.887C239.034 218.336 241.152 222.829 241.152 222.829L230.763 228.744C230.763 228.744 229.351 226.97 227.271 223.85C226.317 222.477 225.306 220.826 224.19 218.956C218.371 209.225 210.758 193.322 210.395 176.398C209.823 149.915 264.716 144.64 264.716 144.64H290.674L283.405 165.294C283.405 165.294 230.763 167.994 230.296 182.084Z" fill="#50F7BB"/>
<path opacity="0.6" d="M230.296 182.084C230.038 189.831 232.404 199.256 234.999 207.117C235.552 208.796 236.115 210.408 236.668 211.887C239.034 218.336 241.152 222.829 241.152 222.829L230.763 228.744C230.763 228.744 229.351 226.97 227.271 223.85C226.317 222.477 225.306 220.826 224.19 218.956C218.371 209.225 210.758 193.322 210.395 176.398C209.823 149.915 264.716 144.64 264.716 144.64H290.674L283.405 165.294C283.405 165.294 230.763 167.994 230.296 182.084Z" fill="black"/>
<path d="M236.668 211.935C235.314 214.186 231.65 219.92 227.291 223.85C226.337 222.476 225.325 220.826 224.209 218.956L234.999 207.146C235.533 208.796 236.115 210.437 236.668 211.935Z" fill="#333333"/>
<path d="M245.607 160.142L244.501 171.399C236.869 173.803 230.916 177.123 230.334 181.569C229.036 171.59 235.981 165.733 245.607 160.142Z" fill="#333333"/>
<path d="M274.046 144.63C274.046 144.63 241.553 157.891 236.602 172.544C230.286 191.243 213.114 217.669 213.114 217.669L220.326 227.056C220.326 227.056 240.151 207.842 253.659 185.843C270.583 158.177 311.357 187.398 300.043 144.63H274.046Z" fill="#50F7BB"/>
<path opacity="0.6" d="M274.046 144.63C274.046 144.63 241.553 157.891 236.602 172.544C230.286 191.243 213.114 217.669 213.114 217.669L220.326 227.056C220.326 227.056 240.151 207.842 253.659 185.843C270.583 158.177 311.357 187.398 300.043 144.63H274.046Z" fill="black"/>
<path d="M277.872 63.0632C277.996 63.75 277.729 64.3797 277.28 64.456C276.832 64.5323 276.326 64.0458 276.24 63.3494C276.154 62.653 276.383 62.0424 276.832 61.9565C277.28 61.8707 277.748 62.3763 277.872 63.0632Z" fill="#333333"/>
<path d="M270.077 64.4562C270.202 65.1431 269.934 65.7727 269.486 65.849C269.038 65.9254 268.532 65.4388 268.446 64.7519C268.36 64.0651 268.589 63.4354 269.038 63.3496C269.486 63.2637 269.953 63.7884 270.077 64.4562Z" fill="#333333"/>
<path d="M269.247 63.3588L267.502 63.1775C267.502 63.1775 268.589 64.3128 269.247 63.3588Z" fill="#333333"/>
<path d="M272.348 65.2764C272.016 66.9575 271.454 68.585 270.678 70.1131C271.077 70.2984 271.512 70.3944 271.952 70.3944C272.392 70.3944 272.827 70.2984 273.226 70.1131L272.348 65.2764Z" fill="#FFC3BD"/>
<path d="M277.194 71.9258C277.168 71.9245 277.142 71.9157 277.12 71.9005C277.098 71.8854 277.081 71.8644 277.07 71.84C277.058 71.807 277.059 71.7706 277.073 71.7384C277.087 71.7062 277.114 71.681 277.147 71.6682C278.452 71.0345 279.473 69.9353 280.009 68.5868C280.014 68.5709 280.022 68.5563 280.034 68.5438C280.045 68.5313 280.058 68.5211 280.073 68.514C280.089 68.5069 280.105 68.5029 280.122 68.5023C280.138 68.5017 280.155 68.5045 280.171 68.5105C280.204 68.5234 280.231 68.5481 280.247 68.5798C280.263 68.6115 280.266 68.648 280.257 68.6822C279.69 70.1076 278.602 71.2639 277.213 71.9163L277.194 71.9258Z" fill="#333333"/>
<path d="M278.74 59.972C278.673 59.9731 278.608 59.9493 278.558 59.9052C278.169 59.5374 277.698 59.2656 277.185 59.1116C276.671 58.9576 276.129 58.9255 275.601 59.018C275.568 59.0281 275.533 59.0314 275.498 59.0277C275.464 59.024 275.431 59.0134 275.4 58.9965C275.37 58.9795 275.343 58.9566 275.322 58.9292C275.301 58.9017 275.285 58.8703 275.277 58.8367C275.259 58.7697 275.268 58.6984 275.302 58.6379C275.336 58.5773 275.392 58.5323 275.458 58.5124C276.072 58.3823 276.709 58.4011 277.315 58.567C277.92 58.733 278.478 59.0413 278.94 59.4664C278.988 59.5162 279.016 59.5829 279.016 59.6524C279.016 59.7218 278.988 59.7886 278.94 59.8384C278.92 59.8753 278.891 59.9068 278.856 59.93C278.822 59.9533 278.781 59.9677 278.74 59.972Z" fill="#333333"/>
<path d="M265.823 61.3552H265.727C265.663 61.3259 265.612 61.273 265.585 61.2073C265.559 61.1416 265.558 61.0682 265.584 61.0022C265.822 60.4203 266.195 59.9036 266.673 59.4953C267.151 59.087 267.72 58.7991 268.332 58.6554C268.4 58.644 268.47 58.6602 268.526 58.7005C268.583 58.7407 268.621 58.8017 268.632 58.8701C268.643 58.9384 268.627 59.0084 268.587 59.0648C268.547 59.1211 268.486 59.1592 268.417 59.1706C267.893 59.3022 267.407 59.5557 267 59.9104C266.592 60.2652 266.274 60.7112 266.071 61.2121C266.047 61.2571 266.011 61.2944 265.967 61.3197C265.923 61.3451 265.873 61.3574 265.823 61.3552Z" fill="#333333"/>
<path d="M208.554 225.729C207.428 225.51 205.482 224.995 205.053 224.003C204.983 223.826 204.959 223.634 204.984 223.445C205.009 223.256 205.082 223.077 205.196 222.925C205.249 222.824 205.329 222.74 205.426 222.681C205.524 222.623 205.635 222.591 205.749 222.591C206.827 222.591 208.516 225.205 208.697 225.51C208.713 225.532 208.721 225.559 208.721 225.586C208.721 225.614 208.713 225.64 208.697 225.663C208.681 225.685 208.659 225.703 208.634 225.715C208.609 225.726 208.581 225.731 208.554 225.729ZM205.692 222.867C205.627 222.868 205.564 222.886 205.508 222.92C205.453 222.954 205.408 223.001 205.377 223.058C205.292 223.173 205.237 223.308 205.217 223.449C205.197 223.591 205.213 223.735 205.263 223.869C205.52 224.451 206.608 224.995 208.21 225.348C207.6 224.461 206.388 222.867 205.692 222.867Z" fill="#50F7BB"/>
<path d="M208.554 225.73C208.532 225.729 208.51 225.724 208.49 225.714C208.471 225.704 208.453 225.69 208.439 225.672C207.819 224.823 207.266 222.553 207.8 221.799C207.888 221.676 208.017 221.588 208.163 221.55C208.309 221.511 208.465 221.525 208.602 221.589C208.745 221.628 208.878 221.7 208.989 221.8C209.1 221.899 209.186 222.023 209.241 222.162C209.746 223.287 208.735 225.548 208.688 225.644C208.677 225.666 208.661 225.686 208.641 225.701C208.621 225.716 208.598 225.726 208.573 225.73H208.554ZM208.306 221.828C208.251 221.826 208.197 221.838 208.149 221.863C208.1 221.888 208.059 221.925 208.029 221.971C207.629 222.534 208.029 224.385 208.535 225.272C208.773 224.652 209.336 223.087 208.974 222.286C208.934 222.184 208.87 222.094 208.789 222.021C208.708 221.948 208.611 221.895 208.506 221.866C208.442 221.841 208.374 221.828 208.306 221.828Z" fill="#50F7BB"/>
<path d="M277.042 61.9662L275.296 61.7849C275.296 61.7849 276.383 62.9202 277.042 61.9662Z" fill="#333333"/>
<path d="M300.529 142.57L300.806 145.718C300.93 145.966 300.644 146.214 300.233 146.214H264.554C264.239 146.214 263.972 146.061 263.953 145.861L263.638 142.703C263.638 142.484 263.896 142.302 264.239 142.302H299.947C300.059 142.293 300.171 142.312 300.273 142.359C300.375 142.406 300.464 142.478 300.529 142.57Z" fill="#50F7BB"/>
<path opacity="0.2" d="M300.529 142.57L300.806 145.718C300.93 145.966 300.644 146.214 300.233 146.214H264.554C264.239 146.214 263.972 146.061 263.953 145.861L263.638 142.703C263.638 142.484 263.896 142.302 264.239 142.302H299.947C300.059 142.293 300.171 142.312 300.273 142.359C300.375 142.406 300.464 142.478 300.529 142.57Z" fill="#FAFAFA"/>
<path d="M295.731 146.557H296.685C296.875 146.557 297.018 146.462 297.009 146.338L296.56 142.236C296.56 142.121 296.379 142.016 296.188 142.016H295.234C295.044 142.016 294.901 142.121 294.91 142.236L295.358 146.338C295.368 146.462 295.54 146.557 295.731 146.557Z" fill="#50F7BB"/>
<path opacity="0.6" d="M295.731 146.557H296.685C296.875 146.557 297.018 146.462 297.009 146.338L296.56 142.236C296.56 142.121 296.379 142.016 296.188 142.016H295.234C295.044 142.016 294.901 142.121 294.91 142.236L295.358 146.338C295.368 146.462 295.54 146.557 295.731 146.557Z" fill="black"/>
<path d="M267.244 146.557H268.198C268.389 146.557 268.541 146.462 268.522 146.338L268.074 142.236C268.074 142.121 267.893 142.016 267.702 142.016H266.748C266.557 142.016 266.414 142.121 266.424 142.236L266.872 146.338C266.891 146.462 267.015 146.557 267.244 146.557Z" fill="#50F7BB"/>
<path opacity="0.6" d="M267.244 146.557H268.198C268.389 146.557 268.541 146.462 268.522 146.338L268.074 142.236C268.074 142.121 267.893 142.016 267.702 142.016H266.748C266.557 142.016 266.414 142.121 266.424 142.236L266.872 146.338C266.891 146.462 267.015 146.557 267.244 146.557Z" fill="black"/>
<path d="M281.487 146.557H282.441C282.632 146.557 282.775 146.462 282.766 146.338L282.317 142.236C282.317 142.121 282.136 142.016 281.945 142.016H280.991C280.8 142.016 280.657 142.121 280.667 142.236L281.115 146.338C281.134 146.462 281.325 146.557 281.487 146.557Z" fill="#50F7BB"/>
<path opacity="0.6" d="M281.487 146.557H282.441C282.632 146.557 282.775 146.462 282.766 146.338L282.317 142.236C282.317 142.121 282.136 142.016 281.945 142.016H280.991C280.8 142.016 280.657 142.121 280.667 142.236L281.115 146.338C281.134 146.462 281.325 146.557 281.487 146.557Z" fill="black"/>
<path d="M297.953 105.65L302.504 109.523C301.55 114.674 300.882 118.967 300.462 122.783C299.613 118.958 297.448 108.626 297.953 105.65Z" fill="#50F7BB"/>
<path opacity="0.3" d="M297.953 105.65L302.504 109.523C301.55 114.674 300.882 118.967 300.462 122.783C299.613 118.958 297.448 108.626 297.953 105.65Z" fill="#FAFAFA"/>
<path d="M201.542 120.265H263.438L272.405 156.803H210.519L201.542 120.265Z" fill="#FAFAFA"/>
<path d="M232.9 150.001L270.755 158.826L295.044 152.024L294.796 150.001H232.9Z" fill="#FAFAFA"/>
<path d="M199.644 120.265H261.53L270.497 156.803H208.611L199.644 120.265Z" fill="#50F7BB"/>
<path opacity="0.2" d="M199.644 120.265H261.53L270.497 156.803H208.611L199.644 120.265Z" fill="#FAFAFA"/>
<path d="M208.611 156.803L208.859 158.826H270.755L270.497 156.803H208.611Z" fill="#50F7BB"/>
<path opacity="0.2" d="M208.611 156.803L208.859 158.826H270.755L270.497 156.803H208.611Z" fill="#FAFAFA"/>
<path d="M309.573 101.672C311.327 106.796 312.811 112.009 314.019 117.289C314.648 119.941 315.173 122.621 315.574 125.407C315.774 126.8 315.936 128.221 316.022 129.71C316.022 130.454 316.079 131.217 316.022 132.018V132.638V132.972L315.974 133.43C315.903 134.023 315.776 134.608 315.593 135.176C314.942 137.042 313.834 138.715 312.368 140.042C311.199 141.125 309.92 142.084 308.552 142.903C306.092 144.364 303.502 145.594 300.815 146.576C298.211 147.53 295.587 148.341 292.964 149.057C290.34 149.772 287.717 150.326 284.979 150.764L283.901 146.405C286.295 145.527 288.766 144.602 291.132 143.543C293.498 142.484 295.902 141.511 298.115 140.356C300.303 139.279 302.399 138.025 304.383 136.607C305.248 135.988 306.047 135.281 306.768 134.499C307.251 134.011 307.611 133.416 307.818 132.762C307.823 131.955 307.769 131.148 307.655 130.349C307.512 129.195 307.302 127.992 307.074 126.771C306.587 124.339 305.957 121.858 305.328 119.368C304.698 116.878 303.944 114.388 303.2 111.908C302.456 109.428 301.693 106.909 300.949 104.486L309.573 101.672Z" fill="#FFC3BD"/>
<path d="M306.244 91.9787C309.783 93.0471 315.192 106.918 315.192 106.918L301.483 116.716C301.483 116.716 295.32 104.858 296.799 100.298C298.345 95.5371 302.218 90.748 306.244 91.9787Z" fill="#50F7BB"/>
<path opacity="0.6" d="M306.244 91.9787C309.783 93.0471 315.192 106.918 315.192 106.918L301.483 116.716C301.483 116.716 295.32 104.858 296.799 100.298C298.345 95.5371 302.218 90.748 306.244 91.9787Z" fill="#FAFAFA"/>
<path d="M285.704 146.72L277.509 144.63L281.43 152.549C281.43 152.549 287.001 152.787 288.843 149.687L285.704 146.72Z" fill="#FFC3BD"/>
<path d="M270.822 147.645L274.456 154.084L281.392 152.548L277.471 144.64L270.822 147.645Z" fill="#FFC3BD"/>
<path d="M336.47 65.9404C334.224 65.9404 332.069 65.048 330.481 63.4595C328.892 61.871 328 59.7166 328 57.4702C328 55.2237 328.892 53.0693 330.481 51.4809C332.069 49.8924 334.224 49 336.47 49C338.717 49 340.871 49.8924 342.459 51.4809C344.048 53.0693 344.94 55.2237 344.94 57.4702C344.94 59.7166 344.048 61.871 342.459 63.4595C340.871 65.048 338.717 65.9404 336.47 65.9404Z" fill="#333333"/>
<path fill-rule="evenodd" clip-rule="evenodd" d="M341.357 57.2539C341.319 56.0759 340.827 54.9583 339.983 54.1347C339.14 53.3111 338.011 52.8451 336.833 52.8342C335.654 52.8232 334.517 53.2682 333.658 54.076C332.8 54.8838 332.287 55.9921 332.227 57.1692C332.227 57.237 332.227 57.3005 332.227 57.3683C332.222 58.1935 332.441 59.0045 332.862 59.7145L332.04 62.1455L334.581 61.3408C335.275 61.7231 336.055 61.9187 336.847 61.9085C337.639 61.8983 338.414 61.6825 339.097 61.2824C339.78 60.8824 340.348 60.3116 340.744 59.6262C341.14 58.9408 341.352 58.1642 341.357 57.3725C341.36 57.333 341.36 57.2934 341.357 57.2539ZM336.792 61.1799C336.039 61.1832 335.303 60.9636 334.675 60.5488L333.196 61.0189L333.675 59.6044C333.203 58.9544 332.948 58.1718 332.947 57.3683C332.94 57.2455 332.94 57.1226 332.947 56.9998C333.05 56.0515 333.502 55.1754 334.215 54.5418C334.928 53.9081 335.852 53.5622 336.806 53.5712C337.76 53.5802 338.676 53.9434 339.377 54.5903C340.078 55.2372 340.514 56.1217 340.599 57.0718C340.599 57.1692 340.599 57.2666 340.599 57.3683C340.599 58.3784 340.198 59.3473 339.485 60.062C338.771 60.7767 337.802 61.1787 336.792 61.1799Z" fill="#50F7BB"/>
<path fill-rule="evenodd" clip-rule="evenodd" d="M338.884 58.2833C338.77 58.2282 338.223 57.9572 338.118 57.9233C338.012 57.8894 337.944 57.8682 337.868 57.9783C337.792 58.0884 337.576 58.3383 337.512 58.4018C337.448 58.4654 337.381 58.4865 337.266 58.4315C336.937 58.3023 336.633 58.1159 336.369 57.8809C336.124 57.6564 335.914 57.3966 335.746 57.1101C335.734 57.0924 335.726 57.0725 335.722 57.0515C335.718 57.0306 335.718 57.0091 335.722 56.9882C335.727 56.9673 335.735 56.9475 335.747 56.9299C335.759 56.9123 335.775 56.8973 335.793 56.8857C335.848 56.8349 335.907 56.7544 335.962 56.6909L336.004 56.6358C336.032 56.5941 336.056 56.5502 336.076 56.5045C336.092 56.4745 336.101 56.4411 336.101 56.4071C336.101 56.3732 336.092 56.3397 336.076 56.3097C336.047 56.2547 335.822 55.7083 335.729 55.4839C335.636 55.2594 335.543 55.3018 335.475 55.3018C335.407 55.3018 335.335 55.3018 335.263 55.3018C335.206 55.3036 335.15 55.317 335.099 55.341C335.047 55.365 335.001 55.3992 334.962 55.4415C334.837 55.5605 334.737 55.7045 334.67 55.8642C334.603 56.0239 334.57 56.1958 334.573 56.369C334.574 56.4966 334.592 56.6234 334.628 56.7459C334.714 57.0251 334.851 57.2863 335.03 57.5167C335.494 58.2506 336.156 58.838 336.94 59.2107C338.079 59.6343 338.079 59.503 338.287 59.486C338.443 59.4564 338.591 59.3939 338.721 59.3026C338.851 59.2113 338.96 59.0934 339.041 58.9566C339.113 58.7901 339.136 58.6066 339.109 58.4273C339.045 58.3636 338.969 58.3145 338.884 58.2833Z" fill="#50F7BB"/>
<path d="M206.47 42.5739C204.224 42.5739 202.069 41.6815 200.481 40.093C198.892 38.5046 198 36.3502 198 34.1037C198 31.8573 198.892 29.7029 200.481 28.1144C202.069 26.5259 204.224 25.6335 206.47 25.6335C208.717 25.6335 210.871 26.5259 212.459 28.1144C214.048 29.7029 214.94 31.8573 214.94 34.1037C214.94 36.3502 214.048 38.5046 212.459 40.093C210.871 41.6815 208.717 42.5739 206.47 42.5739Z" fill="#333333"/>
<path d="M211.54 31.5628C211.48 31.3379 211.361 31.1327 211.197 30.9677C211.033 30.8027 210.828 30.6837 210.604 30.6227C209.778 30.3982 206.47 30.3982 206.47 30.3982C206.47 30.3982 203.163 30.3982 202.337 30.6227C202.112 30.6836 201.908 30.8026 201.745 30.9677C201.581 31.1327 201.464 31.338 201.405 31.5628C201.106 33.2579 201.106 34.9923 201.405 36.6873C201.464 36.9121 201.581 37.1174 201.745 37.2825C201.908 37.4475 202.112 37.5666 202.337 37.6275C203.163 37.852 206.47 37.852 206.47 37.852C206.47 37.852 209.778 37.852 210.604 37.6275C210.828 37.5664 211.033 37.4474 211.197 37.2824C211.361 37.1174 211.48 36.9122 211.54 36.6873C211.833 34.9918 211.833 33.2584 211.54 31.5628Z" fill="#50F7BB"/>
<path d="M205.39 35.6749V32.5325L208.156 34.1037L205.39 35.6749Z" fill="#333333"/>
<path d="M359.47 101.94C357.224 101.94 355.069 101.048 353.481 99.4595C351.892 97.871 351 95.7166 351 93.4702C351 91.2237 351.892 89.0693 353.481 87.4809C355.069 85.8924 357.224 85 359.47 85C361.717 85 363.871 85.8924 365.459 87.4809C367.048 89.0693 367.94 91.2237 367.94 93.4702C367.94 95.7166 367.048 97.871 365.459 99.4595C363.871 101.048 361.717 101.94 359.47 101.94Z" fill="#333333"/>
<path d="M358.128 98.586H360.19V93.415H361.634L361.787 91.6828H360.19V90.696C360.19 90.2725 360.275 90.1243 360.669 90.1243H361.787V88.3286H360.355C358.818 88.3286 358.128 89.0062 358.128 90.3022V91.6828H357.052V93.4361H358.128V98.586Z" fill="#50F7BB"/>
<path d="M326.47 16.9404C324.224 16.9404 322.069 16.048 320.481 14.4595C318.892 12.871 318 10.7166 318 8.47018C318 6.22375 318.892 4.06932 320.481 2.48086C322.069 0.892391 324.224 0 326.47 0C328.717 0 330.871 0.892391 332.46 2.48086C334.048 4.06932 334.94 6.22375 334.94 8.47018C334.94 10.7166 334.048 12.871 332.46 14.4595C330.871 16.048 328.717 16.9404 326.47 16.9404Z" fill="#333333"/>
<path d="M326.47 4.6417C327.711 4.6417 327.859 4.64169 328.351 4.67134C328.64 4.67448 328.926 4.7275 329.198 4.82804C329.397 4.90709 329.579 5.02649 329.73 5.17879C329.882 5.33109 330 5.513 330.078 5.71317C330.179 5.98457 330.233 6.27085 330.239 6.56019C330.261 7.05146 330.265 7.19545 330.265 8.44057C330.265 9.68569 330.265 9.82968 330.239 10.3209C330.234 10.6104 330.18 10.8969 330.078 11.168C330.005 11.3714 329.886 11.5553 329.731 11.7058C329.581 11.8595 329.399 11.9781 329.198 12.0531C328.926 12.1536 328.64 12.208 328.351 12.214C327.859 12.214 327.711 12.2394 326.47 12.2394C325.229 12.2394 325.081 12.2394 324.59 12.214C324.3 12.208 324.014 12.1536 323.743 12.0531C323.541 11.9781 323.359 11.8595 323.209 11.7058C323.054 11.5553 322.935 11.3714 322.862 11.168C322.76 10.8969 322.706 10.6104 322.701 10.3209C322.68 9.82968 322.671 9.68145 322.671 8.44057C322.671 7.19969 322.671 7.05146 322.701 6.56019C322.707 6.27085 322.761 5.98457 322.862 5.71317C322.94 5.513 323.058 5.33109 323.21 5.17879C323.362 5.02649 323.543 4.90709 323.743 4.82804C324.014 4.7275 324.301 4.67448 324.59 4.67134C325.081 4.64593 325.229 4.6417 326.47 4.6417ZM326.47 3.79468C325.2 3.79468 325.047 3.79467 324.552 3.82432C324.165 3.83128 323.783 3.90434 323.421 4.04031C323.113 4.16104 322.833 4.34411 322.599 4.57805C322.365 4.81199 322.182 5.09175 322.061 5.39977C321.925 5.76161 321.852 6.14406 321.845 6.53054C321.824 7.02605 321.82 7.18274 321.82 8.44903C321.82 9.71533 321.82 9.86779 321.845 10.3675C321.853 10.7526 321.926 11.1336 322.061 11.4941C322.179 11.805 322.362 12.0868 322.599 12.3199C322.831 12.5555 323.111 12.7376 323.421 12.8535C323.782 12.9912 324.165 13.0643 324.552 13.0695C325.047 13.0949 325.208 13.0992 326.47 13.0992C327.732 13.0992 327.893 13.0992 328.389 13.0695C328.774 13.0648 329.155 12.9917 329.515 12.8535C329.826 12.7388 330.108 12.5565 330.341 12.3199C330.578 12.0868 330.761 11.805 330.879 11.4941C331.012 11.1329 331.085 10.7523 331.095 10.3675C331.116 9.86779 331.12 9.71109 331.12 8.44903C331.12 7.18698 331.12 7.02605 331.095 6.53054C331.085 6.14432 331.012 5.76229 330.879 5.39977C330.758 5.09108 330.575 4.81084 330.34 4.57681C330.105 4.34279 329.824 4.1601 329.515 4.04031C329.155 3.90425 328.774 3.83118 328.389 3.82432C327.893 3.80314 327.732 3.79468 326.47 3.79468Z" fill="#50F7BB"/>
<path d="M326.47 6.05591C325.998 6.05591 325.536 6.196 325.143 6.45846C324.75 6.72093 324.444 7.09397 324.263 7.53042C324.083 7.96688 324.035 8.44715 324.128 8.91049C324.22 9.37383 324.447 9.79944 324.781 10.1335C325.115 10.4675 325.541 10.695 326.004 10.7872C326.468 10.8794 326.948 10.8321 327.384 10.6513C327.821 10.4705 328.194 10.1643 328.456 9.77153C328.719 9.37873 328.859 8.91692 328.859 8.4445C328.859 8.13067 328.798 7.81981 328.678 7.52977C328.558 7.23972 328.382 6.97618 328.16 6.75427C327.939 6.53236 327.675 6.35644 327.385 6.2366C327.095 6.11676 326.784 6.05535 326.47 6.05591ZM326.47 9.99454C326.164 9.99454 325.864 9.90364 325.609 9.73332C325.354 9.56299 325.155 9.32091 325.038 9.03768C324.921 8.75444 324.89 8.44278 324.95 8.1421C325.01 7.84142 325.157 7.56523 325.374 7.34846C325.591 7.13168 325.867 6.98405 326.168 6.92424C326.468 6.86443 326.78 6.89513 327.063 7.01245C327.347 7.12977 327.589 7.32844 327.759 7.58334C327.929 7.83825 328.02 8.13793 328.02 8.4445C328.02 8.8556 327.857 9.24986 327.566 9.54055C327.276 9.83124 326.881 9.99454 326.47 9.99454Z" fill="#50F7BB"/>
<path d="M329.511 5.9713C329.512 6.08204 329.48 6.19054 329.419 6.28302C329.358 6.37551 329.271 6.44782 329.169 6.49079C329.067 6.53375 328.954 6.54543 328.845 6.52434C328.737 6.50325 328.637 6.45034 328.558 6.37233C328.48 6.29432 328.426 6.19471 328.404 6.08616C328.382 5.9776 328.393 5.86499 328.435 5.76259C328.477 5.66019 328.549 5.57264 328.641 5.51102C328.733 5.4494 328.841 5.41651 328.952 5.4165C329.099 5.4165 329.241 5.47481 329.346 5.57874C329.45 5.68266 329.51 5.82377 329.511 5.9713Z" fill="#50F7BB"/>
<path d="M272.47 21.9404C270.224 21.9404 268.069 21.048 266.481 19.4595C264.892 17.871 264 15.7166 264 13.4702C264 11.2237 264.892 9.06932 266.481 7.48086C268.069 5.89239 270.224 5 272.47 5C274.717 5 276.871 5.89239 278.459 7.48086C280.048 9.06932 280.94 11.2237 280.94 13.4702C280.94 15.7166 280.048 17.871 278.459 19.4595C276.871 21.048 274.717 21.9404 272.47 21.9404Z" fill="#333333"/>
<path d="M267.951 16.2992C268.766 16.8224 269.709 17.1114 270.677 17.1345C271.645 17.1577 272.6 16.9141 273.439 16.4305C274.278 15.9468 274.967 15.2417 275.432 14.3924C275.897 13.5431 276.119 12.5823 276.074 11.6152C276.438 11.3523 276.752 11.0268 277.002 10.6538C276.662 10.8033 276.303 10.9018 275.934 10.946C276.323 10.7153 276.613 10.3509 276.752 9.92112C276.387 10.135 275.989 10.2868 275.574 10.37C275.294 10.0732 274.924 9.8768 274.521 9.81124C274.118 9.74568 273.705 9.81458 273.345 10.0073C272.985 10.2 272.698 10.5059 272.53 10.8776C272.361 11.2493 272.319 11.6663 272.411 12.0641C271.675 12.0268 270.956 11.8352 270.299 11.5017C269.643 11.1683 269.063 10.7005 268.599 10.1286C268.361 10.5361 268.288 11.019 268.394 11.4788C268.501 11.9385 268.778 12.3402 269.171 12.6019C268.874 12.5942 268.584 12.5158 268.324 12.3732C268.318 12.8054 268.464 13.226 268.735 13.5623C269.007 13.8987 269.387 14.1297 269.81 14.2155C269.534 14.2884 269.244 14.2985 268.963 14.2452C269.085 14.6105 269.317 14.929 269.627 15.1567C269.937 15.3843 270.311 15.5098 270.696 15.5157C270.312 15.8204 269.872 16.0464 269.402 16.1809C268.931 16.3153 268.438 16.3555 267.951 16.2992Z" fill="#50F7BB"/>
<path d="M217.961 96.4926C215.715 96.4926 213.56 95.6002 211.972 94.0117C210.383 92.4233 209.491 90.2689 209.491 88.0224C209.491 85.776 210.383 83.6216 211.972 82.0331C213.56 80.4446 215.715 79.5522 217.961 79.5522C220.208 79.5522 222.362 80.4446 223.95 82.0331C225.539 83.6216 226.431 85.776 226.431 88.0224C226.431 90.2689 225.539 92.4233 223.95 94.0117C222.362 95.6002 220.208 96.4926 217.961 96.4926Z" fill="#333333"/>
<path d="M215.632 85.926H213.874V91.5968H215.632V85.926Z" fill="#50F7BB"/>
<path d="M214.747 85.185C214.955 85.1875 215.16 85.128 215.334 85.0139C215.509 84.8999 215.645 84.7365 215.726 84.5445C215.808 84.3526 215.83 84.1408 215.791 83.9361C215.751 83.7314 215.652 83.5431 215.505 83.3951C215.358 83.2471 215.171 83.1462 214.966 83.1051C214.762 83.064 214.55 83.0846 214.357 83.1644C214.165 83.2442 214 83.3794 213.885 83.553C213.769 83.7265 213.708 83.9305 213.709 84.1389C213.708 84.2758 213.735 84.4113 213.787 84.5379C213.839 84.6646 213.915 84.7797 214.011 84.8769C214.108 84.974 214.222 85.0512 214.348 85.1041C214.474 85.1569 214.61 85.1844 214.747 85.185Z" fill="#50F7BB"/>
<path d="M218.44 88.6196C218.44 87.8234 218.804 87.3491 219.507 87.3491C220.21 87.3491 220.464 87.8065 220.464 88.6196V91.5842H222.213V88.0225C222.213 86.5021 221.366 85.7652 220.146 85.7652C219.807 85.7626 219.473 85.8478 219.176 86.0126C218.879 86.1773 218.63 86.416 218.452 86.7054V85.9388H216.758V91.6139H218.452L218.44 88.6196Z" fill="#50F7BB"/>
<path d="M376.47 46.9403C374.224 46.9403 372.069 46.048 370.481 44.4595C368.892 42.871 368 40.7166 368 38.4702C368 36.2237 368.892 34.0693 370.481 32.4809C372.069 30.8924 374.224 30 376.47 30C377.582 30 378.684 30.2191 379.712 30.6448C380.739 31.0704 381.673 31.6943 382.46 32.4809C383.246 33.2674 383.87 34.2011 384.296 35.2288C384.721 36.2564 384.94 37.3579 384.94 38.4702C384.94 39.5825 384.721 40.6839 384.296 41.7116C383.87 42.7392 383.246 43.673 382.46 44.4595C381.673 45.246 380.739 45.8699 379.712 46.2956C378.684 46.7213 377.582 46.9403 376.47 46.9403Z" fill="#333333"/>
<path d="M371.689 38.4872C371.689 39.7407 372.187 40.9429 373.073 41.8293C373.959 42.7156 375.162 43.2136 376.415 43.2136C376.712 43.2136 377.009 43.1853 377.3 43.1289C377.83 43.4488 378.452 43.5811 379.066 43.5047C379.68 43.4282 380.251 43.1474 380.686 42.7074C381.121 42.2673 381.395 41.6937 381.465 41.0788C381.535 40.4639 381.395 39.8434 381.069 39.3173C381.118 39.0376 381.143 38.7542 381.141 38.4703C381.141 37.8498 381.019 37.2354 380.782 36.6622C380.544 36.089 380.196 35.5683 379.757 35.1297C379.318 34.6912 378.797 34.3434 378.223 34.1064C377.65 33.8693 377.036 33.7476 376.415 33.7482C376.124 33.7468 375.833 33.7738 375.547 33.8286C375.017 33.5024 374.393 33.3649 373.775 33.4386C373.157 33.5122 372.582 33.7927 372.144 34.2343C371.706 34.676 371.43 35.2529 371.361 35.8712C371.292 36.4896 371.435 37.113 371.765 37.6402C371.715 37.9198 371.69 38.2032 371.689 38.4872ZM376.466 35.133C377.991 35.222 378.884 35.8911 378.969 36.5179C378.982 36.6139 378.974 36.7117 378.944 36.8039C378.914 36.8961 378.863 36.9802 378.796 37.05C378.728 37.1198 378.646 37.1733 378.555 37.2066C378.464 37.2399 378.366 37.252 378.27 37.2421C377.58 37.2421 377.508 36.3231 376.322 36.3231C375.788 36.3231 375.335 36.5475 375.335 37.0303C375.335 38.0383 379.147 37.4539 379.147 39.6773C379.147 40.9478 378.122 41.7948 376.606 41.7948C375.259 41.7948 373.904 41.185 373.912 40.1347C373.907 39.9813 373.963 39.8322 374.066 39.7191C374.17 39.606 374.314 39.5378 374.467 39.529C375.259 39.529 375.25 40.7064 376.512 40.7064C377.398 40.7064 377.703 40.2236 377.703 39.8848C377.703 38.6693 373.891 39.4147 373.891 37.1278C373.853 35.8911 374.861 35.0356 376.466 35.133Z" fill="#50F7BB"/>
</svg>
