<svg width="388" height="357" viewBox="0 0 388 357" fill="none" xmlns="http://www.w3.org/2000/svg">
<path d="M194 356.889C301.143 356.889 388 351.539 388 344.94C388 338.341 301.143 332.992 194 332.992C86.8568 332.992 0 338.341 0 344.94C0 351.539 86.8568 356.889 194 356.889Z" fill="#F5F5F5"/>
<path d="M265.141 330.637L257.556 328.441L260.378 309.315L267.962 311.521L265.141 330.637Z" fill="#FFC3BD"/>
<path d="M321.123 335.957H313.248L311.287 316.736H319.162L321.123 335.957Z" fill="#FFC3BD"/>
<path d="M312.608 334.995H322.193C322.35 334.995 322.501 335.052 322.623 335.156C322.745 335.259 322.83 335.404 322.864 335.565L324.424 342.953C324.461 343.134 324.458 343.321 324.416 343.5C324.374 343.679 324.294 343.846 324.183 343.988C324.071 344.13 323.93 344.244 323.771 344.321C323.612 344.397 323.439 344.435 323.264 344.431C320.182 344.378 317.931 344.178 314.039 344.178C311.647 344.178 304.443 344.442 301.141 344.442C297.839 344.442 297.399 341.001 298.75 340.684C304.813 339.291 309.386 337.359 311.327 335.522C311.677 335.184 312.133 334.996 312.608 334.995Z" fill="#333333"/>
<path d="M257.846 327.524L266.131 329.93C266.282 329.976 266.413 330.073 266.504 330.208C266.595 330.342 266.64 330.505 266.631 330.669L266.271 338.216C266.265 338.399 266.218 338.578 266.136 338.739C266.054 338.901 265.938 339.04 265.797 339.147C265.657 339.254 265.494 339.325 265.323 339.356C265.152 339.387 264.977 339.376 264.81 339.325C261.809 338.396 257.566 336.96 253.804 335.873C249.412 334.596 245.55 333.762 240.407 332.242C237.295 331.334 237.295 327.767 238.676 327.841C244.969 328.199 249.852 329.466 255.845 327.619C256.491 327.391 257.184 327.358 257.846 327.524Z" fill="#333333"/>
<path opacity="0.2" d="M260.378 309.325L258.918 319.173L266.512 321.379L267.963 311.531L260.378 309.325Z" fill="#333333"/>
<path opacity="0.2" d="M319.162 316.748H311.287L312.308 326.659H320.172L319.162 316.748Z" fill="#333333"/>
<path d="M227.08 72.9533L226.399 64.9946L219.015 68.784C219.015 68.784 220.956 75.8454 224.618 75.1171L227.08 72.9533Z" fill="#FFC3BD"/>
<path d="M224.738 61.2473L216.413 63.0628L219.035 68.7837L226.399 64.9944L224.738 61.2473Z" fill="#FFC3BD"/>
<path d="M275.537 74.1545C271.605 75.798 267.816 77.7968 264.21 80.1288C263.44 80.5299 262.669 80.931 261.889 81.311C259.988 82.2187 258.057 83.0526 256.116 83.7704C252.487 85.2247 248.658 86.0482 244.779 86.2086C244.359 86.2086 243.929 86.2086 243.529 86.1559H243.238H243.108C243.004 86.142 242.9 86.1209 242.798 86.0925C242.135 85.958 241.493 85.7308 240.887 85.417C239.2 84.4936 237.636 83.3403 236.234 81.9865C233.06 78.9564 230.172 75.6088 227.61 71.9907L222.477 75.0834C224.483 79.7148 226.948 84.1092 229.831 88.193C231.417 90.4448 233.266 92.4769 235.334 94.2412C236.579 95.3052 237.973 96.1597 239.466 96.7744C239.899 96.9402 240.34 97.0812 240.787 97.1966L241.497 97.3655L242.048 97.4605C242.758 97.5977 243.469 97.6822 244.169 97.756C249.363 98.0806 254.572 97.4812 259.578 95.9828C261.659 95.4128 263.68 94.7478 265.671 94.0195C267.812 93.5445 285.422 89.428 288.434 82.7676C292.326 74.144 284.902 70.6291 275.537 74.1545Z" fill="#333333"/>
<path opacity="0.2" d="M272.205 92.2376C274.679 91.491 277.111 90.5958 279.489 89.5566L280.089 82.759C280.089 82.759 275.387 84.7856 272.205 92.2376Z" fill="#333333"/>
<path d="M322.073 75.3584C322.303 75.4211 322.518 75.5309 322.707 75.6817C322.896 75.8324 323.056 76.021 323.176 76.2368C323.295 76.4525 323.374 76.6911 323.406 76.9389C323.438 77.1867 323.424 77.4387 323.364 77.6806C321.306 86.0521 319.792 94.5617 318.831 103.15C318.091 109.579 317.641 115.711 317.37 121.284C316.71 134.331 316.98 144.274 316.62 147.672C310.466 147.229 287.283 145.561 274.596 144.59C268.883 97.3767 279.799 73.0574 279.799 73.0574C283.106 72.4018 286.447 71.9611 289.805 71.738C290.515 71.738 291.236 71.6641 291.976 71.6536C297.945 71.7273 303.905 72.1644 309.826 72.9624C310.947 73.0996 312.077 73.2791 313.188 73.4691C316.81 74.0496 320.072 74.8518 322.073 75.3584Z" fill="#333333"/>
<path opacity="0.2" d="M316.4 83.9719C315.57 89.5602 316.543 95.2805 319.161 100.216C319.662 96.3004 320.282 92.3 321.042 88.2573L316.4 83.9719Z" fill="#333333"/>
<path d="M309.506 51.5994C307.975 57.5842 306.504 68.2555 309.426 73.037C306.274 76.0136 302.522 75.2642 299.31 74.7364C295.398 74.0926 294.878 73.1531 296.118 71.2215C296.889 70.3349 297.029 69.4271 297.759 67.3583C298.35 65.1773 298.398 62.8727 297.899 60.6663L309.506 51.5994Z" fill="#FFC3BD"/>
<path d="M295.858 68.6677C296.368 71.3804 293.186 72.8265 294.117 74.0087C295.048 75.1908 303.342 78.1674 306.994 76.7636C310.646 75.3597 310.256 75.0114 309.996 71.6126C309.736 68.2138 311.797 65.9972 309.136 66.905C307.775 67.3694 300.711 66.145 298.68 66.145C296.648 66.145 295.448 66.4933 295.858 68.6677Z" fill="#333333"/>
<path opacity="0.2" d="M304.774 55.3035L297.9 60.655C298.107 61.7715 298.218 62.9056 298.23 64.0432C300.701 63.8532 304.233 61.2672 304.694 58.5861C304.906 57.5058 304.933 56.3939 304.774 55.3035Z" fill="#333333"/>
<path d="M294.307 31.6617C292.556 32.5166 289.725 36.5065 292.056 39.1453C294.387 41.7841 296.779 30.4689 294.307 31.6617Z" fill="#333333"/>
<path d="M311.807 42.8905C310.517 51.018 310.146 55.8417 305.804 59.61C299.29 65.2676 290.095 60.4544 289.055 52.0841C288.124 44.5582 290.395 32.5358 298.31 30.1292C300.052 29.5854 301.897 29.5211 303.669 29.9422C305.442 30.3633 307.083 31.2559 308.435 32.535C309.788 33.8142 310.809 35.4373 311.399 37.2499C311.989 39.0625 312.13 41.0043 311.807 42.8905Z" fill="#FFC3BD"/>
<path d="M309.506 48.7168C306.624 46.7851 306.504 44.5474 307.375 42.5419C310.146 35.7655 309.376 32.335 304.453 32.9578C299.53 33.5805 292.516 34.1822 293.387 31.8073C294.257 29.4323 300.441 28.4296 305.694 29.084C310.947 29.7384 316.58 34.045 315.459 40.8214C314.379 47.3023 313.068 49.139 309.506 48.7168Z" fill="#333333"/>
<path d="M314.569 50.5661C313.586 52.3604 311.972 53.6728 310.076 54.2182C307.555 54.9148 306.344 52.5294 307.075 49.9961C307.735 47.7689 309.846 44.7185 312.358 45.109C314.869 45.4996 315.75 48.3495 314.569 50.5661Z" fill="#FFC3BD"/>
<path d="M256.566 316.503L269.403 320.229C269.403 320.229 279.519 266.746 280.15 240.896C280.34 233.033 283.561 223.733 286.023 212.059C289.145 197.356 293.027 181.449 296.249 168.994C299.631 155.874 302.202 146.596 302.202 146.596L274.606 144.559C274.606 144.559 260.358 213.6 258.647 238.87C256.856 265.142 256.566 316.503 256.566 316.503Z" fill="#50F7BB"/>
<path opacity="0.4" d="M256.566 316.503L269.403 320.229C269.403 320.229 279.519 266.746 280.15 240.896C280.34 233.033 283.561 223.733 286.023 212.059C289.145 197.356 293.027 181.449 296.249 168.994C299.631 155.874 302.202 146.596 302.202 146.596L274.606 144.559C274.606 144.559 260.358 213.6 258.647 238.87C256.856 265.142 256.566 316.503 256.566 316.503Z" fill="#333333"/>
<path opacity="0.2" d="M286.053 212.06C289.175 197.356 293.057 181.449 296.279 168.994L293.417 162.482C286.543 171.063 284.702 197.631 286.053 212.06Z" fill="#333333"/>
<path d="M289.495 145.657C289.495 145.657 291.496 211.691 294.778 235.757C298.42 262.145 308.665 324.737 308.665 324.737H323.074C323.074 324.737 322.303 265.1 317.791 239.567C312.648 210.498 316.58 147.652 316.58 147.652L289.495 145.657Z" fill="#50F7BB"/>
<path opacity="0.4" d="M289.495 145.657C289.495 145.657 291.496 211.691 294.778 235.757C298.42 262.145 308.665 324.737 308.665 324.737H323.074C323.074 324.737 322.303 265.1 317.791 239.567C312.648 210.498 316.58 147.652 316.58 147.652L289.495 145.657Z" fill="#333333"/>
<path d="M306.945 325.063H323.914V319.712L304.943 319.363L306.945 325.063Z" fill="#333333"/>
<path d="M254.865 316.344L270.174 320.799L271.534 315.584L254.495 310.338L254.865 316.344Z" fill="#333333"/>
<path d="M300.831 43.3451C300.771 44.0101 300.381 44.5168 299.971 44.4745C299.561 44.4323 299.27 43.8518 299.34 43.1868C299.41 42.5218 299.791 42.0152 300.211 42.0574C300.631 42.0996 300.901 42.6801 300.831 43.3451Z" fill="#333333"/>
<path d="M292.917 43.0815C292.857 43.7465 292.466 44.2532 292.046 44.2004C291.626 44.1476 291.356 43.5776 291.426 42.9126C291.496 42.2477 291.876 41.7515 292.296 41.7938C292.716 41.836 292.987 42.4165 292.917 43.0815Z" fill="#333333"/>
<path d="M300.271 48.0845C299.269 48.1629 298.268 47.9213 297.398 47.3911C296.528 46.8609 295.83 46.0667 295.394 45.1118C294.958 44.157 294.804 43.0858 294.953 42.0377C295.103 40.9896 295.547 40.0132 296.23 39.2355C296.913 38.4579 297.801 37.915 298.781 37.6777C299.76 37.4404 300.784 37.5196 301.72 37.9049C302.656 38.2903 303.46 38.964 304.028 39.8383C304.596 40.7126 304.901 41.747 304.904 42.8069C304.947 44.1532 304.485 45.4631 303.617 46.4515C302.749 47.4399 301.547 48.0268 300.271 48.0845ZM300.271 38.0042C299.359 37.9148 298.442 38.1186 297.641 38.5888C296.84 39.0591 296.193 39.7738 295.785 40.6391C295.376 41.5044 295.225 42.4798 295.352 43.4373C295.478 44.3948 295.876 45.2895 296.494 46.0039C297.111 46.7184 297.919 47.2192 298.811 47.4405C299.703 47.6619 300.637 47.5934 301.492 47.2442C302.346 46.8949 303.081 46.2812 303.599 45.4836C304.116 44.6861 304.393 43.7419 304.393 42.7752C304.437 41.5716 304.028 40.3985 303.256 39.511C302.484 38.6236 301.411 38.0934 300.271 38.0359V38.0042Z" fill="white"/>
<path d="M290.055 48.0845C289.053 48.1629 288.052 47.9213 287.182 47.3911C286.312 46.8609 285.614 46.0667 285.178 45.1118C284.742 44.157 284.588 43.0858 284.737 42.0377C284.887 40.9896 285.331 40.0132 286.014 39.2355C286.697 38.4579 287.585 37.915 288.564 37.6777C289.544 37.4404 290.568 37.5196 291.504 37.9049C292.44 38.2903 293.244 38.964 293.812 39.8383C294.38 40.7126 294.685 41.747 294.688 42.8069C294.731 44.1532 294.268 45.4631 293.401 46.4515C292.533 47.4399 291.331 48.0268 290.055 48.0845ZM290.055 38.0042C289.143 37.9106 288.226 38.1099 287.424 38.5758C286.622 39.0418 285.972 39.7528 285.559 40.6154C285.147 41.478 284.991 42.4521 285.112 43.4097C285.234 44.3674 285.627 45.2639 286.24 45.9816C286.853 46.6994 287.658 47.2049 288.548 47.4318C289.438 47.6587 290.373 47.5964 291.229 47.2531C292.085 46.9098 292.823 46.3015 293.345 45.5081C293.868 44.7146 294.151 43.773 294.157 42.8069C294.209 41.6014 293.807 40.4232 293.038 39.5294C292.27 38.6356 291.197 38.0988 290.055 38.0359V38.0042Z" fill="white"/>
<path d="M294.778 43.5134C293.99 45.5435 292.943 47.4505 291.666 49.1816C292.091 49.5142 292.58 49.7451 293.098 49.8581C293.617 49.9712 294.152 49.9636 294.668 49.836L294.778 43.5134Z" fill="#ED847E"/>
<path d="M302.712 41.3069C302.646 41.3221 302.577 41.3172 302.513 41.293C302.45 41.2687 302.394 41.226 302.352 41.1697C302.07 40.7735 301.704 40.4526 301.284 40.2326C300.863 40.0126 300.4 39.8998 299.93 39.9031C299.882 39.9072 299.833 39.9012 299.787 39.8854C299.74 39.8697 299.697 39.8444 299.66 39.8111C299.623 39.7777 299.592 39.737 299.57 39.6912C299.548 39.6454 299.534 39.5955 299.53 39.5442C299.526 39.4929 299.532 39.4413 299.547 39.3923C299.562 39.3433 299.586 39.298 299.617 39.2588C299.649 39.2196 299.688 39.1873 299.731 39.1638C299.774 39.1404 299.822 39.1261 299.87 39.122C300.461 39.1041 301.047 39.2356 301.58 39.5055C302.113 39.7754 302.576 40.176 302.932 40.6736C302.994 40.7565 303.022 40.8616 303.011 40.9663C303 41.071 302.95 41.1668 302.872 41.233C302.824 41.2682 302.769 41.2933 302.712 41.3069Z" fill="#333333"/>
<path d="M296.959 53.3623C297.876 53.3762 298.784 53.1583 299.605 52.7268C300.427 52.2953 301.139 51.6627 301.681 50.8818C301.711 50.8342 301.721 50.7764 301.709 50.7209C301.698 50.6655 301.666 50.6171 301.621 50.5863C301.599 50.571 301.574 50.5606 301.548 50.5555C301.522 50.5504 301.495 50.5509 301.469 50.5567C301.416 50.5686 301.37 50.602 301.341 50.6496C300.831 51.3662 300.169 51.9467 299.408 52.3445C298.647 52.7423 297.808 52.9463 296.959 52.9401C296.932 52.9401 296.906 52.9456 296.882 52.9562C296.858 52.9668 296.836 52.9823 296.817 53.0019C296.799 53.0215 296.784 53.0448 296.774 53.0704C296.764 53.096 296.759 53.1235 296.759 53.1512C296.759 53.1789 296.764 53.2064 296.774 53.232C296.784 53.2576 296.799 53.2809 296.817 53.3005C296.836 53.3201 296.858 53.3356 296.882 53.3462C296.906 53.3568 296.932 53.3623 296.959 53.3623Z" fill="#333333"/>
<path d="M288.554 41.3395C288.473 41.3401 288.394 41.3182 288.324 41.2762C288.242 41.2199 288.184 41.1326 288.162 41.0324C288.14 40.9322 288.155 40.8267 288.204 40.7379C288.505 40.1981 288.925 39.7428 289.429 39.4103C289.932 39.0778 290.504 38.8778 291.096 38.8274C291.195 38.8274 291.29 38.8682 291.361 38.9411C291.432 39.0141 291.473 39.1134 291.476 39.2179C291.473 39.3217 291.434 39.4207 291.365 39.4951C291.297 39.5695 291.204 39.6137 291.106 39.619C290.64 39.6638 290.191 39.8263 289.798 40.0927C289.404 40.3591 289.077 40.7216 288.844 41.1495C288.813 41.2023 288.77 41.2469 288.72 41.2798C288.67 41.3127 288.613 41.3331 288.554 41.3395Z" fill="#333333"/>
<path d="M310.006 336.456C309.469 336.499 308.933 336.35 308.486 336.033C308.344 335.905 308.235 335.741 308.168 335.557C308.102 335.372 308.08 335.173 308.105 334.978C308.103 334.865 308.131 334.753 308.186 334.656C308.24 334.559 308.32 334.48 308.415 334.429C309.296 333.954 311.827 335.601 312.118 335.791C312.147 335.811 312.17 335.839 312.184 335.873C312.199 335.907 312.203 335.944 312.198 335.981C312.194 336.021 312.179 336.059 312.154 336.089C312.129 336.119 312.095 336.141 312.058 336.149C311.387 336.332 310.699 336.434 310.006 336.456ZM308.836 334.735C308.753 334.728 308.669 334.746 308.596 334.788C308.536 334.788 308.486 334.862 308.476 335.02C308.458 335.151 308.472 335.284 308.516 335.407C308.559 335.531 308.631 335.641 308.726 335.727C309.604 336.15 310.603 336.202 311.517 335.875C310.701 335.317 309.79 334.93 308.836 334.735Z" fill="#50F7BB"/>
<path d="M312.067 336.158H311.977C311.167 335.694 309.586 333.868 309.756 332.992C309.784 332.847 309.857 332.717 309.965 332.623C310.072 332.529 310.207 332.477 310.346 332.475C310.489 332.453 310.635 332.465 310.773 332.509C310.911 332.553 311.039 332.627 311.147 332.728C312.057 333.509 312.247 335.894 312.247 336.011C312.252 336.045 312.247 336.081 312.233 336.113C312.219 336.145 312.196 336.172 312.167 336.19C312.132 336.19 312.097 336.179 312.067 336.158ZM310.476 332.791H310.396C310.156 332.791 310.126 332.939 310.126 332.992C310.026 333.53 311.027 334.913 311.837 335.557C311.785 334.612 311.46 333.706 310.907 332.96C310.774 332.84 310.601 332.779 310.426 332.791H310.476Z" fill="#50F7BB"/>
<path d="M256.826 328.408C255.536 328.313 253.284 327.997 252.654 326.973C252.552 326.821 252.49 326.643 252.474 326.458C252.459 326.272 252.489 326.086 252.564 325.917C252.593 325.814 252.647 325.721 252.721 325.647C252.794 325.573 252.885 325.52 252.984 325.495C254.045 325.242 256.676 327.743 256.987 328.028C257.015 328.052 257.036 328.085 257.046 328.121C257.057 328.158 257.057 328.197 257.046 328.233C257.035 328.27 257.014 328.302 256.986 328.326C256.957 328.349 256.923 328.363 256.886 328.366L256.826 328.408ZM253.084 325.917H253.034C252.994 325.928 252.958 325.951 252.93 325.983C252.902 326.014 252.882 326.054 252.874 326.097C252.83 326.203 252.811 326.32 252.82 326.436C252.829 326.552 252.865 326.664 252.924 326.762C253.284 327.332 254.505 327.817 256.256 327.965C255.206 327.004 253.705 325.843 253.084 325.917Z" fill="#50F7BB"/>
<path d="M256.826 328.41C256.804 328.419 256.78 328.425 256.756 328.425C256.732 328.425 256.708 328.419 256.686 328.41C255.886 327.713 254.515 325.454 254.895 324.589C254.985 324.388 255.195 324.166 255.706 324.251C255.889 324.285 256.064 324.358 256.221 324.465C256.377 324.572 256.512 324.711 256.616 324.874C257.356 325.982 256.996 328.199 256.986 328.294C256.982 328.328 256.968 328.36 256.947 328.386C256.926 328.412 256.898 328.431 256.866 328.441L256.826 328.41ZM255.425 324.589C255.275 324.589 255.245 324.684 255.235 324.715C255.005 325.232 255.886 326.942 256.666 327.808C256.82 326.872 256.694 325.91 256.306 325.053C256.23 324.933 256.131 324.831 256.015 324.753C255.9 324.675 255.771 324.622 255.636 324.599C255.564 324.6 255.494 324.61 255.425 324.631V324.589Z" fill="#50F7BB"/>
<path d="M319.862 141.098L311.857 141.942L316.63 149.932C316.63 149.932 323.114 147.241 322.143 143.462L319.862 141.098Z" fill="#FFC3BD"/>
<path d="M306.594 146.142L311.517 153.214L316.67 149.931L311.897 141.941L306.594 146.142Z" fill="#FFC3BD"/>
<path d="M338.583 104.83C337.862 102.719 337.042 100.608 336.171 98.6132C335.521 96.4071 330.018 78.2943 323.444 75.74C314.969 72.4467 312.338 80.5743 316.53 90.0845C318.441 94.0643 320.678 97.861 323.214 101.431C323.664 102.202 324.114 102.972 324.535 103.754C325.535 105.675 326.536 107.627 327.396 109.601C329.105 113.276 330.237 117.218 330.748 121.275C330.748 121.729 330.808 122.172 330.808 122.605V122.911C330.803 122.957 330.803 123.003 330.808 123.049C330.817 123.157 330.817 123.267 330.808 123.376C330.748 124.098 330.593 124.809 330.348 125.487C329.632 127.342 328.69 129.091 327.546 130.691C324.977 134.309 322.078 137.653 318.891 140.676L322.293 145.784C326.481 143.249 330.402 140.252 333.99 136.844C335.97 134.97 337.721 132.842 339.203 130.511C340.09 129.102 340.765 127.557 341.204 125.93C341.325 125.462 341.419 124.986 341.484 124.505L341.574 123.745V123.154C341.634 122.394 341.644 121.645 341.654 120.906C341.493 115.403 340.455 109.969 338.583 104.83Z" fill="#333333"/>
<path d="M29.977 171.126H196.161C198.305 171.104 200.359 170.217 201.902 168.646C203.445 167.076 204.359 164.941 204.456 162.682L208.178 50.881C208.219 49.7856 208.049 48.6928 207.678 47.6685C207.308 46.6441 206.745 45.7094 206.023 44.9205C205.302 44.1317 204.436 43.505 203.479 43.0781C202.522 42.6513 201.493 42.4331 200.454 42.4368H34.2595C32.1149 42.4562 30.0591 43.3429 28.5159 44.9139C26.9726 46.485 26.0595 48.6208 25.9648 50.881L22.2427 162.671C22.2022 163.768 22.3724 164.862 22.7432 165.888C23.114 166.914 23.6776 167.85 24.4001 168.639C25.1227 169.429 25.9893 170.057 26.9477 170.484C27.9061 170.911 28.9365 171.13 29.977 171.126Z" fill="#50F7BB"/>
<path opacity="0.4" d="M29.977 171.126H196.161C198.305 171.104 200.359 170.217 201.902 168.646C203.445 167.076 204.359 164.941 204.456 162.682L208.178 50.881C208.219 49.7856 208.049 48.6928 207.678 47.6685C207.308 46.6441 206.745 45.7094 206.023 44.9205C205.302 44.1317 204.436 43.505 203.479 43.0781C202.522 42.6513 201.493 42.4331 200.454 42.4368H34.2595C32.1149 42.4562 30.0591 43.3429 28.5159 44.9139C26.9726 46.485 26.0595 48.6208 25.9648 50.881L22.2427 162.671C22.2022 163.768 22.3724 164.862 22.7432 165.888C23.114 166.914 23.6776 167.85 24.4001 168.639C25.1227 169.429 25.9893 170.057 26.9477 170.484C27.9061 170.911 28.9365 171.13 29.977 171.126Z" fill="#333333"/>
<path d="M31.5586 171.126H197.753C199.896 171.101 201.949 170.213 203.491 168.643C205.034 167.073 205.948 164.94 206.048 162.681L209.77 50.8803C209.81 49.784 209.64 48.6903 209.269 47.6653C208.898 46.6403 208.334 45.705 207.612 44.916C206.889 44.127 206.022 43.5005 205.064 43.0743C204.106 42.6481 203.075 42.431 202.035 42.4361H35.8411C33.6982 42.4582 31.6449 43.346 30.1038 44.9168C28.5627 46.4876 27.651 48.6219 27.5564 50.8803L23.8343 162.671C23.7924 163.767 23.9613 164.861 24.331 165.887C24.7006 166.912 25.2633 167.848 25.9851 168.638C26.7068 169.428 27.5728 170.056 28.5306 170.483C29.4885 170.911 30.5186 171.129 31.5586 171.126Z" fill="#50F7BB"/>
<path opacity="0.9" d="M196.161 164.086C197.008 164.076 197.818 163.725 198.426 163.104C199.035 162.484 199.395 161.642 199.433 160.75L203.005 52.7913C203.027 52.3614 202.966 51.9314 202.825 51.5275C202.683 51.1237 202.466 50.7543 202.185 50.4422C201.904 50.13 201.566 49.8815 201.191 49.7119C200.816 49.5424 200.412 49.4552 200.004 49.4558H37.4315C36.5862 49.4682 35.7772 49.8201 35.1693 50.4398C34.5614 51.0596 34.2003 51.9005 34.1597 52.7913L30.5676 160.75C30.5459 161.18 30.6074 161.61 30.7485 162.014C30.8895 162.418 31.1072 162.787 31.3881 163.099C31.6691 163.411 32.0074 163.66 32.3824 163.83C32.7574 163.999 33.1613 164.086 33.5693 164.086H196.161Z" fill="white"/>
<path opacity="0.6" d="M67.399 49.4558L52.9508 164.086H72.1817L86.6299 49.4558H67.399Z" fill="white"/>
<path opacity="0.6" d="M93.1936 49.4558L78.7454 164.086H86.6298L101.088 49.4558H93.1936Z" fill="white"/>
<path opacity="0.3" d="M117.588 46.1316C117.581 46.3004 117.607 46.469 117.664 46.627C117.72 46.7849 117.807 46.929 117.919 47.0505C118.03 47.1719 118.164 47.2682 118.311 47.3334C118.459 47.3987 118.618 47.4315 118.778 47.4299C119.108 47.4275 119.424 47.2912 119.66 47.0494C119.897 46.8076 120.036 46.4789 120.049 46.1316C120.056 45.9628 120.03 45.7942 119.973 45.6363C119.916 45.4783 119.829 45.3342 119.718 45.2127C119.607 45.0913 119.473 44.995 119.325 44.9298C119.177 44.8646 119.019 44.8317 118.858 44.8333C118.529 44.8358 118.213 44.972 117.976 45.2138C117.74 45.4556 117.6 45.7843 117.588 46.1316Z" fill="white"/>
<path d="M222.126 287.814H55.9221C53.6416 287.699 51.4557 286.818 49.6841 285.299C47.9126 283.779 46.6484 281.702 46.0765 279.37L24.8045 181.312C23.8039 176.668 26.5755 172.868 30.9779 172.868H197.172C199.452 172.984 201.637 173.866 203.409 175.385C205.18 176.904 206.444 178.981 207.018 181.312L228.29 279.37C229.31 284.014 226.529 287.814 222.126 287.814Z" fill="#50F7BB"/>
<path opacity="0.4" d="M222.126 287.814H55.9221C53.6416 287.699 51.4557 286.818 49.6841 285.299C47.9126 283.779 46.6484 281.702 46.0765 279.37L24.8045 181.312C23.8039 176.668 26.5755 172.868 30.9779 172.868H197.172C199.452 172.984 201.637 173.866 203.409 175.385C205.18 176.904 206.444 178.981 207.018 181.312L228.29 279.37C229.31 284.014 226.529 287.814 222.126 287.814Z" fill="#333333"/>
<path d="M223.717 287.814H57.5232C55.2422 287.701 53.0555 286.82 51.2837 285.301C49.5119 283.781 48.2481 281.703 47.6776 279.37L26.4055 181.302C25.405 176.657 28.1765 172.857 32.579 172.857H198.773C201.053 172.974 203.238 173.856 205.01 175.375C206.781 176.894 208.045 178.971 208.619 181.302L229.891 279.36C230.901 284.015 228.12 287.814 223.717 287.814Z" fill="#50F7BB"/>
<path opacity="0.2" d="M48.7278 238.871C47.8276 238.826 46.9648 238.478 46.266 237.877C45.5672 237.277 45.0694 236.456 44.8456 235.535L33.4992 183.192C33.3919 182.802 33.3733 182.391 33.445 181.993C33.5166 181.595 33.6765 181.22 33.9115 180.899C34.1465 180.578 34.4501 180.32 34.7975 180.146C35.1449 179.972 35.5263 179.887 35.9106 179.898H198.473C199.373 179.942 200.237 180.289 200.936 180.89C201.635 181.49 202.133 182.312 202.355 183.234L213.711 235.535C213.825 235.93 213.847 236.347 213.777 236.753C213.706 237.159 213.545 237.541 213.306 237.867C213.067 238.193 212.758 238.455 212.403 238.629C212.049 238.804 211.661 238.887 211.27 238.871H48.7278Z" fill="#333333"/>
<path opacity="0.2" d="M115.706 280.014C115.181 279.988 114.677 279.785 114.269 279.436C113.861 279.086 113.568 278.609 113.435 278.072L106.821 247.578C106.756 247.348 106.743 247.106 106.785 246.87C106.826 246.634 106.92 246.412 107.059 246.222C107.198 246.032 107.377 245.88 107.583 245.778C107.789 245.676 108.015 245.628 108.242 245.636H154.688C155.217 245.657 155.726 245.857 156.139 246.207C156.552 246.556 156.846 247.037 156.98 247.578L163.603 278.072C163.669 278.302 163.681 278.545 163.64 278.78C163.598 279.016 163.504 279.238 163.366 279.428C163.227 279.618 163.047 279.77 162.841 279.872C162.635 279.974 162.41 280.023 162.182 280.014H115.706Z" fill="#333333"/>
<path d="M243.132 226.122L248.135 87.036C248.17 86.1657 248.038 85.2968 247.748 84.4814C247.457 83.6659 247.014 82.9206 246.444 82.29C245.874 81.6595 245.19 81.1565 244.432 80.8113C243.674 80.466 242.857 80.2856 242.031 80.2807L157.984 79.5312C156.284 79.532 154.649 80.2232 153.42 81.4614C152.19 82.6996 151.46 84.3898 151.38 86.181L146.377 225.257C146.341 226.128 146.471 226.998 146.761 227.815C147.051 228.631 147.494 229.378 148.064 230.01C148.634 230.641 149.319 231.145 150.078 231.491C150.837 231.837 151.654 232.018 152.481 232.023L236.528 232.772C238.227 232.769 239.86 232.077 241.09 230.839C242.319 229.601 243.05 227.913 243.132 226.122Z" fill="#50F7BB"/>
<path opacity="0.4" d="M243.132 226.122L248.135 87.036C248.17 86.1657 248.038 85.2968 247.748 84.4814C247.457 83.6659 247.014 82.9206 246.444 82.29C245.874 81.6595 245.19 81.1565 244.432 80.8113C243.674 80.466 242.857 80.2856 242.031 80.2807L157.984 79.5312C156.284 79.532 154.649 80.2232 153.42 81.4614C152.19 82.6996 151.46 84.3898 151.38 86.181L146.377 225.257C146.341 226.128 146.471 226.998 146.761 227.815C147.051 228.631 147.494 229.378 148.064 230.01C148.634 230.641 149.319 231.145 150.078 231.491C150.837 231.837 151.654 232.018 152.481 232.023L236.528 232.772C238.227 232.769 239.86 232.077 241.09 230.839C242.319 229.601 243.05 227.913 243.132 226.122Z" fill="#333333"/>
<path d="M244.983 226.123L250.036 87.0364C250.07 86.1655 249.937 85.2964 249.645 84.4809C249.353 83.6654 248.909 82.9203 248.339 82.2898C247.768 81.6594 247.083 81.1567 246.324 80.8115C245.566 80.4664 244.749 80.286 243.923 80.281L159.855 79.5105C158.155 79.5112 156.521 80.2024 155.291 81.4406C154.061 82.6789 153.331 84.369 153.251 86.1603L148.248 225.236C148.212 226.107 148.343 226.977 148.633 227.794C148.923 228.611 149.366 229.357 149.936 229.989C150.505 230.621 151.19 231.124 151.949 231.47C152.708 231.816 153.525 231.997 154.352 232.002L238.399 232.751C240.093 232.745 241.719 232.055 242.944 230.822C244.169 229.588 244.899 227.907 244.983 226.123Z" fill="#50F7BB"/>
<path opacity="0.9" d="M244.683 88.5135C244.696 88.1701 244.644 87.8275 244.529 87.506C244.414 87.1845 244.239 86.8908 244.014 86.6424C243.788 86.3941 243.518 86.1962 243.219 86.0607C242.919 85.9251 242.597 85.8547 242.272 85.8535L161.116 85.1252C160.445 85.1272 159.801 85.4012 159.317 85.8905C158.832 86.3798 158.545 87.0468 158.514 87.7535L153.571 223.779C153.558 224.123 153.61 224.466 153.725 224.788C153.84 225.11 154.015 225.404 154.24 225.654C154.465 225.903 154.735 226.102 155.035 226.238C155.334 226.375 155.656 226.447 155.983 226.449L237.139 227.167C237.808 227.168 238.452 226.896 238.937 226.408C239.422 225.921 239.709 225.255 239.74 224.549L244.683 88.5135Z" fill="white"/>
<path opacity="0.3" d="M229.304 180.05C234.18 173.562 237.023 165.635 237.439 157.367C237.856 149.319 235.746 141.35 231.435 134.694V134.589C231.366 134.469 231.282 134.359 231.185 134.262C227.989 129.531 223.76 125.683 218.855 123.043C213.951 120.403 208.515 119.048 203.009 119.094C197.301 119.141 191.675 120.534 186.542 123.169C181.41 125.804 176.9 129.615 173.342 134.325C173.267 134.408 173.197 134.496 173.132 134.589L173.082 134.684C168.162 141.153 165.286 149.085 164.858 157.367C164.429 165.423 166.54 173.403 170.861 180.061C170.865 180.092 170.865 180.124 170.861 180.156L170.951 180.261C174.151 185.061 178.41 188.968 183.361 191.643C188.311 194.319 193.805 195.683 199.367 195.619C205.066 195.574 210.683 194.187 215.809 191.559C220.935 188.931 225.439 185.129 228.994 180.43C229.083 180.337 229.166 180.238 229.244 180.135L229.304 180.05ZM199.577 191.091C194.394 191.091 190.022 184.684 187.791 175.258C191.935 174.385 196.151 173.946 200.378 173.949C204.578 173.937 208.768 174.372 212.885 175.247C209.743 184.684 204.77 191.091 199.577 191.091ZM200.578 169.389C195.991 169.378 191.416 169.856 186.92 170.814C186.368 167.121 186.124 163.385 186.19 159.647H215.887C215.595 163.415 215.003 167.151 214.116 170.814C209.668 169.851 205.138 169.374 200.598 169.389H200.578ZM169.15 159.647H181.867C181.771 163.752 182.032 167.857 182.648 171.912C179.48 172.849 176.422 174.159 173.533 175.817C170.743 170.932 169.237 165.35 169.17 159.647H169.15ZM175.264 138.916C178.02 140.59 180.96 141.901 184.018 142.822C183.033 146.846 182.387 150.954 182.087 155.098H169.38C170.031 149.267 172.061 143.703 175.284 138.916H175.264ZM202.709 123.654C207.902 123.654 212.275 130.05 214.506 139.486C210.359 140.365 206.139 140.803 201.909 140.795C197.722 140.808 193.544 140.369 189.442 139.486C192.573 130.05 197.536 123.654 202.729 123.654H202.709ZM201.709 145.355C206.3 145.361 210.879 144.873 215.376 143.898C215.924 147.595 216.165 151.335 216.097 155.076H186.43C186.714 151.304 187.303 147.565 188.191 143.898C192.64 144.877 197.174 145.365 201.719 145.355H201.709ZM233.136 155.098H220.419C220.506 150.989 220.244 146.881 219.639 142.822C222.808 141.89 225.866 140.58 228.754 138.916C231.554 143.803 233.07 149.388 233.146 155.098H233.136ZM220.199 159.647H232.896C232.236 165.472 230.207 171.03 226.993 175.817C224.233 174.151 221.294 172.84 218.238 171.912C219.232 167.892 219.892 163.788 220.209 159.647H220.199ZM226.282 135.254C223.886 136.575 221.368 137.636 218.768 138.42C217.807 133.864 216.024 129.546 213.515 125.701C218.501 127.637 222.91 130.933 226.292 135.254H226.282ZM191.743 125.67C188.895 129.471 186.713 133.778 185.299 138.389C182.792 137.616 180.372 136.554 178.085 135.222C181.842 130.919 186.532 127.642 191.753 125.67H191.743ZM176.014 179.501C178.407 178.18 180.921 177.119 183.518 176.335C184.486 180.89 186.273 185.207 188.781 189.054C183.801 187.115 179.398 183.815 176.024 179.491L176.014 179.501ZM210.554 189.085C213.395 185.28 215.577 180.974 216.997 176.366C219.503 177.146 221.921 178.207 224.211 179.533C220.461 183.832 215.778 187.106 210.564 189.075L210.554 189.085Z" fill="#50F7BB"/>
<path d="M253.584 248.866L258.637 139.704C258.672 138.833 258.541 137.963 258.25 137.147C257.96 136.331 257.517 135.585 256.947 134.954C256.377 134.322 255.693 133.818 254.935 133.472C254.177 133.126 253.36 132.944 252.534 132.938L203.936 132.199C202.238 132.199 200.605 132.889 199.376 134.125C198.146 135.361 197.415 137.049 197.333 138.838L192.33 248.011C192.295 248.881 192.426 249.75 192.717 250.565C193.008 251.381 193.451 252.126 194.021 252.757C194.59 253.387 195.275 253.89 196.033 254.235C196.791 254.581 197.607 254.761 198.433 254.766L247.031 255.515C248.722 255.501 250.344 254.804 251.563 253.567C252.782 252.33 253.505 250.648 253.584 248.866Z" fill="#50F7BB"/>
<path opacity="0.4" d="M253.584 248.866L258.637 139.704C258.672 138.833 258.541 137.963 258.25 137.147C257.96 136.331 257.517 135.585 256.947 134.954C256.377 134.322 255.693 133.818 254.935 133.472C254.177 133.126 253.36 132.944 252.534 132.938L203.936 132.199C202.238 132.199 200.605 132.889 199.376 134.125C198.146 135.361 197.415 137.049 197.333 138.838L192.33 248.011C192.295 248.881 192.426 249.75 192.717 250.565C193.008 251.381 193.451 252.126 194.021 252.757C194.59 253.387 195.275 253.89 196.033 254.235C196.791 254.581 197.607 254.761 198.433 254.766L247.031 255.515C248.722 255.501 250.344 254.804 251.563 253.567C252.782 252.33 253.505 250.648 253.584 248.866Z" fill="#333333"/>
<path d="M255.445 248.865L260.448 139.703C260.485 138.832 260.354 137.962 260.064 137.145C259.774 136.329 259.331 135.582 258.761 134.95C258.191 134.319 257.506 133.815 256.747 133.469C255.989 133.123 255.171 132.942 254.345 132.937L205.747 132.198C204.05 132.199 202.418 132.889 201.19 134.126C199.963 135.362 199.233 137.049 199.153 138.838L194.101 248.011C194.066 248.881 194.197 249.75 194.488 250.565C194.778 251.381 195.222 252.126 195.791 252.756C196.361 253.387 197.046 253.89 197.804 254.235C198.562 254.581 199.378 254.761 200.204 254.766L248.802 255.515C250.508 255.523 252.151 254.836 253.388 253.597C254.626 252.358 255.363 250.663 255.445 248.865Z" fill="#50F7BB"/>
<path opacity="0.9" d="M255.145 141.182C255.157 140.838 255.104 140.496 254.989 140.174C254.873 139.853 254.698 139.559 254.473 139.31C254.248 139.061 253.979 138.862 253.68 138.725C253.381 138.588 253.06 138.515 252.734 138.511L207.008 137.804C206.337 137.806 205.693 138.08 205.209 138.569C204.725 139.058 204.437 139.726 204.406 140.432L199.484 246.523C199.47 246.867 199.522 247.21 199.637 247.532C199.752 247.854 199.927 248.148 200.152 248.398C200.377 248.647 200.648 248.846 200.947 248.982C201.246 249.119 201.569 249.191 201.895 249.193L247.601 249.911C248.271 249.912 248.915 249.64 249.399 249.153C249.884 248.665 250.171 247.999 250.202 247.293L255.145 141.182Z" fill="white"/>
<path opacity="0.3" d="M244.589 208.523C247.586 204.542 249.334 199.677 249.592 194.601C249.845 189.658 248.547 184.765 245.9 180.678C245.9 180.678 245.9 180.678 245.9 180.615C245.859 180.544 245.812 180.477 245.76 180.415C243.795 177.511 241.196 175.15 238.183 173.53C235.17 171.909 231.832 171.078 228.45 171.105C224.947 171.133 221.495 171.987 218.346 173.606C215.197 175.224 212.43 177.565 210.25 180.457L210.11 180.615V180.678C207.109 184.657 205.36 189.524 205.107 194.601C204.843 199.548 206.141 204.448 208.799 208.534V208.587C208.799 208.587 208.799 208.587 208.849 208.65C210.81 211.577 213.415 213.96 216.44 215.592C219.466 217.225 222.821 218.059 226.219 218.023C229.716 217.995 233.163 217.143 236.308 215.531C239.453 213.918 242.218 211.586 244.399 208.703C244.458 208.644 244.511 208.581 244.559 208.513L244.589 208.523ZM226.349 215.3C223.157 215.3 220.476 211.373 219.115 205.578C221.658 205.043 224.246 204.774 226.839 204.776C229.41 204.772 231.974 205.04 234.494 205.578C232.583 211.32 229.531 215.247 226.349 215.247V215.3ZM226.969 201.979C224.154 201.973 221.345 202.266 218.585 202.855C218.25 200.589 218.103 198.297 218.144 196.005H236.355C236.182 198.317 235.82 200.609 235.274 202.855C232.56 202.25 229.794 201.938 227.019 201.926L226.969 201.979ZM207.678 196.005H215.493C215.438 198.523 215.599 201.042 215.973 203.531C214.026 204.104 212.146 204.908 210.37 205.927C208.646 202.914 207.717 199.47 207.678 195.952V196.005ZM211.431 183.191C213.124 184.213 214.928 185.018 216.804 185.587C216.2 188.057 215.805 190.579 215.623 193.123H207.809C208.21 189.545 209.455 186.13 211.431 183.191ZM228.28 173.818C231.472 173.818 234.153 177.744 235.524 183.539C232.978 184.079 230.387 184.348 227.79 184.341C225.219 184.351 222.654 184.082 220.136 183.539C222.017 177.776 225.098 173.849 228.28 173.849V173.818ZM227.66 187.138C230.476 187.144 233.285 186.851 236.045 186.262C236.38 188.531 236.527 190.827 236.485 193.123H218.274C218.451 190.808 218.813 188.513 219.355 186.262C222.087 186.864 224.869 187.168 227.66 187.17V187.138ZM246.951 193.123H239.136C239.191 190.601 239.031 188.078 238.656 185.587C240.603 185.013 242.483 184.209 244.259 183.191C245.981 186.2 246.91 189.64 246.951 193.155V193.123ZM239.026 195.952H246.841C246.438 199.527 245.193 202.938 243.219 205.874C241.525 204.851 239.721 204.047 237.846 203.478C238.448 201.011 238.843 198.492 239.026 195.952ZM242.768 180.974C241.296 181.777 239.751 182.421 238.156 182.895C237.564 180.097 236.467 177.445 234.924 175.084C237.98 176.282 240.68 178.315 242.748 180.974H242.768ZM221.566 175.084C219.804 177.417 218.448 180.062 217.564 182.895C216.024 182.428 214.538 181.783 213.132 180.974C215.442 178.32 218.33 176.299 221.546 175.084H221.566ZM211.911 208.122C213.38 207.321 214.922 206.678 216.513 206.201C217.11 208.998 218.206 211.649 219.745 214.012C216.676 212.823 213.964 210.789 211.891 208.122H211.911ZM233.103 214.012C234.866 211.679 236.221 209.035 237.105 206.201C238.643 206.673 240.129 207.317 241.538 208.122C239.215 210.782 236.313 212.803 233.083 214.012H233.103Z" fill="#50F7BB"/>
<path opacity="0.6" d="M215.473 137.93L204.206 249.225L219.275 249.467L230.641 138.162L215.473 137.93Z" fill="white"/>
<path opacity="0.6" d="M235.814 138.246L224.448 249.551L230.671 249.646L242.038 138.341L235.814 138.246Z" fill="white"/>
<path opacity="0.3" d="M210.38 136.283C210.645 136.283 210.9 136.172 211.087 135.974C211.275 135.776 211.38 135.507 211.38 135.227C211.381 134.958 211.284 134.699 211.109 134.503C210.934 134.306 210.695 134.188 210.44 134.172C210.175 134.172 209.92 134.283 209.732 134.481C209.545 134.679 209.439 134.947 209.439 135.227C209.439 135.497 209.536 135.756 209.711 135.952C209.886 136.148 210.125 136.267 210.38 136.283Z" fill="white"/>
<path d="M130.255 109.726H125.973V96.7179C125.973 92.7408 124.476 88.9265 121.81 86.1143C119.144 83.302 115.529 81.7221 111.758 81.7221C107.988 81.7221 104.373 83.302 101.707 86.1143C99.0411 88.9265 97.5435 92.7408 97.5435 96.7179V109.726H93.2618V96.7179C93.2618 91.5428 95.2106 86.5797 98.6794 82.9204C102.148 79.2611 106.853 77.2053 111.758 77.2053C116.664 77.2053 121.369 79.2611 124.838 82.9204C128.306 86.5797 130.255 91.5428 130.255 96.7179V109.726Z" fill="#333333"/>
<path d="M138.208 108.462L111.704 100.219L85.2012 108.462V124.824C85.2035 131.474 87.1322 137.964 90.7288 143.425C94.3254 148.886 99.4182 153.058 105.325 155.38L111.747 157.887L118.17 155.38C124.076 153.058 129.169 148.886 132.766 143.425C136.362 137.964 138.291 131.474 138.293 124.824L138.208 108.462Z" fill="#50F7BB"/>
<path opacity="0.2" d="M106.438 152.196C101.158 150.099 96.6061 146.359 93.3869 141.47C90.1676 136.582 88.4329 130.777 88.4127 124.825V110.992L111.705 103.754L134.997 110.992V124.825C134.977 130.777 133.242 136.582 130.023 141.47C126.803 146.359 122.252 150.099 116.971 152.196L111.705 154.274L106.438 152.196Z" fill="black"/>
<path d="M115.729 123.13C115.736 122.371 115.551 121.625 115.192 120.967C114.833 120.31 114.314 119.766 113.688 119.392C113.063 119.018 112.354 118.828 111.635 118.841C110.916 118.854 110.213 119.07 109.6 119.467C108.987 119.863 108.486 120.426 108.149 121.096C107.812 121.766 107.651 122.519 107.684 123.277C107.716 124.035 107.94 124.769 108.333 125.405C108.726 126.04 109.272 126.553 109.917 126.89L109.146 134.794H114.241L113.47 126.89C114.141 126.546 114.707 126.012 115.106 125.348C115.505 124.684 115.72 123.916 115.729 123.13Z" fill="#263238"/>
</svg>
