<svg width="394" height="371" viewBox="0 0 394 371" fill="none" xmlns="http://www.w3.org/2000/svg">
<path d="M220.066 370.872C316.127 370.872 394 365.572 394 359.035C394 352.498 316.127 347.198 220.066 347.198C124.005 347.198 46.1326 352.498 46.1326 359.035C46.1326 365.572 124.005 370.872 220.066 370.872Z" fill="#F5F5F5"/>
<path d="M351.785 63.3398H201.553C195.547 63.3398 190.678 68.2087 190.678 74.2148V340.892C190.678 346.898 195.547 351.767 201.553 351.767H351.785C357.791 351.767 362.66 346.898 362.66 340.892V74.2148C362.66 68.2087 357.791 63.3398 351.785 63.3398Z" fill="#333333"/>
<path d="M356.856 73.7025V340.85C356.856 341.407 356.745 341.959 356.529 342.473C356.313 342.986 355.996 343.452 355.598 343.841C355.199 344.231 354.727 344.537 354.209 344.742C353.69 344.946 353.136 345.045 352.579 345.033H200.298C199.792 345.04 199.289 344.945 198.82 344.753C198.351 344.561 197.925 344.276 197.569 343.916C197.212 343.556 196.932 343.127 196.746 342.656C196.559 342.185 196.469 341.681 196.482 341.174V73.3156C196.462 72.8689 196.531 72.4227 196.685 72.0028C196.838 71.5829 197.074 71.1976 197.377 70.869C197.68 70.5405 198.046 70.2752 198.452 70.0885C198.858 69.9018 199.297 69.7974 199.744 69.7812H237.817C238.349 69.7913 238.866 69.9585 239.304 70.2618C239.741 70.5651 240.079 70.9909 240.274 71.4857L241.843 75.3756C242.039 75.8692 242.377 76.2936 242.815 76.5951C243.252 76.8966 243.769 77.0617 244.3 77.0696H309.132C309.661 77.0661 310.178 76.9052 310.615 76.6073C311.053 76.3093 311.392 75.8878 311.589 75.3965L313.168 71.4961C313.36 71.0002 313.696 70.5726 314.131 70.2673C314.567 69.962 315.083 69.7929 315.615 69.7812H353.144C354.154 69.8141 355.111 70.2443 355.806 70.9786C356.501 71.7128 356.879 72.6917 356.856 73.7025Z" fill="#50F7BB"/>
<path opacity="0.3" d="M356.856 73.7025V340.85C356.856 341.407 356.745 341.959 356.529 342.473C356.313 342.986 355.996 343.452 355.598 343.841C355.199 344.231 354.727 344.537 354.209 344.742C353.69 344.946 353.136 345.045 352.579 345.033H200.298C199.792 345.04 199.289 344.945 198.82 344.753C198.351 344.561 197.925 344.276 197.569 343.916C197.212 343.556 196.932 343.127 196.746 342.656C196.559 342.185 196.469 341.681 196.482 341.174V73.3156C196.462 72.8689 196.531 72.4227 196.685 72.0028C196.838 71.5829 197.074 71.1976 197.377 70.869C197.68 70.5405 198.046 70.2752 198.452 70.0885C198.858 69.9018 199.297 69.7974 199.744 69.7812H237.817C238.349 69.7913 238.866 69.9585 239.304 70.2618C239.741 70.5651 240.079 70.9909 240.274 71.4857L241.843 75.3756C242.039 75.8692 242.377 76.2936 242.815 76.5951C243.252 76.8966 243.769 77.0617 244.3 77.0696H309.132C309.661 77.0661 310.178 76.9052 310.615 76.6073C311.053 76.3093 311.392 75.8878 311.589 75.3965L313.168 71.4961C313.36 71.0002 313.696 70.5726 314.131 70.2673C314.567 69.962 315.083 69.7929 315.615 69.7812H353.144C354.154 69.8141 355.111 70.2443 355.806 70.9786C356.501 71.7128 356.879 72.6917 356.856 73.7025Z" fill="#333333"/>
<path opacity="0.7" d="M356.856 87.8193H196.482V325.406H356.856V87.8193Z" fill="white"/>
<path opacity="0.6" d="M214.153 81.4307H216.13V78.7851H214.153V81.4307Z" fill="white"/>
<path opacity="0.6" d="M210.933 81.4307H212.91V77.9068H210.933V81.4307Z" fill="white"/>
<path opacity="0.6" d="M207.702 81.4307H209.678V77.0284H207.702V81.4307Z" fill="white"/>
<path opacity="0.6" d="M204.471 81.4307H206.447V76.15H204.471V81.4307Z" fill="white"/>
<path opacity="0.6" d="M338.704 77.8228H337.532V80.4683H338.704V77.8228Z" fill="white"/>
<path opacity="0.6" d="M339.508 81.4307H348.867V76.8611H339.508V81.4307Z" fill="white"/>
<path d="M245.869 296.932V297.539H241.195V290.941H245.722V291.537H241.895V293.889H245.304V294.486H241.895V296.932H245.869Z" fill="#50F7BB"/>
<path d="M251.881 294.663V297.539H251.212V294.726C251.243 294.519 251.227 294.307 251.164 294.107C251.101 293.907 250.993 293.724 250.849 293.572C250.705 293.42 250.528 293.303 250.332 293.229C250.136 293.155 249.925 293.127 249.717 293.147C249.48 293.129 249.241 293.163 249.019 293.247C248.797 293.331 248.595 293.463 248.43 293.634C248.264 293.805 248.138 294.01 248.06 294.235C247.983 294.459 247.956 294.699 247.981 294.935V297.539H247.312V292.572H247.96V293.492C248.161 293.181 248.442 292.929 248.772 292.762C249.103 292.594 249.472 292.518 249.842 292.541C250.123 292.518 250.405 292.559 250.668 292.659C250.931 292.759 251.169 292.916 251.364 293.119C251.559 293.322 251.707 293.566 251.796 293.833C251.886 294.1 251.915 294.384 251.881 294.663Z" fill="#50F7BB"/>
<path d="M253.189 295.06C253.178 294.723 253.238 294.387 253.363 294.074C253.489 293.76 253.678 293.476 253.918 293.24C254.159 293.003 254.446 292.819 254.761 292.698C255.077 292.578 255.413 292.524 255.75 292.54C256.133 292.517 256.514 292.596 256.856 292.769C257.197 292.942 257.487 293.202 257.695 293.523L257.193 293.858C257.034 293.624 256.818 293.435 256.566 293.307C256.313 293.179 256.033 293.117 255.75 293.126C255.263 293.161 254.808 293.38 254.475 293.738C254.143 294.096 253.958 294.566 253.958 295.055C253.958 295.543 254.143 296.014 254.475 296.371C254.808 296.729 255.263 296.948 255.75 296.984C256.032 296.995 256.312 296.935 256.565 296.809C256.817 296.683 257.033 296.495 257.193 296.263L257.695 296.608C257.484 296.925 257.193 297.181 256.852 297.352C256.511 297.522 256.131 297.601 255.75 297.58C255.413 297.596 255.077 297.542 254.761 297.422C254.446 297.301 254.159 297.117 253.918 296.88C253.678 296.644 253.489 296.36 253.363 296.047C253.238 295.733 253.178 295.397 253.189 295.06Z" fill="#50F7BB"/>
<path d="M261.554 292.541V293.189H261.397C261.161 293.178 260.925 293.218 260.706 293.309C260.487 293.399 260.29 293.536 260.131 293.711C259.971 293.886 259.852 294.094 259.781 294.32C259.711 294.546 259.691 294.785 259.724 295.019V297.55H259.055V292.583H259.703V293.555C259.873 293.219 260.14 292.941 260.471 292.76C260.801 292.579 261.179 292.503 261.554 292.541Z" fill="#50F7BB"/>
<path d="M267.128 292.572L264.691 298.135C264.283 299.097 263.75 299.411 263.039 299.411C262.594 299.426 262.162 299.264 261.836 298.961L262.15 298.459C262.265 298.581 262.405 298.678 262.56 298.743C262.715 298.807 262.882 298.839 263.049 298.836C263.499 298.836 263.802 298.626 264.095 298.01L264.304 297.529L262.087 292.572H262.788L264.66 296.755L266.521 292.572H267.128Z" fill="#50F7BB"/>
<path d="M273.108 295.06C273.126 295.392 273.074 295.724 272.957 296.035C272.839 296.346 272.658 296.629 272.424 296.866C272.191 297.104 271.911 297.289 271.602 297.412C271.293 297.535 270.962 297.593 270.63 297.58C270.259 297.592 269.892 297.509 269.563 297.339C269.233 297.169 268.953 296.917 268.748 296.608V299.369H268.079V292.572H268.716V293.555C268.914 293.227 269.196 292.957 269.532 292.773C269.868 292.59 270.247 292.498 270.63 292.509C270.965 292.497 271.299 292.555 271.61 292.679C271.922 292.804 272.203 292.993 272.437 293.233C272.67 293.474 272.851 293.761 272.966 294.076C273.082 294.39 273.13 294.726 273.108 295.06ZM272.439 295.06C272.439 294.57 272.244 294.099 271.897 293.752C271.55 293.405 271.079 293.21 270.588 293.21C270.097 293.21 269.627 293.405 269.279 293.752C268.932 294.099 268.737 294.57 268.737 295.06C268.737 295.551 268.932 296.022 269.279 296.369C269.627 296.716 270.097 296.911 270.588 296.911C271.079 296.911 271.55 296.716 271.897 296.369C272.244 296.022 272.439 295.551 272.439 295.06Z" fill="#50F7BB"/>
<path d="M277.092 297.236C276.794 297.468 276.425 297.59 276.047 297.581C275.851 297.604 275.653 297.583 275.467 297.519C275.28 297.455 275.111 297.349 274.971 297.21C274.832 297.072 274.725 296.903 274.66 296.717C274.594 296.532 274.571 296.334 274.593 296.138V293.147H273.704V292.572H274.593V291.526H275.263V292.572H276.768V293.147H275.263V296.106C275.246 296.225 275.257 296.345 275.294 296.459C275.331 296.572 275.392 296.676 275.475 296.762C275.557 296.849 275.658 296.916 275.77 296.958C275.881 297 276.001 297.016 276.12 297.006C276.386 297.013 276.646 296.924 276.852 296.755L277.092 297.236Z" fill="#50F7BB"/>
<path d="M278.159 291.014C278.16 290.95 278.174 290.888 278.2 290.83C278.225 290.772 278.262 290.72 278.307 290.676C278.353 290.633 278.407 290.598 278.466 290.576C278.524 290.553 278.587 290.542 278.65 290.543C278.713 290.54 278.776 290.55 278.834 290.572C278.893 290.593 278.947 290.627 278.993 290.67C279.039 290.712 279.076 290.764 279.101 290.821C279.127 290.879 279.141 290.94 279.142 291.003C279.142 291.133 279.09 291.258 278.998 291.351C278.906 291.443 278.781 291.495 278.65 291.495C278.52 291.495 278.395 291.443 278.303 291.351C278.211 291.258 278.159 291.133 278.159 291.003V291.014ZM278.305 292.572H278.975V297.538H278.284L278.305 292.572Z" fill="#50F7BB"/>
<path d="M285.416 294.663V297.539H284.747V294.726C284.776 294.519 284.758 294.308 284.694 294.109C284.631 293.91 284.523 293.728 284.379 293.576C284.236 293.425 284.06 293.307 283.865 293.233C283.669 293.159 283.46 293.129 283.252 293.147C283.014 293.129 282.776 293.163 282.554 293.247C282.331 293.331 282.13 293.463 281.964 293.634C281.799 293.805 281.673 294.01 281.595 294.235C281.518 294.459 281.491 294.699 281.516 294.935V297.539H280.847V292.572H281.484V293.492C281.687 293.179 281.969 292.926 282.301 292.759C282.634 292.592 283.005 292.516 283.377 292.541C283.658 292.518 283.94 292.559 284.203 292.659C284.466 292.759 284.704 292.916 284.899 293.119C285.094 293.322 285.241 293.566 285.331 293.833C285.42 294.1 285.449 294.384 285.416 294.663Z" fill="#50F7BB"/>
<path d="M291.878 292.571V296.931C291.93 297.269 291.901 297.613 291.795 297.938C291.688 298.262 291.507 298.556 291.266 298.798C291.025 299.039 290.73 299.22 290.406 299.326C290.082 299.433 289.737 299.461 289.4 299.41C288.563 299.444 287.741 299.173 287.089 298.646L287.424 298.134C287.971 298.59 288.666 298.832 289.379 298.814C290.634 298.814 291.209 298.239 291.209 297.015V296.388C290.993 296.698 290.703 296.948 290.365 297.116C290.027 297.284 289.652 297.365 289.275 297.35C288.637 297.35 288.025 297.096 287.574 296.645C287.123 296.194 286.87 295.583 286.87 294.945C286.87 294.307 287.123 293.695 287.574 293.244C288.025 292.793 288.637 292.54 289.275 292.54C289.659 292.52 290.042 292.601 290.386 292.773C290.731 292.945 291.025 293.203 291.24 293.523V292.571H291.878ZM291.23 294.934C291.242 294.56 291.143 294.191 290.944 293.873C290.746 293.556 290.457 293.305 290.115 293.152C289.773 293 289.393 292.953 289.024 293.017C288.656 293.082 288.314 293.255 288.044 293.515C287.774 293.774 287.588 294.108 287.509 294.474C287.43 294.84 287.462 295.222 287.601 295.569C287.74 295.917 287.979 296.216 288.288 296.426C288.598 296.637 288.963 296.751 289.337 296.754C289.581 296.765 289.825 296.726 290.053 296.64C290.282 296.553 290.489 296.42 290.664 296.249C290.839 296.079 290.976 295.874 291.068 295.647C291.16 295.421 291.205 295.178 291.199 294.934H291.23Z" fill="#50F7BB"/>
<path d="M300.421 290.941V291.422L297.65 297.539H296.919L299.637 291.537H296.239V292.771H295.57V290.941H300.421Z" fill="#50F7BB"/>
<path d="M305.618 295.594C305.618 296.713 304.834 297.591 303.224 297.591C302.354 297.622 301.504 297.319 300.85 296.744L301.185 296.211C301.737 296.718 302.464 296.992 303.213 296.974C304.332 296.974 304.928 296.42 304.928 295.625C304.928 294.831 304.406 294.245 302.722 294.245H301.289L301.624 290.941H305.242V291.537H302.22L301.99 293.628H302.837C304.866 293.639 305.618 294.423 305.618 295.594Z" fill="#50F7BB"/>
<path d="M306.288 292.677C306.288 291.631 306.894 290.888 307.783 290.888C308.672 290.888 309.268 291.599 309.268 292.677C309.268 293.754 308.661 294.475 307.783 294.475C306.905 294.475 306.288 293.754 306.288 292.677ZM308.797 292.677C308.797 291.819 308.39 291.317 307.752 291.317C307.114 291.317 306.706 291.83 306.706 292.677C306.706 293.524 307.103 294.046 307.752 294.046C308.4 294.046 308.797 293.534 308.797 292.677ZM311.777 290.941H312.332L307.825 297.539H307.271L311.777 290.941ZM310.334 295.793C310.334 294.747 310.951 294.005 311.83 294.005C312.708 294.005 313.315 294.716 313.315 295.793C313.315 296.87 312.708 297.581 311.83 297.581C310.951 297.581 310.334 296.87 310.334 295.793ZM312.844 295.793C312.844 294.946 312.447 294.423 311.798 294.423C311.15 294.423 310.753 294.935 310.753 295.793C310.753 296.65 311.161 297.162 311.798 297.162C312.436 297.162 312.844 296.64 312.844 295.793Z" fill="#50F7BB"/>
<path opacity="0.6" d="M276.643 70.1795C276.643 70.6159 276.514 71.0425 276.271 71.4053C276.029 71.7681 275.684 72.0509 275.281 72.2179C274.878 72.3849 274.434 72.4286 274.006 72.3435C273.578 72.2583 273.185 72.0482 272.876 71.7396C272.568 71.4311 272.358 71.0379 272.273 70.6099C272.187 70.1819 272.231 69.7383 272.398 69.3352C272.565 68.932 272.848 68.5874 273.211 68.345C273.574 68.1026 274 67.9731 274.437 67.9731C275.022 67.9731 275.583 68.2056 275.997 68.6194C276.41 69.0332 276.643 69.5943 276.643 70.1795Z" fill="white"/>
<path opacity="0.6" d="M281.097 70.1792C281.097 70.4584 281.015 70.7314 280.86 70.9635C280.704 71.1957 280.484 71.3766 280.226 71.4834C279.968 71.5903 279.684 71.6182 279.41 71.5638C279.137 71.5093 278.885 71.3748 278.688 71.1774C278.49 70.98 278.356 70.7285 278.301 70.4546C278.247 70.1808 278.275 69.897 278.382 69.639C278.488 69.3811 278.669 69.1606 278.902 69.0055C279.134 68.8504 279.407 68.7676 279.686 68.7676C280.059 68.7703 280.417 68.9199 280.681 69.1841C280.945 69.4482 281.095 69.8057 281.097 70.1792Z" fill="white"/>
<path d="M356.856 87.8193H196.482V115.247H356.856V87.8193Z" fill="#50F7BB"/>
<g opacity="0.2">
<path d="M269.365 135.01L268.11 135.167C267.89 135.401 267.624 135.586 267.329 135.712C267.034 135.838 266.716 135.902 266.395 135.899C266.012 135.899 265.633 135.814 265.287 135.648L264.116 135.878C264.733 136.456 265.549 136.775 266.395 136.767C267.003 136.772 267.601 136.611 268.124 136.301C268.647 135.992 269.076 135.545 269.365 135.01Z" fill="#333333"/>
<path d="M275.148 136.777C275.829 136.768 276.492 136.555 277.051 136.166C277.611 135.776 278.04 135.228 278.285 134.592H277.239C277.044 134.985 276.746 135.317 276.376 135.553C276.006 135.79 275.579 135.921 275.14 135.933C274.702 135.944 274.268 135.837 273.886 135.621C273.504 135.405 273.189 135.089 272.973 134.707L271.927 134.78C272.203 135.397 272.657 135.917 273.231 136.273C273.805 136.629 274.473 136.805 275.148 136.777Z" fill="#333333"/>
<path d="M282.666 136.693V134.842L281.714 134.769V136.693H282.666Z" fill="#333333"/>
<path d="M287.414 136.694V135.502L286.472 135.334V136.694H287.414Z" fill="#333333"/>
<path d="M291.753 136.422C292.114 136.596 292.504 136.702 292.904 136.736C292.527 136.631 292.14 136.516 291.753 136.422Z" fill="#333333"/>
<path d="M230.017 162.083C232.108 162.083 233.697 160.337 233.697 157.398C233.771 156.07 233.324 154.765 232.453 153.76L231.826 154.418C232.477 155.27 232.796 156.329 232.725 157.398C232.725 159.866 231.616 161.215 230.017 161.215C229.496 161.216 228.989 161.051 228.568 160.745C228.147 160.438 227.834 160.006 227.674 159.511C227.465 159.793 227.266 160.086 227.068 160.368C227.358 160.894 227.785 161.332 228.305 161.634C228.824 161.936 229.416 162.091 230.017 162.083Z" fill="#333333"/>
<path d="M236.625 162.009H237.577V152.797H234.461V153.633H236.625V162.009Z" fill="#333333"/>
<path d="M241.383 162.009H242.324V152.797H239.208V153.633H241.383V162.009Z" fill="#333333"/>
<path d="M246.13 162.009H247.082V152.797H243.955V153.633H246.13V162.009Z" fill="#333333"/>
<path d="M250.878 162.009H251.829V152.797H248.703V153.633H250.878V162.009Z" fill="#333333"/>
<path d="M254.025 157.398C254.025 160.337 255.562 162.083 257.696 162.083C259.829 162.083 261.376 160.337 261.376 157.398C261.376 154.46 259.829 152.714 257.696 152.714C255.562 152.714 254.025 154.471 254.025 157.398ZM257.696 153.582C259.306 153.582 260.404 154.941 260.404 157.398C260.404 159.856 259.306 161.215 257.696 161.215C256.085 161.215 254.987 159.866 254.987 157.398C254.987 154.931 256.085 153.582 257.696 153.582Z" fill="#333333"/>
<path d="M266.406 152.714C264.315 152.714 262.736 154.471 262.736 157.398C262.736 160.326 264.273 162.083 266.406 162.083C268.539 162.083 270.087 160.337 270.087 157.398C270.087 154.46 268.539 152.714 266.406 152.714ZM266.406 161.215C264.796 161.215 263.698 159.866 263.698 157.398C263.698 154.931 264.796 153.582 266.406 153.582C268.016 153.582 269.114 154.941 269.114 157.398C269.114 159.856 268.016 161.215 266.406 161.215Z" fill="#333333"/>
<path d="M275.148 152.714C273.056 152.714 271.477 154.471 271.477 157.398C271.477 160.326 273.015 162.083 275.148 162.083C277.281 162.083 278.828 160.337 278.828 157.398C278.828 154.46 277.239 152.714 275.148 152.714ZM275.148 161.215C273.537 161.215 272.439 159.866 272.439 157.398C272.439 154.931 273.537 153.582 275.148 153.582C276.758 153.582 277.856 154.941 277.856 157.398C277.856 159.856 276.716 161.215 275.148 161.215Z" fill="#333333"/>
<path d="M281.735 162.009H282.676V152.797H279.56V153.633H281.735V162.009Z" fill="#333333"/>
<path d="M287.434 162.009V152.797H284.308V153.633H286.483V162.009H287.434Z" fill="#333333"/>
<path d="M293.3 162.083C295.392 162.083 296.981 160.337 296.981 157.398C296.981 154.46 295.434 152.714 293.3 152.714C291.167 152.714 289.63 154.471 289.63 157.398C289.63 160.326 291.167 162.083 293.3 162.083ZM293.3 153.582C294.9 153.582 296.009 154.941 296.009 157.398C296.009 159.856 294.9 161.215 293.3 161.215C291.701 161.215 290.582 159.866 290.582 157.398C290.582 154.931 291.69 153.582 293.3 153.582Z" fill="#333333"/>
<path d="M297.744 153.633H299.919V162.009H300.86V152.797H297.744V153.633Z" fill="#333333"/>
<path d="M306.727 162.083C308.818 162.083 310.418 160.337 310.418 157.398C310.418 154.46 308.86 152.714 306.727 152.714C304.594 152.714 303.057 154.471 303.057 157.398C303.057 160.326 304.604 162.083 306.727 162.083ZM306.727 153.582C308.337 153.582 309.446 154.941 309.446 157.398C309.446 159.856 308.337 161.215 306.727 161.215C305.116 161.215 304.019 159.866 304.019 157.398C304.019 154.931 305.127 153.582 306.727 153.582Z" fill="#333333"/>
<path d="M313.345 162.009H314.297V152.797H311.181V153.633H313.345V162.009Z" fill="#333333"/>
<path d="M316.493 157.399C316.493 160.337 318.031 162.083 320.164 162.083C322.297 162.083 323.855 160.337 323.855 157.399C323.855 157.2 323.855 157.012 323.855 156.824C323.437 156.311 322.997 155.778 322.558 155.318C322.815 155.985 322.94 156.695 322.924 157.409C322.924 159.877 321.816 161.226 320.206 161.226C318.595 161.226 317.497 159.877 317.497 157.409C317.497 154.942 318.606 153.593 320.206 153.593C320.54 153.593 320.87 153.66 321.178 153.791C320.833 153.436 320.498 153.08 320.132 152.746C318.02 152.787 316.493 154.492 316.493 157.399Z" fill="#333333"/>
<path d="M327.62 162.01C327.348 161.592 327.065 161.184 326.783 160.776V162.01H327.62Z" fill="#333333"/>
<path d="M237.587 148.887L237.043 149.347H237.587V148.887Z" fill="#333333"/>
<path d="M243.464 149.431C245.555 149.431 247.144 147.684 247.144 144.746C247.154 143.979 247.023 143.217 246.757 142.498L245.921 142.968C246.093 143.545 246.177 144.144 246.172 144.746C246.172 147.203 245.063 148.563 243.464 148.563C242.834 148.55 242.23 148.31 241.763 147.887C241.297 147.464 240.998 146.887 240.923 146.262C240.651 146.461 240.379 146.649 240.117 146.858C240.315 147.595 240.75 148.246 241.355 148.711C241.96 149.176 242.701 149.429 243.464 149.431Z" fill="#333333"/>
<path d="M250.052 149.347H251.003V140.239C250.522 140.458 250.041 140.699 249.56 140.939H250.052V149.347Z" fill="#333333"/>
<path d="M254.83 149.347H255.771V140.135H252.655V140.982H254.83V149.347Z" fill="#333333"/>
<path d="M261.637 149.43C263.729 149.43 265.329 147.684 265.329 144.746C265.329 141.807 263.771 140.061 261.637 140.061C259.504 140.061 257.967 141.807 257.967 144.746C257.967 147.684 259.515 149.43 261.637 149.43ZM261.637 140.929C263.248 140.929 264.356 142.278 264.356 144.746C264.356 147.213 263.248 148.562 261.637 148.562C260.027 148.562 258.929 147.203 258.929 144.746C258.929 142.288 260.038 140.929 261.637 140.929Z" fill="#333333"/>
<path d="M268.257 149.347H269.208V140.135H266.082V140.982H268.257V149.347Z" fill="#333333"/>
<path d="M275.075 149.43C277.166 149.43 278.766 147.684 278.766 144.746C278.766 141.807 277.208 140.061 275.075 140.061C272.941 140.061 271.404 141.807 271.404 144.746C271.404 147.684 272.941 149.43 275.075 149.43ZM275.075 140.929C276.685 140.929 277.783 142.278 277.783 144.746C277.783 147.213 276.737 148.562 275.075 148.562C273.412 148.562 272.366 147.203 272.366 144.746C272.366 142.288 273.475 140.929 275.075 140.929Z" fill="#333333"/>
<path d="M283.785 149.43C285.876 149.43 287.476 147.684 287.476 144.746C287.476 141.807 285.918 140.061 283.785 140.061C281.652 140.061 280.115 141.807 280.115 144.746C280.115 147.684 281.652 149.43 283.785 149.43ZM283.785 140.929C285.395 140.929 286.493 142.278 286.493 144.746C286.493 147.213 285.395 148.604 283.785 148.604C282.175 148.604 281.077 147.245 281.077 144.787C281.077 142.33 282.175 140.929 283.785 140.929Z" fill="#333333"/>
<path d="M292.495 149.43C294.587 149.43 296.187 147.684 296.187 144.746C296.187 141.807 294.629 140.061 292.495 140.061C290.362 140.061 288.825 141.807 288.825 144.746C288.825 147.684 290.362 149.43 292.495 149.43ZM292.495 140.929C294.106 140.929 295.204 142.278 295.204 144.746C295.204 147.213 294.106 148.562 292.495 148.562C290.885 148.562 289.787 147.203 289.787 144.746C289.787 142.288 290.885 140.929 292.495 140.929Z" fill="#333333"/>
<path d="M299.114 149.347H300.056V140.135H296.939V140.982H299.114V149.347Z" fill="#333333"/>
<path d="M301.687 140.982H303.862V149.347H304.813V141.41C303.956 140.961 303.098 140.542 302.22 140.135H301.687V140.982Z" fill="#333333"/>
<path d="M310.701 149.431C311.399 149.432 312.081 149.219 312.655 148.821C313.229 148.422 313.667 147.858 313.911 147.203L313.137 146.597C313.018 147.158 312.713 147.662 312.27 148.027C311.828 148.392 311.274 148.596 310.701 148.605C309.09 148.605 307.992 147.245 307.992 144.788C307.99 144.288 308.046 143.79 308.16 143.303L307.302 142.812C307.113 143.453 307.022 144.119 307.03 144.788C307.009 147.684 308.546 149.431 310.701 149.431Z" fill="#333333"/>
<path d="M224.13 174.662V165.45H223.847C223.617 165.837 223.398 166.224 223.188 166.621V174.662H224.13Z" fill="#333333"/>
<path d="M229.996 174.746C232.087 174.746 233.687 172.99 233.687 170.062C233.687 167.134 232.129 165.367 229.996 165.367C227.862 165.367 226.325 167.123 226.325 170.062C226.325 173 227.862 174.746 229.996 174.746ZM229.996 166.235C231.606 166.235 232.714 167.594 232.714 170.062C232.714 172.53 231.606 173.878 229.996 173.878C228.385 173.878 227.287 172.519 227.287 170.062C227.287 167.604 228.396 166.235 229.996 166.235Z" fill="#333333"/>
<path d="M236.615 174.662H237.566V165.45H234.44V166.286H236.615V174.662Z" fill="#333333"/>
<path d="M241.362 174.662H242.313V165.45H239.197V166.286H241.362V174.662Z" fill="#333333"/>
<path d="M246.12 174.662H247.061V165.45H243.945V166.286H246.12V174.662Z" fill="#333333"/>
<path d="M250.867 174.662H251.819V165.45H248.692V166.286H250.867V174.662Z" fill="#333333"/>
<path d="M257.685 165.335C255.594 165.335 254.015 167.092 254.015 170.03C254.015 172.968 255.552 174.715 257.685 174.715C259.818 174.715 261.366 172.958 261.366 170.03C261.366 167.102 259.818 165.335 257.685 165.335ZM257.685 173.847C256.075 173.847 254.966 172.487 254.966 170.03C254.966 167.573 256.075 166.203 257.685 166.203C259.295 166.203 260.393 167.562 260.393 170.03C260.393 172.498 259.285 173.878 257.685 173.878V173.847Z" fill="#333333"/>
<path d="M266.396 165.335C264.304 165.335 262.725 167.092 262.725 170.03C262.725 172.968 264.262 174.715 266.396 174.715C268.529 174.715 270.076 172.958 270.076 170.03C270.076 167.102 268.529 165.335 266.396 165.335ZM266.396 173.847C264.785 173.847 263.677 172.487 263.677 170.03C263.677 167.573 264.785 166.203 266.396 166.203C268.006 166.203 269.104 167.562 269.104 170.03C269.104 172.498 267.995 173.878 266.396 173.878V173.847Z" fill="#333333"/>
<path d="M275.148 165.335C273.056 165.335 271.467 167.092 271.467 170.03C271.467 172.968 272.973 174.746 275.148 174.746C277.323 174.746 278.828 172.989 278.828 170.061C278.828 167.134 277.239 165.335 275.148 165.335ZM275.148 173.847C273.537 173.847 272.429 172.487 272.429 170.03C272.429 167.573 273.537 166.203 275.148 166.203C276.758 166.203 277.856 167.562 277.856 170.03C277.856 172.498 276.706 173.878 275.148 173.878V173.847Z" fill="#333333"/>
<path d="M281.725 174.662H282.666V165.45H279.55V166.286H281.725V174.662Z" fill="#333333"/>
<path d="M284.297 166.286H286.472V174.662H287.413V165.45H284.297V166.286Z" fill="#333333"/>
<path d="M293.29 174.746C295.381 174.746 296.971 172.99 296.971 170.062C296.971 167.134 295.423 165.367 293.29 165.367C291.157 165.367 289.609 167.123 289.609 170.062C289.609 173 291.157 174.746 293.29 174.746ZM293.29 166.235C294.89 166.235 295.998 167.594 295.998 170.062C295.998 172.53 294.89 173.878 293.29 173.878C291.69 173.878 290.571 172.519 290.571 170.062C290.571 167.604 291.68 166.235 293.29 166.235Z" fill="#333333"/>
<path d="M300.85 174.662V165.45H297.734V166.286H299.899V174.662H300.85Z" fill="#333333"/>
<path d="M306.716 174.746C308.808 174.746 310.408 172.99 310.408 170.062C310.408 167.134 308.849 165.367 306.716 165.367C304.583 165.367 303.046 167.123 303.046 170.062C303.046 173 304.583 174.746 306.716 174.746ZM306.716 166.235C308.327 166.235 309.435 167.594 309.435 170.062C309.435 172.53 308.327 173.878 306.716 173.878C305.106 173.878 304.008 172.519 304.008 170.062C304.008 167.604 305.116 166.235 306.716 166.235Z" fill="#333333"/>
<path d="M313.336 174.662H314.287V165.45H311.161V166.286H313.336V174.662Z" fill="#333333"/>
<path d="M320.111 174.746C322.202 174.746 323.792 172.989 323.792 170.061C323.792 167.134 322.286 165.335 320.111 165.335C317.936 165.335 316.441 167.092 316.441 170.03C316.441 172.968 318.02 174.746 320.111 174.746ZM320.111 166.234C321.711 166.234 322.819 167.594 322.819 170.061C322.819 172.529 321.711 173.878 320.111 173.878C318.511 173.878 317.403 172.519 317.403 170.061C317.403 167.604 318.542 166.234 320.111 166.234Z" fill="#333333"/>
<path d="M326.772 174.662H327.713V165.45H324.597V166.286H326.772V174.662Z" fill="#333333"/>
<path d="M333.59 174.746C333.726 174.746 333.851 174.746 333.987 174.746C333.883 174.464 333.778 174.181 333.663 173.91H333.59C331.98 173.91 330.871 172.55 330.871 170.093C330.864 169.45 330.963 168.811 331.164 168.2L330.631 167.155C330.13 168.055 329.881 169.073 329.909 170.103C329.909 172.989 331.457 174.746 333.59 174.746Z" fill="#333333"/>
<path d="M221.306 190.682C219.215 190.682 217.625 192.439 217.625 195.367C217.625 198.295 219.173 200.062 221.306 200.062C223.439 200.062 224.987 198.305 224.987 195.367C224.987 192.429 223.439 190.682 221.306 190.682ZM221.306 199.184C219.696 199.184 218.587 197.835 218.587 195.367C218.587 192.899 219.696 191.55 221.306 191.55C222.916 191.55 224.014 192.91 224.014 195.367C224.014 197.824 222.864 199.184 221.306 199.184Z" fill="#333333"/>
<path d="M230.016 190.682C227.925 190.682 226.336 192.439 226.336 195.367C226.336 198.295 227.883 200.062 230.016 200.062C232.15 200.062 233.697 198.305 233.697 195.367C233.697 192.429 232.139 190.682 230.016 190.682ZM230.016 199.184C228.406 199.184 227.298 197.835 227.298 195.367C227.298 192.899 228.406 191.55 230.016 191.55C231.627 191.55 232.725 192.91 232.725 195.367C232.725 197.824 231.616 199.184 230.016 199.184Z" fill="#333333"/>
<path d="M237.577 199.978V190.766H234.461V191.602H236.625V199.978H237.577Z" fill="#333333"/>
<path d="M242.324 199.978V190.766H239.208V191.602H241.383V199.978H242.324Z" fill="#333333"/>
<path d="M247.082 199.978V190.766H243.955V191.602H246.13V199.978H247.082Z" fill="#333333"/>
<path d="M251.829 199.978V190.766H248.703V191.602H250.878V199.978H251.829Z" fill="#333333"/>
<path d="M254.025 195.367C254.025 198.305 255.562 200.062 257.696 200.062C259.829 200.062 261.376 198.305 261.376 195.367C261.376 192.429 259.829 190.682 257.696 190.682C255.562 190.682 254.025 192.439 254.025 195.367ZM257.696 191.55C259.306 191.55 260.404 192.91 260.404 195.367C260.404 197.824 259.306 199.184 257.696 199.184C256.085 199.184 254.987 197.835 254.987 195.367C254.987 192.899 256.085 191.55 257.696 191.55Z" fill="#333333"/>
<path d="M266.406 190.682C264.315 190.682 262.736 192.439 262.736 195.367C262.736 198.295 264.273 200.062 266.406 200.062C268.539 200.062 270.087 198.305 270.087 195.367C270.087 192.429 268.539 190.682 266.406 190.682ZM266.406 199.184C264.796 199.184 263.698 197.835 263.698 195.367C263.698 192.899 264.796 191.55 266.406 191.55C268.016 191.55 269.114 192.91 269.114 195.367C269.114 197.824 268.006 199.184 266.406 199.184Z" fill="#333333"/>
<path d="M275.148 200.062C277.239 200.062 278.828 198.305 278.828 195.367C278.828 192.429 277.281 190.682 275.148 190.682C273.015 190.682 271.477 192.439 271.477 195.367C271.477 198.295 272.983 200.062 275.148 200.062ZM275.148 191.55C276.748 191.55 277.856 192.91 277.856 195.367C277.856 197.824 276.748 199.184 275.148 199.184C273.548 199.184 272.439 197.835 272.439 195.367C272.439 192.899 273.506 191.55 275.148 191.55Z" fill="#333333"/>
<path d="M282.676 199.978V190.766H279.56V191.602H281.735V199.978H282.676Z" fill="#333333"/>
<path d="M287.434 190.766H284.308V191.602H286.483V199.978H287.434V190.766Z" fill="#333333"/>
<path d="M293.3 190.682C291.209 190.682 289.63 192.439 289.63 195.367C289.63 198.295 291.167 200.062 293.3 200.062C295.434 200.062 296.981 198.305 296.981 195.367C296.981 192.429 295.434 190.682 293.3 190.682ZM293.3 199.184C291.69 199.184 290.582 197.835 290.582 195.367C290.582 192.899 291.69 191.55 293.3 191.55C294.911 191.55 296.009 192.91 296.009 195.367C296.009 197.824 294.9 199.184 293.3 199.184Z" fill="#333333"/>
<path d="M297.744 191.602H299.919V199.978H300.86V190.766H297.744V191.602Z" fill="#333333"/>
<path d="M306.727 200.062C308.818 200.062 310.418 198.305 310.418 195.367C310.418 192.429 308.86 190.682 306.727 190.682C304.594 190.682 303.057 192.439 303.057 195.367C303.057 198.295 304.594 200.062 306.727 200.062ZM306.727 191.55C308.337 191.55 309.446 192.91 309.446 195.367C309.446 197.824 308.337 199.184 306.727 199.184C305.116 199.184 304.019 197.835 304.019 195.367C304.019 192.899 305.127 191.55 306.727 191.55Z" fill="#333333"/>
<path d="M314.297 199.978V190.766H311.181V191.602H313.345V199.978H314.297Z" fill="#333333"/>
<path d="M320.164 200.062C322.255 200.062 323.855 198.305 323.855 195.367C323.855 192.429 322.297 190.682 320.164 190.682C318.031 190.682 316.493 192.439 316.493 195.367C316.493 198.295 318.02 200.062 320.164 200.062ZM320.164 191.55C321.774 191.55 322.882 192.91 322.882 195.367C322.882 197.824 321.774 199.184 320.164 199.184C318.553 199.184 317.455 197.835 317.455 195.367C317.455 192.899 318.564 191.55 320.164 191.55Z" fill="#333333"/>
<path d="M327.734 199.978V190.766H324.608V191.602H326.783V199.978H327.734Z" fill="#333333"/>
<path d="M329.931 195.367C329.931 198.305 331.468 200.062 333.601 200.062C335.734 200.062 337.282 198.305 337.282 195.367C337.282 192.429 335.734 190.682 333.601 190.682C331.468 190.682 329.931 192.439 329.931 195.367ZM333.601 191.55C335.201 191.55 336.309 192.91 336.309 195.367C336.309 197.824 335.201 199.184 333.601 199.184C332.001 199.184 330.893 197.835 330.893 195.367C330.893 192.899 331.991 191.55 333.601 191.55Z" fill="#333333"/>
<path d="M220.281 182.714C220.351 181.909 220.209 181.099 219.87 180.366C219.53 179.632 219.005 179 218.347 178.531L218.096 179.431C218.532 179.854 218.868 180.369 219.078 180.939C219.288 181.51 219.367 182.12 219.309 182.725C219.309 185.172 218.263 186.531 216.611 186.541C216.611 186.824 216.538 187.116 216.506 187.399H216.59C218.681 187.399 220.281 185.653 220.281 182.714Z" fill="#333333"/>
<path d="M223.209 187.325H224.161V178.102H221.034V178.949H223.209V187.325Z" fill="#333333"/>
<path d="M230.027 178.03C227.936 178.03 226.357 179.776 226.357 182.714C226.357 185.652 227.894 187.399 230.027 187.399C232.16 187.399 233.708 185.652 233.708 182.714C233.708 179.776 232.16 178.03 230.027 178.03ZM230.027 186.531C228.417 186.531 227.319 185.171 227.319 182.714C227.319 180.257 228.417 178.897 230.027 178.897C231.637 178.897 232.735 180.257 232.735 182.714C232.735 185.171 231.627 186.531 230.027 186.531Z" fill="#333333"/>
<path d="M234.471 178.949H236.646V187.325H237.587V178.102H234.471V178.949Z" fill="#333333"/>
<path d="M239.783 182.714C239.783 185.652 241.331 187.399 243.464 187.399C245.597 187.399 247.145 185.652 247.145 182.714C247.145 179.776 245.587 178.03 243.464 178.03C241.341 178.03 239.783 179.776 239.783 182.714ZM243.464 178.929C245.064 178.929 246.172 180.288 246.172 182.746C246.172 185.203 245.064 186.562 243.464 186.562C241.864 186.562 240.745 185.203 240.745 182.746C240.745 180.288 241.854 178.929 243.464 178.929Z" fill="#333333"/>
<path d="M250.072 187.325H251.024V178.102H247.908V178.949H250.072V187.325Z" fill="#333333"/>
<path d="M254.82 187.325H255.771V178.102H252.655V178.949H254.82V187.325Z" fill="#333333"/>
<path d="M257.967 182.714C257.967 185.652 259.504 187.399 261.637 187.399C263.771 187.399 265.329 185.652 265.329 182.714C265.329 179.776 263.771 178.03 261.637 178.03C259.504 178.03 257.967 179.776 257.967 182.714ZM264.356 182.714C264.356 185.171 263.248 186.531 261.637 186.531C260.027 186.531 258.929 185.171 258.929 182.714C258.929 180.257 260.038 178.897 261.637 178.897C263.237 178.897 264.356 180.257 264.356 182.714Z" fill="#333333"/>
<path d="M269.208 187.325V178.102H266.082V178.949H268.257V187.325H269.208Z" fill="#333333"/>
<path d="M275.075 187.399C277.166 187.399 278.766 185.652 278.766 182.714C278.766 179.776 277.208 178.03 275.075 178.03C272.941 178.03 271.404 179.776 271.404 182.714C271.404 185.652 272.941 187.399 275.075 187.399ZM275.075 178.897C276.685 178.897 277.783 180.257 277.783 182.714C277.783 185.171 276.737 186.531 275.075 186.531C273.412 186.531 272.366 185.171 272.366 182.714C272.366 180.257 273.475 178.929 275.075 178.929V178.897Z" fill="#333333"/>
<path d="M280.115 182.714C280.115 185.652 281.652 187.399 283.785 187.399C285.918 187.399 287.466 185.652 287.466 182.714C287.466 179.776 285.918 178.03 283.785 178.03C281.652 178.03 280.115 179.776 280.115 182.714ZM286.493 182.714C286.493 185.171 285.395 186.531 283.785 186.531C282.175 186.531 281.077 185.171 281.077 182.714C281.077 180.257 282.175 178.897 283.785 178.897C285.395 178.897 286.493 180.257 286.493 182.714Z" fill="#333333"/>
<path d="M292.495 187.399C294.587 187.399 296.187 185.652 296.187 182.714C296.187 179.776 294.629 178.03 292.495 178.03C290.362 178.03 288.825 179.776 288.825 182.714C288.825 185.652 290.362 187.399 292.495 187.399ZM292.495 178.897C294.106 178.897 295.204 180.257 295.204 182.714C295.204 185.171 294.106 186.531 292.495 186.531C290.885 186.531 289.787 185.203 289.787 182.714C289.787 180.225 290.885 178.929 292.495 178.929V178.897Z" fill="#333333"/>
<path d="M299.114 187.325H300.056V178.102H296.939V178.949H299.114V187.325Z" fill="#333333"/>
<path d="M303.862 187.325H304.813V178.102H301.687V178.949H303.862V187.325Z" fill="#333333"/>
<path d="M307.009 182.714C307.009 185.652 308.546 187.399 310.679 187.399C312.812 187.399 314.36 185.652 314.36 182.714C314.36 179.776 312.812 178.03 310.679 178.03C308.546 178.03 307.009 179.776 307.009 182.714ZM310.7 178.929C312.31 178.929 313.408 180.288 313.408 182.746C313.408 185.203 312.31 186.562 310.7 186.562C309.09 186.562 307.992 185.203 307.992 182.746C307.992 180.288 309.069 178.929 310.7 178.929Z" fill="#333333"/>
<path d="M317.298 187.325H318.239V178.102H315.123V178.949H317.298V187.325Z" fill="#333333"/>
<path d="M320.435 182.714C320.435 185.652 321.983 187.399 324.116 187.399C326.249 187.399 327.797 185.652 327.797 182.714C327.797 179.776 326.249 178.03 324.116 178.03C321.983 178.03 320.435 179.776 320.435 182.714ZM324.116 178.897C325.716 178.897 326.824 180.257 326.824 182.714C326.824 185.171 325.716 186.531 324.116 186.531C322.516 186.531 321.397 185.171 321.397 182.714C321.397 180.257 322.506 178.929 324.116 178.929V178.897Z" fill="#333333"/>
<path d="M330.725 187.325H331.676V178.102H328.56V178.949H330.725V187.325Z" fill="#333333"/>
<path d="M333.873 182.714C333.873 185.412 335.18 187.096 337.01 187.346C337.01 187.054 336.936 186.75 336.895 186.458C335.629 186.144 334.803 184.847 334.803 182.714C334.748 181.712 335.016 180.719 335.567 179.88C335.472 179.535 335.368 179.211 335.274 178.835C334.778 179.345 334.397 179.955 334.155 180.624C333.914 181.292 333.817 182.005 333.873 182.714Z" fill="#333333"/>
<path d="M220.25 208.03C220.25 205.091 218.702 203.345 216.569 203.345H216.506C216.506 203.638 216.569 203.931 216.611 204.213C218.19 204.213 219.278 205.593 219.278 208.03C219.329 208.63 219.249 209.234 219.045 209.8C218.842 210.367 218.518 210.883 218.096 211.313C218.169 211.606 218.263 211.909 218.347 212.202C218.999 211.731 219.517 211.099 219.851 210.368C220.185 209.636 220.322 208.83 220.25 208.03Z" fill="#333333"/>
<path d="M221.013 204.265H223.188V212.631H224.13V203.418H221.013V204.265Z" fill="#333333"/>
<path d="M229.996 212.714C232.087 212.714 233.687 210.957 233.687 208.03C233.687 205.102 232.129 203.345 229.996 203.345C227.862 203.345 226.325 205.091 226.325 208.03C226.325 210.968 227.862 212.714 229.996 212.714ZM229.996 204.213C231.606 204.213 232.714 205.562 232.714 208.03C232.714 210.497 231.606 211.846 229.996 211.846C228.385 211.846 227.287 210.487 227.287 208.03C227.287 205.572 228.396 204.213 229.996 204.213Z" fill="#333333"/>
<path d="M236.615 212.631H237.566V203.418H234.44V204.265H236.615V212.631Z" fill="#333333"/>
<path d="M241.362 212.631H242.313V203.418H239.197V204.265H241.362V212.631Z" fill="#333333"/>
<path d="M243.945 204.265H246.12V212.631H247.061V203.418H243.945V204.265Z" fill="#333333"/>
<path d="M248.692 204.265H250.867V212.631H251.819V203.418H248.692V204.265Z" fill="#333333"/>
<path d="M257.685 212.714C259.776 212.714 261.366 210.957 261.366 208.03C261.366 205.102 259.818 203.345 257.685 203.345C255.552 203.345 254.015 205.091 254.015 208.03C254.015 210.968 255.552 212.714 257.685 212.714ZM257.685 204.213C259.285 204.213 260.393 205.562 260.393 208.03C260.393 210.497 259.285 211.846 257.685 211.846C256.085 211.846 254.966 210.487 254.966 208.03C254.966 205.572 256.075 204.213 257.685 204.213Z" fill="#333333"/>
<path d="M266.396 203.345C264.304 203.345 262.725 205.091 262.725 208.03C262.725 210.968 264.262 212.714 266.396 212.714C268.529 212.714 270.076 210.957 270.076 208.03C270.076 205.102 268.529 203.345 266.396 203.345ZM266.396 211.846C264.785 211.846 263.677 210.487 263.677 208.03C263.677 205.572 264.785 204.213 266.396 204.213C268.006 204.213 269.104 205.562 269.104 208.03C269.104 210.497 267.995 211.846 266.396 211.846Z" fill="#333333"/>
<path d="M275.148 212.714C277.239 212.714 278.828 210.957 278.828 208.03C278.828 205.102 277.281 203.345 275.148 203.345C273.014 203.345 271.467 205.091 271.467 208.03C271.467 210.968 272.973 212.714 275.148 212.714ZM275.148 204.213C276.747 204.213 277.856 205.562 277.856 208.03C277.856 210.497 276.747 211.846 275.148 211.846C273.548 211.846 272.429 210.487 272.429 208.03C272.429 205.572 273.495 204.213 275.148 204.213Z" fill="#333333"/>
<path d="M281.725 212.631H282.666V203.418H279.55V204.265H281.725V212.631Z" fill="#333333"/>
<path d="M287.413 212.631V203.418H284.297V204.265H286.472V212.631H287.413Z" fill="#333333"/>
<path d="M293.29 212.714C295.381 212.714 296.971 210.957 296.971 208.03C296.971 205.102 295.423 203.345 293.29 203.345C291.157 203.345 289.609 205.091 289.609 208.03C289.609 210.968 291.157 212.714 293.29 212.714ZM293.29 204.213C294.89 204.213 295.998 205.562 295.998 208.03C295.998 210.497 294.89 211.846 293.29 211.846C291.69 211.846 290.571 210.487 290.571 208.03C290.571 205.572 291.68 204.213 293.29 204.213Z" fill="#333333"/>
<path d="M300.85 203.418H297.734V204.265H299.899V212.631H300.85V203.418Z" fill="#333333"/>
<path d="M306.716 212.714C308.808 212.714 310.408 210.957 310.408 208.03C310.408 205.102 308.849 203.345 306.716 203.345C304.583 203.345 303.046 205.091 303.046 208.03C303.046 210.968 304.583 212.714 306.716 212.714ZM306.716 204.213C308.327 204.213 309.435 205.562 309.435 208.03C309.435 210.497 308.327 211.846 306.716 211.846C305.106 211.846 304.008 210.487 304.008 208.03C304.008 205.572 305.116 204.213 306.716 204.213Z" fill="#333333"/>
<path d="M311.161 204.265H313.336V212.631H314.287V203.418H311.161V204.265Z" fill="#333333"/>
<path d="M323.834 208.03C323.834 205.091 322.286 203.345 320.153 203.345C318.02 203.345 316.483 205.091 316.483 208.03C316.483 210.968 318.02 212.714 320.153 212.714C322.286 212.714 323.834 210.957 323.834 208.03ZM320.111 211.846C318.501 211.846 317.403 210.487 317.403 208.03C317.403 205.572 318.501 204.213 320.111 204.213C321.722 204.213 322.82 205.562 322.82 208.03C322.82 210.497 321.753 211.846 320.111 211.846Z" fill="#333333"/>
<path d="M324.597 204.265H326.772V212.631H327.713V203.418H324.597V204.265Z" fill="#333333"/>
<path d="M333.59 203.345C331.499 203.345 329.909 205.091 329.909 208.03C329.909 210.968 331.457 212.714 333.59 212.714C334.144 212.714 334.69 212.578 335.179 212.317C335.336 211.773 335.504 211.271 335.64 210.686C335.427 211.048 335.12 211.347 334.752 211.552C334.385 211.756 333.969 211.857 333.548 211.846C331.938 211.846 330.829 210.487 330.829 208.03C330.829 205.572 331.938 204.213 333.548 204.213C335.159 204.213 336.215 205.53 336.246 207.915C336.424 207.099 336.57 206.273 336.706 205.447C336.452 204.828 336.021 204.298 335.466 203.924C334.912 203.55 334.259 203.349 333.59 203.345Z" fill="#333333"/>
<path d="M233.697 233.304C233.697 230.376 232.149 228.619 230.016 228.619C229.408 228.612 228.809 228.772 228.286 229.082C227.762 229.392 227.334 229.839 227.047 230.376L227.653 231.223C227.814 230.728 228.127 230.297 228.548 229.991C228.969 229.685 229.475 229.519 229.995 229.518C231.595 229.518 232.704 230.878 232.704 233.335C232.775 234.408 232.455 235.47 231.804 236.326L232.432 236.984C233.32 235.971 233.775 234.649 233.697 233.304Z" fill="#333333"/>
<path d="M236.625 237.946H237.577V228.734H234.461V229.57H236.625V237.946Z" fill="#333333"/>
<path d="M239.208 229.57H241.383V237.946H242.324V228.734H239.208V229.57Z" fill="#333333"/>
<path d="M243.955 229.57H246.13V237.946H247.082V228.734H243.955V229.57Z" fill="#333333"/>
<path d="M248.703 229.57H250.878V237.946H251.829V228.734H248.703V229.57Z" fill="#333333"/>
<path d="M257.696 228.65C255.604 228.65 254.025 230.407 254.025 233.335C254.025 236.263 255.562 238.03 257.696 238.03C259.829 238.03 261.376 236.273 261.376 233.335C261.376 230.396 259.829 228.65 257.696 228.65ZM257.696 237.151C256.085 237.151 254.987 235.803 254.987 233.335C254.987 230.867 256.085 229.518 257.696 229.518C259.306 229.518 260.404 230.877 260.404 233.335C260.404 235.792 259.306 237.151 257.696 237.151Z" fill="#333333"/>
<path d="M266.406 228.65C264.315 228.65 262.736 230.407 262.736 233.335C262.736 236.263 264.273 238.03 266.406 238.03C268.539 238.03 270.087 236.273 270.087 233.335C270.087 230.396 268.539 228.65 266.406 228.65ZM266.406 237.151C264.796 237.151 263.698 235.803 263.698 233.335C263.698 230.867 264.796 229.518 266.406 229.518C268.016 229.518 269.114 230.877 269.114 233.335C269.114 235.792 268.016 237.151 266.406 237.151Z" fill="#333333"/>
<path d="M275.148 228.65C273.056 228.65 271.477 230.407 271.477 233.335C271.477 236.263 273.015 238.03 275.148 238.03C277.281 238.03 278.828 236.273 278.828 233.335C278.828 230.396 277.239 228.65 275.148 228.65ZM275.148 237.151C273.537 237.151 272.439 235.803 272.439 233.335C272.439 230.867 273.537 229.518 275.148 229.518C276.758 229.518 277.856 230.877 277.856 233.335C277.856 235.792 276.716 237.151 275.148 237.151Z" fill="#333333"/>
<path d="M279.56 229.57H281.735V237.946H282.676V228.734H279.56V229.57Z" fill="#333333"/>
<path d="M284.308 229.57H286.483V237.946H287.434V228.734H284.308V229.57Z" fill="#333333"/>
<path d="M293.3 228.65C291.209 228.65 289.63 230.407 289.63 233.335C289.63 236.263 291.167 238.03 293.3 238.03C295.434 238.03 296.981 236.273 296.981 233.335C296.981 230.396 295.434 228.65 293.3 228.65ZM293.3 237.151C291.69 237.151 290.582 235.803 290.582 233.335C290.582 230.867 291.69 229.518 293.3 229.518C294.911 229.518 296.061 230.877 296.061 233.303C296.061 235.729 294.9 237.151 293.3 237.151Z" fill="#333333"/>
<path d="M297.744 229.57H299.919V237.946H300.86V228.734H297.744V229.57Z" fill="#333333"/>
<path d="M306.727 228.65C304.635 228.65 303.057 230.407 303.057 233.335C303.057 236.263 304.604 238.03 306.727 238.03C308.85 238.03 310.418 236.273 310.418 233.335C310.418 230.396 308.86 228.65 306.727 228.65ZM306.727 237.151C305.127 237.151 304.019 235.803 304.019 233.335C304.019 230.867 305.127 229.518 306.727 229.518C308.327 229.518 309.446 230.877 309.446 233.335C309.446 235.792 308.337 237.151 306.727 237.151Z" fill="#333333"/>
<path d="M311.181 229.57H313.345V237.946H314.297V228.734H311.181V229.57Z" fill="#333333"/>
<path d="M320.164 228.65C318.072 228.65 316.493 230.407 316.493 233.335C316.493 236.263 318.01 237.988 320.111 238.019C320.456 237.674 320.802 237.308 321.157 236.974C320.85 237.105 320.519 237.172 320.185 237.172C318.585 237.172 317.476 235.823 317.476 233.356C317.476 230.888 318.585 229.539 320.185 229.539C321.784 229.539 322.903 230.898 322.903 233.356C322.918 234.07 322.794 234.78 322.537 235.447C322.977 234.945 323.416 234.454 323.834 233.941C323.834 233.743 323.834 233.565 323.834 233.356C323.855 230.407 322.297 228.65 320.164 228.65Z" fill="#333333"/>
<path d="M324.608 229.57H326.783V229.968C327.065 229.56 327.347 229.152 327.619 228.734H324.608V229.57Z" fill="#333333"/>
<path d="M224.161 216.071H221.024V216.918H223.199V224.165C223.398 224.551 223.617 224.917 223.837 225.294H224.151L224.161 216.071Z" fill="#333333"/>
<path d="M230.027 215.997C227.936 215.997 226.357 217.743 226.357 220.681C226.357 223.62 227.894 225.366 230.027 225.366C232.16 225.366 233.708 223.62 233.708 220.681C233.708 217.743 232.16 215.997 230.027 215.997ZM230.027 224.498C228.417 224.498 227.319 223.139 227.319 220.681C227.319 218.224 228.417 216.865 230.027 216.865C231.637 216.865 232.735 218.224 232.735 220.681C232.735 223.139 231.627 224.498 230.027 224.498Z" fill="#333333"/>
<path d="M234.471 216.918H236.646V225.294H237.587V216.071H234.471V216.918Z" fill="#333333"/>
<path d="M243.464 215.997C241.373 215.997 239.783 217.743 239.783 220.681C239.783 223.62 241.331 225.366 243.464 225.366C245.597 225.366 247.145 223.62 247.145 220.681C247.145 217.743 245.587 215.997 243.464 215.997ZM243.464 224.498C241.854 224.498 240.745 223.139 240.745 220.681C240.745 218.224 241.854 216.865 243.464 216.865C245.075 216.865 246.172 218.224 246.172 220.681C246.172 223.139 245.064 224.498 243.464 224.498Z" fill="#333333"/>
<path d="M250.072 225.294H251.024V216.071H247.908V216.918H250.072V225.294Z" fill="#333333"/>
<path d="M252.655 216.918H254.83V225.294H255.771V216.071H252.655V216.918Z" fill="#333333"/>
<path d="M265.329 220.681C265.329 217.743 263.771 215.997 261.637 215.997C259.504 215.997 257.967 217.743 257.967 220.681C257.967 223.62 259.515 225.366 261.637 225.366C263.76 225.366 265.329 223.62 265.329 220.681ZM261.637 224.498C260.038 224.498 258.929 223.139 258.929 220.681C258.929 218.224 260.038 216.865 261.637 216.865C263.237 216.865 264.356 218.224 264.356 220.681C264.356 223.139 263.248 224.498 261.637 224.498Z" fill="#333333"/>
<path d="M269.208 225.294V216.071H266.082V216.918H268.257V225.294H269.208Z" fill="#333333"/>
<path d="M275.075 225.366C277.166 225.366 278.766 223.62 278.766 220.681C278.766 217.743 277.208 215.997 275.075 215.997C272.941 215.997 271.404 217.743 271.404 220.681C271.404 223.62 272.941 225.366 275.075 225.366ZM275.075 216.865C276.685 216.865 277.783 218.224 277.783 220.681C277.783 223.139 276.737 224.498 275.075 224.498C273.412 224.498 272.366 223.139 272.366 220.681C272.366 218.224 273.475 216.865 275.075 216.865Z" fill="#333333"/>
<path d="M283.785 215.997C281.694 215.997 280.115 217.743 280.115 220.681C280.115 223.62 281.652 225.366 283.785 225.366C285.918 225.366 287.476 223.62 287.476 220.681C287.476 217.743 285.918 215.997 283.785 215.997ZM283.785 224.498C282.175 224.498 281.077 223.139 281.077 220.681C281.077 218.224 282.175 216.865 283.785 216.865C285.395 216.865 286.493 218.224 286.493 220.681C286.493 223.139 285.395 224.498 283.785 224.498Z" fill="#333333"/>
<path d="M292.495 225.366C294.587 225.366 296.187 223.62 296.187 220.681C296.187 217.743 294.629 215.997 292.495 215.997C290.362 215.997 288.825 217.743 288.825 220.681C288.825 223.62 290.362 225.366 292.495 225.366ZM292.495 216.865C294.106 216.865 295.204 218.224 295.204 220.681C295.204 223.139 294.106 224.498 292.495 224.498C290.885 224.498 289.787 223.139 289.787 220.681C289.787 218.224 290.885 216.865 292.495 216.865Z" fill="#333333"/>
<path d="M300.056 225.294V216.071H296.939V216.918H299.114V225.294H300.056Z" fill="#333333"/>
<path d="M303.862 225.294H304.813V216.071H301.687V216.918H303.862V225.294Z" fill="#333333"/>
<path d="M310.7 215.997C308.609 215.997 307.03 217.743 307.03 220.681C307.03 223.62 308.567 225.366 310.7 225.366C312.833 225.366 314.381 223.62 314.381 220.681C314.381 217.743 312.792 215.997 310.7 215.997ZM310.7 224.498C309.09 224.498 307.992 223.139 307.992 220.681C307.992 218.224 309.09 216.865 310.7 216.865C312.311 216.865 313.408 218.224 313.408 220.681C313.408 223.139 312.29 224.498 310.7 224.498Z" fill="#333333"/>
<path d="M317.298 225.294H318.239V216.071H315.123V216.918H317.298V225.294Z" fill="#333333"/>
<path d="M324.116 215.997C322.025 215.997 320.435 217.743 320.435 220.681C320.435 223.62 321.983 225.366 324.116 225.366C326.249 225.366 327.797 223.62 327.797 220.681C327.797 217.743 326.249 215.997 324.116 215.997ZM324.116 224.498C322.506 224.498 321.397 223.139 321.397 220.681C321.397 218.224 322.506 216.865 324.116 216.865C325.726 216.865 326.824 218.224 326.824 220.681C326.824 223.139 325.716 224.498 324.116 224.498Z" fill="#333333"/>
<path d="M328.56 216.071V216.918H330.725V223.422C331.049 222.805 331.373 222.188 331.676 221.55V216.071H328.56Z" fill="#333333"/>
<path d="M237.043 241.386L237.566 241.836V241.386H237.043Z" fill="#333333"/>
<path d="M239.197 241.386V242.233H241.362V244.806L242.313 245.475V241.397L239.197 241.386Z" fill="#333333"/>
<path d="M243.945 241.386V242.233H246.12V247.88L247.061 248.424V241.386H243.945Z" fill="#333333"/>
<path d="M251.808 241.386H248.671V242.233H250.846V250.39L251.317 250.599H251.787L251.808 241.386Z" fill="#333333"/>
<path d="M257.685 241.313C255.594 241.313 254.015 243.06 254.015 245.998C254.015 248.936 255.552 250.683 257.685 250.683C259.818 250.683 261.366 248.936 261.366 245.998C261.366 243.06 259.818 241.313 257.685 241.313ZM257.685 249.815C256.075 249.815 254.966 248.455 254.966 245.998C254.966 243.541 256.075 242.181 257.685 242.181C259.295 242.181 260.393 243.53 260.393 245.998C260.393 248.466 259.285 249.815 257.685 249.815Z" fill="#333333"/>
<path d="M266.396 241.313C264.304 241.313 262.725 243.06 262.725 245.998C262.725 248.936 264.262 250.683 266.396 250.683C268.529 250.683 270.076 248.936 270.076 245.998C270.076 243.06 268.529 241.313 266.396 241.313ZM266.396 249.815C264.785 249.815 263.677 248.455 263.677 245.998C263.677 243.541 264.785 242.181 266.396 242.181C268.006 242.181 269.104 243.53 269.104 245.998C269.104 248.466 267.995 249.815 266.396 249.815Z" fill="#333333"/>
<path d="M275.148 241.313C273.056 241.313 271.467 243.06 271.467 245.998C271.467 248.936 273.014 250.683 275.148 250.683C277.281 250.683 278.828 248.936 278.828 245.998C278.828 243.06 277.239 241.313 275.148 241.313ZM275.148 249.815C273.537 249.815 272.429 248.455 272.429 245.998C272.429 243.541 273.537 242.181 275.148 242.181C276.758 242.181 277.856 243.53 277.856 245.998C277.856 248.466 276.706 249.815 275.148 249.815Z" fill="#333333"/>
<path d="M281.725 250.599H282.666V241.386H279.55V242.233H281.725V250.599Z" fill="#333333"/>
<path d="M284.297 242.233H286.472V250.599H287.413V241.386H284.297V242.233Z" fill="#333333"/>
<path d="M293.29 241.313C291.199 241.313 289.609 243.06 289.609 245.998C289.609 248.936 291.157 250.683 293.29 250.683C295.423 250.683 296.971 248.936 296.971 245.998C296.971 243.06 295.423 241.313 293.29 241.313ZM293.29 249.815C291.68 249.815 290.571 248.455 290.571 245.998C290.571 243.541 291.68 242.181 293.29 242.181C294.9 242.181 295.998 243.53 295.998 245.998C295.998 248.466 294.89 249.815 293.29 249.815Z" fill="#333333"/>
<path d="M297.734 242.233H299.899V250.599H300.85V241.386H297.734V242.233Z" fill="#333333"/>
<path d="M306.716 241.313C304.625 241.313 303.046 243.06 303.046 245.998C302.98 247.314 303.413 248.606 304.259 249.616L305.096 249.187C304.71 248.757 304.419 248.251 304.239 247.702C304.059 247.153 303.994 246.573 304.05 245.998C304.05 243.53 305.158 242.181 306.758 242.181C308.358 242.181 309.477 243.53 309.477 245.998C309.477 246.239 309.477 246.469 309.477 246.688L310.523 246.04C310.407 243.06 308.849 241.313 306.716 241.313Z" fill="#333333"/>
<path d="M311.161 241.386V242.233H313.336V243.969C313.66 243.729 313.963 243.467 314.287 243.227V241.386H311.161Z" fill="#333333"/>
<path d="M260.843 254.06C261.836 254.332 262.851 254.572 263.865 254.792C263.455 254.439 262.968 254.188 262.442 254.061C261.917 253.934 261.369 253.933 260.843 254.06Z" fill="#333333"/>
<path d="M266.092 254.049V254.886H268.257V255.576L269.208 255.701V254.049H266.092Z" fill="#333333"/>
<path d="M275.074 253.966C274.413 253.957 273.763 254.143 273.205 254.5C272.648 254.856 272.207 255.369 271.937 255.973L272.983 256.057C273.189 255.683 273.492 255.372 273.86 255.157C274.228 254.941 274.648 254.83 275.074 254.833C275.525 254.829 275.967 254.953 276.35 255.19C276.733 255.427 277.041 255.767 277.239 256.172C277.584 256.172 277.929 256.172 278.285 256.172C278.039 255.52 277.6 254.96 277.026 254.565C276.452 254.171 275.771 253.961 275.074 253.966Z" fill="#333333"/>
<path d="M283.785 253.966C283.113 253.962 282.455 254.158 281.896 254.531C281.337 254.904 280.902 255.435 280.648 256.057L281.746 255.973C281.958 255.624 282.258 255.336 282.615 255.138C282.973 254.94 283.376 254.839 283.785 254.844C284.105 254.84 284.422 254.901 284.717 255.026C285.013 255.15 285.279 255.334 285.499 255.566L286.545 255.398C286.237 254.952 285.825 254.588 285.343 254.338C284.862 254.088 284.327 253.961 283.785 253.966Z" fill="#333333"/>
<path d="M290.498 254.614C291.303 254.426 292.108 254.227 292.892 254.008C292.767 254.008 292.631 254.008 292.495 254.008C291.781 253.989 291.081 254.202 290.498 254.614Z" fill="#333333"/>
</g>
<path d="M246.674 106.234V107.186H241.163V99.584H246.527V100.504H242.251V102.836H246.057V103.756H242.251V106.203L246.674 106.234Z" fill="white"/>
<path d="M254.966 99.584V107.186H254.077L249.518 101.55V107.217H248.473V99.6154H249.361L253.92 105.283V99.6154L254.966 99.584Z" fill="white"/>
<path d="M256.629 103.389C256.623 102.865 256.723 102.345 256.925 101.861C257.127 101.378 257.426 100.94 257.803 100.576C258.18 100.212 258.627 99.9283 259.118 99.7431C259.608 99.558 260.131 99.475 260.655 99.4992C261.192 99.4779 261.728 99.5723 262.226 99.7762C262.724 99.98 263.172 100.289 263.541 100.681L262.83 101.371C262.565 101.08 262.242 100.849 261.881 100.692C261.521 100.535 261.131 100.457 260.738 100.461C260.34 100.437 259.941 100.495 259.565 100.631C259.19 100.767 258.846 100.979 258.556 101.253C258.265 101.526 258.034 101.857 257.875 102.223C257.717 102.59 257.636 102.985 257.636 103.384C257.636 103.783 257.717 104.178 257.875 104.545C258.034 104.911 258.265 105.241 258.556 105.515C258.846 105.789 259.19 106 259.565 106.136C259.941 106.272 260.34 106.33 260.738 106.307C261.131 106.309 261.52 106.23 261.88 106.073C262.241 105.916 262.564 105.686 262.83 105.397L263.541 106.077C263.172 106.471 262.722 106.782 262.222 106.988C261.722 107.194 261.184 107.289 260.644 107.269C260.122 107.293 259.6 107.21 259.111 107.025C258.622 106.841 258.176 106.558 257.8 106.195C257.424 105.832 257.126 105.395 256.925 104.913C256.723 104.43 256.623 103.912 256.629 103.389Z" fill="white"/>
<path d="M270.17 107.185L268.529 104.853H268.048H266.176V107.164H265.13V99.562H268.089C270.066 99.562 271.226 100.608 271.226 102.218C271.251 102.744 271.102 103.265 270.801 103.697C270.501 104.13 270.066 104.452 269.564 104.613L271.362 107.164L270.17 107.185ZM270.17 102.239C270.17 101.193 269.438 100.534 268.079 100.534H266.239V103.943H268.079C269.407 103.943 270.139 103.316 270.139 102.239H270.17Z" fill="white"/>
<path d="M275.775 104.561V107.186H274.729V104.54L271.718 99.584H272.878L275.304 103.589L277.751 99.584H278.797L275.775 104.561Z" fill="white"/>
<path d="M285.886 102.24C285.886 103.882 284.694 104.886 282.749 104.886H280.878V107.186H279.832V99.584H282.791C284.694 99.584 285.886 100.588 285.886 102.24ZM284.841 102.24C284.841 101.194 284.119 100.536 282.749 100.536H280.909V103.934H282.749C284.077 103.934 284.799 103.317 284.799 102.24H284.841Z" fill="white"/>
<path d="M288.742 100.504H286.138V99.552H292.412V100.504H289.787V107.154H288.742V100.504Z" fill="white"/>
<path d="M293.614 99.584H294.66V107.186H293.614V99.584Z" fill="white"/>
<path d="M296.354 103.389C296.323 102.586 296.532 101.791 296.956 101.107C297.38 100.423 297.998 99.8815 298.731 99.5515C299.465 99.2215 300.28 99.1183 301.073 99.255C301.866 99.3918 302.6 99.7622 303.18 100.319C303.761 100.876 304.162 101.593 304.332 102.379C304.502 103.165 304.433 103.985 304.135 104.731C303.836 105.478 303.321 106.119 302.656 106.571C301.99 107.023 301.205 107.266 300.401 107.269C299.877 107.294 299.353 107.213 298.861 107.029C298.37 106.845 297.921 106.563 297.542 106.2C297.163 105.837 296.863 105.401 296.658 104.917C296.454 104.434 296.35 103.914 296.354 103.389ZM303.349 103.389C303.358 102.802 303.191 102.225 302.87 101.733C302.55 101.241 302.09 100.855 301.549 100.625C301.009 100.395 300.412 100.331 299.835 100.441C299.258 100.551 298.727 100.831 298.309 101.244C297.892 101.657 297.606 102.185 297.49 102.761C297.373 103.337 297.431 103.934 297.655 104.477C297.88 105.02 298.261 105.484 298.749 105.81C299.238 106.136 299.813 106.309 300.401 106.307C300.791 106.323 301.18 106.258 301.545 106.118C301.909 105.978 302.241 105.765 302.52 105.491C302.8 105.218 303.02 104.891 303.168 104.529C303.316 104.168 303.388 103.78 303.381 103.389H303.349Z" fill="white"/>
<path d="M312.624 99.584V107.186H311.746L307.176 101.55V107.217H306.13V99.6154H307.019L311.578 105.283V99.6154L312.624 99.584Z" fill="white"/>
<path d="M295.016 187.085H290.833V175.038C290.833 171.355 289.37 167.823 286.766 165.219C284.161 162.615 280.629 161.152 276.946 161.152C273.263 161.152 269.731 162.615 267.127 165.219C264.523 167.823 263.06 171.355 263.06 175.038V187.085H258.877V175.038C258.877 170.246 260.781 165.65 264.17 162.262C267.558 158.873 272.154 156.969 276.946 156.969C281.739 156.969 286.335 158.873 289.723 162.262C293.112 165.65 295.016 170.246 295.016 175.038V187.085Z" fill="white"/>
<path d="M302.785 185.913L276.894 178.28L251.003 185.913V201.065C251.005 207.223 252.889 213.233 256.403 218.29C259.916 223.348 264.891 227.21 270.662 229.361L276.936 231.682L283.21 229.361C288.98 227.21 293.955 223.348 297.468 218.29C300.982 213.233 302.866 207.223 302.868 201.065L302.785 185.913Z" fill="#50F7BB"/>
<path opacity="0.2" d="M271.749 226.413C266.591 224.471 262.144 221.007 258.999 216.481C255.854 211.954 254.16 206.578 254.14 201.066V188.257L276.894 181.554L299.648 188.257V201.066C299.628 206.578 297.933 211.954 294.788 216.481C291.644 221.007 287.197 224.471 282.039 226.413L276.894 228.337L271.749 226.413Z" fill="#333333"/>
<path d="M280.825 199.497C280.833 198.794 280.652 198.103 280.301 197.494C279.951 196.885 279.443 196.382 278.832 196.035C278.221 195.689 277.528 195.513 276.826 195.525C276.124 195.537 275.437 195.737 274.839 196.104C274.24 196.472 273.75 196.993 273.421 197.613C273.092 198.234 272.935 198.931 272.966 199.633C272.998 200.334 273.217 201.015 273.6 201.603C273.984 202.192 274.518 202.667 275.148 202.979L274.395 210.298H279.372L278.619 202.979C279.274 202.66 279.827 202.166 280.217 201.551C280.606 200.936 280.817 200.225 280.825 199.497Z" fill="#333333"/>
<path d="M350.707 103.776V101.685H348.857C348.732 101.155 348.52 100.65 348.229 100.19L349.547 98.8723L348.051 97.3665L346.734 98.684C346.279 98.3938 345.776 98.185 345.249 98.0671V96.2058H343.158V98.0671C342.627 98.183 342.121 98.3919 341.662 98.684L340.324 97.3665L338.829 98.8618L340.146 100.179C339.854 100.638 339.645 101.144 339.529 101.675H337.668V103.766H339.529C339.647 104.293 339.856 104.795 340.146 105.251L338.829 106.568L340.324 108.064L341.641 106.746C342.101 107.037 342.607 107.249 343.137 107.374V109.224H345.228V107.374C345.754 107.247 346.256 107.035 346.713 106.746L348.031 108.064L349.526 106.568L348.208 105.251C348.498 104.794 348.71 104.292 348.836 103.766L350.707 103.776ZM344.162 104.686C343.774 104.688 343.394 104.575 343.071 104.361C342.748 104.147 342.496 103.842 342.347 103.484C342.197 103.126 342.158 102.732 342.233 102.352C342.308 101.972 342.494 101.622 342.768 101.348C343.043 101.074 343.392 100.888 343.772 100.812C344.152 100.737 344.547 100.777 344.904 100.926C345.262 101.076 345.567 101.328 345.781 101.651C345.995 101.974 346.109 102.354 346.106 102.741C346.104 103.256 345.898 103.749 345.534 104.113C345.17 104.478 344.677 104.683 344.162 104.686Z" fill="white"/>
<path d="M211.006 96.9585L203.958 103.661H206.133V108.471H215.879V103.661H218.065L211.006 96.9585Z" fill="white"/>
<path opacity="0.3" d="M330.955 273.038H222.864C221.339 273.038 219.876 273.644 218.798 274.723C217.719 275.801 217.113 277.264 217.113 278.789C217.113 280.315 217.719 281.777 218.798 282.856C219.876 283.935 221.339 284.54 222.864 284.54H330.987C332.512 284.54 333.975 283.935 335.053 282.856C336.132 281.777 336.738 280.315 336.738 278.789C336.738 277.264 336.132 275.801 335.053 274.723C333.975 273.644 332.512 273.038 330.987 273.038H330.955Z" fill="#50F7BB"/>
<path d="M298.351 274.085H222.937C221.744 274.164 220.625 274.695 219.807 275.568C218.99 276.442 218.535 277.594 218.535 278.79C218.535 279.987 218.99 281.138 219.807 282.012C220.625 282.886 221.744 283.416 222.937 283.496H298.351C298.995 283.539 299.642 283.449 300.25 283.232C300.858 283.015 301.415 282.675 301.887 282.234C302.358 281.793 302.734 281.26 302.991 280.667C303.248 280.075 303.381 279.436 303.381 278.79C303.381 278.144 303.248 277.506 302.991 276.913C302.734 276.321 302.358 275.787 301.887 275.346C301.415 274.905 300.858 274.566 300.25 274.349C299.642 274.131 298.995 274.042 298.351 274.085Z" fill="#50F7BB"/>
<path d="M118.695 39.4993H80.5803C79.6798 39.502 78.817 39.861 78.1803 40.4977C77.5436 41.1344 77.1846 41.9972 77.1819 42.8977V80.134C77.1819 81.0363 77.5396 81.9017 78.1766 82.5407C78.8137 83.1797 79.678 83.5401 80.5803 83.5428H101.368L113.404 92.316L107.935 83.5428H118.695C119.597 83.5401 120.462 83.1797 121.099 82.5407C121.736 81.9017 122.093 81.0363 122.093 80.134V42.8977C122.091 41.9972 121.732 41.1344 121.095 40.4977C120.458 39.861 119.595 39.502 118.695 39.4993Z" fill="#50F7BB"/>
<path d="M94.7066 74.8646C94.6722 74.8619 94.6387 74.8525 94.608 74.8369C94.5772 74.8212 94.5499 74.7997 94.5276 74.7734C94.5052 74.7472 94.4883 74.7168 94.4777 74.684C94.4672 74.6512 94.4632 74.6166 94.4661 74.5822C94.8216 70.776 96.8606 67.7122 98.3559 65.4744C99.4016 63.9687 100.144 62.7871 99.9872 62.076C99.9528 61.9569 99.8942 61.8462 99.8151 61.7508C99.7359 61.6555 99.6378 61.5775 99.5271 61.5218C99.1984 61.3599 98.8338 61.2846 98.4679 61.3029C98.1019 61.3212 97.7467 61.4325 97.4358 61.6264C95.1039 62.7871 92.2702 66.8547 91.6323 72.219C91.6284 72.2534 91.6177 72.2868 91.6009 72.317C91.584 72.3473 91.5613 72.3739 91.534 72.3953C91.5068 72.4167 91.4756 72.4325 91.4422 72.4417C91.4088 72.4509 91.3739 72.4534 91.3395 72.4491C91.2711 72.4387 91.2092 72.4026 91.1665 72.3482C91.1238 72.2938 91.1034 72.2252 91.1095 72.1563C91.7787 66.6456 94.7484 62.3793 97.2057 61.1558C97.5848 60.9258 98.0168 60.7973 98.46 60.7827C98.9032 60.768 99.3427 60.8677 99.7362 61.0722C99.9089 61.1602 100.061 61.2841 100.182 61.4356C100.302 61.5871 100.389 61.7627 100.437 61.9505C100.656 62.8917 99.8513 64.0942 98.7428 65.7672C97.2789 67.9527 95.2817 70.9956 94.9366 74.6241C94.9322 74.6846 94.9068 74.7417 94.8648 74.7856C94.8228 74.8295 94.7669 74.8574 94.7066 74.8646Z" fill="white"/>
<path d="M96.0555 75.4076C96.0212 75.4049 95.9877 75.3955 95.9569 75.3799C95.9262 75.3642 95.8989 75.3427 95.8766 75.3164C95.8542 75.2902 95.8373 75.2598 95.8267 75.227C95.8161 75.1942 95.8122 75.1596 95.815 75.1252C96.0765 71.5386 98.126 68.6107 99.7781 66.258C101.064 64.428 102.173 62.8386 101.932 61.6257C101.844 61.3105 101.693 61.0165 101.488 60.7614C101.283 60.5062 101.029 60.2951 100.74 60.1408C100.197 59.7815 99.5679 59.5729 98.9176 59.5361C98.2672 59.4994 97.6188 59.6359 97.0385 59.9317C94.0792 61.2806 91.3082 66.007 90.5971 70.9007C90.5868 70.9691 90.5507 71.031 90.4963 71.0737C90.4419 71.1165 90.3733 71.1369 90.3044 71.1308C90.234 71.1204 90.1704 71.0828 90.1274 71.0261C90.0844 70.9694 90.0653 70.8981 90.0743 70.8275C90.8167 65.7665 93.7132 60.8728 96.8293 59.4507C97.487 59.1209 98.22 58.9705 98.9544 59.0146C99.6887 59.0587 100.398 59.2956 101.012 59.7016C101.362 59.8906 101.668 60.1498 101.913 60.4629C102.158 60.776 102.335 61.1362 102.434 61.5211C102.716 62.9641 101.608 64.5431 100.196 66.5612C98.5756 68.8617 96.5679 71.7164 96.3274 75.1671C96.3221 75.2346 96.2907 75.2973 96.24 75.3422C96.1893 75.387 96.1232 75.4105 96.0555 75.4076Z" fill="white"/>
<path d="M93.651 74.2782C93.6166 74.2756 93.5831 74.2662 93.5524 74.2505C93.5217 74.2349 93.4943 74.2133 93.472 74.1871C93.4496 74.1609 93.4327 74.1304 93.4221 74.0976C93.4116 74.0648 93.4076 74.0302 93.4105 73.9959C93.7033 70.4197 95.6168 67.2827 96.7566 65.4109C97.1291 64.8751 97.4346 64.2957 97.6664 63.6856C96.5161 63.6856 93.4105 68.2761 92.7831 73.2116C92.7792 73.2461 92.7685 73.2794 92.7516 73.3096C92.7348 73.3399 92.7121 73.3665 92.6848 73.3879C92.6576 73.4093 92.6263 73.4251 92.593 73.4343C92.5596 73.4436 92.5247 73.4461 92.4903 73.4417C92.4227 73.4313 92.3618 73.3949 92.3207 73.3401C92.2797 73.2854 92.2617 73.2167 92.2707 73.1489C92.8667 68.412 95.9933 63.1628 97.6664 63.1628C97.7611 63.1531 97.8566 63.1706 97.9418 63.2132C98.027 63.2557 98.0983 63.3217 98.1474 63.4033C98.367 63.8006 97.9801 64.4489 97.2272 65.6828C96.0351 67.6278 94.2366 70.587 93.9542 74.0482C93.9504 74.0836 93.9394 74.1179 93.9219 74.149C93.9044 74.18 93.8807 74.2071 93.8523 74.2287C93.8239 74.2502 93.7914 74.2657 93.7568 74.2743C93.7221 74.2828 93.6861 74.2841 93.651 74.2782Z" fill="white"/>
<path d="M97.8752 75.8471C97.8408 75.8445 97.8073 75.8351 97.7766 75.8194C97.7459 75.8038 97.7186 75.7822 97.6962 75.756C97.6739 75.7298 97.6569 75.6994 97.6464 75.6665C97.6358 75.6337 97.6318 75.5991 97.6347 75.5648C97.7916 72.616 99.5483 69.8032 101.106 67.3249C103.396 63.6755 105.205 60.7895 102.068 58.4054C101.413 57.928 100.641 57.6346 99.8343 57.5555C99.0272 57.4765 98.2136 57.6147 97.4779 57.9557C93.8076 59.3674 90.4614 64.0206 89.5203 69.0189C89.5052 69.0876 89.4641 69.1477 89.4056 69.1867C89.3471 69.2257 89.2758 69.2405 89.2066 69.228C89.1407 69.213 89.0832 69.173 89.0462 69.1165C89.0091 69.0599 88.9954 68.9912 89.0079 68.9248C89.9804 63.7592 93.4625 58.9387 97.2896 57.4224C98.1083 57.049 99.0117 56.9006 99.9068 56.9925C100.802 57.0844 101.656 57.4133 102.382 57.9453C105.906 60.6222 103.794 63.9997 101.546 67.5654C99.9561 70.1064 98.3039 72.731 98.1575 75.5543C98.1624 75.593 98.1585 75.6323 98.1462 75.6693C98.1338 75.7063 98.1134 75.7401 98.0863 75.7682C98.0592 75.7963 98.0262 75.8179 97.9897 75.8316C97.9532 75.8452 97.9141 75.8506 97.8752 75.8471Z" fill="white"/>
<path d="M100.625 75.9309C100.572 75.9309 100.519 75.915 100.474 75.8853C100.43 75.8555 100.395 75.8132 100.374 75.7636C99.4436 73.2958 100.625 69.6255 103.877 64.8573C106.052 61.6471 109.639 62.1385 111.082 62.4941C111.116 62.5023 111.147 62.5171 111.175 62.5376C111.203 62.5581 111.227 62.5839 111.245 62.6135C111.263 62.6431 111.275 62.6759 111.28 62.7102C111.285 62.7444 111.284 62.7794 111.275 62.813C111.267 62.8466 111.252 62.8783 111.232 62.9063C111.211 62.9342 111.186 62.9578 111.156 62.9758C111.126 62.9937 111.093 63.0057 111.059 63.011C111.025 63.0162 110.99 63.0147 110.956 63.0064C109.618 62.6718 106.303 62.2117 104.306 65.1501C101.169 69.6987 100.008 73.3063 100.866 75.6068C100.879 75.639 100.886 75.6736 100.886 75.7085C100.886 75.7435 100.879 75.778 100.865 75.8102C100.852 75.8424 100.832 75.8715 100.807 75.8958C100.782 75.9201 100.752 75.9392 100.719 75.9518L100.625 75.9309Z" fill="white"/>
<path d="M103.082 75.4082C103.039 75.4078 102.997 75.3972 102.959 75.3772C102.921 75.3572 102.888 75.3284 102.863 75.2932C100.772 72.3235 102.863 67.5239 106.115 64.9097C106.784 64.2995 107.623 63.9091 108.521 63.7913C109.419 63.6735 110.331 63.8339 111.134 64.2509C111.195 64.2843 111.241 64.3397 111.262 64.4058C111.284 64.4719 111.279 64.5437 111.249 64.6065C111.216 64.6674 111.16 64.7133 111.094 64.7347C111.028 64.7561 110.956 64.7514 110.894 64.7215C110.18 64.3492 109.369 64.2067 108.572 64.3134C107.774 64.4201 107.029 64.7708 106.439 65.3175C103.438 67.733 101.409 72.3026 103.302 75.0004C103.323 75.0271 103.339 75.058 103.347 75.0911C103.356 75.1242 103.357 75.1587 103.351 75.1924C103.345 75.226 103.332 75.258 103.313 75.2862C103.294 75.3144 103.269 75.3382 103.239 75.3559C103.194 75.3906 103.139 75.409 103.082 75.4082Z" fill="white"/>
<path d="M104.63 74.8328C104.583 74.8318 104.537 74.8188 104.497 74.795C104.457 74.7712 104.423 74.7374 104.4 74.6968C104.082 74.036 103.906 73.3155 103.884 72.5823C103.863 71.849 103.996 71.1195 104.274 70.441C104.853 68.6167 106.086 67.0709 107.736 66.1014C108.243 65.9013 108.791 65.8207 109.335 65.866C109.879 65.9114 110.405 66.0814 110.873 66.3629C110.925 66.4009 110.961 66.4571 110.975 66.5204C110.988 66.5837 110.977 66.6497 110.945 66.7057C110.912 66.7616 110.86 66.8035 110.799 66.8233C110.737 66.843 110.67 66.8391 110.611 66.8125C110.207 66.5604 109.749 66.408 109.274 66.368C108.8 66.328 108.323 66.4015 107.882 66.5824C106.387 67.5046 105.274 68.9334 104.745 70.6083C104.495 71.2197 104.374 71.8764 104.39 72.5369C104.406 73.1975 104.559 73.8475 104.839 74.4459C104.856 74.4761 104.866 74.5092 104.87 74.5435C104.874 74.5777 104.87 74.6123 104.861 74.6454C104.851 74.6784 104.835 74.7092 104.813 74.736C104.792 74.7627 104.765 74.785 104.735 74.8014C104.702 74.8186 104.667 74.8292 104.63 74.8328Z" fill="white"/>
<path d="M106.585 73.6092C106.548 73.6089 106.51 73.6003 106.476 73.584C106.441 73.5678 106.411 73.5442 106.387 73.5151C105.341 72.3753 105.676 70.3781 107.161 68.7259C107.52 68.2165 108.062 67.8656 108.674 67.7467C109.286 67.6279 109.92 67.7502 110.444 68.0881C110.502 68.1247 110.543 68.1824 110.558 68.2488C110.574 68.3152 110.563 68.3851 110.528 68.4436C110.493 68.5029 110.436 68.5461 110.369 68.5637C110.303 68.5813 110.232 68.572 110.172 68.5377C109.751 68.2665 109.24 68.1716 108.749 68.2733C108.258 68.375 107.827 68.6651 107.548 69.0814C106.031 70.7859 106.084 72.3962 106.774 73.17C106.799 73.1935 106.819 73.2218 106.832 73.2533C106.846 73.2848 106.853 73.3187 106.853 73.353C106.853 73.3873 106.846 73.4212 106.832 73.4527C106.819 73.4842 106.799 73.5125 106.774 73.536C106.722 73.5819 106.655 73.6079 106.585 73.6092Z" fill="white"/>
<path d="M107.976 72.333C107.928 72.3334 107.881 72.3198 107.84 72.2938C107.799 72.2678 107.767 72.2306 107.746 72.1866C107.605 71.9106 107.545 71.6005 107.571 71.2917C107.598 70.9829 107.711 70.6879 107.898 70.4403C108.084 70.1927 108.337 70.0026 108.626 69.8917C108.915 69.7807 109.23 69.7535 109.534 69.8129C109.601 69.8325 109.658 69.8771 109.693 69.9374C109.728 69.9978 109.739 70.0693 109.723 70.1371C109.713 70.1701 109.697 70.2008 109.676 70.2276C109.654 70.2543 109.628 70.2766 109.597 70.2931C109.567 70.3096 109.534 70.3201 109.5 70.3238C109.466 70.3275 109.431 70.3245 109.399 70.3149C109.225 70.2815 109.045 70.2927 108.877 70.3476C108.709 70.4025 108.557 70.4991 108.437 70.6286C108.249 70.7886 108.125 71.0096 108.085 71.2525C108.044 71.4955 108.091 71.7448 108.217 71.9566C108.246 72.0206 108.249 72.0933 108.226 72.1596C108.202 72.2259 108.154 72.2806 108.091 72.3121C108.056 72.3289 108.016 72.3361 107.976 72.333Z" fill="white"/>
<path d="M88.3599 66.174C88.2869 66.1687 88.2188 66.1351 88.17 66.0805C88.1212 66.0259 88.0956 65.9544 88.0985 65.8812C88.8877 62.6654 90.7736 59.8255 93.4314 57.8505C95.0333 56.6562 96.7579 55.6362 98.5761 54.8076C99.8624 54.2972 101.032 53.5325 102.016 52.5594C102.622 51.8767 103.013 51.0301 103.14 50.1259C103.266 49.2217 103.123 48.3003 102.727 47.4775C102.714 47.4459 102.706 47.4119 102.705 47.3774C102.705 47.343 102.711 47.3087 102.724 47.2767C102.736 47.2446 102.755 47.2153 102.779 47.1906C102.803 47.1658 102.832 47.146 102.863 47.1324C102.894 47.1167 102.928 47.1076 102.962 47.1055C102.996 47.1033 103.031 47.1083 103.063 47.1201C103.096 47.1319 103.125 47.1502 103.15 47.1739C103.175 47.1976 103.195 47.2262 103.208 47.2579C103.646 48.1735 103.803 49.1982 103.66 50.203C103.517 51.2077 103.079 52.1477 102.403 52.9045C101.376 53.9344 100.148 54.7423 98.7957 55.2782C97.0141 56.0994 95.3217 57.1015 93.7451 58.2688C91.2034 60.16 89.3933 62.8714 88.6213 65.944C88.6216 65.977 88.6148 66.0098 88.6013 66.0399C88.5879 66.0701 88.5681 66.097 88.5433 66.1188C88.5185 66.1407 88.4892 66.1569 88.4576 66.1664C88.426 66.1759 88.3926 66.1785 88.3599 66.174Z" fill="white"/>
<path d="M88.2552 61.5107H88.1402C88.109 61.4952 88.0813 61.4736 88.0586 61.4472C88.0359 61.4209 88.0187 61.3902 88.0079 61.3571C87.9972 61.324 87.9932 61.2891 87.9962 61.2544C87.9991 61.2197 88.009 61.186 88.0252 61.1551C89.5832 58.0181 92.8353 56.2405 95.7004 54.6615C98.3878 53.1767 100.709 51.8905 101.127 49.9037C101.247 49.411 101.238 48.896 101.103 48.4074C100.967 47.9189 100.709 47.4729 100.354 47.1118C100.328 47.0874 100.308 47.0582 100.294 47.0259C100.281 46.9935 100.274 46.9587 100.274 46.9236C100.274 46.8885 100.281 46.8537 100.294 46.8213C100.308 46.789 100.328 46.7598 100.354 46.7354C100.402 46.6875 100.468 46.6606 100.537 46.6606C100.605 46.6606 100.671 46.6875 100.72 46.7354C101.135 47.1579 101.436 47.6788 101.595 48.2494C101.754 48.8199 101.766 49.4215 101.629 49.9979C101.169 52.2251 98.7433 53.5636 95.9409 55.1112C93.1385 56.6588 89.9701 58.405 88.4748 61.3852C88.4526 61.4237 88.4206 61.4556 88.382 61.4776C88.3434 61.4997 88.2997 61.5111 88.2552 61.5107Z" fill="white"/>
<path d="M88.2551 58.9384C88.2104 58.9491 88.1638 58.9491 88.1192 58.9384C88.0892 58.9202 88.0632 58.8962 88.0427 58.8679C88.0222 58.8395 88.0077 58.8072 87.9999 58.7731C87.9921 58.739 87.9912 58.7036 87.9973 58.6691C88.0034 58.6347 88.0164 58.6018 88.0355 58.5724C89.3426 56.4811 91.6744 55.0799 93.9435 53.6996C96.2126 52.3193 98.5131 50.9286 98.8059 49.13C98.869 48.7485 98.7997 48.3569 98.6095 48.0202C98.4193 47.6835 98.1196 47.422 97.7602 47.2792C97.7011 47.2441 97.6574 47.188 97.638 47.122C97.6186 47.056 97.6249 46.9852 97.6557 46.9237C97.6721 46.8934 97.6943 46.8667 97.7211 46.845C97.7479 46.8234 97.7787 46.8072 97.8117 46.7975C97.8447 46.7878 97.8794 46.7847 97.9136 46.7884C97.9478 46.7921 97.981 46.8025 98.0112 46.8191C98.4695 47.0116 98.8503 47.3519 99.0928 47.7859C99.3354 48.2198 99.4258 48.7224 99.3496 49.2137C99.015 51.305 96.6936 52.6539 94.2363 54.1492C92.0195 55.4877 89.7399 56.8784 88.4956 58.8547C88.466 58.888 88.4283 58.9132 88.3862 58.9278C88.3441 58.9425 88.299 58.9461 88.2551 58.9384Z" fill="white"/>
<path d="M88.433 56.5017C88.3719 56.4995 88.3132 56.4775 88.2656 56.439C88.2177 56.3901 88.1909 56.3244 88.1909 56.256C88.1909 56.1876 88.2177 56.1219 88.2656 56.073C89.5164 54.7173 90.9612 53.5544 92.5529 52.6223C94.4142 51.4093 96.0141 50.3637 96.1395 49.0984C96.1779 48.8452 96.1322 48.5864 96.0094 48.3617C95.8866 48.1369 95.6936 47.9586 95.4599 47.8541C95.4299 47.8387 95.4034 47.8174 95.3819 47.7916C95.3603 47.7657 95.3442 47.7359 95.3345 47.7037C95.3247 47.6715 95.3215 47.6377 95.3251 47.6042C95.3287 47.5708 95.3389 47.5384 95.3553 47.509C95.3708 47.4778 95.3924 47.4501 95.4187 47.4273C95.4451 47.4046 95.4757 47.3874 95.5089 47.3767C95.542 47.366 95.5769 47.362 95.6116 47.365C95.6463 47.3679 95.68 47.3778 95.7108 47.394C96.0362 47.5468 96.3041 47.7998 96.4754 48.1159C96.6466 48.432 96.7121 48.7946 96.6624 49.1507C96.516 50.6564 94.8115 51.7753 92.8352 53.0615C91.2862 53.9683 89.8772 55.0954 88.6525 56.4076C88.6273 56.4411 88.5938 56.4674 88.5553 56.4839C88.5167 56.5004 88.4746 56.5065 88.433 56.5017Z" fill="white"/>
<path d="M89.677 52.9988C89.639 52.9985 89.6016 52.9899 89.5672 52.9736C89.5329 52.9574 89.5026 52.9339 89.4783 52.9047C89.4297 52.8541 89.4026 52.7866 89.4026 52.7165C89.4026 52.6463 89.4297 52.5789 89.4783 52.5282C90.2014 51.9589 90.9831 51.4682 91.8101 51.0643C92.5839 50.6565 93.2427 50.3114 93.2845 49.9559C93.3133 49.7903 93.3017 49.6202 93.2507 49.46C93.1997 49.2998 93.1109 49.1543 92.9917 49.0357C92.9684 49.0103 92.9503 48.9805 92.9384 48.9481C92.9266 48.9157 92.9212 48.8813 92.9227 48.8468C92.9241 48.8124 92.9324 48.7785 92.9469 48.7472C92.9614 48.7159 92.982 48.6878 93.0074 48.6645C93.0328 48.6411 93.0626 48.623 93.095 48.6112C93.1274 48.5993 93.1618 48.594 93.1963 48.5954C93.2307 48.5969 93.2646 48.6051 93.2959 48.6197C93.3272 48.6342 93.3553 48.6548 93.3786 48.6802C93.546 48.8568 93.6714 49.0688 93.7456 49.3005C93.8198 49.5322 93.8409 49.7777 93.8074 50.0186C93.7237 50.646 92.9917 51.0643 92.0611 51.5244C91.2626 51.9119 90.5088 52.3852 89.8129 52.936C89.7754 52.9709 89.7278 52.9929 89.677 52.9988Z" fill="white"/>
<path d="M110.8 61.3643C107.422 61.3643 104.787 59.9944 103.741 57.6835C102.696 55.3726 103.741 53.8145 104.787 51.901C105.345 50.9068 105.551 49.7538 105.373 48.628C105.373 48.5566 105.399 48.4878 105.448 48.4354C105.496 48.383 105.563 48.351 105.634 48.3457C105.667 48.3443 105.699 48.3494 105.729 48.3609C105.76 48.3724 105.788 48.3898 105.811 48.4123C105.834 48.4348 105.853 48.4618 105.866 48.4917C105.879 48.5216 105.885 48.5537 105.885 48.5862C106.087 49.814 105.858 51.0736 105.237 52.1519C104.118 54.0864 103.302 55.4771 104.191 57.4535C105.174 59.6285 107.725 60.8833 110.978 60.831C111.012 60.8296 111.046 60.835 111.078 60.8468C111.111 60.8587 111.14 60.8768 111.165 60.9001C111.191 60.9234 111.211 60.9515 111.226 60.9827C111.24 61.0139 111.248 61.0476 111.249 61.0819C111.249 61.1523 111.222 61.2199 111.173 61.2706C111.125 61.3213 111.058 61.3511 110.988 61.3538L110.8 61.3643Z" fill="white"/>
<path d="M110.33 59.3783C109.518 59.4437 108.705 59.2829 107.979 58.9137C107.254 58.5445 106.645 57.9814 106.22 57.2869C105.906 56.7245 105.759 56.0837 105.798 55.4405C105.837 54.7973 106.06 54.1788 106.44 53.6584C107.159 52.7541 107.615 51.6685 107.757 50.5214C107.761 50.487 107.772 50.4537 107.789 50.4234C107.806 50.3932 107.828 50.3666 107.855 50.3452C107.883 50.3238 107.914 50.308 107.947 50.2987C107.981 50.2895 108.016 50.287 108.05 50.2914C108.118 50.2993 108.179 50.3332 108.222 50.3859C108.265 50.4386 108.286 50.506 108.28 50.5737C108.128 51.8223 107.636 53.0052 106.858 53.9931C106.538 54.4312 106.351 54.9521 106.32 55.4936C106.288 56.0351 106.413 56.5742 106.68 57.0464C107.391 58.3535 108.97 59.0018 110.999 58.8136C111.068 58.8105 111.135 58.8336 111.187 58.8782C111.24 58.9229 111.273 58.9857 111.281 59.0541C111.284 59.0885 111.28 59.123 111.269 59.1559C111.259 59.1887 111.242 59.2191 111.22 59.2453C111.197 59.2715 111.17 59.2931 111.139 59.3087C111.108 59.3244 111.075 59.3338 111.041 59.3364L110.33 59.3783Z" fill="white"/>
<path d="M110.13 57.7466C109.504 57.7741 108.89 57.5609 108.416 57.1506C108.142 56.8812 107.935 56.5523 107.81 56.1895C107.684 55.8267 107.645 55.4399 107.694 55.0592C107.929 54.2034 108.396 53.429 109.043 52.8215L109.325 52.4973C109.346 52.4667 109.372 52.4407 109.403 52.421C109.435 52.4013 109.47 52.3885 109.506 52.3833C109.542 52.378 109.58 52.3806 109.615 52.3907C109.65 52.4008 109.683 52.4184 109.711 52.4421C109.74 52.4658 109.762 52.4952 109.778 52.5284C109.794 52.5615 109.803 52.5977 109.804 52.6345C109.805 52.6713 109.799 52.7079 109.785 52.742C109.771 52.776 109.749 52.8067 109.723 52.832L109.44 53.1666C108.871 53.6977 108.449 54.368 108.217 55.1115C108.167 55.4176 108.191 55.7313 108.287 56.0261C108.384 56.321 108.55 56.5883 108.771 56.8055C109.076 57.0315 109.43 57.1824 109.804 57.246C110.179 57.3096 110.563 57.284 110.925 57.1715C110.994 57.159 111.066 57.1739 111.124 57.2128C111.183 57.2518 111.224 57.312 111.239 57.3806C111.251 57.4485 111.236 57.5185 111.197 57.5753C111.158 57.6321 111.098 57.6712 111.03 57.6839C110.733 57.7371 110.432 57.7582 110.13 57.7466Z" fill="white"/>
<path d="M110.748 56.0321H110.664C110.549 55.9981 110.442 55.9393 110.352 55.8597C110.261 55.7802 110.19 55.6819 110.141 55.5717C110.087 55.4179 110.066 55.2542 110.081 55.0918C110.095 54.9293 110.144 54.7719 110.225 54.63C110.254 54.5662 110.307 54.5166 110.373 54.492C110.439 54.4675 110.511 54.4701 110.575 54.4992C110.639 54.5284 110.689 54.5817 110.713 54.6474C110.738 54.7131 110.735 54.7859 110.706 54.8498C110.658 54.9269 110.626 55.013 110.611 55.1028C110.597 55.1927 110.601 55.2846 110.622 55.3729C110.622 55.3729 110.622 55.4776 110.832 55.5299C110.893 55.5476 110.946 55.5872 110.98 55.6413C111.015 55.6954 111.028 55.7602 111.017 55.8234C111.007 55.8866 110.974 55.9438 110.924 55.9842C110.875 56.0246 110.812 56.0453 110.748 56.0426V56.0321Z" fill="white"/>
<path d="M100.521 55.8538C101.137 55.591 101.712 55.2387 102.225 54.8081C102.145 55.4083 102.177 56.0181 102.319 56.6066C101.815 56.171 101.185 55.9073 100.521 55.8538Z" fill="white"/>
<path d="M105.09 60.7678C105.189 61.2529 105.138 61.7563 104.944 62.2118C105.453 61.9049 105.997 61.6624 106.566 61.4898C106.033 61.3428 105.533 61.098 105.09 60.7678Z" fill="white"/>
<path d="M118.569 138.011C117.429 142.1 122.94 157.356 132.455 157.22C141.971 157.084 120.137 132.438 118.569 138.011Z" fill="#FFC3BD"/>
<path opacity="0.2" d="M118.569 138.011C117.429 142.1 122.94 157.356 132.455 157.22C141.971 157.084 120.137 132.438 118.569 138.011Z" fill="#333333"/>
<path d="M151.152 127.251C152.376 126.297 153.506 125.229 154.529 124.062C155.146 123.1 161.211 122.713 162.09 122.849C162.968 122.985 161.766 127.952 161.556 128.621C161.347 129.29 155.565 130.545 154.791 130.315C154.017 130.085 151.152 127.251 151.152 127.251Z" fill="#FFC3BD"/>
<path opacity="0.2" d="M151.152 127.251C152.376 126.297 153.506 125.229 154.529 124.062C155.146 123.1 161.211 122.713 162.09 122.849C162.968 122.985 161.766 127.952 161.556 128.621C161.347 129.29 155.565 130.545 154.791 130.315C154.017 130.085 151.152 127.251 151.152 127.251Z" fill="#333333"/>
<path d="M173.393 132.407C173.877 131.954 174.308 131.449 174.679 130.901C174.836 130.493 174.679 122.368 174.031 122.065C173.383 121.762 167.914 122.734 167.443 123.508C166.973 124.282 168.008 131.675 168.06 132.093C168.113 132.511 171.03 133.233 171.03 133.233L173.393 132.407Z" fill="#FFC3BD"/>
<path d="M173.843 116.073H173.163L168.343 115.644L167.673 115.582C167.396 115.566 167.122 115.65 166.901 115.819C166.681 115.987 166.528 116.23 166.471 116.502L164.108 128.736C164.089 128.859 164.095 128.984 164.126 129.104C164.157 129.225 164.213 129.337 164.289 129.435C164.366 129.533 164.461 129.615 164.57 129.674C164.679 129.734 164.799 129.77 164.923 129.782L165.603 129.844L170.423 130.263L171.093 130.325C171.371 130.344 171.646 130.26 171.867 130.091C172.088 129.922 172.24 129.678 172.295 129.405L174.658 117.098C174.674 116.977 174.666 116.853 174.633 116.736C174.601 116.618 174.544 116.508 174.468 116.412C174.392 116.316 174.298 116.237 174.19 116.179C174.083 116.121 173.964 116.085 173.843 116.073Z" fill="#333333"/>
<path opacity="0.2" d="M173.163 116.021L167.673 115.53C167.396 115.514 167.122 115.598 166.901 115.767C166.681 115.936 166.528 116.178 166.471 116.45L164.108 128.737C164.089 128.859 164.095 128.985 164.126 129.105C164.157 129.225 164.213 129.338 164.289 129.436C164.366 129.534 164.461 129.615 164.57 129.675C164.679 129.734 164.799 129.771 164.923 129.782L170.423 130.263C170.702 130.284 170.978 130.201 171.2 130.032C171.421 129.862 171.573 129.617 171.626 129.343L173.979 117.036C173.998 116.914 173.992 116.791 173.96 116.672C173.928 116.554 173.873 116.443 173.796 116.348C173.719 116.252 173.623 116.174 173.514 116.117C173.405 116.061 173.285 116.028 173.163 116.021Z" fill="white"/>
<path d="M171.061 129.228L164.536 128.652L166.868 116.47L173.393 117.046L171.061 129.228Z" fill="#50F7BB"/>
<path opacity="0.6" d="M171.061 129.228L164.536 128.652L166.868 116.47L173.393 117.046L171.061 129.228Z" fill="white"/>
<path d="M146.53 340.851L151.821 340.935C157.196 315.682 161.002 284.468 163.324 260.868C163.69 257.177 164.035 253.684 164.369 250.411C164.505 248.853 164.641 247.368 164.767 245.936C165.404 238.846 165.812 233.231 166.105 229.759C166.293 227.218 166.387 225.827 166.387 225.827H147.283L147.461 230.69L148.057 246.762L148.12 248.602L148.517 259.216L149.186 277.285C142.63 302.726 146.53 340.851 146.53 340.851Z" fill="#FFC3BD"/>
<path d="M103.657 339.502L108.886 340.485C119.343 314.427 129.099 281.07 135.467 257.772C136.45 254.154 137.359 250.777 138.175 247.713C138.175 247.556 138.248 247.41 138.29 247.263C139.89 241.178 141.124 236.336 141.898 233.262C142.494 230.857 142.818 229.529 142.818 229.529L123.996 226.277L122.95 234.203L121.329 245.852L121.026 248.142L119.98 256.068L117.115 277.337C106.303 301.272 103.657 339.502 103.657 339.502Z" fill="#FFC3BD"/>
<path opacity="0.2" d="M121.329 245.851L138.165 247.734C138.165 247.577 138.238 247.43 138.28 247.284C139.88 241.198 141.114 236.357 141.887 233.282L122.898 234.224L121.329 245.851Z" fill="#333333"/>
<path opacity="0.2" d="M147.461 230.7L148.057 246.772L148.12 248.612L164.38 250.421C164.516 248.863 164.652 247.378 164.777 245.946C165.415 238.856 165.823 233.241 166.116 229.769L147.461 230.7Z" fill="#333333"/>
<path d="M162.215 358.396C161.228 357.601 160.105 356.991 158.9 356.598C158.9 356.598 155.303 353.022 153.568 342.272L148.862 341.038C148.059 340.844 147.217 340.902 146.448 341.203C145.679 341.504 145.022 342.034 144.564 342.722C144.436 342.911 144.337 343.119 144.272 343.339C144.031 344.491 143.864 345.658 143.77 346.831C143.503 350.761 143.479 354.704 143.696 358.637H144.554L144.888 351.223C145.014 348.713 146.98 351.662 147.492 354.36C148.005 357.058 149.218 359.954 154.728 360.09C161.17 360.226 163.794 359.975 162.215 358.396Z" fill="#333333"/>
<path d="M144.355 342.806C144.042 340.286 143.948 335.915 143.948 335.915L154.404 337.075C154.404 337.075 153.139 342.053 154.185 345.786C148.925 344.406 144.355 342.806 144.355 342.806Z" fill="#333333"/>
<path d="M119.541 358.397C118.558 357.603 117.438 356.993 116.237 356.598C116.237 356.598 112.64 353.022 110.904 342.273L106.188 341.007C105.387 340.813 104.546 340.87 103.778 341.171C103.011 341.472 102.355 342.003 101.901 342.691C101.769 342.88 101.667 343.088 101.598 343.308C101.357 344.46 101.19 345.627 101.096 346.8C100.837 350.731 100.816 354.673 101.033 358.606H101.88L102.225 351.192C102.351 348.683 104.316 351.631 104.829 354.329C105.341 357.027 106.544 359.924 112.065 360.059C118.496 360.227 121.173 359.976 119.541 358.397Z" fill="#333333"/>
<path d="M101.734 342.806C101.431 340.286 101.326 335.915 101.326 335.915L111.783 337.075C111.783 337.075 110.517 342.053 111.563 345.786C106.303 344.406 101.734 342.806 101.734 342.806Z" fill="#333333"/>
<path d="M156.485 112.79C156.338 113.397 155.962 113.836 155.648 113.742C155.335 113.648 155.199 113.115 155.345 112.508C155.491 111.902 155.878 111.462 156.192 111.546C156.506 111.63 156.642 112.184 156.485 112.79Z" fill="#333333"/>
<path d="M156.056 111.545L157.207 111.273C157.207 111.273 156.422 112.267 156.056 111.545Z" fill="#333333"/>
<path d="M154.666 113.982C154.827 115.265 155.139 116.525 155.596 117.736C155.275 117.95 154.901 118.071 154.515 118.086C154.13 118.101 153.747 118.008 153.411 117.819L154.666 113.982Z" fill="#FFC3BD"/>
<path d="M136.649 118.751C136.702 118.841 136.765 118.925 136.837 119.002C137.682 120.248 138.766 121.314 140.026 122.139C143.759 124.45 146.708 124.837 149.144 123.624C152.606 121.741 154.896 117.078 156.537 111.076C157.271 108.706 157.624 106.236 157.583 103.756C157.583 103.756 157.583 103.672 157.583 103.651C157.583 103.63 157.583 103.453 157.583 103.369C157.514 101.962 157.095 100.594 156.365 99.3888C155.635 98.1839 154.616 97.1799 153.4 96.4675C152.343 95.8266 151.221 95.2975 150.054 94.8886C138.625 90.9464 130.103 109.214 136.649 118.751Z" fill="#FFC3BD"/>
<path opacity="0.2" d="M136.837 119.001C137.703 120.216 138.806 121.243 140.078 122.023C143.811 124.334 146.812 124.585 149.249 123.341C146.624 123.121 144.144 122.044 142.191 120.277C141.454 119.671 140.589 119.242 139.661 119.02C138.733 118.799 137.767 118.793 136.837 119.001Z" fill="#333333"/>
<path d="M132.152 128.956C130.333 131.978 134.108 134.738 134.108 134.738C142.013 134.142 144.564 130.901 144.564 130.901C139.817 125.934 144.387 117.997 144.387 117.997L143.017 118.175L134.233 116.993C134.233 116.993 135.028 122.148 134.986 123.267C134.746 129.029 132.152 128.956 132.152 128.956Z" fill="#FFC3BD"/>
<path d="M157.635 103.756C157.635 103.756 155.544 112.006 146.739 112.864C146.739 112.864 140.632 120.1 135.781 118.573C129.162 116.482 126.558 105.199 132.068 96.4675C139.21 85.1429 158.231 90.4968 157.635 103.756Z" fill="#333333"/>
<path d="M151.382 111.869C151.8 110.615 151.518 108.168 149.468 107.791C147.419 107.415 144.543 111.974 149.123 114.787C149.772 115.142 150.493 114.483 151.382 111.869Z" fill="#FFC3BD"/>
<path d="M146.53 90.4542C146.53 90.4542 154.895 91.1339 158.032 95.6826C161.755 100.911 162.372 105.324 154.54 109.109C154.54 109.109 143.1 100.555 138.52 99.9907C135.848 99.6448 133.151 99.5224 130.458 99.6248C132.476 90.7888 142.86 87.2649 146.53 90.4542Z" fill="#333333"/>
<path d="M137.809 95.0969C137.809 95.0969 132.999 86.1355 125.701 87.8713C118.402 89.6071 117.45 95.8393 117.848 101.956C118.245 108.074 117.042 119.325 112.232 121.416C112.232 121.416 116.75 124.417 121.581 119.21C126.412 114.003 127.227 96.6759 135.247 99.6247L137.809 95.0969Z" fill="#333333"/>
<path d="M157.081 109.339C157.037 109.342 156.994 109.336 156.952 109.322C156.911 109.308 156.873 109.285 156.841 109.256C156.494 108.926 156.079 108.679 155.625 108.53C155.171 108.382 154.69 108.337 154.216 108.398C154.118 108.418 154.016 108.399 153.931 108.347C153.845 108.295 153.783 108.212 153.756 108.116C153.733 108.019 153.749 107.917 153.8 107.831C153.85 107.746 153.932 107.683 154.028 107.656C154.62 107.569 155.224 107.618 155.795 107.8C156.366 107.981 156.888 108.289 157.322 108.701C157.397 108.766 157.445 108.858 157.455 108.958C157.465 109.057 157.436 109.156 157.374 109.235C157.335 109.271 157.289 109.3 157.238 109.318C157.188 109.336 157.134 109.343 157.081 109.339Z" fill="#333333"/>
<path d="M162.288 177.025L131.023 180.058C129.569 157.722 118.569 138.011 118.569 138.011C118.569 138.011 117.094 132.94 131.66 128.966C146.227 124.993 155.889 128.255 155.889 128.255C159.026 132.438 160.751 138.795 161.734 145.54C162.121 148.144 162.393 150.768 162.57 153.414C163.044 161.281 162.949 169.172 162.288 177.025Z" fill="#50F7BB"/>
<path d="M163.491 179.044L162.874 172.885L129.799 176.21L130.489 181.041C118.025 203.105 121.078 228.274 121.078 228.274L119.51 240.623C119.51 240.623 122.647 242.558 143.612 243.928C162.048 245.13 166.732 243.216 166.732 243.216C173.257 204.955 167.652 186.719 163.491 179.044Z" fill="#333333"/>
<path d="M149.175 179.472L164.066 178.291L163.867 173.784L148.851 175.352L149.175 179.472Z" fill="#333333"/>
<path d="M134.275 180.654L148.099 179.556L147.775 175.468L133.972 176.911L134.275 180.654Z" fill="#333333"/>
<path d="M132.895 177.025L129.381 177.391L129.831 180.999L133.198 180.738L132.895 177.025Z" fill="#333333"/>
<g opacity="0.3">
<path d="M149.175 179.472L164.066 178.291L163.867 173.784L148.851 175.352L149.175 179.472Z" fill="white"/>
<path d="M134.275 180.654L148.099 179.556L147.775 175.468L133.972 176.911L134.275 180.654Z" fill="white"/>
<path d="M132.895 177.025L129.381 177.391L129.831 180.998L133.198 180.737L132.895 177.025Z" fill="white"/>
</g>
<path d="M155.941 128.255C155.941 128.255 150.221 127.712 150.713 134.739C150.974 138.639 154.174 146.325 157.698 147.015C159.789 147.422 160.762 144.097 160.762 144.097C160.762 144.097 170.507 154.941 175.401 153.508C180.295 152.076 173.613 131.413 173.613 131.413L169.786 131.832C169.786 131.832 172.504 142.581 171.678 143.407C170.852 144.233 158.545 128.883 155.941 128.255Z" fill="#FFC3BD"/>
<path opacity="0.2" d="M162.571 153.414C158.733 150.643 155.596 140.124 155.596 140.124L160.71 144.098C160.71 144.098 161.138 144.673 161.755 145.541C162.121 148.144 162.393 150.8 162.571 153.414Z" fill="#333333"/>
</svg>
