<svg width="501" height="497" viewBox="0 0 501 497" fill="none" xmlns="http://www.w3.org/2000/svg">
<ellipse cx="449.5" cy="66" rx="51.5" ry="51" fill="url(#paint0_linear_21_55)"/>
<circle cx="36" cy="461" r="36" fill="url(#paint1_linear_21_55)"/>
<circle cx="432.5" cy="7.5" r="7.5" fill="url(#paint2_linear_21_55)"/>
<path d="M449 354.005H0V354.23H449V354.005Z" fill="#EBEBEB"/>
<path d="M404.01 368.454H374.268V368.679H404.01V368.454Z" fill="#EBEBEB"/>
<path d="M297.436 370.896H289.632V371.121H297.436V370.896Z" fill="#EBEBEB"/>
<path d="M373.37 360.121H356.138V360.345H373.37V360.121Z" fill="#EBEBEB"/>
<path d="M85.8938 361.629H47.1091V361.854H85.8938V361.629Z" fill="#EBEBEB"/>
<path d="M99.5792 361.629H93.8949V361.854H99.5792V361.629Z" fill="#EBEBEB"/>
<path d="M202.185 365.419H118.06V365.643H202.185V365.419Z" fill="#EBEBEB"/>
<path d="M212.826 313.954H39.4312C38.0729 313.952 36.7709 313.411 35.8113 312.449C34.8516 311.488 34.3126 310.185 34.3126 308.827V65.0827C34.3244 63.7321 34.8687 62.4407 35.827 61.4891C36.7854 60.5374 38.0806 60.0023 39.4312 60H212.826C214.186 60 215.49 60.5402 216.452 61.5018C217.413 62.4634 217.954 63.7677 217.954 65.1276V308.827C217.954 310.187 217.413 311.491 216.452 312.453C215.49 313.414 214.186 313.954 212.826 313.954ZM39.4312 60.1796C38.1324 60.182 36.8876 60.6996 35.97 61.6188C35.0525 62.5381 34.5371 63.7839 34.5371 65.0827V308.827C34.5371 310.126 35.0525 311.371 35.97 312.291C36.8876 313.21 38.1324 313.727 39.4312 313.73H212.826C214.126 313.727 215.371 313.21 216.29 312.291C217.209 311.372 217.727 310.126 217.729 308.827V65.0827C217.727 63.783 217.209 62.5373 216.29 61.6183C215.371 60.6993 214.126 60.182 212.826 60.1796H39.4312Z" fill="#EBEBEB"/>
<path d="M407.072 313.954H233.669C232.309 313.952 231.007 313.411 230.045 312.45C229.084 311.489 228.543 310.186 228.541 308.827V65.0827C228.555 63.7313 229.101 62.4399 230.061 61.4885C231.021 60.5371 232.317 60.0023 233.669 60H407.072C408.421 60.0047 409.714 60.5408 410.671 61.4922C411.627 62.4436 412.17 63.7337 412.182 65.0827V308.827C412.182 310.184 411.644 311.485 410.687 312.446C409.729 313.407 408.429 313.95 407.072 313.954ZM233.669 60.1796C232.369 60.182 231.123 60.6993 230.204 61.6183C229.285 62.5373 228.768 63.783 228.766 65.0827V308.827C228.768 310.126 229.285 311.372 230.204 312.291C231.123 313.21 232.369 313.727 233.669 313.73H407.072C408.372 313.727 409.618 313.21 410.537 312.291C411.456 311.372 411.973 310.126 411.975 308.827V65.0827C411.973 63.783 411.456 62.5373 410.537 61.6183C409.618 60.6993 408.372 60.182 407.072 60.1796H233.669Z" fill="#EBEBEB"/>
<path d="M76.6712 321.165C76.6712 320.806 77.8835 285.533 83.6217 279.956C89.1983 274.568 95.601 279.749 95.8704 279.956L96.4451 279.265C96.3733 279.211 89.1444 273.311 82.9751 279.265C76.9765 285.093 75.7911 319.621 75.7911 321.084L76.6712 321.165Z" fill="#E0E0E0"/>
<path d="M76.1863 328.089C76.1863 327.676 80.1016 285.748 64.7907 268.174L64.1172 268.767C79.1766 286.045 75.3332 327.586 75.2883 328.035L76.1863 328.089Z" fill="#E0E0E0"/>
<path d="M76.752 323.662L77.65 323.599C77.65 323.123 74.6597 275.933 85.8847 265.606L85.283 264.941C73.7258 275.565 76.6173 321.695 76.752 323.662Z" fill="#E0E0E0"/>
<path d="M75.2883 323.635H76.1863C76.1863 322.333 75.8181 291.765 67.1255 286.817C66.3011 286.285 65.3618 285.958 64.3856 285.863C63.4094 285.768 62.4245 285.907 61.513 286.269C56.2597 288.442 53.6555 297.79 53.5477 298.185L54.4457 298.428C54.4457 298.329 57.041 289.107 61.8812 287.104C62.6677 286.796 63.5163 286.68 64.3566 286.766C65.1969 286.852 66.0045 287.137 66.7124 287.598C74.9201 292.277 75.2883 323.32 75.2883 323.635Z" fill="#E0E0E0"/>
<path d="M78.6649 323.653L79.5629 323.599C79.5629 323.365 78.2518 299.443 84.7084 291.019C86.2709 288.99 88.0041 288.002 89.8001 288.092C94.0296 288.388 97.5767 294.576 97.6127 294.638L98.3939 294.198C98.2413 293.92 94.5774 287.526 89.8629 287.194C87.7616 287.041 85.795 288.092 84.0349 290.436C77.3358 299.164 78.611 322.656 78.6649 323.653Z" fill="#E0E0E0"/>
<path d="M77.2279 326.903C77.3986 324.586 81.4485 269.97 74.3274 260.353L73.609 260.882C80.5236 270.24 76.3748 326.275 76.303 326.84L77.2279 326.903Z" fill="#E0E0E0"/>
<path d="M59.5734 291.765C59.5734 291.765 63.8478 293.337 62.5727 297.054C61.2975 300.772 47.8096 306.878 47.8096 306.878C47.8096 306.878 42.1522 301.697 47.3426 293.274C52.533 284.85 59.4566 289.107 59.5734 291.765Z" fill="#EBEBEB"/>
<path d="M78.126 284.688C78.126 284.688 73.636 284.5 73.3307 288.415C73.0254 292.33 83.2087 303.169 83.2087 303.169C83.2087 303.169 90.3927 300.565 88.8751 290.786C87.3575 281.007 79.2665 282.282 78.126 284.688Z" fill="#EBEBEB"/>
<path d="M81.9784 265.938C81.9784 265.938 78.9522 265.615 79.1946 263.765C79.4371 261.915 90.9764 257.174 97.7832 264.852C97.7832 264.852 93.4279 272.341 87.1239 272.44C80.82 272.539 81.9784 265.938 81.9784 265.938Z" fill="#EBEBEB"/>
<path d="M76.33 261.457C76.33 261.457 79.0779 262.777 79.8501 261.089C80.6224 259.401 73.3397 249.253 63.4976 252.172C63.4976 252.172 63.2372 260.838 68.5354 264.25C73.8336 267.662 76.33 261.457 76.33 261.457Z" fill="#EBEBEB"/>
<path d="M90.698 290.265C90.698 290.265 88.6056 288.577 90.8686 287.76C93.1316 286.942 104.195 287.167 104.339 298.14C104.339 298.14 91.4433 300.278 89.8449 296.102C88.2464 291.926 90.698 290.265 90.698 290.265Z" fill="#EBEBEB"/>
<path d="M64.3776 265.642C64.3776 265.642 66.47 263.954 64.216 263.128C61.962 262.302 50.8807 262.544 50.746 273.509C50.746 273.509 63.6502 275.655 65.2397 271.479C66.8292 267.303 64.3776 265.642 64.3776 265.642Z" fill="#EBEBEB"/>
<path d="M71.1934 274.496C71.1934 274.496 71.382 272.449 69.7207 273.248C68.0594 274.047 62.2942 280.288 68.2749 286.197C68.2749 286.197 76.3569 280.226 74.8842 277.118C73.4115 274.011 71.1934 274.496 71.1934 274.496Z" fill="#EBEBEB"/>
<path d="M92.5569 277.424C92.5569 277.424 91.2997 275.789 93.1316 275.583C94.9636 275.376 103.171 277.567 101.259 285.766C101.259 285.766 91.2638 285.012 90.8328 281.608C90.4017 278.205 92.5569 277.424 92.5569 277.424Z" fill="#EBEBEB"/>
<path d="M58.7741 354.041H93.0777L96.7775 316.487H55.0743L58.7741 354.041Z" fill="#F0F0F0"/>
<path d="M53.2514 320.635H98.6184V312.347H53.2514V320.635Z" fill="#E6E6E6"/>
<path d="M371.97 321.165C371.97 320.806 370.766 285.533 365.028 279.956C359.451 274.568 353.04 279.749 352.779 279.956L352.196 279.265C352.276 279.211 359.496 273.311 365.666 279.265C371.664 285.093 372.85 319.621 372.85 321.084L371.97 321.165Z" fill="#E0E0E0"/>
<path d="M372.463 328.089C372.463 327.676 368.548 285.748 383.859 268.174L384.533 268.767C369.473 286.045 373.317 327.586 373.361 328.035L372.463 328.089Z" fill="#E0E0E0"/>
<path d="M371.898 323.662L371 323.599C371 323.123 373.999 275.933 362.765 265.606L363.376 264.941C374.924 275.565 372.032 321.695 371.898 323.662Z" fill="#E0E0E0"/>
<path d="M373.362 323.635H372.464C372.464 322.333 372.832 291.765 381.515 286.817C382.341 286.285 383.282 285.958 384.26 285.863C385.237 285.768 386.224 285.907 387.137 286.269C392.39 288.442 394.994 297.79 395.102 298.185L394.204 298.428C394.204 298.329 391.609 289.107 386.769 287.104C385.982 286.796 385.134 286.68 384.293 286.766C383.453 286.852 382.645 287.137 381.937 287.598C373.721 292.277 373.362 323.32 373.362 323.635Z" fill="#E0E0E0"/>
<path d="M369.976 323.653L369.078 323.599C369.078 323.366 370.389 299.443 363.932 291.02C362.37 288.972 360.664 288.002 358.877 288.128C354.647 288.424 351.1 294.612 351.064 294.674L350.283 294.234C350.435 293.956 354.099 287.562 358.814 287.23C360.915 287.077 362.882 288.128 364.642 290.472C371.305 299.164 370.039 322.656 369.976 323.653Z" fill="#E0E0E0"/>
<path d="M371.395 326.903C371.215 324.586 367.174 269.97 374.295 260.353L375.014 260.882C368.09 270.24 372.248 326.275 372.32 326.84L371.395 326.903Z" fill="#E0E0E0"/>
<path d="M389.076 291.765C389.076 291.765 384.802 293.337 386.077 297.054C387.352 300.772 400.84 306.878 400.84 306.878C400.84 306.878 406.498 301.697 401.298 293.274C396.099 284.85 389.184 289.107 389.076 291.765Z" fill="#EBEBEB"/>
<path d="M370.515 284.688C370.515 284.688 375.059 284.5 375.319 288.415C375.58 292.33 365.441 303.169 365.441 303.169C365.441 303.169 358.257 300.565 359.784 290.786C361.31 281.007 369.383 282.282 370.515 284.688Z" fill="#EBEBEB"/>
<path d="M366.671 265.938C366.671 265.938 369.698 265.615 369.455 263.765C369.213 261.915 357.673 257.174 350.867 264.852C350.867 264.852 355.222 272.341 361.526 272.44C367.83 272.539 366.671 265.938 366.671 265.938Z" fill="#EBEBEB"/>
<path d="M372.311 261.457C372.311 261.457 369.572 262.777 368.8 261.089C368.027 259.401 375.31 249.253 385.152 252.172C385.152 252.172 385.413 260.838 380.114 264.25C374.816 267.662 372.311 261.457 372.311 261.457Z" fill="#EBEBEB"/>
<path d="M357.97 290.265C357.97 290.265 360.062 288.577 357.799 287.76C355.536 286.942 344.464 287.167 344.329 298.14C344.329 298.14 357.224 300.278 358.823 296.102C360.421 291.926 357.97 290.265 357.97 290.265Z" fill="#EBEBEB"/>
<path d="M384.272 265.642C384.272 265.642 382.18 263.954 384.434 263.128C386.688 262.302 397.769 262.544 397.904 273.509C397.904 273.509 385 275.655 383.41 271.479C381.821 267.303 384.272 265.642 384.272 265.642Z" fill="#EBEBEB"/>
<path d="M377.447 274.496C377.447 274.496 377.268 272.449 378.92 273.248C380.572 274.047 386.355 280.288 380.375 286.197C380.375 286.197 372.293 280.226 373.766 277.118C375.238 274.011 377.447 274.496 377.447 274.496Z" fill="#EBEBEB"/>
<path d="M356.093 277.424C356.093 277.424 357.35 275.789 355.518 275.583C353.686 275.376 345.479 277.567 347.436 285.766C347.436 285.766 357.431 285.012 357.862 281.608C358.293 278.205 356.093 277.424 356.093 277.424Z" fill="#EBEBEB"/>
<path d="M389.867 354.041H355.572L351.872 316.487H393.575L389.867 354.041Z" fill="#F0F0F0"/>
<path d="M395.407 312.338H350.04V320.626H395.407V312.338Z" fill="#E6E6E6"/>
<path d="M213.491 125.347H122.146V309.024H213.491V125.347Z" fill="#FAFAFA"/>
<path d="M215.601 122.851H120.036V131.867H215.601V122.851Z" fill="#F0F0F0"/>
<path d="M215.601 132.864H120.036V137.372H215.601V132.864Z" fill="#F0F0F0"/>
<path d="M215.601 139.554H120.036V144.062H215.601V139.554Z" fill="#F0F0F0"/>
<path d="M215.601 146.244H120.036V150.752H215.601V146.244Z" fill="#F0F0F0"/>
<path d="M215.601 152.934H120.036V157.442H215.601V152.934Z" fill="#F0F0F0"/>
<path d="M215.601 159.615H120.036V164.123H215.601V159.615Z" fill="#F0F0F0"/>
<path d="M215.601 166.305H120.036V170.813H215.601V166.305Z" fill="#F0F0F0"/>
<path d="M215.601 172.995H120.036V177.503H215.601V172.995Z" fill="#F0F0F0"/>
<path d="M215.601 179.685H120.036V184.193H215.601V179.685Z" fill="#F0F0F0"/>
<path d="M215.601 186.375H120.036V190.883H215.601V186.375Z" fill="#F0F0F0"/>
<path d="M215.601 193.066H120.036V197.574H215.601V193.066Z" fill="#F0F0F0"/>
<path d="M215.601 199.747H120.036V204.255H215.601V199.747Z" fill="#F0F0F0"/>
<path d="M215.601 206.437H120.036V210.945H215.601V206.437Z" fill="#F0F0F0"/>
<path d="M215.601 213.127H120.036V217.635H215.601V213.127Z" fill="#F0F0F0"/>
<path d="M215.601 219.817H120.036V224.325H215.601V219.817Z" fill="#F0F0F0"/>
<path d="M215.601 226.507H120.036V231.015H215.601V226.507Z" fill="#F0F0F0"/>
<path d="M215.601 233.188H120.036V237.696H215.601V233.188Z" fill="#F0F0F0"/>
<path d="M215.601 239.878H120.036V244.386H215.601V239.878Z" fill="#F0F0F0"/>
<path d="M215.601 246.568H120.036V251.076H215.601V246.568Z" fill="#F0F0F0"/>
<path d="M215.601 253.259H120.036V257.767H215.601V253.259Z" fill="#F0F0F0"/>
<path d="M215.601 259.948H120.036V264.456H215.601V259.948Z" fill="#F0F0F0"/>
<path d="M215.601 266.639H120.036V271.147H215.601V266.639Z" fill="#F0F0F0"/>
<path d="M215.601 273.32H120.036V277.828H215.601V273.32Z" fill="#F0F0F0"/>
<path d="M215.601 280.01H120.036V284.518H215.601V280.01Z" fill="#F0F0F0"/>
<path d="M215.601 286.7H120.036V291.208H215.601V286.7Z" fill="#F0F0F0"/>
<path d="M215.601 293.39H120.036V297.898H215.601V293.39Z" fill="#F0F0F0"/>
<path d="M215.601 300.08H120.036V304.588H215.601V300.08Z" fill="#F0F0F0"/>
<path d="M215.601 306.761H120.036V311.269H215.601V306.761Z" fill="#F0F0F0"/>
<path d="M326.854 125.347H235.51V309.024H326.854V125.347Z" fill="#FAFAFA"/>
<path d="M328.964 122.851H233.399V131.867H328.964V122.851Z" fill="#F0F0F0"/>
<path d="M328.964 132.864H233.399V133.69H328.964V132.864Z" fill="#F0F0F0"/>
<path d="M328.964 134.75H233.399V135.576H328.964V134.75Z" fill="#F0F0F0"/>
<path d="M328.964 136.626H233.399V137.453H328.964V136.626Z" fill="#F0F0F0"/>
<path d="M328.964 138.512H233.399V139.338H328.964V138.512Z" fill="#F0F0F0"/>
<path d="M328.964 140.389H233.399V141.215H328.964V140.389Z" fill="#F0F0F0"/>
<path d="M328.964 142.275H233.399V143.101H328.964V142.275Z" fill="#F0F0F0"/>
<path d="M328.964 144.151H233.399V144.978H328.964V144.151Z" fill="#F0F0F0"/>
<path d="M328.964 146.037H233.399V146.864H328.964V146.037Z" fill="#F0F0F0"/>
<path d="M328.964 147.923H233.399V148.749H328.964V147.923Z" fill="#F0F0F0"/>
<path d="M328.964 149.8H233.399V150.626H328.964V149.8Z" fill="#F0F0F0"/>
<path d="M328.964 151.686H233.399V152.512H328.964V151.686Z" fill="#F0F0F0"/>
<path d="M328.964 153.562H233.399V154.389H328.964V153.562Z" fill="#F0F0F0"/>
<path d="M328.964 155.448H233.399V156.275H328.964V155.448Z" fill="#F0F0F0"/>
<path d="M328.964 157.325H233.399V158.151H328.964V157.325Z" fill="#F0F0F0"/>
<path d="M328.964 159.211H233.399V160.037H328.964V159.211Z" fill="#F0F0F0"/>
<path d="M328.964 161.097H233.399V161.923H328.964V161.097Z" fill="#F0F0F0"/>
<path d="M328.964 162.974H233.399V163.8H328.964V162.974Z" fill="#F0F0F0"/>
<path d="M328.964 164.859H233.399V165.686H328.964V164.859Z" fill="#F0F0F0"/>
<path d="M237.958 99.258C239.163 91.8316 234.12 84.8341 226.694 83.6286C219.268 82.4231 212.27 87.4662 211.065 94.8926C209.859 102.319 214.902 109.316 222.328 110.522C229.755 111.727 236.752 106.684 237.958 99.258Z" fill="#F0F0F0"/>
<path d="M235.946 98.9313C236.971 92.6162 232.682 86.6658 226.367 85.6407C220.052 84.6156 214.102 88.904 213.077 95.2192C212.052 101.534 216.34 107.485 222.655 108.51C228.97 109.535 234.921 105.246 235.946 98.9313Z" fill="#FAFAFA"/>
<path d="M223.952 89.1221V97.222L218.591 94.1868" fill="#F0F0F0"/>
<path d="M223.952 89.1221V97.222L218.591 94.1868" stroke="#E0E0E0" stroke-width="2" stroke-linecap="round" stroke-linejoin="round"/>
<path d="M224.5 394.559C320.66 394.559 398.613 390.008 398.613 384.393C398.613 378.779 320.66 374.228 224.5 374.228C128.34 374.228 50.3867 378.779 50.3867 384.393C50.3867 390.008 128.34 394.559 224.5 394.559Z" fill="#F5F5F5"/>
<path opacity="0.5" d="M393.755 148.687H229.672C227.862 148.687 226.395 150.154 226.395 151.964V331.079C226.395 332.89 227.862 334.357 229.672 334.357H393.755C395.565 334.357 397.033 332.89 397.033 331.079V151.964C397.033 150.154 395.565 148.687 393.755 148.687Z" fill="#50F7BB"/>
<path d="M388.367 145.094H224.284C222.474 145.094 221.007 146.562 221.007 148.372V327.487C221.007 329.297 222.474 330.765 224.284 330.765H388.367C390.177 330.765 391.645 329.297 391.645 327.487V148.372C391.645 146.562 390.177 145.094 388.367 145.094Z" fill="#50F7BB"/>
<path opacity="0.8" d="M388.367 145.094H224.284C222.474 145.094 221.007 146.562 221.007 148.372V327.487C221.007 329.297 222.474 330.765 224.284 330.765H388.367C390.177 330.765 391.645 329.297 391.645 327.487V148.372C391.645 146.562 390.177 145.094 388.367 145.094Z" fill="white"/>
<path opacity="0.5" d="M169.812 144.295H86.5492C84.739 144.295 83.2715 145.763 83.2715 147.573V299.748C83.2715 301.558 84.739 303.026 86.5492 303.026H169.812C171.622 303.026 173.089 301.558 173.089 299.748V147.573C173.089 145.763 171.622 144.295 169.812 144.295Z" fill="#50F7BB"/>
<path d="M164.424 138.907H81.1612C79.351 138.907 77.8835 140.375 77.8835 142.185V294.36C77.8835 296.17 79.351 297.638 81.1612 297.638H164.424C166.234 297.638 167.701 296.17 167.701 294.36V142.185C167.701 140.375 166.234 138.907 164.424 138.907Z" fill="#50F7BB"/>
<path opacity="0.8" d="M164.424 138.907H81.1612C79.351 138.907 77.8835 140.375 77.8835 142.185V294.36C77.8835 296.17 79.351 297.638 81.1612 297.638H164.424C166.234 297.638 167.701 296.17 167.701 294.36V142.185C167.701 140.375 166.234 138.907 164.424 138.907Z" fill="white"/>
<path d="M388.906 92.6064H81.3408C79.4314 92.6064 77.8835 94.1543 77.8835 96.0638V110.037C77.8835 111.946 79.4314 113.494 81.3408 113.494H388.906C390.815 113.494 392.363 111.946 392.363 110.037V96.0638C392.363 94.1543 390.815 92.6064 388.906 92.6064Z" fill="#50F7BB"/>
<path opacity="0.6" d="M360.448 103.05C360.439 103.846 360.195 104.621 359.747 105.278C359.299 105.935 358.666 106.445 357.928 106.743C357.191 107.042 356.382 107.115 355.602 106.954C354.823 106.794 354.109 106.406 353.55 105.841C352.99 105.275 352.611 104.557 352.459 103.776C352.307 102.995 352.389 102.186 352.696 101.452C353.002 100.718 353.519 100.091 354.181 99.6499C354.843 99.2088 355.621 98.9734 356.416 98.9734C356.949 98.9757 357.476 99.0831 357.967 99.2894C358.458 99.4957 358.903 99.7968 359.278 100.175C359.652 100.554 359.949 101.003 360.149 101.496C360.35 101.99 360.452 102.518 360.448 103.05Z" fill="white"/>
<path opacity="0.6" d="M373.056 103.05C373.047 103.846 372.803 104.621 372.355 105.278C371.907 105.935 371.274 106.445 370.536 106.743C369.799 107.042 368.99 107.115 368.21 106.954C367.431 106.794 366.717 106.406 366.158 105.841C365.598 105.275 365.219 104.557 365.067 103.776C364.915 102.995 364.997 102.186 365.304 101.452C365.61 100.718 366.127 100.091 366.789 99.6499C367.451 99.2088 368.229 98.9734 369.024 98.9734C369.557 98.9757 370.084 99.0831 370.575 99.2894C371.066 99.4957 371.511 99.7968 371.886 100.175C372.26 100.554 372.557 101.003 372.757 101.496C372.958 101.99 373.06 102.518 373.056 103.05Z" fill="white"/>
<path opacity="0.6" d="M385.655 103.05C385.646 103.847 385.402 104.623 384.952 105.281C384.502 105.938 383.868 106.448 383.129 106.746C382.39 107.043 381.579 107.115 380.799 106.952C380.02 106.789 379.305 106.399 378.747 105.831C378.189 105.262 377.811 104.541 377.662 103.759C377.513 102.976 377.6 102.167 377.91 101.433C378.221 100.7 378.742 100.074 379.407 99.6366C380.073 99.1988 380.853 98.968 381.65 98.9732C382.721 98.9851 383.744 99.4207 384.494 100.185C385.245 100.949 385.662 101.979 385.655 103.05Z" fill="white"/>
<path opacity="0.6" d="M95.5741 97.8059H85.2112V108.286H95.5741V97.8059Z" fill="white"/>
<path d="M162.098 164.204H65.2577V182.73H162.098V164.204Z" fill="#50F7BB"/>
<path opacity="0.2" d="M162.098 164.204H65.2577V182.73H162.098V164.204Z" fill="black"/>
<path d="M79.1947 169.601H71.4629V177.333H79.1947V169.601Z" fill="white"/>
<path d="M73.1511 173.489L74.5969 175.339L77.5064 171.594" stroke="#50F7BB" stroke-width="1.5" stroke-linecap="round" stroke-linejoin="round"/>
<path d="M156.997 177.808H149.221V172.546H156.997V177.808ZM153.109 168.658C152.234 168.658 151.395 169.005 150.775 169.623C150.156 170.24 149.807 171.079 149.804 171.953H150.702C150.74 171.342 151.009 170.767 151.456 170.348C151.902 169.928 152.492 169.694 153.105 169.694C153.717 169.694 154.307 169.928 154.754 170.348C155.2 170.767 155.469 171.342 155.507 171.953H156.405C156.402 171.08 156.054 170.243 155.437 169.626C154.819 169.008 153.982 168.66 153.109 168.658Z" fill="#50F7BB"/>
<path d="M147.865 198.453H51.0244V216.979H147.865V198.453Z" fill="#50F7BB"/>
<path opacity="0.4" d="M147.865 198.453H51.0244V216.979H147.865V198.453Z" fill="white"/>
<path d="M64.9614 203.842H57.2296V211.573H64.9614V203.842Z" fill="white"/>
<path d="M142.764 206.796H134.987V212.049H142.764V206.796Z" fill="white"/>
<path d="M142.171 206.221H141.273C141.273 205.586 141.021 204.976 140.571 204.526C140.121 204.076 139.512 203.824 138.876 203.824C138.24 203.824 137.63 204.076 137.18 204.526C136.731 204.976 136.478 205.586 136.478 206.221H135.58C135.58 205.347 135.927 204.509 136.545 203.891C137.163 203.273 138.002 202.926 138.876 202.926C139.75 202.926 140.588 203.273 141.206 203.891C141.824 204.509 142.171 205.347 142.171 206.221Z" fill="white"/>
<path d="M162.601 234.302H65.7606V252.828H162.601V234.302Z" fill="#50F7BB"/>
<path opacity="0.4" d="M162.601 234.302H65.7606V252.828H162.601V234.302Z" fill="white"/>
<path d="M79.6976 239.699H71.9658V247.431H79.6976V239.699Z" fill="white"/>
<path d="M73.6541 243.578L75.0998 245.437L78.0094 241.692" stroke="#50F7BB" stroke-width="1.5" stroke-linecap="round" stroke-linejoin="round"/>
<g opacity="0.6">
<path d="M157.5 242.644H149.724V247.897H157.5V242.644Z" fill="white"/>
<path d="M156.908 242.078H156.01C156.03 241.751 155.982 241.422 155.871 241.113C155.759 240.804 155.585 240.522 155.36 240.282C155.135 240.043 154.864 239.853 154.562 239.722C154.261 239.592 153.936 239.525 153.607 239.525C153.279 239.525 152.954 239.592 152.653 239.722C152.351 239.853 152.08 240.043 151.855 240.282C151.63 240.522 151.456 240.804 151.344 241.113C151.233 241.422 151.185 241.751 151.205 242.078H150.307C150.284 241.631 150.352 241.183 150.507 240.762C150.663 240.341 150.902 239.956 151.211 239.631C151.519 239.306 151.891 239.047 152.303 238.87C152.715 238.693 153.159 238.602 153.607 238.602C154.056 238.602 154.5 238.693 154.912 238.87C155.324 239.047 155.696 239.306 156.004 239.631C156.313 239.956 156.552 240.341 156.708 240.762C156.863 241.183 156.931 241.631 156.908 242.078Z" fill="white"/>
</g>
<path d="M369.24 214.115H293.619V263.298H369.24V214.115Z" fill="#50F7BB"/>
<path opacity="0.5" d="M369.24 214.115H293.619V263.298H369.24V214.115Z" fill="white"/>
<path d="M366.474 223.328H296.385V260.829H366.474V223.328Z" fill="#50F7BB"/>
<path d="M353.938 228.932H302.096V230.548H353.938V228.932Z" fill="white"/>
<path d="M326.971 233.88H302.096V235.496H326.971V233.88Z" fill="white"/>
<path d="M333.427 238.819H302.096V240.435H333.427V238.819Z" fill="white"/>
<path d="M313.142 243.758H302.096V245.374H313.142V243.758Z" fill="white"/>
<path d="M309.244 248.697H302.096V250.313H309.244V248.697Z" fill="white"/>
<path d="M371.404 311.099V338.524C371.405 339.266 371.139 339.984 370.654 340.547C370.169 341.109 369.498 341.478 368.764 341.586C368.608 341.599 368.452 341.599 368.297 341.586H333.068C332.246 341.586 331.458 341.259 330.877 340.678C330.296 340.097 329.97 339.309 329.97 338.488V311.099C329.967 310.628 330.075 310.164 330.284 309.743C330.537 309.219 330.932 308.777 331.425 308.467C331.917 308.158 332.487 307.993 333.068 307.992H346.879C347.524 307.981 348.151 307.774 348.675 307.399C349.204 307.014 349.6 306.474 349.807 305.854C350.01 305.231 350.405 304.687 350.936 304.302C351.466 303.916 352.105 303.708 352.761 303.708H360.098C360.754 303.707 361.394 303.914 361.925 304.3C362.456 304.686 362.851 305.23 363.052 305.854C363.257 306.477 363.653 307.018 364.183 307.402C364.714 307.786 365.352 307.992 366.007 307.992H368.261C368.672 307.987 369.08 308.064 369.461 308.218C369.842 308.372 370.189 308.6 370.481 308.889C370.773 309.178 371.005 309.522 371.164 309.901C371.322 310.281 371.404 310.688 371.404 311.099Z" fill="#50F7BB"/>
<path opacity="0.3" d="M368.764 312.392V341.586H333.068C332.246 341.586 331.458 341.26 330.877 340.679C330.296 340.098 329.97 339.31 329.97 338.488V311.099C329.967 310.629 330.075 310.164 330.284 309.743H366.115C366.814 309.754 367.481 310.037 367.975 310.532C368.469 311.026 368.752 311.693 368.764 312.392Z" fill="white"/>
<path d="M287.333 270.734V305.028L280.634 311.728H256.065V270.734H287.333Z" fill="#50F7BB"/>
<path opacity="0.4" d="M287.333 270.734V305.028L280.634 311.728H256.065V270.734H287.333Z" fill="white"/>
<path d="M287.333 305.028H280.634V311.727L287.333 305.028Z" fill="#50F7BB"/>
<path d="M283.544 277.693H259.962V278.977H283.544V277.693Z" fill="#50F7BB"/>
<path d="M279.799 281.635H259.962V282.92H279.799V281.635Z" fill="#50F7BB"/>
<path d="M283.544 285.569H259.962V286.853H283.544V285.569Z" fill="#50F7BB"/>
<path d="M268.762 289.511H259.962V290.795H268.762V289.511Z" fill="#50F7BB"/>
<path d="M265.664 293.453H259.962V294.737H265.664V293.453Z" fill="#50F7BB"/>
<path d="M308.409 139.832H244.481V192.652H308.409V139.832Z" fill="#50F7BB"/>
<path opacity="0.6" d="M244.481 139.832V192.652H308.409V139.832H244.481ZM306.326 190.569H246.573V141.915H306.326V190.569Z" fill="white"/>
<path opacity="0.3" d="M246.573 176.147L264.892 162.839L278.506 176.147L292.119 168.371L306.326 177.117V190.569H246.573V176.147Z" fill="white"/>
<path opacity="0.6" d="M289.731 153.922C289.729 154.786 289.471 155.631 288.989 156.349C288.508 157.067 287.824 157.626 287.025 157.956C286.226 158.285 285.347 158.371 284.499 158.201C283.651 158.031 282.873 157.614 282.262 157.002C281.651 156.39 281.236 155.611 281.068 154.763C280.9 153.914 280.987 153.036 281.318 152.237C281.649 151.438 282.21 150.756 282.929 150.276C283.648 149.796 284.493 149.539 285.357 149.539C285.933 149.539 286.502 149.653 287.033 149.873C287.564 150.094 288.047 150.416 288.453 150.823C288.859 151.231 289.181 151.714 289.4 152.245C289.62 152.777 289.732 153.347 289.731 153.922Z" fill="white"/>
<path d="M312.585 194.844V196.64H310.789" stroke="#263238" stroke-miterlimit="10"/>
<path d="M307.969 196.648H243.672" stroke="#263238" stroke-miterlimit="10" stroke-dasharray="4.18 3.14"/>
<path d="M242.262 196.64H240.466V194.844" stroke="#263238" stroke-miterlimit="10"/>
<path d="M240.466 192.248V139.033" stroke="#263238" stroke-miterlimit="10" stroke-dasharray="3.85 2.89"/>
<path d="M240.466 137.731V135.935H242.262" stroke="#263238" stroke-miterlimit="10"/>
<path d="M245.082 135.935H309.379" stroke="#263238" stroke-miterlimit="10" stroke-dasharray="4.18 3.14"/>
<path d="M310.789 135.935H312.585V137.731" stroke="#263238" stroke-miterlimit="10"/>
<path d="M312.585 140.326V193.55" stroke="#263238" stroke-miterlimit="10" stroke-dasharray="3.85 2.89"/>
<path d="M313.995 134.516H311.166V137.345H313.995V134.516Z" fill="#263238"/>
<path d="M313.995 195.23H311.166V198.058H313.995V195.23Z" fill="#263238"/>
<path d="M241.876 195.23H239.048V198.058H241.876V195.23Z" fill="#263238"/>
<path d="M241.876 134.516H239.048V137.345H241.876V134.516Z" fill="#263238"/>
<path d="M277.859 134.516H275.03V137.345H277.859V134.516Z" fill="#263238"/>
<path d="M277.94 195.23H275.111V198.058H277.94V195.23Z" fill="#263238"/>
<path d="M313.995 164.877H311.166V167.706H313.995V164.877Z" fill="#263238"/>
<path d="M241.876 164.877H239.048V167.706H241.876V164.877Z" fill="#263238"/>
<path d="M157.15 223.095L147.595 230.853C147.595 230.853 145.26 230.898 144.524 231.671C143.788 232.443 140.932 238.181 141.372 238.962C141.812 239.744 146.482 241.288 147.479 240.363C148.475 239.438 150.173 234.131 150.173 233.565L162.385 225.376L157.15 223.095Z" fill="#F9B9A8"/>
<path d="M152.013 226.678L154.151 231.338C154.151 231.338 167.288 225.232 170.135 221.64C170.862 220.742 171.868 219.242 172.955 217.563C174.751 214.788 176.762 211.448 178.163 209.104C179.205 207.353 179.905 206.159 179.905 206.159L172.47 194.431C170.844 195.679 165.87 215.722 164.981 216.8C164.092 217.877 152.013 226.678 152.013 226.678Z" fill="#50F7BB"/>
<path opacity="0.1" d="M172.955 217.527C174.751 214.752 176.762 211.412 178.163 209.068L174.706 200.537C174.706 200.537 172.829 210.325 172.955 217.527Z" fill="black"/>
<path d="M233.525 178.761L242.936 171.451C242.936 171.451 243.699 169.242 244.66 168.757C245.621 168.272 251.943 167.365 252.563 167.985C253.182 168.604 253.209 173.57 252.024 174.271C250.838 174.971 245.262 174.953 244.732 174.746L234.45 182.254L233.525 178.761Z" fill="#F9B9A8"/>
<path d="M154.034 379.688L159.664 380.685L161.981 372.998L164.083 365.94L157.59 363.668L155.704 372.145L154.034 379.688Z" fill="#F9B9A8"/>
<path opacity="0.2" d="M155.668 372.324L161.954 373.151L164.074 366.02L157.581 363.704L155.668 372.324Z" fill="black"/>
<path d="M191.66 379.823H197.389L198.323 372.145L199.176 364.979L192.379 363.946L192.001 372.369L191.66 379.823Z" fill="#F9B9A8"/>
<path opacity="0.2" d="M192.001 372.872L198.323 372.594L199.176 365.203L192.379 364.054L192.001 372.872Z" fill="black"/>
<path d="M155.138 366.155L164.406 367.789C173.754 344.495 180.408 325.045 185.06 308.908C187.592 300.197 189.595 292.456 191.112 285.56L190.717 310.928V368.14H200.065C222.955 259.482 206.738 234.221 206.738 234.221L179.349 229.641C178.262 234.712 177.498 239.847 177.059 245.015L175.819 254.094L165.115 309.392L155.138 366.155Z" fill="#263238"/>
<path d="M165.861 366.649L154.366 362.833L154.519 367.727L164.029 370.753L165.861 366.649Z" fill="#50F7BB"/>
<path opacity="0.6" d="M165.861 366.649L154.366 362.833L154.519 367.727L164.029 370.753L165.861 366.649Z" fill="white"/>
<path d="M201.341 367.179L189.361 365.419L190.358 370.214L200.245 371.543L201.341 367.179Z" fill="#50F7BB"/>
<path opacity="0.6" d="M201.341 367.179L189.361 365.419L190.358 370.214L200.245 371.543L201.341 367.179Z" fill="white"/>
<path opacity="0.2" d="M183.848 313.173C184.279 311.718 184.746 310.3 185.141 308.908C187.44 300.996 188.966 293.893 190.762 287.508L191.66 275.763C191.66 275.763 185.796 262.858 187.987 253.78C187.79 254.291 183.91 264.187 185.437 274.074C185.795 287.128 185.264 300.191 183.848 313.173Z" fill="black"/>
<path d="M183.057 182.604C183.133 182.658 183.214 182.703 183.3 182.739C184.445 183.403 185.713 183.831 187.026 183.996C190.852 184.373 193.312 183.538 194.749 181.643C196.743 178.823 196.734 174.289 195.71 168.945C195.374 166.811 194.701 164.744 193.717 162.821C193.717 162.821 193.717 162.74 193.717 162.722C193.717 162.704 193.636 162.57 193.591 162.507C192.989 161.427 192.126 160.516 191.082 159.855C190.037 159.195 188.843 158.807 187.61 158.726C186.537 158.628 185.455 158.649 184.386 158.789C173.862 160.037 174.212 177.638 183.057 182.604Z" fill="#F9B9A8"/>
<path opacity="0.2" d="M183.3 182.739C184.448 183.356 185.71 183.735 187.009 183.852C190.834 184.229 193.295 183.269 194.713 181.347C192.567 182.186 190.205 182.3 187.987 181.67C187.176 181.48 186.332 181.477 185.52 181.663C184.708 181.848 183.948 182.216 183.3 182.739Z" fill="black"/>
<path d="M182.51 191.332C181.567 194.26 185.329 195.867 185.329 195.867C191.948 193.775 193.456 190.479 193.456 190.479C188.427 187.193 190.762 179.533 190.762 179.533L189.631 179.955L181.917 180.691C181.917 180.691 183.623 184.93 183.812 185.873C184.737 190.874 182.51 191.332 182.51 191.332Z" fill="#F9B9A8"/>
<path d="M193.725 162.749C193.725 162.749 195.261 170.032 188.697 174.1C188.697 174.1 186.703 182.128 182.303 182.811C176.313 183.709 169.911 175.878 170.853 166.898C172.084 155.26 189.074 152.117 193.725 162.749Z" fill="#263238"/>
<path d="M191.956 171.523C191.804 170.373 190.627 168.568 188.876 169.062C187.125 169.556 186.64 174.262 191.31 174.684C191.974 174.746 192.271 173.92 191.956 171.523Z" fill="#F9B9A8"/>
<path d="M197.991 378.79H191.606C191.473 378.788 191.343 378.832 191.24 378.916C191.136 379 191.066 379.117 191.04 379.248L189.729 385.166C189.702 385.292 189.699 385.423 189.722 385.55C189.745 385.677 189.793 385.798 189.863 385.907C189.933 386.015 190.024 386.109 190.131 386.182C190.237 386.255 190.357 386.307 190.484 386.333C190.555 386.342 190.628 386.342 190.699 386.333C193.312 386.333 193.528 386.136 196.806 386.136C198.826 386.136 204.933 386.342 207.725 386.342C210.518 386.342 210.877 383.585 209.737 383.334C204.609 382.212 200.757 380.64 199.113 379.194C198.805 378.921 198.403 378.777 197.991 378.79Z" fill="#263238"/>
<path d="M198.458 379.688C198.426 379.682 198.397 379.665 198.376 379.641C198.355 379.617 198.343 379.586 198.341 379.553C198.337 379.524 198.341 379.493 198.354 379.466C198.367 379.439 198.387 379.416 198.413 379.401C198.656 379.248 200.802 377.928 201.538 378.314C201.621 378.353 201.691 378.415 201.739 378.494C201.787 378.572 201.811 378.662 201.807 378.754C201.832 378.912 201.814 379.073 201.756 379.221C201.697 379.37 201.601 379.5 201.475 379.598C201.103 379.858 200.652 379.979 200.2 379.939C199.612 379.923 199.027 379.838 198.458 379.688ZM198.916 379.473C199.693 379.731 200.539 379.69 201.287 379.356C201.364 379.285 201.424 379.197 201.46 379.098C201.496 379 201.507 378.894 201.493 378.79C201.493 378.655 201.439 378.601 201.394 378.601C201.331 378.569 201.259 378.553 201.188 378.557C200.378 378.706 199.604 379.008 198.907 379.446L198.916 379.473Z" fill="#50F7BB"/>
<path d="M198.404 379.688C198.381 379.672 198.362 379.651 198.349 379.626C198.336 379.601 198.331 379.573 198.332 379.544C198.332 379.455 198.503 377.542 199.23 376.913C199.322 376.834 199.429 376.775 199.546 376.741C199.662 376.707 199.784 376.698 199.904 376.716C200.023 376.714 200.139 376.754 200.231 376.83C200.323 376.906 200.385 377.011 200.407 377.129C200.55 377.829 199.221 379.293 198.53 379.661H198.458C198.442 379.674 198.424 379.683 198.404 379.688ZM199.473 377.102C199.003 377.699 198.727 378.426 198.683 379.185C199.374 378.664 200.218 377.56 200.137 377.129C200.137 377.084 200.137 376.967 199.904 376.967H199.832C199.698 376.968 199.57 377.019 199.473 377.111V377.102Z" fill="#50F7BB"/>
<path d="M159.889 378.79H153.495C153.363 378.791 153.235 378.837 153.132 378.92C153.029 379.003 152.958 379.119 152.929 379.248L151.618 385.166C151.591 385.292 151.588 385.423 151.611 385.55C151.634 385.677 151.682 385.798 151.752 385.907C151.822 386.015 151.913 386.109 152.02 386.182C152.126 386.255 152.246 386.307 152.373 386.333C152.444 386.342 152.517 386.342 152.588 386.333C155.21 386.333 155.417 386.136 158.704 386.136C160.724 386.136 166.786 386.342 169.614 386.342C172.443 386.342 172.775 383.585 171.635 383.334C166.507 382.211 162.655 380.64 161.002 379.194C160.697 378.922 160.298 378.777 159.889 378.79Z" fill="#263238"/>
<path d="M160.338 379.688C160.306 379.682 160.277 379.665 160.256 379.641C160.235 379.617 160.223 379.586 160.221 379.553C160.219 379.523 160.225 379.492 160.239 379.465C160.254 379.438 160.275 379.416 160.302 379.401C160.535 379.248 162.682 377.928 163.427 378.314C163.508 378.355 163.576 378.418 163.624 378.496C163.671 378.574 163.696 378.663 163.696 378.754C163.721 378.912 163.703 379.073 163.645 379.221C163.586 379.37 163.49 379.5 163.364 379.598C162.991 379.855 162.541 379.976 162.089 379.939C161.498 379.923 160.91 379.839 160.338 379.688ZM160.796 379.473C161.573 379.731 162.419 379.69 163.167 379.356C163.245 379.286 163.306 379.198 163.344 379.099C163.381 379.001 163.394 378.895 163.382 378.79C163.382 378.655 163.319 378.601 163.274 378.601C163.214 378.568 163.146 378.552 163.077 378.557C162.268 378.708 161.494 379.01 160.796 379.446V379.473Z" fill="#50F7BB"/>
<path d="M160.302 379.688C160.276 379.674 160.255 379.654 160.24 379.628C160.226 379.603 160.219 379.574 160.221 379.544C160.221 379.455 160.392 377.542 161.164 376.913C161.253 376.833 161.359 376.774 161.474 376.74C161.589 376.705 161.71 376.697 161.829 376.716C161.949 376.713 162.066 376.754 162.16 376.829C162.253 376.905 162.317 377.011 162.34 377.129C162.475 377.829 161.146 379.293 160.464 379.661H160.383L160.302 379.688ZM161.362 377.102C160.894 377.7 160.621 378.427 160.58 379.185C161.263 378.664 162.107 377.56 162.026 377.129C162.026 377.084 162.026 376.967 161.802 376.967H161.721C161.587 376.968 161.459 377.019 161.362 377.111V377.102Z" fill="#50F7BB"/>
<path d="M206.782 234.338C206.782 234.338 212.009 202.504 203.029 188.234C203.029 188.234 185.069 187.121 172.497 194.404C172.497 194.404 177.705 208.574 178.486 234.338H206.782Z" fill="#50F7BB"/>
<path opacity="0.1" d="M208.417 209.966C208.803 205.647 207.519 201.489 207.339 197.825C205.093 195.842 203.108 193.582 201.43 191.099C201.43 191.099 199.805 204.003 208.417 209.966Z" fill="black"/>
<path d="M200.802 188.171C200.802 188.171 218.573 186.088 221.249 184.966C222.92 184.265 235.985 175.725 235.985 175.725L239.048 180.332C239.048 180.332 225.685 191.108 223.422 192.365C218.124 195.275 206.217 199.388 206.217 199.388C206.217 199.388 199.024 194.341 200.802 188.171Z" fill="#50F7BB"/>
<path d="M193.456 167.572C193.456 167.572 200.847 160.181 193.878 155.206C186.91 150.231 179.905 156.724 179.905 156.724C179.905 156.724 163.238 160.747 166.786 171.837C170.333 182.927 172.649 183.861 167.369 189.546C162.089 195.23 156.701 203.68 162.098 209.068C167.495 214.456 186.344 208.915 192.082 200.789C197.82 192.662 187.682 175.196 193.456 167.572Z" fill="#263238"/>
<path d="M178.469 234.338L178.352 231.321L207.106 232.048V234.841L178.469 234.338Z" fill="black"/>
<path d="M187.583 231.527H186.425V234.499H187.583V231.527Z" fill="#263238"/>
<path d="M200.856 231.859H199.832V235.11H200.856V231.859Z" fill="#263238"/>
<path d="M180.121 231.365H179.142V234.841H180.121V231.365Z" fill="#263238"/>
<defs>
<linearGradient id="paint0_linear_21_55" x1="449.5" y1="15" x2="449.5" y2="120.269" gradientUnits="userSpaceOnUse">
<stop stop-color="#50F7BB" stop-opacity="0.35"/>
<stop offset="1" stop-color="#50F7BB" stop-opacity="0"/>
</linearGradient>
<linearGradient id="paint1_linear_21_55" x1="36" y1="425" x2="36" y2="499.308" gradientUnits="userSpaceOnUse">
<stop stop-color="#50F7BB" stop-opacity="0.43"/>
<stop offset="1" stop-color="#50F7BB" stop-opacity="0"/>
</linearGradient>
<linearGradient id="paint2_linear_21_55" x1="432.5" y1="0" x2="432.5" y2="15.4808" gradientUnits="userSpaceOnUse">
<stop stop-color="#50F7BB" stop-opacity="0.16"/>
<stop offset="1" stop-color="#50F7BB" stop-opacity="0"/>
</linearGradient>
</defs>
</svg>
