<svg width="501" height="497" viewBox="0 0 501 497" fill="none" xmlns="http://www.w3.org/2000/svg">
<ellipse cx="449.5" cy="66" rx="51.5" ry="51" fill="url(#paint0_linear_21_36)"/>
<circle cx="36" cy="461" r="36" fill="url(#paint1_linear_21_36)"/>
<circle cx="432.5" cy="7.5" r="7.5" fill="url(#paint2_linear_21_36)"/>
<path d="M449 368.75H0V368.975H449V368.75Z" fill="#E0E0E0"/>
<path d="M91.8924 375.737H55.0385V375.961H91.8924V375.737Z" fill="#E0E0E0"/>
<path d="M109.906 375.629H98.4836V375.854H109.906V375.629Z" fill="#E0E0E0"/>
<path d="M223.198 377.766H177.948V377.991H223.198V377.766Z" fill="#E0E0E0"/>
<path d="M281.568 373.869H260.815V374.093H281.568V373.869Z" fill="#E0E0E0"/>
<path d="M358.553 377.659H316.913V377.883H358.553V377.659Z" fill="#E0E0E0"/>
<path d="M311.92 377.659H298.28V377.883H311.92V377.659Z" fill="#E0E0E0"/>
<path d="M380.851 383.217H344.23V383.442H380.851V383.217Z" fill="#E0E0E0"/>
<path d="M212.826 328.699H39.4312C38.0729 328.697 36.7709 328.156 35.8113 327.195C34.8516 326.233 34.3126 324.93 34.3126 323.572V79.8278C34.3244 78.4772 34.8687 77.1859 35.827 76.2342C36.7854 75.2825 38.0806 74.7474 39.4312 74.7451H212.826C214.186 74.7451 215.49 75.2853 216.452 76.247C217.413 77.2086 217.954 78.5128 217.954 79.8727V323.572C217.954 324.932 217.413 326.236 216.452 327.198C215.49 328.159 214.186 328.699 212.826 328.699ZM39.4312 74.9247C38.1324 74.9271 36.8876 75.4447 35.97 76.364C35.0525 77.2832 34.5371 78.529 34.5371 79.8278V323.572C34.5371 324.871 35.0525 326.117 35.97 327.036C36.8876 327.955 38.1324 328.473 39.4312 328.475H212.826C214.126 328.473 215.371 327.955 216.29 327.036C217.209 326.117 217.727 324.872 217.729 323.572V79.8278C217.727 78.5281 217.209 77.2824 216.29 76.3634C215.371 75.4444 214.126 74.9271 212.826 74.9247H39.4312Z" fill="#E0E0E0"/>
<path d="M407.072 328.699H233.669C232.309 328.697 231.007 328.156 230.045 327.195C229.084 326.234 228.543 324.931 228.541 323.572V79.8278C228.555 78.4764 229.101 77.1851 230.061 76.2336C231.021 75.2822 232.317 74.7474 233.669 74.7451H407.072C408.421 74.7498 409.714 75.2859 410.671 76.2373C411.627 77.1888 412.17 78.4788 412.182 79.8278V323.572C412.182 324.929 411.644 326.23 410.687 327.191C409.729 328.152 408.429 328.695 407.072 328.699ZM233.669 74.9247C232.369 74.9271 231.123 75.4444 230.204 76.3634C229.285 77.2824 228.768 78.5281 228.766 79.8278V323.572C228.768 324.872 229.285 326.117 230.204 327.036C231.123 327.955 232.369 328.473 233.669 328.475H407.072C408.372 328.473 409.618 327.955 410.537 327.036C411.456 326.117 411.973 324.872 411.975 323.572V79.8278C411.973 78.5281 411.456 77.2824 410.537 76.3634C409.618 75.4444 408.372 74.9271 407.072 74.9247H233.669Z" fill="#E0E0E0"/>
<path d="M338.887 293.345C338.483 293.345 338.07 293.345 337.657 293.39C328.973 294.001 321.96 301.355 321.403 310.398C321.279 312.397 321.47 314.403 321.969 316.343C323.881 324.119 324.804 332.106 324.717 340.113V363.461C324.708 363.855 324.778 364.247 324.921 364.614C325.064 364.981 325.278 365.316 325.551 365.6C325.823 365.885 326.149 366.113 326.51 366.271C326.871 366.429 327.259 366.515 327.653 366.523H385.628V293.345H338.887Z" fill="#E6E6E6"/>
<path d="M403.148 311.593C403.148 301.086 394.626 292.663 384.398 293.39C375.714 294.001 368.701 301.355 368.144 310.398C368.02 312.397 368.211 314.403 368.71 316.343C370.626 324.118 371.549 332.105 371.458 340.113V363.461C371.449 363.855 371.519 364.247 371.662 364.614C371.805 364.981 372.019 365.316 372.291 365.6C372.564 365.885 372.89 366.113 373.251 366.271C373.612 366.429 374 366.515 374.394 366.523H396.844C397.238 366.515 397.626 366.429 397.987 366.271C398.348 366.113 398.674 365.885 398.947 365.6C399.219 365.316 399.433 364.981 399.576 364.614C399.72 364.247 399.789 363.855 399.781 363.461V338.757C399.712 331.245 400.617 323.756 402.475 316.478C402.911 314.886 403.137 313.243 403.148 311.593Z" fill="#F0F0F0"/>
<path d="M361.49 322.09H300.309V366.523H361.49V322.09Z" fill="#E6E6E6"/>
<path d="M261.076 268.866H329.952C333.541 268.866 336.983 270.292 339.521 272.829C342.059 275.367 343.485 278.809 343.485 282.399V332.139H247.543V282.399C247.543 278.809 248.969 275.367 251.506 272.829C254.044 270.292 257.486 268.866 261.076 268.866Z" fill="#E0E0E0"/>
<path d="M277.114 268.866H334.137C337.552 268.866 340.828 270.222 343.242 272.637C345.657 275.052 347.014 278.328 347.014 281.743V332.13H264.237V281.752C264.235 280.06 264.568 278.385 265.214 276.821C265.861 275.258 266.809 273.837 268.005 272.641C269.201 271.444 270.621 270.495 272.184 269.847C273.747 269.199 275.422 268.866 277.114 268.866Z" fill="#F0F0F0"/>
<path d="M304.53 317.466H360.529C361.587 317.466 362.601 317.886 363.348 318.633C364.096 319.381 364.516 320.395 364.516 321.453V332.139C364.516 333.196 364.096 334.21 363.348 334.958C362.601 335.706 361.587 336.126 360.529 336.126H304.53C304.213 336.126 303.909 336 303.685 335.776C303.461 335.552 303.335 335.248 303.335 334.932V318.66C303.335 318.343 303.461 318.039 303.685 317.815C303.909 317.591 304.213 317.466 304.53 317.466Z" fill="#E0E0E0"/>
<path d="M240.359 366.523H386.508V366.595C386.503 367.167 386.274 367.714 385.869 368.117C385.463 368.52 384.916 368.748 384.344 368.75H242.541C241.964 368.75 241.412 368.521 241.004 368.114C240.597 367.706 240.368 367.154 240.368 366.577V366.532L240.359 366.523Z" fill="#E0E0E0"/>
<path d="M224.877 343.211V351.967" stroke="#50F7BB" stroke-width="0.813546" stroke-miterlimit="10"/>
<path d="M224.877 355.334V358.45" stroke="#50F7BB" stroke-width="0.813546" stroke-miterlimit="10"/>
<path d="M241.239 293.345C240.835 293.345 240.422 293.345 240.008 293.39C231.334 294.001 224.311 301.355 223.764 310.398C223.632 312.397 223.82 314.404 224.32 316.343C226.237 324.118 227.16 332.105 227.068 340.113V363.461C227.06 363.856 227.13 364.248 227.273 364.616C227.417 364.983 227.632 365.319 227.905 365.604C228.179 365.888 228.506 366.116 228.868 366.274C229.23 366.431 229.619 366.516 230.014 366.523H301.144V293.345H241.239Z" fill="#E6E6E6"/>
<path d="M318.664 311.593C318.664 301.086 310.142 292.663 299.914 293.39C291.23 294.001 284.208 301.355 283.66 310.398C283.536 312.397 283.727 314.403 284.226 316.343C286.135 324.12 287.055 332.106 286.965 340.113V363.461C286.957 363.856 287.026 364.248 287.17 364.616C287.313 364.983 287.528 365.319 287.802 365.604C288.076 365.888 288.403 366.116 288.764 366.274C289.126 366.431 289.516 366.516 289.91 366.523H312.36C312.755 366.516 313.144 366.431 313.506 366.274C313.868 366.116 314.195 365.888 314.469 365.604C314.742 365.319 314.957 364.983 315.101 364.616C315.244 364.248 315.314 363.856 315.306 363.461V338.757C315.233 331.245 316.138 323.756 318 316.478C318.433 314.885 318.656 313.243 318.664 311.593Z" fill="#F0F0F0"/>
<path d="M155.677 271.012H142.953V310.623H155.677V271.012Z" fill="#E0E0E0"/>
<path d="M190.169 310.623H147.946L141.57 264.259H183.794L190.169 310.623Z" fill="#E6E6E6"/>
<path d="M194.74 310.623H151.124L144.749 264.259H188.365L194.74 310.623Z" fill="#F0F0F0"/>
<path d="M154.276 306.968L148.906 267.914H185.213L190.583 306.968H154.276Z" fill="#FAFAFA"/>
<path d="M161.775 297.503L159.009 277.379H177.714L180.48 297.503H161.775Z" fill="#F0F0F0"/>
<path d="M115.716 281.115H106.242V310.623H115.716V281.115Z" fill="#E0E0E0"/>
<path d="M135.481 310.623H109.96L105.219 276.086H130.731L135.481 310.623Z" fill="#E6E6E6"/>
<path d="M138.885 310.623H112.331L107.589 276.086H134.134L138.885 310.623Z" fill="#F0F0F0"/>
<path d="M114.684 307.902L110.678 278.807H131.79L135.796 307.902H114.684Z" fill="#FAFAFA"/>
<path d="M119.946 298.527L118.626 288.9C118.576 288.518 118.608 288.13 118.721 287.761C118.834 287.393 119.024 287.053 119.279 286.764C119.535 286.476 119.849 286.245 120.201 286.089C120.553 285.932 120.935 285.853 121.32 285.856H123.906C124.552 285.86 125.175 286.097 125.661 286.522C126.147 286.947 126.465 287.533 126.555 288.173L127.884 297.799C127.934 298.181 127.902 298.57 127.789 298.938C127.676 299.306 127.486 299.646 127.23 299.935C126.975 300.223 126.661 300.454 126.309 300.611C125.957 300.767 125.575 300.847 125.19 300.843H122.604C121.956 300.841 121.331 300.606 120.843 300.18C120.355 299.755 120.036 299.168 119.946 298.527Z" fill="#F0F0F0"/>
<path d="M176.286 93.2169H64.6201V228.716H176.286V93.2169Z" fill="#E0E0E0"/>
<path d="M181.181 93.2169H66.91V228.716H181.181V93.2169Z" fill="#E6E6E6"/>
<path d="M176.286 228.716H64.6201V237.795H176.286V228.716Z" fill="#E0E0E0"/>
<path d="M189.316 228.716H75.0459V237.795H189.316V228.716Z" fill="#E6E6E6"/>
<path d="M174.338 221.873V100.06H73.7438L73.7438 221.873H174.338Z" fill="#F0F0F0"/>
<path d="M86.8994 221.873L127.049 100.06H145.997L105.847 221.873H86.8994Z" fill="#FAFAFA"/>
<path d="M109.924 221.873L150.074 100.06H157.455L117.306 221.873H109.924Z" fill="#FAFAFA"/>
<path d="M174.347 221.873V100.06H173.476V221.873H174.347Z" fill="#E0E0E0"/>
<path d="M379.243 93.2169H267.577V228.716H379.243V93.2169Z" fill="#E0E0E0"/>
<path d="M384.129 93.2169H269.858V228.716H384.129V93.2169Z" fill="#E6E6E6"/>
<path d="M379.243 228.716H267.577V237.795H379.243V228.716Z" fill="#E0E0E0"/>
<path d="M392.273 228.716H278.003V237.795H392.273V228.716Z" fill="#E6E6E6"/>
<path d="M377.295 221.873V100.06H276.701V221.873H377.295Z" fill="#F0F0F0"/>
<path d="M289.847 221.873L329.997 100.06H348.954L308.804 221.873H289.847Z" fill="#FAFAFA"/>
<path d="M312.872 221.873L353.022 100.06H360.412L320.263 221.873H312.872Z" fill="#FAFAFA"/>
<path d="M377.295 221.873V100.06H376.424V221.873H377.295Z" fill="#E0E0E0"/>
<path d="M237.189 310.623H196.922V370.385H237.189V310.623Z" fill="#E0E0E0"/>
<path d="M233.139 370.376H237.189V358.854H228.891L233.139 370.376Z" fill="#F0F0F0"/>
<path d="M92.5389 310.623H52.2726V370.385H92.5389V310.623Z" fill="#E0E0E0"/>
<path d="M237.189 310.623H89.0007V363.308H237.189V310.623Z" fill="#F0F0F0"/>
<path d="M93.0507 370.376H89.0007V358.854H97.2983L93.0507 370.376Z" fill="#F0F0F0"/>
<path d="M234.046 313.918H92.1438V335.183H234.046V313.918Z" fill="#E0E0E0"/>
<path d="M170.44 320.519H155.749C152.594 320.518 149.471 319.875 146.572 318.629C143.673 317.383 141.057 315.561 138.885 313.272H187.296C185.126 315.561 182.512 317.385 179.614 318.63C176.716 319.876 173.595 320.519 170.44 320.519Z" fill="#F0F0F0"/>
<path d="M234.046 338.613H92.1438V359.878H234.046V338.613Z" fill="#E0E0E0"/>
<path d="M170.44 345.223H155.749C152.593 345.22 149.47 344.576 146.571 343.328C143.672 342.081 141.057 340.257 138.885 337.967H187.296C185.126 340.257 182.513 342.082 179.615 343.33C176.717 344.577 173.595 345.221 170.44 345.223Z" fill="#F0F0F0"/>
<path d="M120.503 220.239C124.232 220.239 127.256 217.216 127.256 213.486C127.256 209.756 124.232 206.733 120.503 206.733C116.773 206.733 113.75 209.756 113.75 213.486C113.75 217.216 116.773 220.239 120.503 220.239Z" fill="#E6E6E6"/>
<path d="M110.463 221.981C113.379 221.981 115.743 219.617 115.743 216.701C115.743 213.785 113.379 211.421 110.463 211.421C107.547 211.421 105.183 213.785 105.183 216.701C105.183 219.617 107.547 221.981 110.463 221.981Z" fill="#E6E6E6"/>
<path d="M132.06 223.454C135.789 223.454 138.813 220.431 138.813 216.701C138.813 212.971 135.789 209.948 132.06 209.948C128.33 209.948 125.307 212.971 125.307 216.701C125.307 220.431 128.33 223.454 132.06 223.454Z" fill="#E6E6E6"/>
<path d="M143.132 221.469C146.862 221.469 149.885 218.446 149.885 214.716C149.885 210.987 146.862 207.963 143.132 207.963C139.403 207.963 136.379 210.987 136.379 214.716C136.379 218.446 139.403 221.469 143.132 221.469Z" fill="#E6E6E6"/>
<path d="M94.8647 215.605C94.8647 215.605 95.7628 228.77 131.324 228.77C166.884 228.77 167.791 215.605 167.791 215.605H94.8647Z" fill="#E0E0E0"/>
<path d="M344.096 211.421C344.096 211.421 344.437 228.77 357.269 228.77C370.102 228.77 370.434 211.421 370.434 211.421H344.096Z" fill="#E0E0E0"/>
<path d="M318.17 215.453C318.17 215.453 318.422 228.77 328.282 228.77C338.142 228.77 338.393 215.453 338.393 215.453H318.17Z" fill="#E0E0E0"/>
<path d="M224.5 409.304C320.66 409.304 398.613 404.753 398.613 399.139C398.613 393.524 320.66 388.973 224.5 388.973C128.34 388.973 50.3867 393.524 50.3867 399.139C50.3867 404.753 128.34 409.304 224.5 409.304Z" fill="#F5F5F5"/>
<path d="M151.493 387.519L157.68 385.372L154.366 370.484L148.179 372.63L151.493 387.519Z" fill="#F9B9A8"/>
<path d="M92.045 391.03H98.5915L103.683 375.872H97.1457L92.045 391.03Z" fill="#F9B9A8"/>
<path d="M99.4625 390.266H91.4882C91.3579 390.266 91.2313 390.31 91.1299 390.392C91.0284 390.474 90.9584 390.588 90.9315 390.715L89.6383 396.535C89.6087 396.675 89.6112 396.821 89.6454 396.961C89.6797 397.101 89.7449 397.231 89.8363 397.342C89.9277 397.453 90.0428 397.543 90.1733 397.603C90.3038 397.664 90.4463 397.695 90.5902 397.693C93.1585 397.648 95.0802 397.504 98.2681 397.504C100.253 397.504 106.251 397.711 108.999 397.711C111.747 397.711 112.106 395.017 110.975 394.748C105.937 393.643 102.139 392.125 100.522 390.671C100.231 390.409 99.8537 390.265 99.4625 390.266Z" fill="#263238"/>
<path d="M157.383 384.672L150.63 387.007C150.509 387.052 150.405 387.137 150.337 387.247C150.269 387.358 150.239 387.488 150.253 387.617L150.936 393.535C150.952 393.678 151 393.815 151.076 393.937C151.153 394.058 151.256 394.161 151.378 394.237C151.5 394.313 151.637 394.36 151.78 394.376C151.922 394.391 152.067 394.374 152.202 394.326C154.627 393.428 158.093 392.081 161.182 391.021C164.774 389.782 167.926 388.911 172.12 387.429C174.661 386.531 174.472 383.738 173.332 383.837C168.133 384.457 164.136 385.705 159.072 384.573C158.51 384.452 157.927 384.486 157.383 384.672Z" fill="#263238"/>
<path d="M131.216 191.117C131.584 192.123 132.051 193.29 132.482 194.377C132.913 195.463 133.38 196.586 133.874 197.673C134.844 199.855 135.831 202.019 136.909 204.111C138.851 208.17 141.347 211.938 144.327 215.309C144.686 215.668 145.036 216.028 145.404 216.333C145.566 216.468 145.79 216.683 145.907 216.764C146.024 216.845 146.158 216.962 146.284 217.051C146.731 217.363 147.245 217.566 147.784 217.644C149.449 217.676 151.083 217.193 152.462 216.261C154.361 215.106 156.129 213.748 157.734 212.211C158.578 211.403 159.431 210.586 160.248 209.724C161.065 208.862 161.873 207.928 162.601 207.102L166.777 209.697C166.185 210.897 165.532 212.066 164.819 213.199C164.118 214.321 163.391 215.444 162.574 216.504C160.927 218.761 158.988 220.79 156.809 222.538C155.585 223.503 154.249 224.317 152.831 224.963C151.19 225.708 149.415 226.112 147.613 226.148C145.646 226.179 143.703 225.713 141.965 224.792C141.552 224.568 141.139 224.325 140.762 224.074C140.384 223.822 140.115 223.607 139.783 223.364C139.154 222.906 138.588 222.412 138.032 221.919C135.955 220.003 134.089 217.872 132.464 215.561C130.908 213.378 129.484 211.105 128.198 208.754C126.932 206.437 125.765 204.093 124.723 201.696C124.202 200.501 123.691 199.298 123.215 198.104C122.739 196.909 122.317 195.706 121.832 194.35L131.216 191.117Z" fill="#F9B9A8"/>
<path d="M119.174 191.117C117.773 197.215 131.144 212.804 131.144 212.804L143.168 204.057C140.5 199.007 137.3 194.257 133.622 189.887C128.118 183.628 120.718 184.427 119.174 191.117Z" fill="#50F7BB"/>
<path opacity="0.5" d="M119.174 191.117C117.773 197.215 131.144 212.804 131.144 212.804L143.168 204.057C140.5 199.007 137.3 194.257 133.622 189.887C128.118 183.628 120.718 184.427 119.174 191.117Z" fill="black"/>
<path d="M162.61 209.697L159.97 203.052L168.321 202.764C168.866 203.991 169.003 205.359 168.714 206.67C168.425 207.98 167.724 209.164 166.714 210.047L162.61 209.697Z" fill="#F9B9A8"/>
<path d="M159.063 198.579L165.609 199.846L168.321 202.764L159.97 203.051L159.063 198.579Z" fill="#F9B9A8"/>
<path d="M154.366 370.493L156.072 378.162L149.885 380.308L148.179 372.63L154.366 370.493Z" fill="#F9B9A8"/>
<path d="M97.1367 375.881H103.683L101.052 383.693H94.5145L97.1367 375.881Z" fill="#F9B9A8"/>
<path d="M134.215 241.639L99.5343 246.308C98.5824 241.019 98.4208 214.6 89.9077 190.21C89.9077 190.21 93.9397 188.809 98.5555 187.75C99.4535 187.543 100.351 187.345 101.321 187.175C106.194 186.233 111.117 185.574 116.066 185.199C116.677 185.199 117.279 185.154 117.862 185.154C120.672 185.146 123.479 185.311 126.268 185.648C126.268 185.648 136.568 204.192 134.215 241.639Z" fill="#50F7BB"/>
<path opacity="0.5" d="M134.215 241.639L99.5343 246.308C98.5824 241.019 98.4208 214.6 89.9077 190.21C89.9077 190.21 93.9397 188.809 98.5555 187.75C99.4535 187.543 100.351 187.345 101.321 187.175C106.194 186.233 111.117 185.574 116.066 185.199C116.677 185.199 117.279 185.154 117.862 185.154C120.672 185.146 123.479 185.311 126.268 185.648C126.268 185.648 136.568 204.192 134.215 241.639Z" fill="black"/>
<path d="M117.907 195.499L117.288 197.834L115.231 196.568C111.469 194.26 105.775 190.776 100.684 188.854L98.3759 187.956L98.5555 187.723C99.4535 187.516 100.351 187.319 101.321 187.148C106.195 186.215 111.118 185.565 116.066 185.199C116.677 185.199 117.279 185.154 117.862 185.154C118.32 188.064 118.769 192.213 117.907 195.499Z" fill="#FAFAFA"/>
<path d="M100.576 170.373C102.148 174.998 104.249 183.565 101.357 187.175C106.458 189.097 112.026 192.482 116.201 195.041C117.018 191.943 116.516 187.857 116.093 185.163C110.634 184.616 110.248 180.673 110.705 176.857L100.576 170.373Z" fill="#F9B9A8"/>
<path d="M104.653 173.031L110.634 176.884C110.517 177.777 110.48 178.678 110.526 179.578C108.469 179.578 105.389 177.71 104.895 175.627C104.66 174.783 104.578 173.904 104.653 173.031Z" fill="#F9B9A8"/>
<path d="M112.546 151.839C117.62 151.425 119.371 163.629 116.21 165.973C113.049 168.317 103.063 152.611 112.546 151.839Z" fill="#263238"/>
<path d="M99.0136 163.315C100.28 169.682 100.693 173.48 104.402 176.336C109.951 180.637 117.485 176.632 118.15 170.05C118.752 164.087 116.596 154.676 109.96 152.988C108.504 152.604 106.974 152.598 105.514 152.969C104.055 153.341 102.714 154.078 101.619 155.111C100.523 156.145 99.7094 157.44 99.2535 158.876C98.7977 160.311 98.7151 161.839 99.0136 163.315Z" fill="#F9B9A8"/>
<path d="M100.316 169.547C103.45 171.505 106.476 154.111 97.7652 154.515C87.1059 155.018 93.6434 165.443 100.316 169.547Z" fill="#263238"/>
<path d="M99.9384 156.167C105.587 155.116 109.412 157.792 112.771 155.907C116.363 153.859 117.081 152.126 121.984 152.719C129.545 153.617 133.317 144.547 121.086 143.056C121.086 143.056 133.272 152.629 114.603 148.283C101.833 145.31 84.0708 142.131 96.9211 157.846L99.9384 156.167Z" fill="#263238"/>
<path d="M96.7146 157.029C96.7146 157.029 95.2239 150.833 87.519 152.62C91.5241 153.455 94.29 154.739 96.7146 157.029Z" fill="#263238"/>
<path d="M97.0648 170.831C98.1154 172.081 99.6151 172.868 101.241 173.022C103.405 173.193 104.069 171.172 103.135 169.35C102.282 167.706 100.145 165.641 98.1424 166.314C97.7088 166.47 97.3209 166.732 97.0136 167.075C96.7063 167.419 96.4894 167.833 96.3825 168.281C96.2756 168.73 96.282 169.197 96.4011 169.643C96.5202 170.088 96.7483 170.496 97.0648 170.831Z" fill="#F9B9A8"/>
<path d="M157.895 375.934L147.425 379.526C147.425 379.526 137.17 339.116 133.955 318.974C132.472 310.986 130.535 303.089 128.154 295.321C124.822 283.916 120.772 271.614 117.485 261.987C114.019 251.849 111.415 244.683 111.415 244.683L134.215 241.612C134.215 241.612 151.582 294.863 153.54 314.736C155.579 335.426 157.895 375.934 157.895 375.934Z" fill="#50F7BB"/>
<path opacity="0.3" d="M157.895 375.934L147.425 379.526C147.425 379.526 137.17 339.116 133.955 318.974C132.472 310.986 130.535 303.089 128.154 295.321C124.822 283.916 120.772 271.614 117.485 261.987C114.019 251.849 111.415 244.683 111.415 244.683L134.215 241.612C134.215 241.612 151.582 294.863 153.54 314.736C155.579 335.426 157.895 375.934 157.895 375.934Z" fill="black"/>
<path d="M128.154 295.348C124.822 283.943 120.772 271.641 117.485 262.014L119.533 256.743C125.648 263.128 128.522 283.925 128.154 295.348Z" fill="#50F7BB"/>
<path opacity="0.4" d="M128.154 295.348C124.822 283.943 120.772 271.641 117.485 262.014L119.533 256.743C125.648 263.128 128.522 283.925 128.154 295.348Z" fill="black"/>
<path d="M121.912 243.3C121.912 243.3 123.044 299.353 121.499 318.462C119.82 339.386 104.132 382.22 104.132 382.22H92.1527C92.1527 382.22 100.145 343.059 102.596 322.737C105.389 299.587 99.5343 246.353 99.5343 246.353L121.912 243.3Z" fill="#50F7BB"/>
<path opacity="0.3" d="M121.912 243.3C121.912 243.3 123.044 299.353 121.499 318.462C119.82 339.386 104.132 382.22 104.132 382.22H92.1527C92.1527 382.22 100.145 343.059 102.596 322.737C105.389 299.587 99.5343 246.353 99.5343 246.353L121.912 243.3Z" fill="black"/>
<path d="M105.569 382.436H91.4613V378.215L107.23 377.946L105.569 382.436Z" fill="#263238"/>
<path d="M159.296 375.719L146.823 380.038L145.422 376.015L159.296 370.969V375.719Z" fill="#263238"/>
<path d="M109.738 164.662C110.082 164.615 110.304 164.156 110.234 163.635C110.164 163.114 109.828 162.729 109.484 162.775C109.14 162.821 108.918 163.281 108.988 163.802C109.058 164.323 109.394 164.708 109.738 164.662Z" fill="#263238"/>
<path d="M114.944 163.001C115.016 163.522 115.357 163.899 115.698 163.899C116.039 163.899 116.255 163.396 116.183 162.866C116.111 162.336 115.779 161.968 115.438 161.968C115.097 161.968 114.845 162.48 114.944 163.001Z" fill="#263238"/>
<path d="M113.067 163.513C113.908 165.026 114.95 166.419 116.165 167.652C115.843 167.955 115.458 168.184 115.037 168.322C114.617 168.46 114.171 168.504 113.732 168.452L113.067 163.513Z" fill="#F9B9A8"/>
<path d="M108.658 168.739C109.141 169.222 109.731 169.583 110.38 169.794C111.029 170.005 111.719 170.059 112.394 169.951" stroke="#263238" stroke-width="0.345127" stroke-linecap="round" stroke-linejoin="round"/>
<path d="M108.999 160.379C108.563 160.437 108.147 160.598 107.786 160.85C107.426 161.101 107.13 161.435 106.925 161.824" stroke="#263238" stroke-width="0.690253" stroke-linecap="round" stroke-linejoin="round"/>
<path d="M115.007 159.023C115.447 159.048 115.875 159.179 116.255 159.404C116.634 159.629 116.955 159.942 117.189 160.316" stroke="#263238" stroke-width="0.690253" stroke-linecap="round" stroke-linejoin="round"/>
<path d="M99.9474 391.03C99.9474 391.03 102.983 389.135 103.054 390.266C103.135 391.613 100.989 391.272 99.9474 391.03Z" stroke="#50F7BB" stroke-width="0.345127" stroke-linecap="round" stroke-linejoin="round"/>
<path d="M99.9474 391.03C99.9474 391.03 100.172 388.237 101.357 388.381C102.543 388.524 100.8 390.563 99.9474 391.03Z" stroke="#50F7BB" stroke-width="0.345127" stroke-linecap="round" stroke-linejoin="round"/>
<path d="M158.291 385.166C158.291 385.166 161.137 382.175 161.586 383.217C162.125 384.456 159.557 384.986 158.291 385.166Z" stroke="#50F7BB" stroke-width="0.345127" stroke-linecap="round" stroke-linejoin="round"/>
<path d="M158.291 385.166C158.291 385.166 157.626 382.472 159.036 382.104C160.446 381.736 159.108 384.394 158.291 385.166Z" stroke="#50F7BB" stroke-width="0.345127" stroke-linecap="round" stroke-linejoin="round"/>
<path d="M145.449 398.232H221.321C227.481 398.232 232.474 393.238 232.474 387.079L232.474 215.354C232.474 209.194 227.481 204.201 221.321 204.201H145.449C139.289 204.201 134.296 209.194 134.296 215.354L134.296 387.079C134.296 393.238 139.289 398.232 145.449 398.232Z" fill="#50F7BB"/>
<path opacity="0.3" d="M145.449 398.232H221.321C227.481 398.232 232.474 393.238 232.474 387.079L232.474 215.354C232.474 209.194 227.481 204.201 221.321 204.201H145.449C139.289 204.201 134.296 209.194 134.296 215.354L134.296 387.079C134.296 393.238 139.289 398.232 145.449 398.232Z" fill="black"/>
<path d="M129.231 215.354V387.088C129.231 390.044 130.405 392.88 132.495 394.971C134.584 397.062 137.419 398.238 140.375 398.241H216.256C219.214 398.241 222.051 397.066 224.143 394.974C226.234 392.882 227.41 390.046 227.41 387.088V215.354C227.407 212.398 226.231 209.563 224.14 207.473C222.048 205.384 219.213 204.21 216.256 204.21H140.375C137.42 204.21 134.585 205.384 132.495 207.474C130.405 209.564 129.231 212.398 129.231 215.354Z" fill="#50F7BB"/>
<path opacity="0.7" d="M129.231 215.354V387.088C129.231 390.044 130.405 392.88 132.495 394.971C134.584 397.062 137.419 398.238 140.375 398.241H216.256C219.214 398.241 222.051 397.066 224.143 394.974C226.234 392.882 227.41 390.046 227.41 387.088V215.354C227.407 212.398 226.231 209.563 224.14 207.473C222.048 205.384 219.213 204.21 216.256 204.21H140.375C137.42 204.21 134.585 205.384 132.495 207.474C130.405 209.564 129.231 212.398 129.231 215.354Z" fill="#FAFAFA"/>
<path d="M201.287 264.331H155.354C149.695 264.331 145.108 268.918 145.108 274.577V324.928C145.108 330.587 149.695 335.174 155.354 335.174H201.287C206.945 335.174 211.533 330.587 211.533 324.928V274.577C211.533 268.918 206.945 264.331 201.287 264.331Z" fill="#FAFAFA"/>
<path d="M129.231 215.354V225.609H227.41V215.354C227.407 212.398 226.231 209.563 224.14 207.473C222.048 205.384 219.213 204.21 216.256 204.21H140.375C138.912 204.21 137.463 204.498 136.111 205.058C134.759 205.618 133.53 206.439 132.495 207.474C131.46 208.509 130.64 209.737 130.08 211.089C129.519 212.441 129.231 213.891 129.231 215.354Z" fill="#50F7BB"/>
<path opacity="0.4" d="M129.231 215.354V225.609H227.41V215.354C227.407 212.398 226.231 209.563 224.14 207.473C222.048 205.384 219.213 204.21 216.256 204.21H140.375C138.912 204.21 137.463 204.498 136.111 205.058C134.759 205.618 133.53 206.439 132.495 207.474C131.46 208.509 130.64 209.737 130.08 211.089C129.519 212.441 129.231 213.891 129.231 215.354Z" fill="#FAFAFA"/>
<path d="M178.325 392.925C181.697 392.925 184.431 390.191 184.431 386.818C184.431 383.446 181.697 380.712 178.325 380.712C174.952 380.712 172.219 383.446 172.219 386.818C172.219 390.191 174.952 392.925 178.325 392.925Z" fill="#50F7BB"/>
<path opacity="0.4" d="M178.325 392.925C181.697 392.925 184.431 390.191 184.431 386.818C184.431 383.446 181.697 380.712 178.325 380.712C174.952 380.712 172.219 383.446 172.219 386.818C172.219 390.191 174.952 392.925 178.325 392.925Z" fill="#FAFAFA"/>
<path d="M167.495 214.914C167.495 215.28 167.603 215.638 167.807 215.942C168.01 216.246 168.299 216.483 168.637 216.623C168.975 216.763 169.347 216.8 169.706 216.728C170.065 216.657 170.394 216.481 170.653 216.222C170.912 215.963 171.088 215.634 171.159 215.275C171.23 214.916 171.194 214.544 171.054 214.206C170.914 213.868 170.677 213.579 170.373 213.376C170.068 213.173 169.711 213.064 169.345 213.064C169.102 213.063 168.86 213.11 168.635 213.203C168.41 213.295 168.206 213.431 168.034 213.603C167.862 213.775 167.726 213.98 167.633 214.205C167.541 214.43 167.494 214.671 167.495 214.914Z" fill="#FAFAFA"/>
<path d="M176.197 215.731H188.329C188.545 215.731 188.753 215.645 188.906 215.492C189.06 215.339 189.146 215.131 189.146 214.914C189.146 214.696 189.06 214.488 188.907 214.333C188.754 214.178 188.546 214.09 188.329 214.088H176.197C175.979 214.09 175.771 214.178 175.618 214.333C175.465 214.488 175.379 214.696 175.379 214.914C175.379 215.131 175.465 215.339 175.619 215.492C175.772 215.645 175.98 215.731 176.197 215.731Z" fill="#FAFAFA"/>
<path d="M96.1489 196.873C96.4363 198.966 96.7416 201.282 97.1277 203.483C97.5139 205.683 97.9269 207.91 98.3939 210.101C98.8609 212.292 99.3997 214.438 100.01 216.539L100.486 218.102L100.998 219.629C101.169 220.149 101.366 220.634 101.555 221.128L101.842 221.865L101.914 222.053C101.914 222.134 101.914 222.053 101.914 222.053C102.26 222.6 102.705 223.078 103.225 223.463C103.993 224.084 104.804 224.651 105.65 225.16C107.529 226.303 109.468 227.343 111.46 228.276C115.528 230.216 119.838 232.048 124.104 233.754L122.855 238.505C118.064 237.764 113.338 236.65 108.721 235.173C106.324 234.415 103.981 233.497 101.708 232.425C100.466 231.838 99.2654 231.165 98.1155 230.414C96.6702 229.49 95.412 228.301 94.4068 226.911C94.247 226.674 94.1001 226.428 93.9668 226.175L93.7782 225.825L93.6704 225.6L93.2394 224.702C92.961 224.119 92.6647 223.535 92.4222 222.906L91.6679 221.11L91.0034 219.314C90.1592 216.944 89.4049 214.573 88.8033 212.184C88.2016 209.795 87.6628 207.398 87.2318 205C87.0252 203.797 86.8366 202.585 86.666 201.408C86.4954 200.232 86.3517 199.01 86.235 197.681L96.1489 196.873Z" fill="#F9B9A8"/>
<path d="M85.0765 193.919C81.4217 198.993 86.0913 213.037 86.0913 213.037L102.812 216.459C102.812 216.459 101.42 204.857 98.8788 197.179C96.086 188.836 89.5126 187.768 85.0765 193.919Z" fill="#50F7BB"/>
<path opacity="0.5" d="M85.0765 193.919C81.4217 198.993 86.0913 213.037 86.0913 213.037L102.812 216.459C102.812 216.459 101.42 204.857 98.8788 197.179C96.086 188.836 89.5126 187.768 85.0765 193.919Z" fill="black"/>
<path d="M122.379 233.808L128.791 232.084L127.408 240.319C127.408 240.319 121.616 240.579 121.122 237.526L122.379 233.808Z" fill="#F9B9A8"/>
<path d="M133.838 234.176L132.374 240.938L127.408 240.319L128.8 232.084L133.838 234.176Z" fill="#F9B9A8"/>
<g style="mix-blend-mode:multiply">
<path d="M277.141 188.136L372.158 150.824C372.909 150.527 373.594 150.086 374.174 149.525C374.755 148.964 375.218 148.294 375.54 147.553C375.861 146.813 376.033 146.016 376.046 145.209C376.059 144.402 375.912 143.6 375.615 142.849L348.307 73.9189C348.066 73.3072 347.707 72.7489 347.251 72.2761C346.794 71.8032 346.248 71.425 345.645 71.1631C345.042 70.9013 344.394 70.7608 343.736 70.7498C343.079 70.7389 342.426 70.8576 341.815 71.0992L321.268 79.2351L277.338 96.6473L244.804 109.534C244.193 109.775 243.636 110.135 243.164 110.592C242.692 111.049 242.316 111.595 242.055 112.198C241.795 112.802 241.656 113.45 241.647 114.107C241.638 114.764 241.759 115.416 242.002 116.026L262.216 167.14L269.157 184.687C269.454 185.439 269.895 186.125 270.457 186.706C271.019 187.286 271.69 187.75 272.432 188.071C273.174 188.391 273.972 188.562 274.78 188.573C275.588 188.584 276.39 188.435 277.141 188.136Z" fill="#50F7BB"/>
</g>
<path opacity="0.6" d="M277.141 188.136L372.158 150.824C372.909 150.527 373.594 150.086 374.174 149.525C374.755 148.964 375.218 148.294 375.54 147.553C375.861 146.813 376.033 146.016 376.046 145.209C376.059 144.402 375.912 143.6 375.615 142.849L348.307 73.9189C348.066 73.3072 347.707 72.7489 347.251 72.2761C346.794 71.8032 346.248 71.425 345.645 71.1631C345.042 70.9013 344.394 70.7608 343.736 70.7498C343.079 70.7389 342.426 70.8576 341.815 71.0992L321.268 79.2351L277.338 96.6473L244.804 109.534C244.193 109.775 243.636 110.135 243.164 110.592C242.692 111.049 242.316 111.595 242.055 112.198C241.795 112.802 241.656 113.45 241.647 114.107C241.638 114.764 241.759 115.416 242.002 116.026L262.216 167.14L269.157 184.687C269.454 185.439 269.895 186.125 270.457 186.706C271.019 187.286 271.69 187.75 272.432 188.071C273.174 188.391 273.972 188.562 274.78 188.573C275.588 188.584 276.39 188.435 277.141 188.136Z" fill="#FAFAFA"/>
<path d="M364.678 136.572C364.981 137.319 365.134 138.118 365.129 138.923C365.123 139.729 364.959 140.526 364.645 141.268C364.332 142.01 363.875 142.683 363.301 143.249C362.727 143.815 362.048 144.262 361.301 144.565L342.039 152.386L266.706 182.972C265.959 183.275 265.161 183.429 264.355 183.423C263.549 183.417 262.752 183.253 262.01 182.94C261.268 182.626 260.595 182.169 260.029 181.596C259.464 181.022 259.017 180.342 258.714 179.596L249.563 157.056L228.909 106.112C228.662 105.503 228.538 104.85 228.544 104.193C228.55 103.535 228.686 102.885 228.944 102.28C229.202 101.675 229.576 101.127 230.047 100.668C230.517 100.208 231.073 99.8458 231.684 99.6017L264.066 86.4191L307.852 68.6387L328.327 60.3771C329.549 59.8736 330.921 59.8743 332.142 60.3791C333.364 60.8839 334.336 61.8517 334.846 63.0711L364.678 136.572Z" fill="#50F7BB"/>
<path opacity="0.9" d="M364.678 136.572C364.981 137.319 365.134 138.118 365.129 138.923C365.123 139.729 364.959 140.526 364.645 141.268C364.332 142.01 363.875 142.683 363.301 143.249C362.727 143.815 362.048 144.262 361.301 144.565L342.039 152.386L266.706 182.972C265.959 183.275 265.161 183.429 264.355 183.423C263.549 183.417 262.752 183.253 262.01 182.94C261.268 182.626 260.595 182.169 260.029 181.596C259.464 181.022 259.017 180.342 258.714 179.596L249.563 157.056L228.909 106.112C228.662 105.503 228.538 104.85 228.544 104.193C228.55 103.535 228.686 102.885 228.944 102.28C229.202 101.675 229.576 101.127 230.047 100.668C230.517 100.208 231.073 99.8458 231.684 99.6017L264.066 86.4191L307.852 68.6387L328.327 60.3771C329.549 59.8736 330.921 59.8743 332.142 60.3791C333.364 60.8839 334.336 61.8517 334.846 63.0711L364.678 136.572Z" fill="#FAFAFA"/>
<path d="M337.908 123.928C336.645 120.812 334.686 118.024 332.183 115.779C329.679 113.533 326.695 111.889 323.46 110.971C320.224 110.053 316.822 109.885 313.512 110.481C310.202 111.077 307.071 112.421 304.359 114.41L291.931 83.7969L240.61 104.639L261.444 155.96L297.292 141.404C299.638 146.747 304.001 150.945 309.429 153.085C314.858 155.224 320.913 155.131 326.273 152.824C331.633 150.518 335.864 146.186 338.044 140.774C340.223 135.361 340.175 129.306 337.908 123.928Z" fill="#50F7BB"/>
<path opacity="0.8" d="M337.908 123.928C336.645 120.812 334.686 118.024 332.183 115.779C329.679 113.533 326.695 111.889 323.46 110.971C320.224 110.053 316.822 109.885 313.512 110.481C310.202 111.077 307.071 112.421 304.359 114.41L291.931 83.7969L240.61 104.639L261.444 155.96L297.292 141.404C299.638 146.747 304.001 150.945 309.429 153.085C314.858 155.224 320.913 155.131 326.273 152.824C331.633 150.518 335.864 146.186 338.044 140.774C340.223 135.361 340.175 129.306 337.908 123.928Z" fill="#FAFAFA"/>
<path d="M330.347 140.12C323.526 138.806 316.627 137.936 309.693 137.515C304.781 132.828 305.113 121.351 306.317 112.748C306.37 112.744 306.425 112.744 306.478 112.748C309.283 112.103 311.72 110.377 313.258 107.944C313.869 107.016 314.165 105.916 314.102 104.806C314.039 103.697 313.62 102.637 312.908 101.784C315.521 96.3959 317.497 89.8944 317.353 86.4012C317.057 79.5853 313.662 80.9413 312.163 80.1152C317.479 80.187 315.045 74.1345 315.045 74.1345C314.915 75.2325 314.539 76.287 313.945 77.2198C313.351 78.1525 312.555 78.9396 311.615 79.5225C311.354 78.8939 311.417 77.7983 312.028 75.7958C312.872 73.021 310.896 70.4078 307.825 68.7195L264.066 86.4191C270.657 93.7827 263.401 94.3934 263.401 94.3934C263.401 94.3934 276.252 93.8456 271.483 86.6885C268.735 82.5847 272.022 84.0753 276.943 85.6109C274.743 89.5621 273.845 95.6865 275.461 99.9789C275.207 103.849 275.509 107.735 276.359 111.518C277.166 114.945 279.091 118.006 281.831 120.216C284.572 122.426 287.971 123.66 291.491 123.722C291.643 124.62 291.778 125.428 291.85 126.272C292.272 131.247 290.763 135.782 283.525 137.506C277.545 138.114 271.622 139.186 265.808 140.712C261.668 141.673 257.394 144.654 253.981 149.737C252.41 152.081 250.937 154.559 249.59 157.02L258.741 179.56C259.044 180.306 259.491 180.986 260.056 181.56C260.622 182.133 261.295 182.59 262.037 182.904C262.779 183.217 263.576 183.382 264.382 183.387C265.187 183.393 265.986 183.239 266.733 182.936L342.048 152.35C338.375 145.912 334.262 140.685 330.347 140.12Z" fill="#50F7BB"/>
<path opacity="0.7" d="M330.347 140.12C323.526 138.806 316.627 137.936 309.693 137.515C304.781 132.828 305.113 121.351 306.317 112.748C306.37 112.744 306.425 112.744 306.478 112.748C309.283 112.103 311.72 110.377 313.258 107.944C313.869 107.016 314.165 105.916 314.102 104.806C314.039 103.697 313.62 102.637 312.908 101.784C315.521 96.3959 317.497 89.8944 317.353 86.4012C317.057 79.5853 313.662 80.9413 312.163 80.1152C317.479 80.187 315.045 74.1345 315.045 74.1345C314.915 75.2325 314.539 76.287 313.945 77.2198C313.351 78.1525 312.555 78.9396 311.615 79.5225C311.354 78.8939 311.417 77.7983 312.028 75.7958C312.872 73.021 310.896 70.4078 307.825 68.7195L264.066 86.4191C270.657 93.7827 263.401 94.3934 263.401 94.3934C263.401 94.3934 276.252 93.8456 271.483 86.6885C268.735 82.5847 272.022 84.0753 276.943 85.6109C274.743 89.5621 273.845 95.6865 275.461 99.9789C275.207 103.849 275.509 107.735 276.359 111.518C277.166 114.945 279.091 118.006 281.831 120.216C284.572 122.426 287.971 123.66 291.491 123.722C291.643 124.62 291.778 125.428 291.85 126.272C292.272 131.247 290.763 135.782 283.525 137.506C277.545 138.114 271.622 139.186 265.808 140.712C261.668 141.673 257.394 144.654 253.981 149.737C252.41 152.081 250.937 154.559 249.59 157.02L258.741 179.56C259.044 180.306 259.491 180.986 260.056 181.56C260.622 182.133 261.295 182.59 262.037 182.904C262.779 183.217 263.576 183.382 264.382 183.387C265.187 183.393 265.986 183.239 266.733 182.936L342.048 152.35C338.375 145.912 334.262 140.685 330.347 140.12Z" fill="#FAFAFA"/>
<path d="M194.237 258.62L298.136 249.343C299.463 249.225 300.69 248.584 301.545 247.562C302.4 246.54 302.815 245.22 302.698 243.892L302.114 237.202L301.845 234.086L294.661 152.099C294.546 150.782 293.915 149.564 292.906 148.711C291.896 147.858 290.59 147.439 289.273 147.546L259.315 150.177H259.019L258.121 150.258L220.01 153.643L185.266 156.706C183.949 156.82 182.731 157.451 181.878 158.46C181.025 159.47 180.606 160.776 180.713 162.094L187.062 234.131L187.772 242.159L188.212 247.206L188.813 254.022C188.867 254.68 189.049 255.322 189.351 255.909C189.652 256.497 190.067 257.019 190.571 257.447C191.075 257.874 191.658 258.197 192.287 258.398C192.916 258.6 193.579 258.675 194.237 258.62Z" fill="#50F7BB"/>
<path opacity="0.6" d="M194.237 258.62L298.136 249.343C299.463 249.225 300.69 248.584 301.545 247.562C302.4 246.54 302.815 245.22 302.698 243.892L302.114 237.202L301.845 234.086L294.661 152.099C294.546 150.782 293.915 149.564 292.906 148.711C291.896 147.858 290.59 147.439 289.273 147.546L259.315 150.177H259.019L258.121 150.258L220.01 153.643L185.266 156.706C183.949 156.82 182.731 157.451 181.878 158.46C181.025 159.47 180.606 160.776 180.713 162.094L187.062 234.131L187.772 242.159L188.212 247.206L188.813 254.022C188.867 254.68 189.049 255.322 189.351 255.909C189.652 256.497 190.067 257.019 190.571 257.447C191.075 257.874 191.658 258.197 192.287 258.398C192.916 258.6 193.579 258.675 194.237 258.62Z" fill="#FAFAFA"/>
<path d="M307.385 238.935C307.463 239.858 307.172 240.773 306.576 241.482C305.98 242.19 305.128 242.634 304.206 242.716L283.624 244.512L268.304 245.823L223.602 249.631L198.727 251.768C198.069 251.824 197.407 251.751 196.777 251.551C196.147 251.352 195.563 251.03 195.058 250.605C194.552 250.18 194.136 249.659 193.832 249.073C193.528 248.487 193.342 247.846 193.285 247.188L192.594 239.16L186.416 167.104C186.309 165.786 186.729 164.478 187.584 163.468C188.439 162.458 189.659 161.828 190.978 161.716L225.73 158.735L263.85 155.466L264.748 155.385H265.045L294.894 152.826C296.213 152.719 297.521 153.139 298.53 153.994C299.54 154.849 300.17 156.07 300.282 157.388L307.323 239.025L307.385 238.935Z" fill="#50F7BB"/>
<path opacity="0.9" d="M307.385 238.935C307.463 239.858 307.172 240.773 306.576 241.482C305.98 242.19 305.128 242.634 304.206 242.716L283.624 244.512L268.304 245.823L223.602 249.631L198.727 251.768C198.069 251.824 197.407 251.751 196.777 251.551C196.147 251.352 195.563 251.03 195.058 250.605C194.552 250.18 194.136 249.659 193.832 249.073C193.528 248.487 193.342 247.846 193.285 247.188L192.594 239.16L186.416 167.104C186.309 165.786 186.729 164.478 187.584 163.468C188.439 162.458 189.659 161.828 190.978 161.716L225.73 158.735L263.85 155.466L264.748 155.385H265.045L294.894 152.826C296.213 152.719 297.521 153.139 298.53 153.994C299.54 154.849 300.17 156.07 300.282 157.388L307.323 239.025L307.385 238.935Z" fill="#FAFAFA"/>
<path d="M273.732 190.217L208.731 195.79C205.573 196.06 203.233 198.84 203.504 201.997L204.215 210.291C204.485 213.449 207.265 215.789 210.422 215.518L275.423 209.946C278.581 209.675 280.921 206.896 280.65 203.738L279.939 195.444C279.669 192.287 276.89 189.946 273.732 190.217Z" fill="#50F7BB"/>
<path d="M275.801 214.324L210.8 219.897C207.642 220.168 205.302 222.947 205.573 226.104L206.284 234.398C206.555 237.556 209.334 239.896 212.491 239.625L277.492 234.053C280.65 233.782 282.99 231.003 282.72 227.846L282.009 219.551C281.738 216.394 278.959 214.054 275.801 214.324Z" fill="#50F7BB"/>
<g opacity="0.8">
<path d="M273.732 190.217L208.731 195.79C205.573 196.06 203.233 198.84 203.504 201.997L204.215 210.291C204.485 213.449 207.265 215.789 210.422 215.518L275.423 209.946C278.581 209.675 280.921 206.896 280.65 203.738L279.939 195.444C279.669 192.287 276.89 189.946 273.732 190.217Z" fill="#FAFAFA"/>
<path d="M275.801 214.324L210.8 219.897C207.642 220.168 205.302 222.947 205.573 226.104L206.284 234.398C206.555 237.556 209.334 239.896 212.491 239.625L277.493 234.053C280.65 233.782 282.99 231.003 282.72 227.845L282.009 219.551C281.738 216.394 278.959 214.054 275.801 214.324Z" fill="#FAFAFA"/>
</g>
<path d="M299.743 243.084C299.429 242.923 298.055 242.312 297.714 242.096C296.699 241.611 295.684 241.198 294.706 240.606C292.423 239.372 290.233 237.977 288.15 236.43C286.479 235.194 284.884 233.86 283.373 232.434L284.81 231.024C282.479 227.616 279.475 224.722 275.982 222.52L275.345 222.17C275.012 221.972 274.671 221.775 274.321 221.604C271.726 220.185 266.508 217.41 261.695 215.39C260.12 214.583 258.905 213.215 258.292 211.555C258.357 211.531 258.414 211.489 258.455 211.433C258.496 211.377 258.521 211.31 258.525 211.241C258.443 210.514 258.401 209.782 258.399 209.05C258.404 208.979 258.385 208.908 258.344 208.849C258.303 208.79 258.244 208.747 258.175 208.727C258.3 208.08 258.493 207.448 258.75 206.841C258.911 206.455 259.091 206.069 259.288 205.691L259.423 205.431C261.806 206.694 264.566 207.049 267.191 206.43C269.816 205.81 272.126 204.259 273.692 202.064C276.433 198.258 278.309 193.9 279.188 189.294C279.296 189.051 279.386 188.809 279.484 188.558C279.521 188.676 279.551 188.796 279.574 188.917C279.595 189.016 279.649 189.105 279.728 189.169C279.806 189.232 279.904 189.267 280.005 189.267H280.086C280.142 189.257 280.196 189.236 280.244 189.206C280.292 189.175 280.334 189.135 280.366 189.089C280.399 189.042 280.422 188.989 280.434 188.933C280.446 188.878 280.447 188.82 280.436 188.764C280.339 188.247 280.157 187.749 279.897 187.291C280.516 184.898 280.74 182.42 280.562 179.955C280.6 179.427 280.536 178.896 280.373 178.392C279.406 175.85 277.694 173.66 275.461 172.106C272.753 170.007 269.456 168.808 266.032 168.676C265.987 167.607 265.763 166.126 264.829 165.982C264.683 165.967 264.535 165.967 264.389 165.982C265.185 162.491 265.422 158.896 265.089 155.332H264.793C265.066 158.271 264.948 161.233 264.443 164.141C264.692 161.219 264.495 158.276 263.859 155.412L225.739 158.681C222.363 165.865 219.354 172.977 209.88 174.378C209.88 174.378 236.569 187.049 245.253 169.529C250.874 158.187 256.657 164.59 258.552 167.257L258.076 167.437C257.376 167.76 257.555 169.421 258.22 170.607C252.248 173.848 251.036 180.296 252.724 185.226C252.294 185.426 251.911 185.715 251.602 186.074C251.292 186.433 251.062 186.855 250.928 187.309C250.675 188.147 250.59 189.027 250.678 189.897C250.766 190.768 251.025 191.613 251.44 192.383C251.617 192.707 251.858 192.991 252.149 193.218C252.178 194.08 252.289 194.937 252.482 195.778C251.96 199.15 250.994 202.438 249.608 205.557H249.401C248.71 204.865 248.153 206.85 247.929 207.64C247.907 207.724 247.906 207.813 247.926 207.897C247.947 207.982 247.988 208.06 248.045 208.125C247.396 209.018 246.551 209.752 245.576 210.271C240.782 209.04 235.91 208.14 230.992 207.577C230.654 207.522 230.312 207.486 229.969 207.469H229.843C225.218 207.263 216.139 218.623 216.139 218.623L217.935 221.173C217.594 221.523 217.271 221.873 216.93 222.215C214.819 224.361 212.646 226.444 210.365 228.393C208.084 230.342 205.786 232.227 203.361 233.925C202.759 234.365 202.14 234.751 201.565 235.173C200.99 235.595 200.353 235.981 199.724 236.34C199.095 236.699 198.44 237.121 197.874 237.427L197.102 237.822L196.258 238.154C195.091 238.578 193.889 238.9 192.666 239.115L193.357 247.143C195.256 246.981 197.132 246.613 198.952 246.048L200.317 245.563L201.673 244.961C202.508 244.566 203.19 244.18 203.954 243.785C204.717 243.389 205.426 242.985 206.145 242.554C206.863 242.123 207.6 241.728 208.291 241.261C211.107 239.506 213.806 237.572 216.373 235.469C218.878 233.44 221.267 231.284 223.557 229.039L225.928 232.389C225.928 232.389 226.538 231.859 227.481 230.979C226.63 237.28 225.334 243.513 223.602 249.631L268.304 245.796C268.861 244.539 269.382 243.345 269.867 242.204C270.873 243.3 271.555 244 271.555 244L276.584 239.079C278.547 240.847 280.626 242.482 282.807 243.973L283.588 244.503L299.752 243.111L299.743 243.084Z" fill="#50F7BB"/>
<path opacity="0.7" d="M299.743 243.084C299.429 242.923 298.055 242.312 297.714 242.096C296.699 241.611 295.684 241.198 294.706 240.606C292.423 239.372 290.233 237.977 288.15 236.43C286.479 235.194 284.884 233.86 283.373 232.434L284.81 231.024C282.479 227.616 279.475 224.722 275.982 222.52L275.345 222.17C275.012 221.972 274.671 221.775 274.321 221.604C271.726 220.185 266.508 217.41 261.695 215.39C260.12 214.583 258.905 213.215 258.292 211.555C258.357 211.531 258.414 211.489 258.455 211.433C258.496 211.377 258.521 211.31 258.525 211.241C258.443 210.514 258.401 209.782 258.399 209.05C258.404 208.979 258.385 208.908 258.344 208.849C258.303 208.79 258.244 208.747 258.175 208.727C258.3 208.08 258.493 207.448 258.75 206.841C258.911 206.455 259.091 206.069 259.288 205.691L259.423 205.431C261.806 206.694 264.566 207.049 267.191 206.43C269.816 205.81 272.126 204.259 273.692 202.064C276.433 198.258 278.309 193.9 279.188 189.294C279.296 189.051 279.386 188.809 279.484 188.558C279.521 188.676 279.551 188.796 279.574 188.917C279.595 189.016 279.649 189.105 279.728 189.169C279.806 189.232 279.904 189.267 280.005 189.267H280.086C280.142 189.257 280.196 189.236 280.244 189.206C280.292 189.175 280.334 189.135 280.366 189.089C280.399 189.042 280.422 188.989 280.434 188.933C280.446 188.878 280.447 188.82 280.436 188.764C280.339 188.247 280.157 187.749 279.897 187.291C280.516 184.898 280.74 182.42 280.562 179.955C280.6 179.427 280.536 178.896 280.373 178.392C279.406 175.85 277.694 173.66 275.461 172.106C272.753 170.007 269.456 168.808 266.032 168.676C265.987 167.607 265.763 166.126 264.829 165.982C264.683 165.967 264.535 165.967 264.389 165.982C265.185 162.491 265.422 158.896 265.089 155.332H264.793C265.066 158.271 264.948 161.233 264.443 164.141C264.692 161.219 264.495 158.276 263.859 155.412L225.739 158.681C222.363 165.865 219.354 172.977 209.88 174.378C209.88 174.378 236.569 187.049 245.253 169.529C250.874 158.187 256.657 164.59 258.552 167.257L258.076 167.437C257.376 167.76 257.555 169.421 258.22 170.607C252.248 173.848 251.036 180.296 252.724 185.226C252.294 185.426 251.911 185.715 251.602 186.074C251.292 186.433 251.062 186.855 250.928 187.309C250.675 188.147 250.59 189.027 250.678 189.897C250.766 190.768 251.025 191.613 251.44 192.383C251.617 192.707 251.858 192.991 252.149 193.218C252.178 194.08 252.289 194.937 252.482 195.778C251.96 199.15 250.994 202.438 249.608 205.557H249.401C248.71 204.865 248.153 206.85 247.929 207.64C247.907 207.724 247.906 207.813 247.926 207.897C247.947 207.982 247.988 208.06 248.045 208.125C247.396 209.018 246.551 209.752 245.576 210.271C240.782 209.04 235.91 208.14 230.992 207.577C230.654 207.522 230.312 207.486 229.969 207.469H229.843C225.218 207.263 216.139 218.623 216.139 218.623L217.935 221.173C217.594 221.523 217.271 221.873 216.93 222.215C214.819 224.361 212.646 226.444 210.365 228.393C208.084 230.342 205.786 232.227 203.361 233.925C202.759 234.365 202.14 234.751 201.565 235.173C200.99 235.595 200.353 235.981 199.724 236.34C199.095 236.699 198.44 237.121 197.874 237.427L197.102 237.822L196.258 238.154C195.091 238.578 193.889 238.9 192.666 239.115L193.357 247.143C195.256 246.981 197.132 246.613 198.952 246.048L200.317 245.563L201.673 244.961C202.508 244.566 203.19 244.18 203.954 243.785C204.717 243.389 205.426 242.985 206.145 242.554C206.863 242.123 207.6 241.728 208.291 241.261C211.107 239.506 213.806 237.572 216.373 235.469C218.878 233.44 221.267 231.284 223.557 229.039L225.928 232.389C225.928 232.389 226.538 231.859 227.481 230.979C226.63 237.28 225.334 243.513 223.602 249.631L268.304 245.796C268.861 244.539 269.382 243.345 269.867 242.204C270.873 243.3 271.555 244 271.555 244L276.584 239.079C278.547 240.847 280.626 242.482 282.807 243.973L283.588 244.503L299.752 243.111L299.743 243.084Z" fill="#FAFAFA"/>
<path d="M369.516 241.303L268.864 266.417C265.823 267.176 263.973 270.256 264.732 273.297L283.741 349.483C284.5 352.524 287.58 354.374 290.622 353.615L391.273 328.502C394.314 327.743 396.164 324.662 395.405 321.621L376.396 245.436C375.637 242.395 372.557 240.544 369.516 241.303Z" fill="#50F7BB"/>
<path opacity="0.6" d="M369.516 241.303L268.864 266.417C265.823 267.176 263.973 270.256 264.732 273.297L283.741 349.483C284.5 352.524 287.58 354.374 290.622 353.615L391.273 328.502C394.314 327.743 396.164 324.662 395.405 321.621L376.396 245.436C375.637 242.395 372.557 240.544 369.516 241.303Z" fill="#FAFAFA"/>
<path d="M387.397 316.092C387.558 316.693 387.6 317.32 387.518 317.938C387.436 318.555 387.234 319.15 386.922 319.689C386.61 320.228 386.195 320.7 385.7 321.078C385.205 321.456 384.64 321.733 384.039 321.893L376.531 323.904L295.226 345.636L289.407 347.189L283.121 348.86C281.792 349.213 280.377 349.025 279.187 348.337C277.997 347.648 277.128 346.515 276.772 345.187L256.047 267.654C255.706 266.372 255.888 265.008 256.551 263.861C257.214 262.713 258.305 261.874 259.585 261.529L360.394 234.589C361.676 234.246 363.041 234.427 364.189 235.09C365.338 235.754 366.175 236.846 366.519 238.127L372.275 259.679L373.559 264.466L387.397 316.092Z" fill="#50F7BB"/>
<path opacity="0.9" d="M387.397 316.092C387.558 316.693 387.6 317.32 387.518 317.938C387.436 318.555 387.234 319.15 386.922 319.689C386.61 320.228 386.195 320.7 385.7 321.078C385.205 321.456 384.64 321.733 384.039 321.893L376.531 323.904L295.226 345.636L289.407 347.189L283.121 348.86C281.792 349.213 280.377 349.025 279.187 348.337C277.997 347.648 277.128 346.515 276.772 345.187L256.047 267.654C255.706 266.372 255.888 265.008 256.551 263.861C257.214 262.713 258.305 261.874 259.585 261.529L360.394 234.589C361.676 234.246 363.041 234.427 364.189 235.09C365.338 235.754 366.175 236.846 366.519 238.127L372.275 259.679L373.559 264.466L387.397 316.092Z" fill="#FAFAFA"/>
<path d="M356.879 297.116C360.82 276.419 347.237 256.447 326.54 252.507C305.844 248.566 285.872 262.15 281.932 282.846C277.991 303.542 291.574 323.514 312.271 327.455C332.967 331.395 352.939 317.812 356.879 297.116Z" fill="#50F7BB"/>
<path opacity="0.8" d="M356.879 297.116C360.82 276.419 347.237 256.447 326.54 252.507C305.844 248.566 285.872 262.15 281.932 282.846C277.991 303.542 291.574 323.514 312.271 327.455C332.967 331.395 352.939 317.812 356.879 297.116Z" fill="#FAFAFA"/>
<path d="M377.501 320.106C377.501 320.106 373.011 308.503 369.94 308.36C369.16 308.305 368.377 308.305 367.596 308.36C366.294 308.36 364.552 308.441 362.666 308.548V308.476C362.63 308.38 362.565 308.298 362.479 308.242C362.394 308.185 362.293 308.158 362.19 308.162L360.906 308.243C360.79 308.248 360.681 308.297 360.6 308.381C360.52 308.464 360.475 308.576 360.475 308.692C359.523 308.764 358.553 308.845 357.619 308.952L357.018 309.024C357.044 308.958 357.062 308.888 357.072 308.818C356.141 308.264 355.124 307.869 354.063 307.65C354.018 307.743 353.967 307.833 353.911 307.92C352.972 306.902 352.411 305.593 352.321 304.211C352.246 303.498 352.225 302.781 352.258 302.065C354.402 301.86 356.394 300.873 357.857 299.293C359.319 297.713 360.149 295.65 360.188 293.498C360.233 291.645 360.071 289.792 359.703 287.975C359.703 287.921 359.775 287.867 359.802 287.813C360.484 286.359 359.568 283.871 359.245 283.099C359.295 283.087 359.341 283.058 359.373 283.018C359.406 282.977 359.424 282.927 359.424 282.874C359.423 282.844 359.416 282.815 359.403 282.788C359.39 282.761 359.372 282.737 359.349 282.718C359.326 282.698 359.299 282.684 359.271 282.675C359.242 282.667 359.212 282.664 359.182 282.668C358.805 282.668 358.437 282.74 358.077 282.785C358.776 280.781 358.667 278.584 357.772 276.66C358.048 276.059 358.276 275.438 358.455 274.801C359.696 275.207 360.97 275.507 362.262 275.699C369.5 276.912 372.634 270.311 373.622 264.448L372.338 259.661C367.506 261.349 356.021 254.273 353.48 263.496C352.582 266.809 352.788 269.198 353.623 270.922C352.698 271.43 351.943 272.198 351.45 273.131C351.443 273.173 351.443 273.215 351.45 273.257C350.283 273.193 349.117 273.392 348.038 273.841C346.316 273.362 344.488 273.425 342.802 274.02C342.259 274.188 341.74 274.427 341.258 274.73C340.561 274.12 339.704 273.724 338.788 273.589C338.726 271.64 337.774 269.333 335.349 266.603C327.222 257.443 316.976 273.383 311.166 269.521C313.294 275.25 322.014 287.553 331.892 282.003C333.212 281.312 334.466 280.501 335.636 279.579C335.762 279.758 335.897 279.938 336.058 280.136C333.921 283.781 333.364 288.218 337.639 291.073C337.648 291.322 337.687 291.57 337.756 291.81C337.964 292.464 338.3 293.07 338.744 293.594C339.188 294.118 339.731 294.549 340.342 294.863C340.541 294.972 340.756 295.047 340.979 295.087C341.613 296.611 342.58 297.973 343.808 299.074C344.904 302.235 345.927 306.258 345.604 309.339L345.434 309.267C344.566 309.897 343.882 310.746 343.449 311.727C343.512 311.791 343.581 311.848 343.656 311.898C342.758 312.14 341.86 312.401 341.015 312.67C336.023 305.756 327.976 295.815 323.226 296.318C323.226 296.318 321.071 296.488 318.134 296.91C318.129 296.865 318.114 296.821 318.091 296.781C318.068 296.741 318.037 296.707 318 296.68C317.963 296.653 317.92 296.634 317.875 296.624C317.831 296.614 317.784 296.614 317.739 296.623L316.06 296.955C315.987 296.972 315.922 297.013 315.877 297.072C315.831 297.131 315.807 297.204 315.809 297.278C315.108 297.395 314.39 297.521 313.662 297.665C313.662 297.557 313.662 297.449 313.662 297.332C312.603 297.304 311.552 297.135 310.537 296.829C310.537 296.829 310.394 297.045 310.097 297.404C307.313 294.908 305.913 289.259 305.284 284.787H305.374C306.846 283.97 307.937 282.605 308.409 280.989C308.641 280.282 308.599 279.514 308.292 278.837C307.984 278.16 307.433 277.623 306.748 277.334C308.086 274.424 308.66 270.509 305.984 267.761C306.853 266.822 307.581 265.764 308.149 264.618C306.182 266.414 297.175 262.822 293.197 263.783C292.028 263.994 290.98 264.634 290.26 265.579C290.162 265.538 290.06 265.508 289.955 265.489C285.25 264.537 282.556 273.67 279.924 273.176C279.924 273.176 280.912 275.394 283.768 274.433C283.645 275.688 283.755 276.954 284.091 278.169C283.076 278.735 282.116 279.902 282.807 282.318C283.499 284.733 285.25 286.332 286.893 286.206C287.255 287.178 287.69 288.12 288.195 289.026C289.203 290.826 290.784 292.238 292.685 293.038C294.587 293.838 296.701 293.981 298.693 293.444L298.854 293.785C299.025 294.126 299.178 294.477 299.312 294.827C300.156 297.027 300.21 299.263 298.253 301.176C298.218 301.076 298.191 300.974 298.172 300.87C297.153 301.413 296.196 302.063 295.316 302.81C295.316 302.855 295.316 302.909 295.316 302.954C293.664 303.645 292.11 304.391 290.826 305.064C290.788 304.988 290.721 304.931 290.64 304.904C290.559 304.877 290.471 304.883 290.395 304.92L288.86 305.693C288.799 305.725 288.749 305.775 288.717 305.835C288.685 305.896 288.672 305.966 288.68 306.034C288.684 306.088 288.684 306.142 288.68 306.196C287.62 306.779 286.983 307.174 286.983 307.174C284.43 308.767 282.573 311.266 281.783 314.17C279.224 322.117 278.146 337.778 278.146 337.778L281.074 337.859C280.912 339.332 280.733 340.786 280.517 342.205L280.284 343.66L279.996 345.016L279.933 345.303V345.447L279.889 345.663L279.826 345.923C279.826 346.049 279.655 346.255 279.197 346.462C278.697 346.664 278.171 346.795 277.635 346.848C278.247 347.711 279.108 348.366 280.103 348.725C281.099 349.085 282.18 349.132 283.202 348.86L289.488 347.189L289.874 345.869L290.305 344.145C290.754 342.187 291.114 340.266 291.419 338.362L292.452 338.407C293.287 340.688 294.248 343.094 295.307 345.636L376.612 323.904C376.361 323.222 376.118 322.539 375.876 321.857L377.501 320.106ZM358.984 283.153C359.263 283.826 360.188 286.26 359.595 287.643C359.279 286.13 358.819 284.65 358.221 283.225L358.984 283.153ZM282.969 282.183C282.358 280.055 283.085 278.959 284.064 278.402C284.371 279.505 284.847 280.553 285.474 281.51C285.733 282.995 286.13 284.453 286.659 285.865C285.178 285.883 283.597 284.365 282.969 282.183ZM328.668 326.544C328.596 326.302 328.524 326.05 328.461 325.808L328.722 326.185L328.668 326.544ZM331.084 334.375C330.446 332.444 329.781 330.361 329.126 328.134L330.661 328.816L330.931 329.157L331.119 329.023L331.901 329.373C332.287 331.016 332.709 332.642 333.185 334.258L331.084 334.375Z" fill="#50F7BB"/>
<path opacity="0.7" d="M377.501 320.106C377.501 320.106 373.011 308.503 369.94 308.36C369.16 308.305 368.377 308.305 367.596 308.36C366.294 308.36 364.552 308.441 362.666 308.548V308.476C362.63 308.38 362.565 308.298 362.479 308.242C362.394 308.185 362.293 308.158 362.19 308.162L360.906 308.243C360.79 308.248 360.681 308.297 360.6 308.381C360.52 308.464 360.475 308.576 360.475 308.692C359.523 308.764 358.553 308.845 357.619 308.952L357.018 309.024C357.044 308.958 357.062 308.888 357.072 308.818C356.141 308.264 355.124 307.869 354.063 307.65C354.018 307.743 353.967 307.833 353.911 307.92C352.972 306.902 352.411 305.593 352.321 304.211C352.246 303.498 352.225 302.781 352.258 302.065C354.402 301.86 356.394 300.873 357.857 299.293C359.319 297.713 360.149 295.65 360.188 293.498C360.233 291.645 360.071 289.792 359.703 287.975C359.703 287.921 359.775 287.867 359.802 287.813C360.484 286.359 359.568 283.871 359.245 283.099C359.295 283.087 359.341 283.058 359.373 283.018C359.406 282.977 359.424 282.927 359.424 282.874C359.423 282.844 359.416 282.815 359.403 282.788C359.39 282.761 359.372 282.737 359.349 282.718C359.326 282.698 359.299 282.684 359.271 282.675C359.242 282.667 359.212 282.664 359.182 282.668C358.805 282.668 358.437 282.74 358.077 282.785C358.776 280.781 358.667 278.584 357.772 276.66C358.048 276.059 358.276 275.438 358.455 274.801C359.696 275.207 360.97 275.507 362.262 275.699C369.5 276.912 372.634 270.311 373.622 264.448L372.338 259.661C367.506 261.349 356.021 254.273 353.48 263.496C352.582 266.809 352.788 269.198 353.623 270.922C352.698 271.43 351.943 272.198 351.45 273.131C351.443 273.173 351.443 273.215 351.45 273.257C350.283 273.193 349.117 273.392 348.038 273.841C346.316 273.362 344.488 273.425 342.802 274.02C342.259 274.188 341.74 274.427 341.258 274.73C340.561 274.12 339.704 273.724 338.788 273.589C338.726 271.64 337.774 269.333 335.349 266.603C327.222 257.443 316.976 273.383 311.166 269.521C313.294 275.25 322.014 287.553 331.892 282.003C333.212 281.312 334.466 280.501 335.636 279.579C335.762 279.758 335.897 279.938 336.058 280.136C333.921 283.781 333.364 288.218 337.639 291.073C337.648 291.322 337.687 291.57 337.756 291.81C337.964 292.464 338.3 293.07 338.744 293.594C339.188 294.118 339.731 294.549 340.342 294.863C340.541 294.972 340.756 295.047 340.979 295.087C341.613 296.611 342.58 297.973 343.808 299.074C344.904 302.235 345.927 306.258 345.604 309.339L345.434 309.267C344.566 309.897 343.882 310.746 343.449 311.727C343.512 311.791 343.581 311.848 343.656 311.898C342.758 312.14 341.86 312.401 341.015 312.67C336.023 305.756 327.976 295.815 323.226 296.318C323.226 296.318 321.071 296.488 318.134 296.91C318.129 296.865 318.114 296.821 318.091 296.781C318.068 296.741 318.037 296.707 318 296.68C317.963 296.653 317.92 296.634 317.875 296.624C317.831 296.614 317.784 296.614 317.739 296.623L316.06 296.955C315.987 296.972 315.922 297.013 315.877 297.072C315.831 297.131 315.807 297.204 315.809 297.278C315.108 297.395 314.39 297.521 313.662 297.665C313.662 297.557 313.662 297.449 313.662 297.332C312.603 297.304 311.552 297.135 310.537 296.829C310.537 296.829 310.394 297.045 310.097 297.404C307.313 294.908 305.913 289.259 305.284 284.787H305.374C306.846 283.97 307.937 282.605 308.409 280.989C308.641 280.282 308.599 279.514 308.292 278.837C307.984 278.16 307.433 277.623 306.748 277.334C308.086 274.424 308.66 270.509 305.984 267.761C306.853 266.822 307.581 265.764 308.149 264.618C306.182 266.414 297.175 262.822 293.197 263.783C292.028 263.994 290.98 264.634 290.26 265.579C290.162 265.538 290.06 265.508 289.955 265.489C285.25 264.537 282.556 273.67 279.924 273.176C279.924 273.176 280.912 275.394 283.768 274.433C283.645 275.688 283.755 276.954 284.091 278.169C283.076 278.735 282.116 279.902 282.807 282.318C283.499 284.733 285.25 286.332 286.893 286.206C287.255 287.178 287.69 288.12 288.195 289.026C289.203 290.826 290.784 292.238 292.685 293.038C294.587 293.838 296.701 293.981 298.693 293.444L298.854 293.785C299.025 294.126 299.178 294.477 299.312 294.827C300.156 297.027 300.21 299.263 298.253 301.176C298.218 301.076 298.191 300.974 298.172 300.87C297.153 301.413 296.196 302.063 295.316 302.81C295.316 302.855 295.316 302.909 295.316 302.954C293.664 303.645 292.11 304.391 290.826 305.064C290.788 304.988 290.721 304.931 290.64 304.904C290.559 304.877 290.471 304.883 290.395 304.92L288.86 305.693C288.799 305.725 288.749 305.775 288.717 305.835C288.685 305.896 288.672 305.966 288.68 306.034C288.684 306.088 288.684 306.142 288.68 306.196C287.62 306.779 286.983 307.174 286.983 307.174C284.43 308.767 282.573 311.266 281.783 314.17C279.224 322.117 278.146 337.778 278.146 337.778L281.074 337.859C280.912 339.332 280.733 340.786 280.517 342.205L280.284 343.66L279.996 345.016L279.933 345.303V345.447L279.889 345.663L279.826 345.923C279.826 346.049 279.655 346.255 279.197 346.462C278.697 346.664 278.171 346.795 277.635 346.848C278.247 347.711 279.108 348.366 280.103 348.725C281.099 349.085 282.18 349.132 283.202 348.86L289.488 347.189L289.874 345.869L290.305 344.145C290.754 342.187 291.114 340.266 291.419 338.362L292.452 338.407C293.287 340.688 294.248 343.094 295.307 345.636L376.612 323.904C376.361 323.222 376.118 322.539 375.876 321.857L377.501 320.106ZM358.984 283.153C359.263 283.826 360.188 286.26 359.595 287.643C359.279 286.13 358.819 284.65 358.221 283.225L358.984 283.153ZM282.969 282.183C282.358 280.055 283.085 278.959 284.064 278.402C284.371 279.505 284.847 280.553 285.474 281.51C285.733 282.995 286.13 284.453 286.659 285.865C285.178 285.883 283.597 284.365 282.969 282.183ZM328.668 326.544C328.596 326.302 328.524 326.05 328.461 325.808L328.722 326.185L328.668 326.544ZM331.084 334.375C330.446 332.444 329.781 330.361 329.126 328.134L330.661 328.816L330.931 329.157L331.119 329.023L331.901 329.373C332.287 331.016 332.709 332.642 333.185 334.258L331.084 334.375Z" fill="#FAFAFA"/>
<defs>
<linearGradient id="paint0_linear_21_36" x1="449.5" y1="15" x2="449.5" y2="120.269" gradientUnits="userSpaceOnUse">
<stop stop-color="#50F7BB" stop-opacity="0.35"/>
<stop offset="1" stop-color="#50F7BB" stop-opacity="0"/>
</linearGradient>
<linearGradient id="paint1_linear_21_36" x1="36" y1="425" x2="36" y2="499.308" gradientUnits="userSpaceOnUse">
<stop stop-color="#50F7BB" stop-opacity="0.43"/>
<stop offset="1" stop-color="#50F7BB" stop-opacity="0"/>
</linearGradient>
<linearGradient id="paint2_linear_21_36" x1="432.5" y1="0" x2="432.5" y2="15.4808" gradientUnits="userSpaceOnUse">
<stop stop-color="#50F7BB" stop-opacity="0.16"/>
<stop offset="1" stop-color="#50F7BB" stop-opacity="0"/>
</linearGradient>
</defs>
</svg>
