<svg xmlns="http://www.w3.org/2000/svg" viewBox="0 0 435.61 667.51">
    <defs>
        <style>
            .prefix__cls-1 {
                fill: #110f0d
            }

            .prefix__cls-2 {
                fill: #d2a689
            }

            .prefix__cls-3 {
                fill: #fddbca
            }

            .prefix__cls-4 {
                fill: #a68e7e
            }
        </style>
    </defs>
    <g id="prefix__Layer_2" data-name="Layer 2">
        <g id="prefix__Layer_1-2" data-name="Layer 1">
            <g id="prefix__xZskA2">
                <g id="prefix__SLOATH">
                    <path id="prefix__OUTER-BODY" class="prefix__cls-1"
                        d="M3.53 361.16c-6.16-13.6-3.71-26.52 3.14-39.08a56.37 56.37 0 0126.38-21.26c1.34-.55 1.92-1 1.3-2.56-5.23-13.26-7.74-27.26-9.41-41.34l-.05-1.92-.57-11.09a261.58 261.58 0 011.88-26.53c1-8.39 3.05-16.57 4.75-24.82 2.19-4.41 3.52-9.15 5.06-13.8 2.32-8.74 6.77-16.57 10.55-24.68a2.14 2.14 0 00.46-.44c13.34-25.07 32.84-44.46 56-60.39 3.77-2.6 8-4.57 12-6.84l13-6.1c8.78-3.38 17.67-6.43 26.71-9.07L156 71l.84-.35L167 68.46a257.07 257.07 0 0143.49-4.36c1.52 0 2.58-.17 3.3-1.78 4-9 8.18-18 12.29-26.92a111.45 111.45 0 006.08-13c2.58-5.33 5.26-10.6 7.68-16A11.8 11.8 0 01245.2.2a29.32 29.32 0 013.28-.2 7.91 7.91 0 017.64 8.71c-1.57 12.55-3.36 25.08-4.84 37.65-.68 5.79-2 11.51-2.15 17.37 0 1.26-.21 2.19 1.59 2.45 6.43.93 12.83 2.06 19.23 3.12l14.38 3.74c8.61 2.66 17 6 25.34 9.3 9.47 4.05 17.7 10.27 26.68 15.19a17.72 17.72 0 004.41 3.12l8.72 6.91 7 6.08 6 5.88c5.89 6.73 11.67 13.55 16.93 20.79a279.23 279.23 0 0114.31 25.41c2.63 6.93 5.46 13.78 7.85 20.79 3.45 10.15 5.22 20.71 6.77 31.3q.6 6.52 1.21 13.05c0 1.1.1 2.19.14 3.29a9.3 9.3 0 00.34 4c.19 8.85-.22 17.69-.64 26.53a2.54 2.54 0 00-.34 2l-.21 3.3q-1 6.51-2 13-1.6 6.51-3.2 13c-.82 1.07-.44 1.68.73 2.12 3.69 1.42 6.93 3.67 10.3 5.67l6.49 5.25 6.39 6.9.4.93c-.11.36 0 .56.39.63l2.19 3.93c-.12.38.05.57.41.64 5.93 13 6.73 26-.35 39l-2.23 3.5-.41.5-.33.52-8.39 8.63-4.64 3.8-13 9.21-26.74 16.92-25.44 14.21c-4.42 2.25-8.85 4.48-13.27 6.74-5.7 2.92-5.68 2.93-4.33 9.23s2.72 12.87 4.08 19.3c.07.68.14 1.36.22 2a2.06 2.06 0 00.37 1.9 4.34 4.34 0 00.34 2.61c.72 6.33 1.64 12.64 3 18.88.09.87.17 1.75.26 2.63 3.31 25.56 6.3 51.17 7.2 77 .9 25.61.77 51.15-6 76.16l-.18.77a1 1 0 00-.44 1.13l-.22.81a1 1 0 00-.41 1.14l-.24.84-.24.13.12.23c-.19.51-.37 1-.55 1.52-.31.07-.45.21-.28.53l-.35.87-.23.12.1.22-.52 1-.22.08.12.15-.63 1.38c-3.58 6.32-7.58 12.28-13.66 16.53l-5.94 2.94c-.29-.24-.4-.08-.45.2l-1.4.36a1.13 1.13 0 00-1.28.38l-1.42.27a2.88 2.88 0 00-2.5.36l-1.32.14a65.61 65.61 0 00-10.39.55h-1.38a45.16 45.16 0 00-8.38-.43l-2.05-.2a74.05 74.05 0 01-15.61-4.31l-.71-.37c-.07-.3-.21-.45-.53-.28l-.76-.38-.56-.36-.93-.45a47.06 47.06 0 01-9.48-9.74l-.26-.55-.42-.7c-.31-.62-.61-1.25-.92-1.88a63.14 63.14 0 01-3.76-15.57 9.62 9.62 0 00-.26-4c.08-5.4.15-10.79.26-16.18 0-1.37-.15-1.93-1.82-1.47-5.41 1.49-10.87 2.77-16.31 4.12l-1.31.21c-5.41.72-10.78 2-16.3 1.46a3.76 3.76 0 00-2.63-.34 2.46 2.46 0 00-2-.4 4 4 0 00-2.6-.3 2.22 2.22 0 00-2-.4 2.55 2.55 0 00-2-.22c-5.11-1.36-10.39-2.08-15.35-4-2.27-.87-2.75-.2-2.65 2.06a141.84 141.84 0 01-.51 23.94c-.1.68-.19 1.36-.28 2a1.17 1.17 0 00-.24 1.3c-.13.64-.25 1.27-.38 1.91-.31.11-.46.29-.29.63L186 644c-.27.09-.44.23-.22.53l-.46 1.35c-3.7 8.77-10.22 14.62-18.91 18.21l-1.3.38c-.36-.18-.55 0-.66.32l-1.3.31a.92.92 0 00-1.13.4l-1.48.27a.66.66 0 00-.92.23l-2.37.47a1.8 1.8 0 00-1.92.27l-1.25.22-13 .52-1.3-.06a13.29 13.29 0 00-5.14-.32l-4-.31a34.43 34.43 0 01-15.32-6.2 47 47 0 01-10-12.73c-2.45-4.6-3.91-9.6-5.9-14.39a2.52 2.52 0 00-.51-2c0-.07.14-.17.13-.19s-.21-.22-.31-.33l-.25-1.37a1.1 1.1 0 00-.39-1.28c-.13-.66-.25-1.33-.38-2 0-.09.15-.21.12-.27a3.72 3.72 0 00-.34-.47 13.8 13.8 0 00-.13-1.93c-2.93-14.27-3.83-28.73-3.8-43.25 0-10.71.42-21.41.65-32.12a5.28 5.28 0 00.22-3.24l.13-1.39 1-13 .16-.2-.12-.22a2.61 2.61 0 00.19-2.1 9 9 0 00.38-4 3.51 3.51 0 00.25-2.62 7.79 7.79 0 00.31-3.89 87.67 87.67 0 001.39-13 .86.86 0 00.2-1.17 46.57 46.57 0 001.17-9.11 131.24 131.24 0 002.09-15.79l2.46-15.5a1 1 0 00.24-1.34l.38-2.63c.08 0 .22-.09.22-.13a2.18 2.18 0 00-.11-.44 6.67 6.67 0 00.54-3.36 1 1 0 00.2-1.23l.2-1.39c1.27-5.92 2.48-11.84 3.83-17.74.3-1.31-.32-1.77-1.24-2.24l-32.44-16.69a13.85 13.85 0 00-4.53-2.57 21 21 0 00-5.27-3l-1.46-.81c0-.27-.12-.43-.41-.23l-.79-.44-.56-.4-12.44-7.46c-4.52-3-9.09-5.88-13.54-9m68.7 177.1c-.16 17.78.08 34.17 3 50.37 1.66 9.1 3.9 18.06 9.16 25.9 3.21 4.77 7.38 8.12 13.32 9a72.82 72.82 0 0026.49-.6c11-2.39 16.7-8.46 18.23-19.64a99.29 99.29 0 00.57-14.63c-.08-8-.18-16.05.5-24.08.25-2.95 1-3.25 3.43-1.9a78.29 78.29 0 0024.58 8.23c6.38 1.09 12.71 3.25 19.29 2.23 13-2 25.89-4.44 37.62-10.85 1.73-.94 2.25-.55 2.33 1.35.13 3.57.52 7.14.66 10.72.38 9.64-.63 19.3.58 29 1.29 10.33 6.37 16.45 16.36 19a68.22 68.22 0 0026.1 1.5c6.56-.83 11.52-3.49 15.2-8.77a40.5 40.5 0 004.7-8.9c5.42-14.31 6.87-29.3 7.57-44.41 1.15-25.11-.49-50.11-3.21-75.06-3.42-31.38-7.31-62.7-15.27-93.33-.63-2.4-.11-3.4 2.07-4.48 23.35-11.55 46.31-23.84 68.17-38.05 10-6.49 20-13 28.59-21.44 9.23-9.07 9.42-22.62 4-32.4-4.3-7.69-10.65-13-18.39-16.91-2.1-1.07-2.87-.57-3.79 1.5-12 27-31.85 46.46-57.92 59.82-28.4 14.55-59.05 20.4-90.52 22.84a391 391 0 01-61.79.08c-21.5-1.75-42.56-5.52-62.93-12.76-36-12.8-64.78-34.31-83-68.58-.91-1.69-1.9-1.66-3.42-1.08-7.49 2.86-14 7.33-18.63 13.74-5.47 7.62-9.21 16.06-5.85 25.89a32.18 32.18 0 009.6 13.71c10.77 9.54 23 17.1 35.14 24.64 20.41 12.63 41.65 23.77 63.2 34.31 2.12 1 2.58 2.09 2 4.25-1.22 4.38-2.37 8.8-3.24 13.26-3.47 17.68-6.15 35.48-8.47 53.35-3.27 24.78-5.59 49.62-6.03 73.22zM208 74.26c-.39-.19-.55-.35-.72-.35h-3.91c-18.18 1.14-36.14 3.67-53.61 9.06-32.68 10.09-60.63 27.46-81.16 55.11-30.13 40.65-40.37 86.4-30.9 135.92 7.52 39.35 30 68.6 65.05 88 28.58 15.78 59.78 21.83 91.93 23.84a366.46 366.46 0 0076.26-3.15c18.05-2.64 35.66-6.85 52.52-13.87 18.68-7.78 35.27-18.58 48.46-34.13 17.65-20.8 25.4-45.47 27.61-72.15A201 201 0 00395.7 203c-6.16-28.35-18.66-53.47-38.49-74.73-29.09-31.18-66-46.48-107.46-52.44-1.67-.24-2.47.08-2.65 2.1-.5 5.7-1.13 11.4-2 17-3.13 19.44-6.42 38.86-9.59 58.3-.32 1.94-.9 3.28-2.83 4.28A43.25 43.25 0 01179 145.73a3.36 3.36 0 01-.6-3.81c5.15-12.38 10-24.87 15.37-37.16 4.49-10.29 9.49-20.34 14.23-30.5zm27.49 26.88a106.32 106.32 0 01-33.08 9.65c-1.3.17-2.38.26-3 1.84-3.78 9.44-7.67 18.83-11.59 28.2a2.27 2.27 0 00.48 2.84c8.71 9.66 25.53 13.22 37.47 7.92a2.92 2.92 0 002-2.6c.64-4.49 1.49-9 2.21-13.44 1.82-11.29 3.63-22.55 5.54-34.41zM239 75.81a116.4 116.4 0 01-24.14 7.27 3.05 3.05 0 00-2.64 1.56c-2.59 5.66-5.22 11.3-7.85 17a3.14 3.14 0 00.87.2 86.52 86.52 0 0030.86-10.45 2.11 2.11 0 001.23-1.73c.56-4.5 1.12-8.98 1.67-13.85zm2.17-19.31a160.85 160.85 0 01-15.77 3.33 2.46 2.46 0 00-2.15 1.25c-1.92 4.15-3.85 8.3-6 13a104.94 104.94 0 0022.27-7.59 1.62 1.62 0 001.09-1.49c-.06-2.78 1.21-5.48.6-8.5zm-12.55-5.57c4.07-.81 8.18-1.85 12.26-3.06 1.34-.4 2.08-1 2.22-2.34.23-2.11.45-4.22.68-6.35-7.36 1.04-14.28 2.45-15.12 11.75zm19-40.55l-.45-.28c-3.39 7.23-6.77 14.47-10.37 22.14 2.16-.57 3.7-1 5.24-1.39 2-.5 3.21-1.19 3.39-3.76.46-5.59 1.47-11.09 2.24-16.71z" />
                    <path id="prefix__BODY" class="prefix__cls-2"
                        d="M105.56 569.07c.46-23.6 2.76-48.44 6-73.2 2.32-17.87 5-35.67 8.47-53.35.87-4.46 2-8.88 3.24-13.26.6-2.16.14-3.21-2-4.25-21.55-10.54-42.79-21.68-63.2-34.31-12.18-7.54-24.37-15.1-35.14-24.64a32.18 32.18 0 01-9.6-13.71c-3.36-9.83.38-18.27 5.85-25.89 4.62-6.41 11.14-10.88 18.63-13.74 1.52-.58 2.51-.61 3.42 1.08 18.24 34.27 47.05 55.78 83 68.58 20.37 7.24 41.43 11 62.93 12.76a391 391 0 0061.79-.08c31.47-2.44 62.12-8.29 90.52-22.84 26.07-13.36 45.91-32.84 57.92-59.82.92-2.07 1.69-2.57 3.79-1.5 7.74 3.91 14.09 9.22 18.39 16.91 5.45 9.78 5.26 23.33-4 32.4-8.59 8.45-18.59 15-28.59 21.44-21.86 14.21-44.82 26.5-68.17 38.05-2.18 1.08-2.7 2.08-2.07 4.48 8 30.63 11.85 61.95 15.27 93.33 2.72 25 4.36 50 3.21 75.06-.7 15.11-2.15 30.1-7.57 44.41a40.5 40.5 0 01-4.7 8.9c-3.68 5.28-8.64 7.94-15.2 8.77a68.22 68.22 0 01-26.1-1.5c-10-2.58-15.07-8.7-16.36-19-1.21-9.65-.2-19.31-.58-29-.14-3.58-.53-7.15-.66-10.72-.08-1.9-.6-2.29-2.33-1.35-11.73 6.41-24.64 8.82-37.62 10.85-6.58 1-12.91-1.14-19.29-2.23a78.29 78.29 0 01-24.58-8.23c-2.45-1.35-3.18-1-3.43 1.9-.68 8-.58 16.05-.5 24.08a99.29 99.29 0 01-.57 14.63c-1.53 11.18-7.22 17.25-18.23 19.64a72.82 72.82 0 01-26.49.6c-5.94-.88-10.11-4.23-13.32-9-5.26-7.84-7.5-16.8-9.16-25.9-2.89-16.18-3.13-32.57-2.97-50.35zm109.85-162.48c-2.42-.31-6.87.29-11.22 1-16.56 2.47-31.77 8.33-44.91 19-23.46 19-34.84 43.25-32 73.65 2.07 22.21 12.42 40.32 29.18 54.41 23.6 19.83 51.09 26.18 81.16 20a87.13 87.13 0 0048-27.31c16.74-18.51 24.3-40.06 21.53-65a78.52 78.52 0 00-21.3-46c-18.43-19.81-41.53-29.25-70.44-29.75z" />
                    <path id="prefix__HEAD" class="prefix__cls-2"
                        d="M208 74.26c-4.77 10.16-9.77 20.21-14.24 30.5-5.35 12.29-10.22 24.78-15.37 37.16a3.36 3.36 0 00.6 3.81 43.25 43.25 0 0053.62 11.85c1.93-1 2.51-2.34 2.83-4.28 3.17-19.44 6.46-38.86 9.59-58.3.91-5.64 1.54-11.34 2-17 .18-2 1-2.34 2.65-2.1 41.44 6 78.37 21.26 107.46 52.44 19.86 21.22 32.4 46.34 38.56 74.66a201 201 0 013.83 59.46c-2.21 26.68-10 51.35-27.61 72.15-13.19 15.55-29.78 26.35-48.46 34.13-16.86 7-34.47 11.23-52.52 13.87a366.46 366.46 0 01-76.26 3.15c-32.15-2-63.35-8.06-91.93-23.84-35.09-19.36-57.53-48.61-65-88-9.47-49.51.77-95.26 30.93-135.87 20.53-27.65 48.48-45 81.16-55.11 17.47-5.39 35.43-7.92 53.61-9.06 1.3-.08 2.6 0 3.91 0 .12.03.28.19.64.38zM80.43 312.31c2.87 6 7.29 11 11.68 15.8a150.64 150.64 0 0050 36c22.36 10.11 45.89 15.02 70.33 15.89a179.88 179.88 0 0030.4-1.81 174.56 174.56 0 0053-15.69c19-9.16 36-21.24 49.69-37.47 5.23-6.18 10.28-12.54 13.8-19.93 8.14-13.68 13.54-28.24 14.33-44.3.18-.26.49-.5.53-.78 2.09-18.58.39-36.6-8.78-53.25-7.61-13.77-18.65-23.49-34.1-27.77-15.28-4.2-30.6-3.29-46-.76-18.75 3.08-37.21 7.72-56.15 9.76a181.09 181.09 0 01-37.6.3c-14.93-1.5-29.6-4.85-44.39-7.35-12-2-24.06-3.55-36.38-1.73C92.19 182 79 192 70.2 208.27c-5.79 10.67-8.37 22.26-9.19 34.21-.34 5-.83 10.12.51 15.12a61.94 61.94 0 00.57 8 110.64 110.64 0 0017.66 46z" />
                    <path id="prefix__BELLY" class="prefix__cls-3"
                        d="M215.41 406.59c28.91.5 52 9.94 70.45 29.57a78.52 78.52 0 0121.3 46c2.77 25-4.79 46.52-21.53 65a87.13 87.13 0 01-48 27.31c-30.07 6.19-57.56-.16-81.16-20-16.76-14.09-27.11-32.2-29.18-54.41-2.83-30.4 8.55-54.67 32-73.65 13.14-10.63 28.35-16.49 44.91-19 4.34-.53 8.8-1.13 11.21-.82zm48.7 117.35h14.65c5.76-.07 8-2.39 8.17-8.1a67.3 67.3 0 00-2-17.38c-7-29.88-34.79-52.3-65.17-52.65-21.94-.26-40.2 7.91-54.49 24.48-11.27 13.07-16.44 28.56-16.4 45.77 0 5.38 2.44 7.81 7.78 7.86 10.09.11 20.19.13 30.28 0 5.35-.07 7.54-2.64 7.45-8a23.82 23.82 0 01.39-5.83c2.86-12.4 13.77-20 26.64-18.58 11.34 1.27 20.09 11.69 20.05 23.89 0 6.29 2.23 8.53 8.62 8.56 4.7.04 9.36-.02 14.03-.02z" />
                    <path id="prefix__INNER-FACE" class="prefix__cls-3"
                        d="M361.58 298.29c-3.26 7.51-8.1 14-13.11 20.39-13.17 16.68-29.69 29.33-48.39 39.13a174.59 174.59 0 01-52.39 17.47 180.61 180.61 0 01-30.32 2.85c-24.46-.05-48.14-4.16-70.85-13.56a150.51 150.51 0 01-51.19-34.26c-4.56-4.69-9.14-9.48-12.22-15.4 1.16-.26 2.09.41 3.1.74 4.11 1.35 8.23 2.67 12.63 2.61 1.33.4 2.69.74 4 1.19a38.26 38.26 0 0030.16-1.93c4.4-2.16 7.83-5.5 7.21-11.17a10.39 10.39 0 001.71-.92c14.06-11.09 23.48-24.85 25.73-43.11 2.21-17.94-8.4-36.37-25.35-42.51-20.07-7.27-38.38-2.55-55.31 9.13a66 66 0 00-24.58 32c-1.51-4.94-1.19-10.08-1-15.09.41-12 2.59-23.64 8-34.5 8.28-16.56 21.09-27 39.61-30.37 12.25-2.24 24.34-1.12 36.41.5 14.87 2 29.64 4.84 44.62 5.84a181.84 181.84 0 0037.57-1.57c18.86-2.69 37.15-7.94 55.78-11.66 15.29-3.05 30.57-4.47 46-.8 15.59 3.72 26.95 13.08 35 26.56 9.73 16.33 12 34.29 10.58 52.93 0 .28-.33.53-.51.8-3.28-10.55-9.8-18.93-18.36-25.49-20-15.31-42-20.26-66-10.61-12.06 4.86-20.42 13.78-23.87 26.65-2.71 10.09-1.33 19.85 3.29 29.06A59.42 59.42 0 00301 302.27a10.05 10.05 0 004.46 7.82c7.51 5 15.83 5.86 24.44 4.59 7.14-1.05 13.81-3.32 18.27-9.63 4.97-1.27 8.95-4.5 13.41-6.76zm-144.35-44.71a21.82 21.82 0 00-6.1 1 26.87 26.87 0 00-11.47 5.8c-7.13 6.24-7 15.3.34 21.3 4.43 3.63 9.67 5.16 15.25 5.77 2.21.25 3.6 1.46 2.79 3.59-2.5 6.66-13.45 13.08-20.66 12.55-6-.45-10.94-3.31-15.44-7-2-1.63-2.76-.63-4 .84-1.55 1.78-.67 2.64.78 3.52 6.26 3.78 11.56 8.7 16.81 13.73a42.22 42.22 0 0014 8.8c5.55 2.17 11.24 3.1 17.19 1.83 9.72-2.07 16.54-8.21 22.25-15.85a11.32 11.32 0 015.42-4.31c4-1.43 7.38-4 10.7-6.68 2.13-1.7 2.19-2.79.18-4.72s-2.63-.1-3.62.75c-12.44 10.6-24.45 9.95-34.7-1.92-2.61-3-2-5.38 1.87-6.7a26.38 26.38 0 009.52-5.41c7.05-6.48 6.61-15.79-1.08-21.48-5.72-4.18-12.16-5.6-20.03-5.41z" />
                    <path id="prefix__RIGHT-OUTER-EYE" class="prefix__cls-4"
                        d="M298.61 307a59.31 59.31 0 01-30.5-30.17c-4.31-9.36-5.35-19.16-2.31-29.15 3.89-12.74 12.54-21.38 24.76-25.83 24.25-8.83 46.1-3.14 65.55 12.83 8.34 6.85 14.57 15.45 17.5 26.1-.79 16.06-6.19 30.62-14.33 44.3-4.54 2.1-8.63 5.19-13.63 6.3 1-3.45.79-6.69-2.07-9.22a20.8 20.8 0 00-4.75-3.34c-9.9-4.7-20.1-4.67-30.29-1.2-4.6 1.58-8.6 4.18-9.93 9.38zm20.54-18.18a29.66 29.66 0 10-29.62-29.53 29.59 29.59 0 0029.62 29.55z" />
                    <path id="prefix__LEFT-OUTER-EYE" class="prefix__cls-4"
                        d="M96 316.16c-4.4-.09-8.47-1.55-12.53-3-1-.37-1.91-1.07-3.07-.85l-.68-.7a110.64 110.64 0 01-17.66-46 61.94 61.94 0 01-.57-8 66 66 0 0125.65-31.11c17.32-11.1 35.77-15.2 55.59-7.25 16.73 6.71 26.71 25.48 23.89 43.34-2.87 18.18-12.75 31.6-27.18 42.22a12.12 12.12 0 01-1.73.86 14.53 14.53 0 00-7.85-7.8c-6.61-3.05-13.56-3.71-20.62-3-5.41.52-10.63 2-15.09 5.38-5.35 4.07-5.35 10.11 0 14.15a19.52 19.52 0 011.85 1.76zm49.58-58.36a29.66 29.66 0 10-29.67 29.74 29.44 29.44 0 0029.68-29.74z" />
                    <path id="prefix__RAINBOW" class="prefix__cls-1"
                        d="M264.11 523.94h-14c-6.39 0-8.64-2.27-8.62-8.56 0-12.2-8.71-22.62-20.05-23.89-12.87-1.44-23.78 6.18-26.64 18.58a23.82 23.82 0 00-.39 5.83c.09 5.37-2.1 7.94-7.45 8-10.09.14-20.19.12-30.28 0-5.34 0-7.76-2.48-7.78-7.86 0-17.21 5.13-32.7 16.4-45.77 14.29-16.57 32.55-24.74 54.49-24.48 30.38.35 58.14 22.77 65.17 52.65a67.3 67.3 0 012 17.38c-.16 5.71-2.41 8-8.17 8.1-4.91.08-9.79.02-14.68.02zm-81.32-6.17c5.33.22 5.32.22 5.62-4.91a24.72 24.72 0 01.4-3.55c3.18-15.28 16.33-25.23 31.65-24 15.13 1.24 26.64 13.36 27.06 29 .09 3.22 1.08 3.92 3.82 3.54.54-.07 1.08 0 1.62-.08 3.88.77 7.76 0 11.64 0 4.77 0 9.53 0 14.3.08 1.55 0 2.07-.57 2.11-2.09a50 50 0 00-.78-10.38c-4.83-25.74-19.48-43.48-44.62-50.9s-47.23-.46-65 18.87c-10.61 11.58-15.45 25.68-15.77 41.34 0 1.47-.38 3.19 2.08 3.15 4.87-.08 9.74-.08 14.61-.11 3.79.17 7.52.79 11.26.04z" />
                    <path id="prefix__NOSE" class="prefix__cls-1"
                        d="M216.52 255.53c7.87.07 14.27 1.71 19.76 6.07 7.49 5.94 7.61 15.26.35 21.5a26.36 26.36 0 01-9.7 5.09c-3.88 1.19-4.6 3.51-2.09 6.63 9.84 12.21 21.82 13.26 34.61 3.09 1-.81 1.76-2.55 3.65-.62s1.84 3.08-.34 4.7c-3.41 2.55-6.87 5-10.92 6.32a11.3 11.3 0 00-5.56 4.13c-6 7.43-13 13.34-22.79 15.08-6 1.07-11.63 0-17.11-2.41a42 42 0 01-13.65-9.27c-5.08-5.2-10.21-10.3-16.34-14.29-1.42-.93-2.27-1.81-.66-3.54 1.33-1.42 2.11-2.4 4.06-.7 4.38 3.81 9.19 6.83 15.21 7.48 7.18.78 18.34-5.27 21.07-11.84.87-2.11-.47-3.36-2.67-3.68-5.56-.8-10.75-2.51-15.05-6.28-7.13-6.25-7-15.31.38-21.31a27 27 0 0111.66-5.4 21.48 21.48 0 016.13-.75zm24.21 54.82A30 30 0 01221.34 299c-1.32-1.63-2.07-1.21-3.18.13a32.72 32.72 0 01-12 9.27c-3.43 1.53-7.12 1.88-11 2.22 16 15.77 33.48 15.72 45.57-.27z" />
                    <path id="prefix__LEFT-BROW" class="prefix__cls-2"
                        d="M96 316.16a19.52 19.52 0 00-1.84-1.8c-5.34-4-5.34-10.08 0-14.15 4.46-3.4 9.68-4.86 15.09-5.38 7.06-.68 14 0 20.62 3a14.53 14.53 0 017.85 7.8c.43 5.68-3.11 8.91-7.59 10.91a38.23 38.23 0 01-30.18.91c-1.28-.45-2.62-.85-3.95-1.29z" />
                    <path id="prefix__RIGHT-BROW" class="prefix__cls-2"
                        d="M298.61 307c1.33-5.22 5.33-7.82 9.93-9.38 10.19-3.47 20.39-3.5 30.29 1.2a20.8 20.8 0 014.75 3.34c2.86 2.53 3.06 5.77 2.07 9.22-4.67 6.15-11.41 8.19-18.59 9-8.64 1-16.93-.12-24.26-5.41a10 10 0 01-4.19-7.97z" />
                    <path id="prefix__RIGHT-EYE" class="prefix__cls-1"
                        d="M319.15 288.84A29.66 29.66 0 11348.83 259a29.54 29.54 0 01-29.68 29.84zm9.45-35.6a14 14 0 10-14 14.06 14 14 0 0014-14.06zM325.24 266a7.84 7.84 0 00-7.68 7.95 7.8 7.8 0 0015.59-.22 7.85 7.85 0 00-7.91-7.73z" />
                    <path class="prefix__cls-1"
                        d="M145.59 257.8a29.66 29.66 0 11-29.46-29.58 29.5 29.5 0 0129.46 29.58zm-28.08 7.66c-.51.81-1.35.49-2.06.56-4.22.38-7.24 3.15-7.64 7a8.06 8.06 0 006.13 8.42 7.89 7.89 0 008.79-4.5c1.63-3.69.45-7.33-3.09-9.91-.23-.17-2.06.09-.79-1.22a7 7 0 003.27 0 1.17 1.17 0 001.34-.39l1.25-.21.82-.4a13.73 13.73 0 008.81-15.17 14.05 14.05 0 00-27.73.3 13.74 13.74 0 008.85 14.85l.76.41z" />
                    <path id="prefix__MOUTH" class="prefix__cls-4"
                        d="M240.73 310.35c-12.09 16-29.57 16-45.58.22 3.9-.34 7.59-.69 11-2.22a32.72 32.72 0 0012-9.27c1.11-1.34 1.86-1.76 3.18-.13a30 30 0 0019.4 11.4z" />
                </g>
            </g>
        </g>
    </g>
</svg>